<?xml version="1.0" encoding="utf-8"?>
<!-- Generator: Adobe Illustrator 16.0.3, SVG Export Plug-In . SVG Version: 6.00 Build 0)  -->
<!DOCTYPE svg PUBLIC "-//W3C//DTD SVG 1.1//EN" "http://www.w3.org/Graphics/SVG/1.1/DTD/svg11.dtd">
<svg version="1.1" id="レイヤー_1" xmlns="http://www.w3.org/2000/svg" xmlns:xlink="http://www.w3.org/1999/xlink" x="0px"
	 y="0px" width="381px" height="243px" viewBox="0 0 381 243" enable-background="new 0 0 381 243" xml:space="preserve">
<g>
	<g>
		<rect x="3" y="3" fill="#FFFFFF" width="375" height="237"/>
		<path fill="#7E5B45" d="M378,243H3c-1.657,0-3-1.344-3-3V3c0-1.657,1.343-3,3-3h375c1.657,0,3,1.343,3,3v237
			C381,241.656,379.657,243,378,243z M6,237h369V6H6V237z"/>
	</g>
	<g>
		<path fill="#7E5B45" d="M365,211H263c-1.104,0-2-0.896-2-2V21c0-1.104,0.896-2,2-2h102c1.104,0,2,0.896,2,2v188
			C367,210.104,366.104,211,365,211z M265,207h98V23h-98V207z"/>
	</g>
	<g>
		<path fill="#7E5B45" d="M356.5,73h-86c-0.828,0-1.5-0.671-1.5-1.5v-13c0-0.829,0.672-1.5,1.5-1.5h86c0.828,0,1.5,0.671,1.5,1.5v13
			C358,72.329,357.328,73,356.5,73z M272,70h83V60h-83V70z"/>
	</g>
	<g>
		<path fill="#7E5B45" d="M344.5,72.5c-0.828,0-1.5-0.671-1.5-1.5V59c0-0.829,0.672-1.5,1.5-1.5s1.5,0.671,1.5,1.5v12
			C346,71.829,345.328,72.5,344.5,72.5z"/>
	</g>
	<g>
		<g>
			<path fill="#7E5B45" d="M270,39v-9h9v9H270z M278,37v-6h-6v6H278z"/>
			<path fill="#7E5B45" d="M278.633,30.365v7.76h-7.761v-7.76H278.633z M271.196,30.689v7.112h7.112v-7.112H271.196z"/>
		</g>
		<g>
			<path fill="#7E5B45" d="M280,39v-9h9v9H280z M288,37v-6h-7v6H288z"/>
			<path fill="#7E5B45" d="M288.367,30.365v7.76h-7.761v-7.76H288.367z M280.931,30.689v7.112h7.112v-7.112H280.931z"/>
		</g>
		<g>
			<path fill="#7E5B45" d="M290,39v-9h9v9H290z M297,37v-6h-6v6H297z"/>
			<path fill="#7E5B45" d="M298.102,30.365v7.76h-7.761v-7.76H298.102z M290.665,30.689v7.112h7.112v-7.112H290.665z"/>
		</g>
		<g>
			<path fill="#7E5B45" d="M300,39v-9h8v9H300z M307,37v-6h-6v6H307z"/>
			<path fill="#7E5B45" d="M307.836,30.365v7.76h-7.761v-7.76H307.836z M300.399,30.689v7.112h7.112v-7.112H300.399z"/>
		</g>
		<g>
			<path fill="#7E5B45" d="M309,39v-9h9v9H309z M317,37v-6h-6v6H317z"/>
			<path fill="#7E5B45" d="M317.57,30.365v7.76h-7.761v-7.76H317.57z M310.134,30.689v7.112h7.112v-7.112H310.134z"/>
		</g>
		<g>
			<path fill="#7E5B45" d="M319,39v-9h9v9H319z M326,37v-6h-6v6H326z"/>
			<path fill="#7E5B45" d="M327.305,30.365v7.76h-7.761v-7.76H327.305z M319.868,30.689v7.112h7.112v-7.112H319.868z"/>
		</g>
		<g>
			<path fill="#7E5B45" d="M329,39v-9h9v9H329z M336,37v-6h-6v6H336z"/>
			<path fill="#7E5B45" d="M337.039,30.365v7.76h-7.761v-7.76H337.039z M329.603,30.689v7.112h7.112v-7.112H329.603z"/>
		</g>
		<g>
			<path fill="#7E5B45" d="M339,39v-9h8v9H339z M346,37v-6h-6v6H346z"/>
			<path fill="#7E5B45" d="M346.773,30.365v7.76h-7.761v-7.76H346.773z M339.337,30.689v7.112h7.112v-7.112H339.337z"/>
		</g>
		<g>
			<path fill="#7E5B45" d="M348,39v-9h9v9H348z M356,37v-6h-6v6H356z"/>
			<path fill="#7E5B45" d="M356.508,30.365v7.76h-7.761v-7.76H356.508z M349.071,30.689v7.112h7.112v-7.112H349.071z"/>
		</g>
	</g>
	<g>
		<g>
			<path fill="#7E5B45" d="M270,88v-9h9v9H270z M278,86v-6h-6v6H278z"/>
			<path fill="#7E5B45" d="M278.633,79.365v7.76h-7.761v-7.76H278.633z M271.196,79.689v7.112h7.112v-7.112H271.196z"/>
		</g>
		<g>
			<path fill="#7E5B45" d="M280,88v-9h9v9H280z M288,86v-6h-7v6H288z"/>
			<path fill="#7E5B45" d="M288.367,79.365v7.76h-7.761v-7.76H288.367z M280.931,79.689v7.112h7.112v-7.112H280.931z"/>
		</g>
		<g>
			<path fill="#7E5B45" d="M290,88v-9h9v9H290z M297,86v-6h-6v6H297z"/>
			<path fill="#7E5B45" d="M298.102,79.365v7.76h-7.761v-7.76H298.102z M290.665,79.689v7.112h7.112v-7.112H290.665z"/>
		</g>
		<g>
			<path fill="#7E5B45" d="M300,88v-9h8v9H300z M307,86v-6h-6v6H307z"/>
			<path fill="#7E5B45" d="M307.836,79.365v7.76h-7.761v-7.76H307.836z M300.399,79.689v7.112h7.112v-7.112H300.399z"/>
		</g>
		<g>
			<path fill="#7E5B45" d="M309,88v-9h9v9H309z M317,86v-6h-6v6H317z"/>
			<path fill="#7E5B45" d="M317.57,79.365v7.76h-7.761v-7.76H317.57z M310.134,79.689v7.112h7.112v-7.112H310.134z"/>
		</g>
		<g>
			<path fill="#7E5B45" d="M319,88v-9h9v9H319z M326,86v-6h-6v6H326z"/>
			<path fill="#7E5B45" d="M327.305,79.365v7.76h-7.761v-7.76H327.305z M319.868,79.689v7.112h7.112v-7.112H319.868z"/>
		</g>
		<g>
			<path fill="#7E5B45" d="M329,88v-9h9v9H329z M336,86v-6h-6v6H336z"/>
			<path fill="#7E5B45" d="M337.039,79.365v7.76h-7.761v-7.76H337.039z M329.603,79.689v7.112h7.112v-7.112H329.603z"/>
		</g>
		<g>
			<path fill="#7E5B45" d="M339,88v-9h8v9H339z M346,86v-6h-6v6H346z"/>
			<path fill="#7E5B45" d="M346.773,79.365v7.76h-7.761v-7.76H346.773z M339.337,79.689v7.112h7.112v-7.112H339.337z"/>
		</g>
		<g>
			<path fill="#7E5B45" d="M348,88v-9h9v9H348z M356,86v-6h-6v6H356z"/>
			<path fill="#7E5B45" d="M356.508,79.365v7.76h-7.761v-7.76H356.508z M349.071,79.689v7.112h7.112v-7.112H349.071z"/>
		</g>
	</g>
	<g>
		<g>
			<path fill="#7E5B45" d="M140,210v-8h9v8H140z M148,209v-6h-6v6H148z"/>
			<path fill="#7E5B45" d="M148.633,202.032v7.761h-7.761v-7.761H148.633z M141.196,202.356v7.112h7.112v-7.112H141.196z"/>
		</g>
		<g>
			<path fill="#7E5B45" d="M150,210v-8h9v8H150z M158,209v-6h-7v6H158z"/>
			<path fill="#7E5B45" d="M158.367,202.032v7.761h-7.761v-7.761H158.367z M150.931,202.356v7.112h7.112v-7.112H150.931z"/>
		</g>
		<g>
			<path fill="#7E5B45" d="M160,210v-8h9v8H160z M167,209v-6h-6v6H167z"/>
			<path fill="#7E5B45" d="M168.102,202.032v7.761h-7.761v-7.761H168.102z M160.665,202.356v7.112h7.112v-7.112H160.665z"/>
		</g>
		<g>
			<path fill="#7E5B45" d="M170,210v-8h8v8H170z M177,209v-6h-6v6H177z"/>
			<path fill="#7E5B45" d="M177.836,202.032v7.761h-7.761v-7.761H177.836z M170.399,202.356v7.112h7.112v-7.112H170.399z"/>
		</g>
		<g>
			<path fill="#7E5B45" d="M179,210v-8h9v8H179z M187,209v-6h-6v6H187z"/>
			<path fill="#7E5B45" d="M187.57,202.032v7.761h-7.761v-7.761H187.57z M180.134,202.356v7.112h7.112v-7.112H180.134z"/>
		</g>
		<g>
			<path fill="#7E5B45" d="M189,210v-8h9v8H189z M196,209v-6h-6v6H196z"/>
			<path fill="#7E5B45" d="M197.305,202.032v7.761h-7.761v-7.761H197.305z M189.868,202.356v7.112h7.112v-7.112H189.868z"/>
		</g>
		<g>
			<path fill="#7E5B45" d="M199,210v-8h9v8H199z M206,209v-6h-6v6H206z"/>
			<path fill="#7E5B45" d="M207.039,202.032v7.761h-7.761v-7.761H207.039z M199.603,202.356v7.112h7.112v-7.112H199.603z"/>
		</g>
		<g>
			<path fill="#7E5B45" d="M209,210v-8h8v8H209z M216,209v-6h-6v6H216z"/>
			<path fill="#7E5B45" d="M216.773,202.032v7.761h-7.761v-7.761H216.773z M209.337,202.356v7.112h7.112v-7.112H209.337z"/>
		</g>
		<g>
			<path fill="#7E5B45" d="M218,210v-8h9v8H218z M226,209v-6h-6v6H226z"/>
			<path fill="#7E5B45" d="M226.508,202.032v7.761h-7.761v-7.761H226.508z M219.071,202.356v7.112h7.112v-7.112H219.071z"/>
		</g>
	</g>
	<g>
		<g>
			<path fill="#7E5B45" d="M270,115v-9h9v9H270z M278,113v-6h-6v6H278z"/>
			<path fill="#7E5B45" d="M278.633,106.449v7.76h-7.761v-7.76H278.633z M271.196,106.773v7.112h7.112v-7.112H271.196z"/>
		</g>
		<g>
			<path fill="#7E5B45" d="M280,115v-9h9v9H280z M288,113v-6h-7v6H288z"/>
			<path fill="#7E5B45" d="M288.367,106.449v7.76h-7.761v-7.76H288.367z M280.931,106.773v7.112h7.112v-7.112H280.931z"/>
		</g>
		<g>
			<path fill="#7E5B45" d="M290,115v-9h9v9H290z M297,113v-6h-6v6H297z"/>
			<path fill="#7E5B45" d="M298.102,106.449v7.76h-7.761v-7.76H298.102z M290.665,106.773v7.112h7.112v-7.112H290.665z"/>
		</g>
		<g>
			<path fill="#7E5B45" d="M300,115v-9h8v9H300z M307,113v-6h-6v6H307z"/>
			<path fill="#7E5B45" d="M307.836,106.449v7.76h-7.761v-7.76H307.836z M300.399,106.773v7.112h7.112v-7.112H300.399z"/>
		</g>
	</g>
	<g>
		<g>
			<path fill="#7E5B45" d="M270,126v-7h7v7H270z M276,125v-4h-5v4H276z"/>
			<path fill="#7E5B45" d="M276.771,119.82v6.038h-6.037v-6.038H276.771z M270.986,120.072v5.533h5.533v-5.533H270.986z"/>
		</g>
		<g>
			<path fill="#7E5B45" d="M278,126v-7h7v7H278z M284,125v-4h-5v4H284z"/>
			<path fill="#7E5B45" d="M284.406,119.82v6.038h-6.037v-6.038H284.406z M278.621,120.072v5.533h5.533v-5.533H278.621z"/>
		</g>
		<g>
			<path fill="#7E5B45" d="M286,126v-7h7v7H286z M291,125v-4h-4v4H291z"/>
			<path fill="#7E5B45" d="M292.04,119.82v6.038h-6.037v-6.038H292.04z M286.255,120.072v5.533h5.533v-5.533H286.255z"/>
		</g>
		<g>
			<path fill="#7E5B45" d="M293,126v-7h7v7H293z M299,125v-4h-5v4H299z"/>
			<path fill="#7E5B45" d="M299.675,119.82v6.038h-6.037v-6.038H299.675z M293.89,120.072v5.533h5.533v-5.533H293.89z"/>
		</g>
	</g>
	<g>
		<g>
			<path fill="#7E5B45" d="M266,223v-7h7v7H266z M272,221v-4h-5v4H272z"/>
			<path fill="#7E5B45" d="M272.27,216.154v6.037h-6.037v-6.037H272.27z M266.484,216.406v5.533h5.533v-5.533H266.484z"/>
		</g>
		<g>
			<path fill="#7E5B45" d="M273,223v-7h7v7H273z M279,221v-4h-4v4H279z"/>
			<path fill="#7E5B45" d="M279.903,216.154v6.037h-6.037v-6.037H279.903z M274.118,216.406v5.533h5.533v-5.533H274.118z"/>
		</g>
		<g>
			<path fill="#7E5B45" d="M281,223v-7h7v7H281z M287,221v-4h-5v4H287z"/>
			<path fill="#7E5B45" d="M287.538,216.154v6.037h-6.037v-6.037H287.538z M281.753,216.406v5.533h5.533v-5.533H281.753z"/>
		</g>
		<g>
			<path fill="#7E5B45" d="M289,223v-7h7v7H289z M294,221v-4h-4v4H294z"/>
			<path fill="#7E5B45" d="M295.172,216.154v6.037h-6.037v-6.037H295.172z M289.387,216.406v5.533h5.533v-5.533H289.387z"/>
		</g>
		<g>
			<path fill="#7E5B45" d="M296,223v-7h7v7H296z M302,221v-4h-4v4H302z"/>
			<path fill="#7E5B45" d="M302.806,216.154v6.037h-6.037v-6.037H302.806z M297.021,216.406v5.533h5.533v-5.533H297.021z"/>
		</g>
		<g>
			<path fill="#7E5B45" d="M304,223v-7h7v7H304z M310,221v-4h-5v4H310z"/>
			<path fill="#7E5B45" d="M310.44,216.154v6.037h-6.037v-6.037H310.44z M304.655,216.406v5.533h5.533v-5.533H304.655z"/>
		</g>
		<g>
			<path fill="#7E5B45" d="M312,223v-7h7v7H312z M317,221v-4h-4v4H317z"/>
			<path fill="#7E5B45" d="M318.074,216.154v6.037h-6.037v-6.037H318.074z M312.289,216.406v5.533h5.533v-5.533H312.289z"/>
		</g>
		<g>
			<path fill="#7E5B45" d="M319,223v-7h7v7H319z M325,221v-4h-5v4H325z"/>
			<path fill="#7E5B45" d="M325.709,216.154v6.037h-6.037v-6.037H325.709z M319.924,216.406v5.533h5.533v-5.533H319.924z"/>
		</g>
		<g>
			<path fill="#7E5B45" d="M266,232v-7h7v7H266z M272,230v-4h-5v4H272z"/>
			<path fill="#7E5B45" d="M272.27,225.154v6.037h-6.037v-6.037H272.27z M266.484,225.406v5.533h5.533v-5.533H266.484z"/>
		</g>
		<g>
			<path fill="#7E5B45" d="M273,232v-7h7v7H273z M279,230v-4h-4v4H279z"/>
			<path fill="#7E5B45" d="M279.903,225.154v6.037h-6.037v-6.037H279.903z M274.118,225.406v5.533h5.533v-5.533H274.118z"/>
		</g>
		<g>
			<path fill="#7E5B45" d="M281,232v-7h7v7H281z M287,230v-4h-5v4H287z"/>
			<path fill="#7E5B45" d="M287.538,225.154v6.037h-6.037v-6.037H287.538z M281.753,225.406v5.533h5.533v-5.533H281.753z"/>
		</g>
		<g>
			<path fill="#7E5B45" d="M289,232v-7h7v7H289z M294,230v-4h-4v4H294z"/>
			<path fill="#7E5B45" d="M295.172,225.154v6.037h-6.037v-6.037H295.172z M289.387,225.406v5.533h5.533v-5.533H289.387z"/>
		</g>
		<g>
			<path fill="#7E5B45" d="M296,232v-7h7v7H296z M302,230v-4h-4v4H302z"/>
			<path fill="#7E5B45" d="M302.806,225.154v6.037h-6.037v-6.037H302.806z M297.021,225.406v5.533h5.533v-5.533H297.021z"/>
		</g>
		<g>
			<path fill="#7E5B45" d="M304,232v-7h7v7H304z M310,230v-4h-5v4H310z"/>
			<path fill="#7E5B45" d="M310.44,225.154v6.037h-6.037v-6.037H310.44z M304.655,225.406v5.533h5.533v-5.533H304.655z"/>
		</g>
		<g>
			<path fill="#7E5B45" d="M312,232v-7h7v7H312z M317,230v-4h-4v4H317z"/>
			<path fill="#7E5B45" d="M318.074,225.154v6.037h-6.037v-6.037H318.074z M312.289,225.406v5.533h5.533v-5.533H312.289z"/>
		</g>
		<g>
			<path fill="#7E5B45" d="M319,232v-7h7v7H319z M325,230v-4h-5v4H325z"/>
			<path fill="#7E5B45" d="M325.709,225.154v6.037h-6.037v-6.037H325.709z M319.924,225.406v5.533h5.533v-5.533H319.924z"/>
		</g>
		<g>
			<path fill="#7E5B45" d="M327,232v-7h7v7H327z M333,230v-4h-5v4H333z"/>
			<path fill="#7E5B45" d="M333.343,225.154v6.037h-6.037v-6.037H333.343z M327.558,225.406v5.533h5.533v-5.533H327.558z"/>
		</g>
		<g>
			<path fill="#7E5B45" d="M334,232v-7h7v7H334z M340,230v-4h-4v4H340z"/>
			<path fill="#7E5B45" d="M340.978,225.154v6.037h-6.037v-6.037H340.978z M335.192,225.406v5.533h5.533v-5.533H335.192z"/>
		</g>
		<g>
			<path fill="#7E5B45" d="M342,232v-7h7v7H342z M348,230v-4h-5v4H348z"/>
			<path fill="#7E5B45" d="M348.611,225.154v6.037h-6.037v-6.037H348.611z M342.826,225.406v5.533h5.533v-5.533H342.826z"/>
		</g>
		<g>
			<path fill="#7E5B45" d="M350,232v-7h7v7H350z M355,230v-4h-4v4H355z"/>
			<path fill="#7E5B45" d="M356.245,225.154v6.037h-6.037v-6.037H356.245z M350.46,225.406v5.533h5.533v-5.533H350.46z"/>
		</g>
	</g>
	<g>
		<g>
			<path fill="#7E5B45" d="M270,103v-7h7v7H270z M276,102v-5h-5v5H276z"/>
			<path fill="#7E5B45" d="M276.771,96.652v6.038h-6.037v-6.038H276.771z M270.986,96.905v5.533h5.533v-5.533H270.986z"/>
		</g>
		<g>
			<path fill="#7E5B45" d="M278,103v-7h7v7H278z M284,102v-5h-5v5H284z"/>
			<path fill="#7E5B45" d="M284.406,96.652v6.038h-6.037v-6.038H284.406z M278.621,96.905v5.533h5.533v-5.533H278.621z"/>
		</g>
		<g>
			<path fill="#7E5B45" d="M286,103v-7h7v7H286z M291,102v-5h-4v5H291z"/>
			<path fill="#7E5B45" d="M292.04,96.652v6.038h-6.037v-6.038H292.04z M286.255,96.905v5.533h5.533v-5.533H286.255z"/>
		</g>
		<g>
			<path fill="#7E5B45" d="M293,103v-7h7v7H293z M299,102v-5h-5v5H299z"/>
			<path fill="#7E5B45" d="M299.675,96.652v6.038h-6.037v-6.038H299.675z M293.89,96.905v5.533h5.533v-5.533H293.89z"/>
		</g>
	</g>
	<g>
		<g>
			<path fill="#7E5B45" d="M55,61v-7h7v7H55z M60,59v-4h-4v4H60z"/>
			<path fill="#7E5B45" d="M61.105,54.21v6.038h-6.037V54.21H61.105z M55.32,54.463v5.533h5.533v-5.533H55.32z"/>
		</g>
		<g>
			<path fill="#7E5B45" d="M62,61v-7h7v7H62z M68,59v-4h-5v4H68z"/>
			<path fill="#7E5B45" d="M68.739,54.21v6.038h-6.037V54.21H68.739z M62.954,54.463v5.533h5.533v-5.533H62.954z"/>
		</g>
		<g>
			<path fill="#7E5B45" d="M70,61v-7h7v7H70z M76,59v-4h-5v4H76z"/>
			<path fill="#7E5B45" d="M76.374,54.21v6.038h-6.037V54.21H76.374z M70.589,54.463v5.533h5.533v-5.533H70.589z"/>
		</g>
		<g>
			<path fill="#7E5B45" d="M77,61v-7h8v7H77z M83,59v-4h-4v4H83z"/>
			<path fill="#7E5B45" d="M84.008,54.21v6.038h-6.037V54.21H84.008z M78.223,54.463v5.533h5.533v-5.533H78.223z"/>
		</g>
		<g>
			<path fill="#7E5B45" d="M85,61v-7h7v7H85z M91,59v-4h-5v4H91z"/>
			<path fill="#7E5B45" d="M91.642,54.21v6.038h-6.037V54.21H91.642z M85.856,54.463v5.533h5.533v-5.533H85.856z"/>
		</g>
		<g>
			<path fill="#7E5B45" d="M93,61v-7h7v7H93z M99,59v-4h-5v4H99z"/>
			<path fill="#7E5B45" d="M99.276,54.21v6.038h-6.037V54.21H99.276z M93.491,54.463v5.533h5.533v-5.533H93.491z"/>
		</g>
		<g>
			<path fill="#7E5B45" d="M100,61v-7h7v7H100z M106,59v-4h-4v4H106z"/>
			<path fill="#7E5B45" d="M106.91,54.21v6.038h-6.037V54.21H106.91z M101.125,54.463v5.533h5.533v-5.533H101.125z"/>
		</g>
		<g>
			<path fill="#7E5B45" d="M108,61v-7h7v7H108z M114,59v-4h-5v4H114z"/>
			<path fill="#7E5B45" d="M114.545,54.21v6.038h-6.037V54.21H114.545z M108.76,54.463v5.533h5.533v-5.533H108.76z"/>
		</g>
		<g>
			<path fill="#7E5B45" d="M55,70v-7h7v7H55z M60,68v-4h-4v4H60z"/>
			<path fill="#7E5B45" d="M61.105,63.21v6.038h-6.037V63.21H61.105z M55.32,63.463v5.533h5.533v-5.533H55.32z"/>
		</g>
		<g>
			<path fill="#7E5B45" d="M62,70v-7h7v7H62z M68,68v-4h-5v4H68z"/>
			<path fill="#7E5B45" d="M68.739,63.21v6.038h-6.037V63.21H68.739z M62.954,63.463v5.533h5.533v-5.533H62.954z"/>
		</g>
		<g>
			<path fill="#7E5B45" d="M70,70v-7h7v7H70z M76,68v-4h-5v4H76z"/>
			<path fill="#7E5B45" d="M76.374,63.21v6.038h-6.037V63.21H76.374z M70.589,63.463v5.533h5.533v-5.533H70.589z"/>
		</g>
		<g>
			<path fill="#7E5B45" d="M77,70v-7h8v7H77z M83,68v-4h-4v4H83z"/>
			<path fill="#7E5B45" d="M84.008,63.21v6.038h-6.037V63.21H84.008z M78.223,63.463v5.533h5.533v-5.533H78.223z"/>
		</g>
		<g>
			<path fill="#7E5B45" d="M85,70v-7h7v7H85z M91,68v-4h-5v4H91z"/>
			<path fill="#7E5B45" d="M91.642,63.21v6.038h-6.037V63.21H91.642z M85.856,63.463v5.533h5.533v-5.533H85.856z"/>
		</g>
		<g>
			<path fill="#7E5B45" d="M93,70v-7h7v7H93z M99,68v-4h-5v4H99z"/>
			<path fill="#7E5B45" d="M99.276,63.21v6.038h-6.037V63.21H99.276z M93.491,63.463v5.533h5.533v-5.533H93.491z"/>
		</g>
		<g>
			<path fill="#7E5B45" d="M100,70v-7h7v7H100z M106,68v-4h-4v4H106z"/>
			<path fill="#7E5B45" d="M106.91,63.21v6.038h-6.037V63.21H106.91z M101.125,63.463v5.533h5.533v-5.533H101.125z"/>
		</g>
		<g>
			<path fill="#7E5B45" d="M108,70v-7h7v7H108z M114,68v-4h-5v4H114z"/>
			<path fill="#7E5B45" d="M114.545,63.21v6.038h-6.037V63.21H114.545z M108.76,63.463v5.533h5.533v-5.533H108.76z"/>
		</g>
	</g>
	<g>
		<g>
			<path fill="#7E5B45" d="M16,128v-7h7v7H16z M22,126v-4h-4v4H22z"/>
			<path fill="#7E5B45" d="M22.938,121.044v6.038h-6.037v-6.038H22.938z M17.153,121.296v5.533h5.533v-5.533H17.153z"/>
		</g>
		<g>
			<path fill="#7E5B45" d="M24,128v-7h7v7H24z M30,126v-4h-5v4H30z"/>
			<path fill="#7E5B45" d="M30.572,121.044v6.038h-6.037v-6.038H30.572z M24.787,121.296v5.533h5.533v-5.533H24.787z"/>
		</g>
		<g>
			<path fill="#7E5B45" d="M32,128v-7h7v7H32z M37,126v-4h-4v4H37z"/>
			<path fill="#7E5B45" d="M38.207,121.044v6.038H32.17v-6.038H38.207z M32.422,121.296v5.533h5.533v-5.533H32.422z"/>
		</g>
		<g>
			<path fill="#7E5B45" d="M39,128v-7h7v7H39z M45,126v-4h-4v4H45z"/>
			<path fill="#7E5B45" d="M45.841,121.044v6.038h-6.037v-6.038H45.841z M40.056,121.296v5.533h5.533v-5.533H40.056z"/>
		</g>
		<g>
			<path fill="#7E5B45" d="M47,128v-7h7v7H47z M53,126v-4h-5v4H53z"/>
			<path fill="#7E5B45" d="M53.475,121.044v6.038h-6.037v-6.038H53.475z M47.689,121.296v5.533h5.533v-5.533H47.689z"/>
		</g>
		<g>
			<path fill="#7E5B45" d="M16,146v-7h7v7H16z M22,144v-4h-4v4H22z"/>
			<path fill="#7E5B45" d="M22.938,139.044v6.038h-6.037v-6.038H22.938z M17.153,139.297v5.532h5.533v-5.532H17.153z"/>
		</g>
		<g>
			<path fill="#7E5B45" d="M24,146v-7h7v7H24z M30,144v-4h-5v4H30z"/>
			<path fill="#7E5B45" d="M30.572,139.044v6.038h-6.037v-6.038H30.572z M24.787,139.297v5.532h5.533v-5.532H24.787z"/>
		</g>
		<g>
			<path fill="#7E5B45" d="M32,146v-7h7v7H32z M37,144v-4h-4v4H37z"/>
			<path fill="#7E5B45" d="M38.207,139.044v6.038H32.17v-6.038H38.207z M32.422,139.297v5.532h5.533v-5.532H32.422z"/>
		</g>
		<g>
			<path fill="#7E5B45" d="M39,146v-7h7v7H39z M45,144v-4h-4v4H45z"/>
			<path fill="#7E5B45" d="M45.841,139.044v6.038h-6.037v-6.038H45.841z M40.056,139.297v5.532h5.533v-5.532H40.056z"/>
		</g>
		<g>
			<path fill="#7E5B45" d="M47,146v-7h7v7H47z M53,144v-4h-5v4H53z"/>
			<path fill="#7E5B45" d="M53.475,139.044v6.038h-6.037v-6.038H53.475z M47.689,139.297v5.532h5.533v-5.532H47.689z"/>
		</g>
		<g>
			<path fill="#7E5B45" d="M16,164v-7h7v7H16z M22,162v-4h-4v4H22z"/>
			<path fill="#7E5B45" d="M22.938,157.044v6.038h-6.037v-6.038H22.938z M17.153,157.297v5.532h5.533v-5.532H17.153z"/>
		</g>
		<g>
			<path fill="#7E5B45" d="M24,164v-7h7v7H24z M30,162v-4h-5v4H30z"/>
			<path fill="#7E5B45" d="M30.572,157.044v6.038h-6.037v-6.038H30.572z M24.787,157.297v5.532h5.533v-5.532H24.787z"/>
		</g>
		<g>
			<path fill="#7E5B45" d="M32,164v-7h7v7H32z M37,162v-4h-4v4H37z"/>
			<path fill="#7E5B45" d="M38.207,157.044v6.038H32.17v-6.038H38.207z M32.422,157.297v5.532h5.533v-5.532H32.422z"/>
		</g>
		<g>
			<path fill="#7E5B45" d="M39,164v-7h7v7H39z M45,162v-4h-4v4H45z"/>
			<path fill="#7E5B45" d="M45.841,157.044v6.038h-6.037v-6.038H45.841z M40.056,157.297v5.532h5.533v-5.532H40.056z"/>
		</g>
		<g>
			<path fill="#7E5B45" d="M47,164v-7h7v7H47z M53,162v-4h-5v4H53z"/>
			<path fill="#7E5B45" d="M53.475,157.044v6.038h-6.037v-6.038H53.475z M47.689,157.297v5.532h5.533v-5.532H47.689z"/>
		</g>
	</g>
	<g>
		<g>
			<path fill="#7E5B45" d="M16,89v-7h7v7H16z M22,87v-4h-4v4H22z"/>
			<path fill="#7E5B45" d="M22.938,82.044v6.038h-6.037v-6.038H22.938z M17.153,82.296v5.533h5.533v-5.533H17.153z"/>
		</g>
		<g>
			<path fill="#7E5B45" d="M24,89v-7h7v7H24z M30,87v-4h-5v4H30z"/>
			<path fill="#7E5B45" d="M30.572,82.044v6.038h-6.037v-6.038H30.572z M24.787,82.296v5.533h5.533v-5.533H24.787z"/>
		</g>
		<g>
			<path fill="#7E5B45" d="M32,89v-7h7v7H32z M37,87v-4h-4v4H37z"/>
			<path fill="#7E5B45" d="M38.207,82.044v6.038H32.17v-6.038H38.207z M32.422,82.296v5.533h5.533v-5.533H32.422z"/>
		</g>
	</g>
	<g>
		<g>
			<path fill="#7E5B45" d="M142,91v-8h7v8H142z M148,89v-4h-4v4H148z"/>
			<path fill="#7E5B45" d="M148.938,83.986v6.038H142.9v-6.038H148.938z M143.152,84.239v5.533h5.533v-5.533H143.152z"/>
		</g>
		<g>
			<path fill="#7E5B45" d="M150,91v-8h7v8H150z M156,89v-4h-5v4H156z"/>
			<path fill="#7E5B45" d="M156.572,83.986v6.038h-6.037v-6.038H156.572z M150.787,84.239v5.533h5.533v-5.533H150.787z"/>
		</g>
		<g>
			<path fill="#7E5B45" d="M158,91v-8h7v8H158z M163,89v-4h-4v4H163z"/>
			<path fill="#7E5B45" d="M164.206,83.986v6.038h-6.037v-6.038H164.206z M158.421,84.239v5.533h5.533v-5.533H158.421z"/>
		</g>
		<g>
			<path fill="#7E5B45" d="M165,91v-8h7v8H165z M171,89v-4h-4v4H171z"/>
			<path fill="#7E5B45" d="M171.841,83.986v6.038h-6.037v-6.038H171.841z M166.056,84.239v5.533h5.533v-5.533H166.056z"/>
		</g>
		<g>
			<path fill="#7E5B45" d="M173,91v-8h7v8H173z M179,89v-4h-5v4H179z"/>
			<path fill="#7E5B45" d="M179.475,83.986v6.038h-6.037v-6.038H179.475z M173.689,84.239v5.533h5.533v-5.533H173.689z"/>
		</g>
		<g>
			<path fill="#7E5B45" d="M181,91v-8h7v8H181z M186,89v-4h-4v4H186z"/>
			<path fill="#7E5B45" d="M187.108,83.986v6.038h-6.037v-6.038H187.108z M181.323,84.239v5.533h5.533v-5.533H181.323z"/>
		</g>
		<g>
			<path fill="#7E5B45" d="M188,91v-8h7v8H188z M194,89v-4h-5v4H194z"/>
			<path fill="#7E5B45" d="M194.743,83.986v6.038h-6.037v-6.038H194.743z M188.958,84.239v5.533h5.533v-5.533H188.958z"/>
		</g>
	</g>
	<g>
		<g>
			<path fill="#7E5B45" d="M151,123v-7h7v7H151z M157,122v-5h-5v5H157z"/>
			<path fill="#7E5B45" d="M157.271,116.32v6.038h-6.037v-6.038H157.271z M151.486,116.572v5.533h5.533v-5.533H151.486z"/>
		</g>
		<g>
			<path fill="#7E5B45" d="M158,123v-7h7v7H158z M164,122v-5h-4v5H164z"/>
			<path fill="#7E5B45" d="M164.905,116.32v6.038h-6.037v-6.038H164.905z M159.12,116.572v5.533h5.533v-5.533H159.12z"/>
		</g>
		<g>
			<path fill="#7E5B45" d="M166,123v-7h7v7H166z M172,122v-5h-5v5H172z"/>
			<path fill="#7E5B45" d="M172.54,116.32v6.038h-6.037v-6.038H172.54z M166.755,116.572v5.533h5.533v-5.533H166.755z"/>
		</g>
		<g>
			<path fill="#7E5B45" d="M151,132v-7h7v7H151z M157,131v-5h-5v5H157z"/>
			<path fill="#7E5B45" d="M157.271,125.32v6.037h-6.037v-6.037H157.271z M151.486,125.572v5.533h5.533v-5.533H151.486z"/>
		</g>
		<g>
			<path fill="#7E5B45" d="M158,132v-7h7v7H158z M164,131v-5h-4v5H164z"/>
			<path fill="#7E5B45" d="M164.905,125.32v6.037h-6.037v-6.037H164.905z M159.12,125.572v5.533h5.533v-5.533H159.12z"/>
		</g>
		<g>
			<path fill="#7E5B45" d="M166,132v-7h7v7H166z M172,131v-5h-5v5H172z"/>
			<path fill="#7E5B45" d="M172.54,125.32v6.037h-6.037v-6.037H172.54z M166.755,125.572v5.533h5.533v-5.533H166.755z"/>
		</g>
		<g>
			<path fill="#7E5B45" d="M174,132v-7h7v7H174z M179,131v-5h-4v5H179z"/>
			<path fill="#7E5B45" d="M180.174,125.32v6.037h-6.037v-6.037H180.174z M174.389,125.572v5.533h5.533v-5.533H174.389z"/>
		</g>
	</g>
	<g>
		<g>
			<path fill="#7E5B45" d="M16,66v-7h7v7H16z M22,64v-4h-4v4H22z"/>
			<path fill="#7E5B45" d="M22.938,59.094v6.038h-6.037v-6.038H22.938z M17.153,59.347v5.533h5.533v-5.533H17.153z"/>
		</g>
		<g>
			<path fill="#7E5B45" d="M24,66v-7h7v7H24z M30,64v-4h-5v4H30z"/>
			<path fill="#7E5B45" d="M30.572,59.094v6.038h-6.037v-6.038H30.572z M24.787,59.347v5.533h5.533v-5.533H24.787z"/>
		</g>
		<g>
			<path fill="#7E5B45" d="M32,66v-7h7v7H32z M37,64v-4h-4v4H37z"/>
			<path fill="#7E5B45" d="M38.207,59.094v6.038H32.17v-6.038H38.207z M32.422,59.347v5.533h5.533v-5.533H32.422z"/>
		</g>
	</g>
	<g>
		<g>
			<path fill="#7E5B45" d="M227,91v-8h7v8H227z M233,89v-4h-4v4H233z"/>
			<path fill="#7E5B45" d="M233.919,83.986v6.038h-6.037v-6.038H233.919z M228.134,84.239v5.533h5.533v-5.533H228.134z"/>
		</g>
		<g>
			<path fill="#7E5B45" d="M235,91v-8h7v8H235z M241,89v-4h-5v4H241z"/>
			<path fill="#7E5B45" d="M241.554,83.986v6.038h-6.037v-6.038H241.554z M235.769,84.239v5.533h5.533v-5.533H235.769z"/>
		</g>
		<g>
			<path fill="#7E5B45" d="M243,91v-8h7v8H243z M248,89v-4h-4v4H248z"/>
			<path fill="#7E5B45" d="M249.188,83.986v6.038h-6.037v-6.038H249.188z M243.402,84.239v5.533h5.533v-5.533H243.402z"/>
		</g>
	</g>
	<g>
		<g>
			<path fill="#7E5B45" d="M227,123v-7h7v7H227z M233,122v-5h-4v5H233z"/>
			<path fill="#7E5B45" d="M233.919,116.32v6.038h-6.037v-6.038H233.919z M228.134,116.572v5.533h5.533v-5.533H228.134z"/>
		</g>
		<g>
			<path fill="#7E5B45" d="M235,123v-7h7v7H235z M241,122v-5h-5v5H241z"/>
			<path fill="#7E5B45" d="M241.554,116.32v6.038h-6.037v-6.038H241.554z M235.769,116.572v5.533h5.533v-5.533H235.769z"/>
		</g>
		<g>
			<path fill="#7E5B45" d="M243,123v-7h7v7H243z M248,122v-5h-4v5H248z"/>
			<path fill="#7E5B45" d="M249.188,116.32v6.038h-6.037v-6.038H249.188z M243.402,116.572v5.533h5.533v-5.533H243.402z"/>
		</g>
		<g>
			<path fill="#7E5B45" d="M227,132v-7h7v7H227z M233,131v-5h-4v5H233z"/>
			<path fill="#7E5B45" d="M233.919,125.32v6.037h-6.037v-6.037H233.919z M228.134,125.572v5.533h5.533v-5.533H228.134z"/>
		</g>
		<g>
			<path fill="#7E5B45" d="M235,132v-7h7v7H235z M241,131v-5h-5v5H241z"/>
			<path fill="#7E5B45" d="M241.554,125.32v6.037h-6.037v-6.037H241.554z M235.769,125.572v5.533h5.533v-5.533H235.769z"/>
		</g>
		<g>
			<path fill="#7E5B45" d="M243,132v-7h7v7H243z M248,131v-5h-4v5H248z"/>
			<path fill="#7E5B45" d="M249.188,125.32v6.037h-6.037v-6.037H249.188z M243.402,125.572v5.533h5.533v-5.533H243.402z"/>
		</g>
	</g>
	<g>
		<g>
			<path fill="#7E5B45" d="M151,155v-8h7v8H151z M157,153v-4h-5v4H157z"/>
			<path fill="#7E5B45" d="M157.271,147.986v6.037h-6.037v-6.037H157.271z M151.486,148.238v5.533h5.533v-5.533H151.486z"/>
		</g>
		<g>
			<path fill="#7E5B45" d="M158,155v-8h7v8H158z M164,153v-4h-4v4H164z"/>
			<path fill="#7E5B45" d="M164.905,147.986v6.037h-6.037v-6.037H164.905z M159.12,148.238v5.533h5.533v-5.533H159.12z"/>
		</g>
		<g>
			<path fill="#7E5B45" d="M166,155v-8h7v8H166z M172,153v-4h-5v4H172z"/>
			<path fill="#7E5B45" d="M172.54,147.986v6.037h-6.037v-6.037H172.54z M166.755,148.238v5.533h5.533v-5.533H166.755z"/>
		</g>
		<g>
			<path fill="#7E5B45" d="M174,155v-8h7v8H174z M179,153v-4h-4v4H179z"/>
			<path fill="#7E5B45" d="M180.174,147.986v6.037h-6.037v-6.037H180.174z M174.389,148.238v5.533h5.533v-5.533H174.389z"/>
		</g>
	</g>
	<g>
		<g>
			<path fill="#7E5B45" d="M140,220v-8h8v8H140z M146,218v-4h-4v4H146z"/>
			<path fill="#7E5B45" d="M147.021,212.986v6.037h-6.037v-6.037H147.021z M141.235,213.238v5.533h5.533v-5.533H141.235z"/>
		</g>
		<g>
			<path fill="#7E5B45" d="M148,220v-8h7v8H148z M154,218v-4h-5v4H154z"/>
			<path fill="#7E5B45" d="M154.655,212.986v6.037h-6.037v-6.037H154.655z M148.87,213.238v5.533h5.533v-5.533H148.87z"/>
		</g>
		<g>
			<path fill="#7E5B45" d="M156,220v-8h7v8H156z M162,218v-4h-5v4H162z"/>
			<path fill="#7E5B45" d="M162.289,212.986v6.037h-6.037v-6.037H162.289z M156.504,213.238v5.533h5.533v-5.533H156.504z"/>
		</g>
		<g>
			<path fill="#7E5B45" d="M163,220v-8h7v8H163z M169,218v-4h-4v4H169z"/>
			<path fill="#7E5B45" d="M169.924,212.986v6.037h-6.037v-6.037H169.924z M164.139,213.238v5.533h5.533v-5.533H164.139z"/>
		</g>
		<g>
			<path fill="#7E5B45" d="M171,220v-8h7v8H171z M177,218v-4h-5v4H177z"/>
			<path fill="#7E5B45" d="M177.558,212.986v6.037h-6.037v-6.037H177.558z M171.772,213.238v5.533h5.533v-5.533H171.772z"/>
		</g>
		<g>
			<path fill="#7E5B45" d="M179,220v-8h7v8H179z M184,218v-4h-4v4H184z"/>
			<path fill="#7E5B45" d="M185.191,212.986v6.037h-6.037v-6.037H185.191z M179.406,213.238v5.533h5.533v-5.533H179.406z"/>
		</g>
		<g>
			<path fill="#7E5B45" d="M186,220v-8h7v8H186z M192,218v-4h-4v4H192z"/>
			<path fill="#7E5B45" d="M192.826,212.986v6.037h-6.037v-6.037H192.826z M187.041,213.238v5.533h5.533v-5.533H187.041z"/>
		</g>
		<g>
			<path fill="#7E5B45" d="M194,220v-8h7v8H194z M200,218v-4h-5v4H200z"/>
			<path fill="#7E5B45" d="M200.46,212.986v6.037h-6.037v-6.037H200.46z M194.675,213.238v5.533h5.533v-5.533H194.675z"/>
		</g>
		<g>
			<path fill="#7E5B45" d="M202,220v-8h7v8H202z M207,218v-4h-4v4H207z"/>
			<path fill="#7E5B45" d="M208.095,212.986v6.037h-6.037v-6.037H208.095z M202.31,213.238v5.533h5.533v-5.533H202.31z"/>
		</g>
		<g>
			<path fill="#7E5B45" d="M209,220v-8h7v8H209z M215,218v-4h-5v4H215z"/>
			<path fill="#7E5B45" d="M215.729,212.986v6.037h-6.037v-6.037H215.729z M209.943,213.238v5.533h5.533v-5.533H209.943z"/>
		</g>
		<g>
			<path fill="#7E5B45" d="M217,220v-8h7v8H217z M223,218v-4h-5v4H223z"/>
			<path fill="#7E5B45" d="M223.362,212.986v6.037h-6.037v-6.037H223.362z M217.577,213.238v5.533h5.533v-5.533H217.577z"/>
		</g>
		<g>
			<path fill="#7E5B45" d="M224,220v-8h7v8H224z M230,218v-4h-4v4H230z"/>
			<path fill="#7E5B45" d="M230.997,212.986v6.037h-6.037v-6.037H230.997z M225.212,213.238v5.533h5.533v-5.533H225.212z"/>
		</g>
		<g>
			<path fill="#7E5B45" d="M140,229v-8h8v8H140z M146,227v-4h-4v4H146z"/>
			<path fill="#7E5B45" d="M147.021,221.986v6.037h-6.037v-6.037H147.021z M141.235,222.238v5.533h5.533v-5.533H141.235z"/>
		</g>
		<g>
			<path fill="#7E5B45" d="M148,229v-8h7v8H148z M154,227v-4h-5v4H154z"/>
			<path fill="#7E5B45" d="M154.655,221.986v6.037h-6.037v-6.037H154.655z M148.87,222.238v5.533h5.533v-5.533H148.87z"/>
		</g>
		<g>
			<path fill="#7E5B45" d="M156,229v-8h7v8H156z M162,227v-4h-5v4H162z"/>
			<path fill="#7E5B45" d="M162.289,221.986v6.037h-6.037v-6.037H162.289z M156.504,222.238v5.533h5.533v-5.533H156.504z"/>
		</g>
		<g>
			<path fill="#7E5B45" d="M163,229v-8h7v8H163z M169,227v-4h-4v4H169z"/>
			<path fill="#7E5B45" d="M169.924,221.986v6.037h-6.037v-6.037H169.924z M164.139,222.238v5.533h5.533v-5.533H164.139z"/>
		</g>
		<g>
			<path fill="#7E5B45" d="M171,229v-8h7v8H171z M177,227v-4h-5v4H177z"/>
			<path fill="#7E5B45" d="M177.558,221.986v6.037h-6.037v-6.037H177.558z M171.772,222.238v5.533h5.533v-5.533H171.772z"/>
		</g>
		<g>
			<path fill="#7E5B45" d="M179,229v-8h7v8H179z M184,227v-4h-4v4H184z"/>
			<path fill="#7E5B45" d="M185.191,221.986v6.037h-6.037v-6.037H185.191z M179.406,222.238v5.533h5.533v-5.533H179.406z"/>
		</g>
		<g>
			<path fill="#7E5B45" d="M186,229v-8h7v8H186z M192,227v-4h-4v4H192z"/>
			<path fill="#7E5B45" d="M192.826,221.986v6.037h-6.037v-6.037H192.826z M187.041,222.238v5.533h5.533v-5.533H187.041z"/>
		</g>
		<g>
			<path fill="#7E5B45" d="M194,229v-8h7v8H194z M200,227v-4h-5v4H200z"/>
			<path fill="#7E5B45" d="M200.46,221.986v6.037h-6.037v-6.037H200.46z M194.675,222.238v5.533h5.533v-5.533H194.675z"/>
		</g>
	</g>
	<g>
		<g>
			<path fill="#7E5B45" d="M227,155v-8h7v8H227z M233,153v-4h-4v4H233z"/>
			<path fill="#7E5B45" d="M233.919,147.986v6.037h-6.037v-6.037H233.919z M228.134,148.238v5.533h5.533v-5.533H228.134z"/>
		</g>
		<g>
			<path fill="#7E5B45" d="M235,155v-8h7v8H235z M241,153v-4h-5v4H241z"/>
			<path fill="#7E5B45" d="M241.554,147.986v6.037h-6.037v-6.037H241.554z M235.769,148.238v5.533h5.533v-5.533H235.769z"/>
		</g>
		<g>
			<path fill="#7E5B45" d="M243,155v-8h7v8H243z M248,153v-4h-4v4H248z"/>
			<path fill="#7E5B45" d="M249.188,147.986v6.037h-6.037v-6.037H249.188z M243.402,148.238v5.533h5.533v-5.533H243.402z"/>
		</g>
	</g>
	<g>
		<g>
			<path fill="#7E5B45" d="M101,128v-7h7v7H101z M107,126v-4h-5v4H107z"/>
			<path fill="#7E5B45" d="M107.586,121.044v6.038h-6.037v-6.038H107.586z M101.801,121.296v5.533h5.533v-5.533H101.801z"/>
		</g>
		<g>
			<path fill="#7E5B45" d="M109,128v-7h7v7H109z M114,126v-4h-4v4H114z"/>
			<path fill="#7E5B45" d="M115.22,121.044v6.038h-6.037v-6.038H115.22z M109.435,121.296v5.533h5.533v-5.533H109.435z"/>
		</g>
		<g>
			<path fill="#7E5B45" d="M116,128v-7h7v7H116z M122,126v-4h-4v4H122z"/>
			<path fill="#7E5B45" d="M122.854,121.044v6.038h-6.037v-6.038H122.854z M117.069,121.296v5.533h5.533v-5.533H117.069z"/>
		</g>
		<g>
			<path fill="#7E5B45" d="M101,146v-7h7v7H101z M107,144v-4h-5v4H107z"/>
			<path fill="#7E5B45" d="M107.586,139.044v6.038h-6.037v-6.038H107.586z M101.801,139.297v5.532h5.533v-5.532H101.801z"/>
		</g>
		<g>
			<path fill="#7E5B45" d="M109,146v-7h7v7H109z M114,144v-4h-4v4H114z"/>
			<path fill="#7E5B45" d="M115.22,139.044v6.038h-6.037v-6.038H115.22z M109.435,139.297v5.532h5.533v-5.532H109.435z"/>
		</g>
		<g>
			<path fill="#7E5B45" d="M116,146v-7h7v7H116z M122,144v-4h-4v4H122z"/>
			<path fill="#7E5B45" d="M122.854,139.044v6.038h-6.037v-6.038H122.854z M117.069,139.297v5.532h5.533v-5.532H117.069z"/>
		</g>
		<g>
			<path fill="#7E5B45" d="M101,164v-7h7v7H101z M107,162v-4h-5v4H107z"/>
			<path fill="#7E5B45" d="M107.586,157.044v6.038h-6.037v-6.038H107.586z M101.801,157.297v5.532h5.533v-5.532H101.801z"/>
		</g>
		<g>
			<path fill="#7E5B45" d="M109,164v-7h7v7H109z M114,162v-4h-4v4H114z"/>
			<path fill="#7E5B45" d="M115.22,157.044v6.038h-6.037v-6.038H115.22z M109.435,157.297v5.532h5.533v-5.532H109.435z"/>
		</g>
		<g>
			<path fill="#7E5B45" d="M116,164v-7h7v7H116z M122,162v-4h-4v4H122z"/>
			<path fill="#7E5B45" d="M122.854,157.044v6.038h-6.037v-6.038H122.854z M117.069,157.297v5.532h5.533v-5.532H117.069z"/>
		</g>
	</g>
	<g>
		<g>
			<path fill="#7E5B45" d="M327,103v-7h7v7H327z M332,102v-5h-4v5H332z"/>
			<path fill="#7E5B45" d="M333.117,96.652v6.038h-6.037v-6.038H333.117z M327.332,96.905v5.533h5.533v-5.533H327.332z"/>
		</g>
		<g>
			<path fill="#7E5B45" d="M334,103v-7h7v7H334z M340,102v-5h-5v5H340z"/>
			<path fill="#7E5B45" d="M340.752,96.652v6.038h-6.037v-6.038H340.752z M334.967,96.905v5.533h5.533v-5.533H334.967z"/>
		</g>
		<g>
			<path fill="#7E5B45" d="M342,103v-7h7v7H342z M348,102v-5h-5v5H348z"/>
			<path fill="#7E5B45" d="M348.386,96.652v6.038h-6.037v-6.038H348.386z M342.601,96.905v5.533h5.533v-5.533H342.601z"/>
		</g>
		<g>
			<path fill="#7E5B45" d="M349,103v-7h8v7H349z M355,102v-5h-4v5H355z"/>
			<path fill="#7E5B45" d="M356.02,96.652v6.038h-6.037v-6.038H356.02z M350.234,96.905v5.533h5.533v-5.533H350.234z"/>
		</g>
	</g>
	<g>
		<g>
			<path fill="#7E5B45" d="M318,115v-9h9v9H318z M326,113v-6h-6v6H326z"/>
			<path fill="#7E5B45" d="M326.709,106.449v7.76h-7.76v-7.76H326.709z M319.273,106.773v7.112h7.111v-7.112H319.273z"/>
		</g>
		<g>
			<path fill="#7E5B45" d="M328,115v-9h9v9H328z M336,113v-6h-6v6H336z"/>
			<path fill="#7E5B45" d="M336.443,106.449v7.76h-7.76v-7.76H336.443z M329.008,106.773v7.112h7.111v-7.112H329.008z"/>
		</g>
		<g>
			<path fill="#7E5B45" d="M338,115v-9h9v9H338z M345,113v-6h-6v6H345z"/>
			<path fill="#7E5B45" d="M346.178,106.449v7.76h-7.76v-7.76H346.178z M338.742,106.773v7.112h7.111v-7.112H338.742z"/>
		</g>
		<g>
			<path fill="#7E5B45" d="M349.037,115.061c-0.924,0-1.037-0.683-1.037-0.977v-6.473c0-1.096,0.243-1.611,1.346-1.611h5.285
				c1.13,0,1.369,0.511,1.369,1.646v5.645c0,1.697-0.992,1.697-2.002,1.697c-0.629,0-1.413,0-1.413-0.995
				c0-0.603,0.405-0.977,0.997-0.977c0,0,0.609,0.249,0.75,0.249l0.022-1.266H350v2.083
				C350,114.804,349.496,115.061,349.037,115.061z M354.355,109.649v-1.778l-1.395-0.002v1.781H354.355z M351.016,109.649v-1.782
				h-1.355l-0.003,1.782H351.016z"/>
			<path fill="#7E5B45" d="M349.156,114.083c0,0.126,0,0.477-0.449,0.477c-0.361,0-0.523-0.117-0.523-0.477v-6.473
				c0-0.91,0.433-1.152,1.162-1.152h5.285c0.801,0,1.179,0.27,1.179,1.188v5.645c0,1.197-0.603,1.197-1.657,1.197
				c-0.684,0-0.99,0-0.99-0.495c0-0.315,0.136-0.477,0.459-0.477c0.072,0,0.703,0.027,0.838,0.018
				c0.396-0.009,0.396-0.352,0.396-0.478v-2.017h-5.699V114.083z M351.516,110.149v-2.782h-1.909c-0.288,0-0.45,0.144-0.45,0.459
				v2.323H351.516z M352.461,110.149h2.395v-2.323c0-0.279-0.127-0.459-0.459-0.459h-1.936V110.149z"/>
		</g>
	</g>
	<g>
		<g>
			<path fill="#7E5B45" d="M270,52v-9h9v9H270z M278,51v-6h-6v6H278z"/>
			<path fill="#7E5B45" d="M278.633,43.949v7.76h-7.761v-7.76H278.633z M271.196,44.273v7.112h7.112v-7.112H271.196z"/>
		</g>
		<g>
			<path fill="#7E5B45" d="M280,52v-9h9v9H280z M288,51v-6h-7v6H288z"/>
			<path fill="#7E5B45" d="M288.367,43.949v7.76h-7.761v-7.76H288.367z M280.931,44.273v7.112h7.112v-7.112H280.931z"/>
		</g>
		<g>
			<path fill="#7E5B45" d="M290,52v-9h9v9H290z M297,51v-6h-6v6H297z"/>
			<path fill="#7E5B45" d="M298.102,43.949v7.76h-7.761v-7.76H298.102z M290.665,44.273v7.112h7.112v-7.112H290.665z"/>
		</g>
		<g>
			<path fill="#7E5B45" d="M300,52v-9h8v9H300z M307,51v-6h-6v6H307z"/>
			<path fill="#7E5B45" d="M307.836,43.949v7.76h-7.761v-7.76H307.836z M300.399,44.273v7.112h7.112v-7.112H300.399z"/>
		</g>
		<g>
			<path fill="#7E5B45" d="M311.023,52.605c-0.601,0-1.023-0.345-1.023-0.923v-1.399c0,0.048-0.149,0.072-0.272,0.072
				c-0.468,0-0.936-0.403-0.936-1.004c0-0.263,0.108-0.305,0.22-0.495c0.195-0.32,0.612-0.856,0.916-1.856H309.9
				c-0.572,0-0.941-0.425-0.941-0.991c0-0.586,0.36-1.009,0.941-1.009h0.1v-1.015c0-0.848,0.775-0.914,0.992-0.914
				c0.58,0,1.008,0.35,1.008,0.914v0.746c0-0.342,0.334-0.731,0.88-0.731h0.061c-0.017,0-0.021-0.106-0.021-0.158
				c0-0.559,0.492-0.829,0.978-0.829c0.479,0,0.692,0.246,0.825,0.488c0.003,0.004,0.139,0.499,0.258,0.499h0.276
				c0.159,0,0.236,0,0.283,0h-0.002c0.188-1,0.519-0.702,0.763-0.702c0.482,0,0.995,0.125,0.995,0.667
				c0,0.066-0.009,0.036-0.024,0.036h0.064c0.674,0,0.914,0.498,0.914,0.922c0,0.305-0.124,0.646-0.442,0.802
				c0.14,0.148,0.218,0.363,0.218,0.608c0,0.238-0.072,0.443-0.202,0.591c0.408,0.132,0.563,0.5,0.563,0.848
				c0,0.233-0.07,0.477-0.24,0.65c0.038,0.099,0.06,0.206,0.06,0.314c0,0.367-0.204,0.583-0.486,0.883
				c-0.092,0.094-0.211,0.218-0.341,0.345c0.146,0.105,0.303,0.204,0.52,0.332c0.161,0.097,0.533,0.32,0.533,0.835
				c0,0.569-0.422,1.031-0.941,1.031c-0.398,0-0.953-0.387-1.47-0.91c-0.088,1.234-0.997,1.234-1.609,1.234
				c-0.019,0-0.462,0-0.681-0.047c-0.311-0.063-0.524-0.289-0.631-0.553c-0.334,0.183-0.589,0.285-0.804,0.285
				c-0.132,0-0.291-0.029-0.405-0.085C311.738,52.463,311.344,52.605,311.023,52.605z M311.993,50.33
				c0.103-0.049,0.219-0.101,0.353-0.159c0.162-0.072,0.347-0.172,0.52-0.271c-0.04-0.035-0.371-0.329-0.371-0.329
				c-0.269-0.234-0.433-0.378-0.493-0.599c-0.003,0-0.005,0-0.008-0.001V50.33z"/>
			<path fill="#7E5B45" d="M314.645,47.379v-0.666h-1.521c-0.243,0-0.405-0.09-0.405-0.36c0-0.243,0.117-0.369,0.405-0.369h1.521
				v-0.639h-1.765c-0.145,0-0.414-0.009-0.414-0.369c0-0.333,0.198-0.387,0.414-0.387h0.792c-0.045-0.117-0.063-0.153-0.207-0.477
				c-0.036-0.09-0.045-0.171-0.045-0.225c0-0.288,0.333-0.351,0.478-0.351c0.188,0,0.278,0.063,0.387,0.261
				c0.063,0.117,0.271,0.522,0.352,0.792h0.936c0.019-0.036,0.405-0.846,0.414-0.855c0.036-0.072,0.1-0.18,0.315-0.18
				c0.18,0,0.495,0.081,0.495,0.333c0,0.189-0.207,0.549-0.288,0.702h0.828c0.126,0,0.414,0,0.414,0.378
				c0,0.36-0.252,0.378-0.414,0.378h-1.81v0.639h1.594c0.189,0,0.405,0.054,0.405,0.36c0,0.234-0.108,0.369-0.405,0.369h-1.594
				v0.666h1.945c0.171,0,0.414,0.027,0.414,0.396c0,0.333-0.189,0.396-0.414,0.396h-1.945v0.261c0.217,0.477,0.388,0.72,0.54,0.927
				c0.514-0.495,0.541-0.513,0.838-0.864c0.09-0.108,0.18-0.198,0.342-0.198c0.226,0,0.459,0.208,0.459,0.441
				c0,0.144-0.054,0.225-0.351,0.54c-0.063,0.063-0.433,0.459-0.738,0.702c0.359,0.333,0.585,0.486,1.026,0.748
				c0.18,0.108,0.288,0.198,0.288,0.405c0,0.27-0.189,0.531-0.441,0.531c-0.315,0-1.27-0.738-1.963-1.818v1.206
				c0,0.882-0.369,0.937-1.116,0.937c-0.144,0-0.45-0.009-0.576-0.036c-0.225-0.045-0.315-0.297-0.315-0.468
				c0-0.432,0.298-0.432,0.586-0.432h0.342c0.145-0.027,0.198-0.135,0.198-0.288v-2.593h-1.873c-0.216,0-0.252-0.045-0.314-0.099
				c-0.027,0.279-0.234,0.405-0.369,0.405c-0.108,0-0.189-0.054-0.271-0.18c-0.099-0.144-0.18-0.297-0.324-0.585v3.97
				c0,0.117,0,0.423-0.405,0.423c-0.323,0-0.459-0.117-0.459-0.423v-3.385c-0.107,0.342-0.27,0.811-0.521,1.314
				c-0.046,0.09-0.126,0.243-0.315,0.243c-0.207,0-0.468-0.198-0.468-0.504c0-0.135,0.045-0.225,0.135-0.378
				c0.225-0.369,0.792-1.296,1.116-2.746H309.9c-0.145,0-0.441-0.018-0.441-0.432c0-0.405,0.243-0.45,0.441-0.45h0.729v-1.359
				c0-0.153,0.009-0.414,0.424-0.414c0.387,0,0.44,0.207,0.44,0.414v1.359h0.522c0.18,0,0.396,0.054,0.396,0.432
				c0,0.342-0.153,0.45-0.396,0.45h-0.522v0.216c0.234,0.478,0.378,0.675,0.864,1.314c0.019-0.333,0.207-0.378,0.414-0.378H314.645z
				 M312.547,50.629c0.423-0.189,0.963-0.531,1.134-0.639c0.055-0.036,0.162-0.081,0.271-0.081c0.261,0,0.352,0.288,0.352,0.45
				c0,0.198,0,0.252-1.144,0.918c-0.243,0.144-0.676,0.396-0.864,0.396c-0.288,0-0.433-0.324-0.405-0.549
				C311.917,50.908,311.952,50.89,312.547,50.629z M313.735,48.81c0.233,0.216,0.306,0.324,0.306,0.468
				c0,0.279-0.252,0.468-0.468,0.468c-0.145,0-0.181-0.045-0.604-0.423c-0.45-0.396-0.495-0.414-0.495-0.567
				c0-0.135,0.135-0.45,0.504-0.45C313.159,48.306,313.546,48.639,313.735,48.81z"/>
		</g>
	</g>
	<g>
		<g>
			<path fill="#7E5B45" d="M18,42v-8h9v8H18z M25,41v-6h-6v6H25z"/>
			<path fill="#7E5B45" d="M26.133,34.035v7.76h-7.761v-7.76H26.133z M18.696,34.359v7.112h7.112v-7.112H18.696z"/>
		</g>
		<g>
			<path fill="#7E5B45" d="M28,42v-8h8v8H28z M35,41v-6h-6v6H35z"/>
			<path fill="#7E5B45" d="M35.867,34.035v7.76h-7.761v-7.76H35.867z M28.431,34.359v7.112h7.112v-7.112H28.431z"/>
		</g>
		<g>
			<path fill="#7E5B45" d="M37,42v-8h9v8H37z M45,41v-6h-6v6H45z"/>
			<path fill="#7E5B45" d="M45.602,34.035v7.76h-7.761v-7.76H45.602z M38.165,34.359v7.112h7.112v-7.112H38.165z"/>
		</g>
		<g>
			<path fill="#7E5B45" d="M47,42v-8h9v8H47z M55,41v-6h-7v6H55z"/>
			<path fill="#7E5B45" d="M55.336,34.035v7.76h-7.761v-7.76H55.336z M47.899,34.359v7.112h7.112v-7.112H47.899z"/>
		</g>
		<g>
			<path fill="#7E5B45" d="M58.773,42.692c-0.601,0-0.773-0.345-0.773-0.923v-1.399c0,0.048-0.399,0.072-0.522,0.072
				c-0.468,0-1.061-0.403-1.061-1.004c0-0.263,0.046-0.348,0.157-0.538C56.77,38.579,57.124,38,57.428,37H57.4
				c-0.572,0-0.941-0.425-0.941-0.991c0-0.586,0.36-1.009,0.941-1.009H58v-0.929c0-0.848,0.275-0.914,0.492-0.914
				c0.58,0,0.508,0.35,0.508,0.914v0.746C60,34.475,59.834,34,60.38,34h0.061c-0.017,0-0.021-0.063-0.021-0.115
				c0-0.559,0.492-0.807,0.978-0.807c0.479,0,0.692,0.213,0.825,0.456C62.226,33.538,62.361,34,62.48,34h0.276
				c0.159,0,0.236,0,0.283,0h-0.002c0.188-1,0.519-0.659,0.763-0.659c0.482,0,0.995,0.104,0.995,0.645
				c0,0.065-0.009,0.014-0.024,0.014h0.064c0.674,0,0.914,0.541,0.914,0.966c0,0.305-0.124,0.667-0.442,0.824
				c0.14,0.148,0.218,0.374,0.218,0.619c0,0.238-0.072,0.449-0.202,0.597c0.408,0.132,0.563,0.503,0.563,0.851
				c0,0.234-0.07,0.479-0.24,0.652c0.038,0.1,0.06,0.207,0.06,0.315c0,0.367-0.204,0.584-0.486,0.884
				c-0.092,0.094-0.211,0.218-0.341,0.345c0.146,0.105,0.303,0.204,0.52,0.332c0.161,0.097,0.533,0.321,0.533,0.835
				c0,0.569-0.422,1.031-0.941,1.031c-0.398,0-0.953-0.387-1.47-0.91c-0.088,1.234-0.997,1.234-1.609,1.234
				c-0.019,0-0.462,0-0.681-0.047c-0.311-0.062-0.524-0.289-0.631-0.553c-0.334,0.183-0.589,0.285-0.804,0.285
				c-0.132,0-0.166-0.029-0.28-0.085C59.363,42.549,59.094,42.692,58.773,42.692z M59.493,40.417
				c0.103-0.049,0.219-0.101,0.353-0.159c0.162-0.072,0.347-0.172,0.52-0.271c-0.04-0.035-0.371-0.329-0.371-0.329
				c-0.269-0.234-0.433-0.378-0.493-0.599c-0.003,0-0.005,0-0.008-0.001V40.417z"/>
			<path fill="#7E5B45" d="M62.145,37.465v-0.666h-1.521c-0.243,0-0.405-0.09-0.405-0.36c0-0.243,0.117-0.369,0.405-0.369h1.521
				v-0.639H60.38c-0.145,0-0.414-0.009-0.414-0.369c0-0.333,0.198-0.387,0.414-0.387h0.792c-0.045-0.117-0.063-0.153-0.207-0.477
				c-0.036-0.09-0.045-0.171-0.045-0.225c0-0.288,0.333-0.351,0.478-0.351c0.188,0,0.278,0.063,0.387,0.261
				c0.063,0.117,0.271,0.522,0.352,0.792h0.936c0.019-0.036,0.405-0.846,0.414-0.855c0.036-0.072,0.1-0.18,0.315-0.18
				c0.18,0,0.495,0.081,0.495,0.333c0,0.189-0.207,0.549-0.288,0.702h0.828c0.126,0,0.414,0,0.414,0.378
				c0,0.36-0.252,0.378-0.414,0.378h-1.81v0.639h1.594c0.189,0,0.405,0.054,0.405,0.36c0,0.234-0.108,0.369-0.405,0.369h-1.594
				v0.666h1.945c0.171,0,0.414,0.027,0.414,0.396c0,0.333-0.189,0.396-0.414,0.396h-1.945v0.261c0.217,0.477,0.388,0.72,0.54,0.927
				c0.514-0.495,0.541-0.513,0.838-0.864c0.09-0.108,0.18-0.198,0.342-0.198c0.226,0,0.459,0.208,0.459,0.441
				c0,0.144-0.054,0.225-0.351,0.54c-0.063,0.063-0.433,0.459-0.738,0.702c0.359,0.333,0.585,0.486,1.026,0.748
				c0.18,0.108,0.288,0.198,0.288,0.405c0,0.27-0.189,0.531-0.441,0.531c-0.315,0-1.27-0.738-1.963-1.818v1.206
				c0,0.882-0.369,0.937-1.116,0.937c-0.144,0-0.45-0.009-0.576-0.036c-0.225-0.045-0.315-0.297-0.315-0.468
				c0-0.432,0.298-0.432,0.586-0.432h0.342c0.145-0.027,0.198-0.135,0.198-0.288v-2.593h-1.873c-0.216,0-0.252-0.045-0.314-0.099
				c-0.027,0.279-0.234,0.405-0.369,0.405c-0.108,0-0.189-0.054-0.271-0.18c-0.099-0.144-0.18-0.297-0.324-0.585v3.97
				c0,0.117,0,0.423-0.405,0.423c-0.323,0-0.459-0.117-0.459-0.423v-3.385c-0.107,0.342-0.27,0.811-0.521,1.314
				c-0.046,0.09-0.126,0.243-0.315,0.243c-0.207,0-0.468-0.198-0.468-0.504c0-0.135,0.045-0.225,0.135-0.378
				c0.225-0.369,0.792-1.296,1.116-2.746H57.4c-0.145,0-0.441-0.018-0.441-0.432c0-0.405,0.243-0.45,0.441-0.45h0.729v-1.359
				c0-0.153,0.009-0.414,0.424-0.414c0.387,0,0.44,0.207,0.44,0.414v1.359h0.522c0.18,0,0.396,0.054,0.396,0.432
				c0,0.342-0.153,0.45-0.396,0.45h-0.522v0.216c0.234,0.478,0.378,0.675,0.864,1.314c0.019-0.333,0.207-0.378,0.414-0.378H62.145z
				 M60.047,40.715c0.423-0.189,0.963-0.531,1.134-0.639c0.055-0.036,0.162-0.081,0.271-0.081c0.261,0,0.352,0.288,0.352,0.45
				c0,0.198,0,0.252-1.144,0.918c-0.243,0.144-0.676,0.396-0.864,0.396c-0.288,0-0.433-0.324-0.405-0.549
				C59.417,40.994,59.452,40.976,60.047,40.715z M61.235,38.896c0.233,0.216,0.306,0.324,0.306,0.468
				c0,0.279-0.252,0.468-0.468,0.468c-0.145,0-0.181-0.045-0.604-0.423c-0.45-0.396-0.495-0.414-0.495-0.567
				c0-0.135,0.135-0.45,0.504-0.45C60.659,38.393,61.046,38.726,61.235,38.896z"/>
		</g>
	</g>
	<g>
		<g>
			<path fill="#7E5B45" d="M18,28v-9h9v9H18z M25,27v-6h-6v6H25z"/>
			<path fill="#7E5B45" d="M26.133,19.702v7.76h-7.761v-7.76H26.133z M18.696,20.026v7.112h7.112v-7.112H18.696z"/>
		</g>
		<g>
			<path fill="#7E5B45" d="M28,28v-9h8v9H28z M35,27v-6h-6v6H35z"/>
			<path fill="#7E5B45" d="M35.867,19.702v7.76h-7.761v-7.76H35.867z M28.431,20.026v7.112h7.112v-7.112H28.431z"/>
		</g>
		<g>
			<path fill="#7E5B45" d="M37,28v-9h9v9H37z M45,27v-6h-6v6H45z"/>
			<path fill="#7E5B45" d="M45.602,19.702v7.76h-7.761v-7.76H45.602z M38.165,20.026v7.112h7.112v-7.112H38.165z"/>
		</g>
		<g>
			<path fill="#7E5B45" d="M47,28v-9h9v9H47z M55,27v-6h-7v6H55z"/>
			<path fill="#7E5B45" d="M55.336,19.702v7.76h-7.761v-7.76H55.336z M47.899,20.026v7.112h7.112v-7.112H47.899z"/>
		</g>
		<g>
			<path fill="#7E5B45" d="M57,28v-9h9v9H57z M64,27v-6h-6v6H64z"/>
			<path fill="#7E5B45" d="M65.07,19.702v7.76H57.31v-7.76H65.07z M57.634,20.026v7.112h7.112v-7.112H57.634z"/>
		</g>
		<g>
			<path fill="#7E5B45" d="M67,28v-9h8v9H67z M74,27v-6h-6v6H74z"/>
			<path fill="#7E5B45" d="M74.805,19.702v7.76h-7.761v-7.76H74.805z M67.368,20.026v7.112h7.112v-7.112H67.368z"/>
		</g>
		<g>
			<path fill="#7E5B45" d="M76,28v-9h9v9H76z M84,27v-6h-6v6H84z"/>
			<path fill="#7E5B45" d="M84.539,19.702v7.76h-7.761v-7.76H84.539z M77.103,20.026v7.112h7.112v-7.112H77.103z"/>
		</g>
		<g>
			<path fill="#7E5B45" d="M86,28v-9h9v9H86z M93,27v-6h-6v6H93z"/>
			<path fill="#7E5B45" d="M94.273,19.702v7.76h-7.761v-7.76H94.273z M86.837,20.026v7.112h7.112v-7.112H86.837z"/>
		</g>
		<g>
			<path fill="#7E5B45" d="M96,28v-9h9v9H96z M103,27v-6h-6v6H103z"/>
			<path fill="#7E5B45" d="M104.008,19.702v7.76h-7.761v-7.76H104.008z M96.571,20.026v7.112h7.112v-7.112H96.571z"/>
		</g>
		<g>
			<path fill="#7E5B45" d="M105,28v-9h9v9H105z M113,27v-6h-6v6H113z"/>
			<path fill="#7E5B45" d="M113.743,19.702v7.76h-7.761v-7.76H113.743z M106.307,20.026v7.112h7.112v-7.112H106.307z"/>
		</g>
		<g>
			<path fill="#7E5B45" d="M115,28v-9h9v9H115z M123,27v-6h-6v6H123z"/>
			<path fill="#7E5B45" d="M123.478,19.702v7.76h-7.761v-7.76H123.478z M116.041,20.026v7.112h7.112v-7.112H116.041z"/>
		</g>
	</g>
	<g>
		<g>
			<path fill="#7E5B45" d="M77,91v-9h9v9H77z M84,89v-6h-6v6H84z"/>
			<path fill="#7E5B45" d="M85.094,82.365v7.76h-7.761v-7.76H85.094z M77.657,82.689v7.112h7.112v-7.112H77.657z"/>
		</g>
		<g>
			<path fill="#7E5B45" d="M87,91v-9h8v9H87z M94,89v-6h-6v6H94z"/>
			<path fill="#7E5B45" d="M94.828,82.365v7.76h-7.761v-7.76H94.828z M87.392,82.689v7.112h7.112v-7.112H87.392z"/>
		</g>
		<g>
			<path fill="#7E5B45" d="M96,91v-9h9v9H96z M104,89v-6h-6v6H104z"/>
			<path fill="#7E5B45" d="M104.563,82.365v7.76h-7.761v-7.76H104.563z M97.126,82.689v7.112h7.112v-7.112H97.126z"/>
		</g>
		<g>
			<path fill="#7E5B45" d="M110.254,90.311c-0.282,0-0.523-0.118-0.717-0.351c-0.005-0.001-0.156-0.173-0.193-0.227L108,88.107
				v1.227c0,0.594-0.387,0.977-0.991,0.977c-0.625,0-1.009-0.375-1.009-0.977v-6.671c0-0.594,0.387-0.978,0.991-0.978
				c0.625,0,1.009,0.375,1.009,0.978v2.562l1.105-1.095c0.311-0.31,0.451-0.437,0.811-0.437c0.418,0,1.002,0.321,1.002,0.923
				c0,0.357-0.249,0.649-0.358,0.758l-1.264,1.243l1.662,1.95c0.155,0.171,0.354,0.455,0.354,0.766
				C111.313,89.918,110.766,90.311,110.254,90.311z"/>
			<path fill="#7E5B45" d="M109.488,84.481c0.279-0.279,0.288-0.288,0.441-0.288c0.181,0,0.495,0.144,0.495,0.423
				c0,0.144-0.126,0.315-0.216,0.405l-1.594,1.566l1.963,2.305c0.09,0.099,0.234,0.288,0.234,0.441c0,0.279-0.298,0.477-0.559,0.477
				c-0.144,0-0.243-0.063-0.333-0.171c-0.027-0.027-0.126-0.171-0.145-0.198l-2.224-2.746v2.638c0,0.108,0,0.477-0.495,0.477
				c-0.306,0-0.513-0.117-0.513-0.477v-6.671c0-0.306,0.153-0.478,0.495-0.478c0.36,0,0.513,0.162,0.513,0.478v3.781L109.488,84.481
				z"/>
		</g>
		<g>
			<path fill="#7E5B45" d="M118.816,90.311c-0.959,0-1.174-0.774-1.289-1.191l-0.943-3.459l-0.94,3.445
				c-0.117,0.422-0.334,1.206-1.302,1.206c-0.981,0-1.198-0.716-1.342-1.189l-1.73-5.794c-0.055-0.208-0.093-0.363-0.093-0.512
				c0-0.522,0.473-0.932,1.076-0.932c0.757,0,0.927,0.572,1.018,0.879l1.058,3.766l0.972-3.54c0.109-0.388,0.31-1.106,1.239-1.106
				c0.947,0,1.176,0.547,1.328,1.107l0.972,3.539l1.054-3.75c0.079-0.29,0.244-0.896,1.013-0.896c0.604,0,1.076,0.406,1.076,0.923
				c0,0.114-0.01,0.277-0.085,0.524l-1.728,5.785C120.028,89.591,119.816,90.311,118.816,90.311z"/>
			<path fill="#7E5B45" d="M120.374,82.915c0.081-0.297,0.144-0.531,0.531-0.531c0.314,0,0.576,0.18,0.576,0.423
				c0,0.054,0,0.171-0.063,0.378l-1.729,5.789c-0.144,0.486-0.261,0.837-0.873,0.837c-0.585,0-0.693-0.414-0.811-0.837l-1.422-5.212
				l-1.423,5.212c-0.117,0.423-0.234,0.837-0.819,0.837c-0.612,0-0.72-0.36-0.864-0.837l-1.729-5.789
				c-0.018-0.072-0.072-0.252-0.072-0.369c0-0.261,0.288-0.432,0.576-0.432c0.388,0,0.45,0.225,0.541,0.531l1.539,5.482l1.449-5.275
				c0.108-0.387,0.207-0.738,0.757-0.738c0.603,0,0.711,0.243,0.846,0.738l1.449,5.275L120.374,82.915z"/>
		</g>
		<g>
			<path fill="#7E5B45" d="M127.004,90.311c-0.625,0-1.004-0.375-1.004-0.977V86.65c0-0.909-0.209-1.03-0.645-1.03
				c-0.35,0-0.83,0.18-0.934,0.332C124.284,86.155,124,86.453,124,86.65v2.683c0,0.594-0.387,0.977-0.99,0.977
				c-0.625,0-1.01-0.375-1.01-0.977v-6.671c0-0.594,0.387-0.978,0.99-0.978c0.625,0,1.01,0.375,1.01,0.978v1.233
				c1-0.129,0.85-0.203,1.265-0.203c1.04,0,1.927,0.573,2.216,1.11c0.264,0.498,0.52,0.989,0.52,1.839v2.692
				C128,89.927,127.613,90.311,127.004,90.311z"/>
			<path fill="#7E5B45" d="M127.317,89.333c0,0.306-0.162,0.477-0.504,0.477s-0.513-0.153-0.513-0.477V86.65
				c0-0.657,0-1.53-1.045-1.53c-0.621,0-0.945,0.378-1.063,0.549c-0.225,0.333-0.225,0.738-0.225,0.981v2.683
				c0,0.108,0,0.477-0.495,0.477c-0.307,0-0.514-0.117-0.514-0.477v-6.671c0-0.306,0.153-0.478,0.495-0.478
				c0.36,0,0.514,0.162,0.514,0.478v2.242c0.441-0.478,0.819-0.711,1.53-0.711c0.864,0,1.368,0.477,1.566,0.846
				c0.216,0.405,0.252,0.819,0.252,1.603V89.333z"/>
		</g>
	</g>
	<g>
		<rect x="261" y="6" fill="#F27300" width="114" height="8"/>
	</g>
	<g>
		<path fill="#7E5B45" d="M128,51H16c-0.828,0-1.5-0.671-1.5-1.5S15.172,48,16,48h112c0.828,0,1.5,0.671,1.5,1.5S128.828,51,128,51z
			"/>
	</g>
	<g>
		<path fill="#7E5B45" d="M252,65H140c-0.828,0-1.5-0.671-1.5-1.5s0.672-1.5,1.5-1.5h112c0.828,0,1.5,0.671,1.5,1.5
			S252.828,65,252,65z"/>
	</g>
	<g>
		<path fill="#7E5B45" d="M252,81H140c-0.828,0-1.5-0.671-1.5-1.5s0.672-1.5,1.5-1.5h112c0.828,0,1.5,0.671,1.5,1.5
			S252.828,81,252,81z"/>
	</g>
	<g>
		<path fill="#7E5B45" d="M252,95H140c-0.828,0-1.5-0.671-1.5-1.5s0.672-1.5,1.5-1.5h112c0.828,0,1.5,0.671,1.5,1.5
			S252.828,95,252,95z"/>
	</g>
	<g>
		<path fill="#7E5B45" d="M252,108H140c-0.828,0-1.5-0.671-1.5-1.5s0.672-1.5,1.5-1.5h112c0.828,0,1.5,0.671,1.5,1.5
			S252.828,108,252,108z"/>
	</g>
	<g>
		<path fill="#7E5B45" d="M252,114H145c-0.828,0-1.5-0.671-1.5-1.5s0.672-1.5,1.5-1.5h107c0.828,0,1.5,0.671,1.5,1.5
			S252.828,114,252,114z"/>
	</g>
	<g>
		<path fill="#7E5B45" d="M252,193H140c-0.828,0-1.5-0.672-1.5-1.5s0.672-1.5,1.5-1.5h112c0.828,0,1.5,0.672,1.5,1.5
			S252.828,193,252,193z"/>
	</g>
	<g>
		<path fill="#7E5B45" d="M128,98H16c-0.828,0-1.5-0.671-1.5-1.5S15.172,95,16,95h112c0.828,0,1.5,0.671,1.5,1.5S128.828,98,128,98z
			"/>
	</g>
	<g>
		<path fill="#7E5B45" d="M128,75H16c-0.828,0-1.5-0.671-1.5-1.5S15.172,72,16,72h112c0.828,0,1.5,0.671,1.5,1.5S128.828,75,128,75z
			"/>
	</g>
	<g>
		<path fill="#7E5B45" d="M128,112H16c-0.828,0-1.5-0.671-1.5-1.5s0.672-1.5,1.5-1.5h112c0.828,0,1.5,0.671,1.5,1.5
			S128.828,112,128,112z"/>
	</g>
	<g>
		<path fill="#7E5B45" d="M128,211H16c-0.828,0-1.5-0.672-1.5-1.5s0.672-1.5,1.5-1.5h112c0.828,0,1.5,0.672,1.5,1.5
			S128.828,211,128,211z"/>
	</g>
	<g>
		<path fill="#7E5B45" d="M128,226H16c-0.828,0-1.5-0.672-1.5-1.5s0.672-1.5,1.5-1.5h112c0.828,0,1.5,0.672,1.5,1.5
			S128.828,226,128,226z"/>
	</g>
	<g>
		<path fill="#7E5B45" d="M252,145H145c-0.828,0-1.5-0.672-1.5-1.5s0.672-1.5,1.5-1.5h107c0.828,0,1.5,0.672,1.5,1.5
			S252.828,145,252,145z"/>
	</g>
	<g>
		<path fill="#7E5B45" d="M144.5,192.5c-0.828,0-1.5-0.672-1.5-1.5v-84c0-0.829,0.672-1.5,1.5-1.5s1.5,0.671,1.5,1.5v84
			C146,191.828,145.328,192.5,144.5,192.5z"/>
	</g>
	<g>
		<path fill="#7E5B45" d="M40.5,225.5c-0.828,0-1.5-0.672-1.5-1.5v-14c0-0.828,0.672-1.5,1.5-1.5s1.5,0.672,1.5,1.5v14
			C42,224.828,41.328,225.5,40.5,225.5z"/>
	</g>
	<g>
		<path fill="#7E5B45" d="M49.5,74.5c-0.828,0-1.5-0.671-1.5-1.5V50c0-0.829,0.672-1.5,1.5-1.5S51,49.171,51,50v23
			C51,73.829,50.328,74.5,49.5,74.5z"/>
	</g>
	<g>
		<path fill="#7E5B45" d="M53.5,97.5c-0.828,0-1.5-0.671-1.5-1.5V74c0-0.829,0.672-1.5,1.5-1.5S55,73.171,55,74v22
			C55,96.829,54.328,97.5,53.5,97.5z"/>
	</g>
	<g>
		<path fill="#7E5B45" d="M237.5,51h-97c-0.828,0-1.5-0.671-1.5-1.5v-37c0-0.829,0.672-1.5,1.5-1.5h97c0.828,0,1.5,0.671,1.5,1.5v37
			C239,50.329,238.328,51,237.5,51z M142,48h94V14h-94V48z"/>
	</g>
	<g>
		<path fill="#7E5B45" d="M237,33h-96c-0.828,0-1.5-0.671-1.5-1.5s0.672-1.5,1.5-1.5h96c0.828,0,1.5,0.671,1.5,1.5
			S237.828,33,237,33z"/>
	</g>
	<g>
		<path fill="#7E5B45" d="M237,19h-96c-0.828,0-1.5-0.671-1.5-1.5s0.672-1.5,1.5-1.5h96c0.828,0,1.5,0.671,1.5,1.5
			S237.828,19,237,19z"/>
	</g>
	<g>
		<path fill="#7E5B45" d="M237,39h-96c-0.828,0-1.5-0.671-1.5-1.5s0.672-1.5,1.5-1.5h96c0.828,0,1.5,0.671,1.5,1.5
			S237.828,39,237,39z"/>
	</g>
	<g>
		<path fill="#7E5B45" d="M220.5,31.5c-0.828,0-1.5-0.671-1.5-1.5V13c0-0.829,0.672-1.5,1.5-1.5s1.5,0.671,1.5,1.5v17
			C222,30.829,221.328,31.5,220.5,31.5z"/>
	</g>
	<g>
		<path fill="#7E5B45" d="M180.5,50.5c-0.828,0-1.5-0.671-1.5-1.5V32c0-0.829,0.672-1.5,1.5-1.5s1.5,0.671,1.5,1.5v17
			C182,49.829,181.328,50.5,180.5,50.5z"/>
	</g>
	<g>
		<path fill="#7E5B45" d="M155.5,32.5c-0.828,0-1.5-0.671-1.5-1.5V18c0-0.829,0.672-1.5,1.5-1.5s1.5,0.671,1.5,1.5v13
			C157,31.829,156.328,32.5,155.5,32.5z"/>
	</g>
	<g>
		<path fill="#7E5B45" d="M180.5,32.5c-0.828,0-1.5-0.671-1.5-1.5V18c0-0.829,0.672-1.5,1.5-1.5s1.5,0.671,1.5,1.5v13
			C182,31.829,181.328,32.5,180.5,32.5z"/>
	</g>
	<g>
		<path fill="#7E5B45" d="M193.5,32.5c-0.828,0-1.5-0.671-1.5-1.5V18c0-0.829,0.672-1.5,1.5-1.5s1.5,0.671,1.5,1.5v13
			C195,31.829,194.328,32.5,193.5,32.5z"/>
	</g>
	<g>
		<path fill="#7E5B45" d="M204.5,32.5c-0.828,0-1.5-0.671-1.5-1.5V18c0-0.829,0.672-1.5,1.5-1.5s1.5,0.671,1.5,1.5v13
			C206,31.829,205.328,32.5,204.5,32.5z"/>
	</g>
</g>
</svg>
