<?xml version="1.0" encoding="utf-8"?>
<!-- Generator: Adobe Illustrator 16.0.3, SVG Export Plug-In . SVG Version: 6.00 Build 0)  -->
<!DOCTYPE svg PUBLIC "-//W3C//DTD SVG 1.1//EN" "http://www.w3.org/Graphics/SVG/1.1/DTD/svg11.dtd">
<svg version="1.1" id="レイヤー_1" xmlns="http://www.w3.org/2000/svg" xmlns:xlink="http://www.w3.org/1999/xlink" x="0px"
	 y="0px" width="49px" height="41px" viewBox="0 0 49 41" enable-background="new 0 0 49 41" xml:space="preserve">
<g>
	<g>
		<path fill="#B4B4B5" d="M47.582,13.154c-0.146-2.076-1.037-5.484-4.15-8.152S31.576,1,24.311,1C17.047,1,8.304,2.334,5.191,5.001
			c-3.112,2.668-4.002,6.077-4.149,8.152c-0.147,2.075,0.049,2.878,1.187,3.706c0.813,0.591,3.261,0.444,5.187,0
			c1.929-0.446,3.908-1.104,4.447-1.779c0.594-0.741,0.594-2.076-0.148-2.816c-0.74-0.74-1.481-3.704,0.445-4.743
			c1.926-1.038,11.115-1.407,12.153-1.407c1.038,0,10.227,0.37,12.153,1.407c1.928,1.039,1.188,4.003,0.445,4.743
			c-0.74,0.741-0.74,2.075-0.148,2.816c0.541,0.676,2.521,1.333,4.447,1.779c1.926,0.444,4.373,0.591,5.188,0
			C47.533,16.032,47.73,15.229,47.582,13.154z"/>
		<path fill="#7E5B45" d="M44.418,18.249L44.418,18.249c-1.037,0-2.288-0.151-3.434-0.416c-2.688-0.623-4.371-1.338-5.003-2.128
			c-0.945-1.184-0.844-3.083,0.222-4.148c0.195-0.194,0.597-1.166,0.462-2.088c-0.111-0.764-0.535-0.992-0.675-1.067
			c-1.492-0.804-9.755-1.287-11.678-1.287c-1.569,0-10.093,0.432-11.679,1.287c-0.139,0.075-0.563,0.303-0.674,1.065
			c-0.135,0.923,0.267,1.896,0.461,2.091c1.068,1.064,1.17,2.964,0.222,4.148c-0.631,0.791-2.314,1.507-5.002,2.128
			c-1.146,0.265-2.397,0.416-3.434,0.416c-1.188,0-2.028-0.19-2.566-0.581c-1.554-1.131-1.753-2.38-1.596-4.586
			c0.113-1.597,0.778-5.654,4.496-8.84C7.96,1.312,16.935,0,24.311,0c7.377,0,16.351,1.312,19.771,4.243
			c3.722,3.188,4.385,7.245,4.497,8.841c0.158,2.205-0.04,3.454-1.595,4.584C46.445,18.059,45.606,18.249,44.418,18.249z
			 M24.312,5.114c0.098,0,10.272,0.258,12.627,1.526c0.934,0.503,1.539,1.405,1.705,2.539c0.221,1.512-0.35,3.116-1.028,3.792
			c-0.376,0.376-0.354,1.131-0.073,1.484c0.202,0.25,1.438,0.861,3.892,1.429c1.004,0.231,2.091,0.364,2.983,0.364l0,0
			c1.097,0,1.389-0.197,1.391-0.199c0.702-0.511,0.918-0.843,0.776-2.825c-0.096-1.346-0.656-4.766-3.804-7.464
			C39.899,3.292,31.309,2,24.311,2C17.314,2,8.723,3.292,5.841,5.76c-3.145,2.696-3.707,6.118-3.803,7.463
			c-0.141,1.983,0.075,2.315,0.777,2.827c0.003,0.001,0.294,0.199,1.391,0.199c0.892,0,1.979-0.133,2.983-0.365
			c2.451-0.566,3.688-1.177,3.891-1.428c0.277-0.347,0.298-1.114-0.073-1.483c-0.679-0.679-1.248-2.284-1.026-3.796
			c0.165-1.132,0.771-2.033,1.703-2.536C14.037,5.373,24.214,5.114,24.312,5.114z"/>
	</g>
	<g>
		<path fill="#B4B4B5" d="M43.061,31.533c-0.074-1.854-1.26-5.633-2.889-8.598c-1.631-2.964-4.076-5.632-5.559-6.818
			s-1.111-2.075-1.111-2.742s0.074-2.075,0.074-3.039s-0.334-1.63-0.965-1.63c-0.371,0-2.148,0-2.52,0
			c-0.742,0-0.889,0.89-0.889,1.185c0,0.297,0,0.075,0,1.038c0,0.963-0.596,1.407-1.189,1.407c-0.59,0-2.813,0-3.704,0
			c-0.89,0-3.112,0-3.706,0c-0.592,0-1.186-0.444-1.186-1.407c0-0.963,0-0.741,0-1.038c0-0.295-0.147-1.185-0.89-1.185
			c-0.37,0-2.149,0-2.521,0c-0.631,0-0.963,0.667-0.963,1.63s0.072,2.372,0.072,3.039s0.371,1.556-1.111,2.742
			c-1.48,1.186-3.928,3.854-5.557,6.818C6.823,25.9,5.638,29.68,5.562,31.533c-0.073,1.852,0,5.188,0,5.779
			c0,0.594,0.075,1.779,2.668,1.779c2.595,0,16.082,0,16.082,0s13.487,0,16.081,0s2.668-1.188,2.668-1.779
			S43.137,33.385,43.061,31.533z"/>
		<path fill="#7E5B45" d="M40.393,40.092H8.23c-3.031,0-3.668-1.512-3.668-2.779c0-0.129-0.004-0.391-0.009-0.74
			c-0.017-1.262-0.049-3.611,0.01-5.078c0.088-2.154,1.41-6.125,3.01-9.039c1.663-3.026,4.177-5.811,5.809-7.118
			c0.832-0.666,0.802-1.035,0.759-1.545c-0.012-0.146-0.022-0.285-0.022-0.417c0-0.295-0.015-0.739-0.03-1.224
			c-0.021-0.609-0.042-1.28-0.042-1.815c0-1.941,1.058-2.63,1.963-2.63h2.521c1.228,0,1.89,1.126,1.89,2.185v1.038
			c0,0.122,0.019,0.407,0.186,0.407h7.41c0.165,0,0.189-0.255,0.189-0.407V9.891c0-1.059,0.662-2.185,1.889-2.185h2.52
			c0.906,0,1.965,0.689,1.965,2.63c0,0.536-0.022,1.207-0.043,1.816c-0.016,0.484-0.031,0.928-0.031,1.223
			c0,0.132-0.011,0.271-0.022,0.417c-0.043,0.51-0.073,0.879,0.759,1.545c1.63,1.304,4.143,4.087,5.81,7.117
			c1.603,2.918,2.926,6.889,3.012,9.041c0.061,1.467,0.027,3.816,0.01,5.078c-0.005,0.35-0.009,0.611-0.009,0.74
			C44.061,38.58,43.424,40.092,40.393,40.092z M16.135,9.706c-0.039,0.102-0.09,0.305-0.09,0.63c0,0.516,0.021,1.162,0.041,1.75
			c0.017,0.511,0.031,0.979,0.031,1.29c0,0.079,0.008,0.162,0.016,0.25c0.078,0.939,0.033,2.044-1.502,3.273
			c-1.237,0.991-3.671,3.545-5.306,6.52c-1.622,2.955-2.698,6.535-2.765,8.156c-0.056,1.412-0.024,3.727-0.008,4.971
			c0.005,0.363,0.009,0.635,0.009,0.768c0,0.328,0,0.779,1.668,0.779h32.163c1.668,0,1.668-0.451,1.668-0.779
			c0-0.133,0.004-0.406,0.009-0.768c0.018-1.244,0.05-3.557-0.008-4.971c-0.065-1.621-1.141-5.199-2.766-8.156
			c-1.64-2.98-4.072-5.532-5.308-6.52c-1.535-1.229-1.58-2.333-1.502-3.273c0.008-0.088,0.016-0.171,0.016-0.25
			c0-0.311,0.016-0.779,0.032-1.29c0.021-0.587,0.042-1.233,0.042-1.75c0-0.325-0.051-0.528-0.091-0.63h-2.249
			c-0.019,0.062-0.032,0.138-0.033,0.186v1.038c0,1.58-1.102,2.407-2.189,2.407h-7.41c-1.086,0-2.186-0.827-2.186-2.407V9.891
			c-0.001-0.047-0.015-0.123-0.033-0.185H16.135z"/>
	</g>
	<g>
		<path fill="#FFFFFF" d="M24.276,16.963c-5.246,0-9.5,4.254-9.5,9.5s4.254,9.5,9.5,9.5c5.246,0,9.5-4.254,9.5-9.5
			S29.521,16.963,24.276,16.963z M24.276,30.975c-2.492,0-4.513-2.02-4.513-4.512s2.021-4.514,4.513-4.514
			c2.492,0,4.513,2.021,4.513,4.514C28.789,28.957,26.77,30.975,24.276,30.975z"/>
		<path fill="#7E5B45" d="M24.276,36.963c-5.79,0-10.5-4.711-10.5-10.5c0-5.79,4.71-10.5,10.5-10.5c5.79,0,10.5,4.71,10.5,10.5
			C34.775,32.252,30.065,36.963,24.276,36.963z M24.276,17.963c-4.687,0-8.5,3.813-8.5,8.5s3.813,8.5,8.5,8.5
			c4.687,0,8.5-3.813,8.5-8.5S28.963,17.963,24.276,17.963z M24.276,31.975c-3.04,0-5.513-2.473-5.513-5.512
			s2.473-5.514,5.513-5.514c3.041,0,5.513,2.475,5.513,5.514S27.316,31.975,24.276,31.975z M24.276,22.949
			c-1.937,0-3.513,1.576-3.513,3.514s1.576,3.512,3.513,3.512c1.937,0,3.513-1.574,3.513-3.512S26.213,22.949,24.276,22.949z"/>
	</g>
</g>
</svg>
