<?xml version="1.0" encoding="utf-8"?>
<!-- Generator: Adobe Illustrator 16.0.3, SVG Export Plug-In . SVG Version: 6.00 Build 0)  -->
<!DOCTYPE svg PUBLIC "-//W3C//DTD SVG 1.1//EN" "http://www.w3.org/Graphics/SVG/1.1/DTD/svg11.dtd">
<svg version="1.1" id="レイヤー_1" xmlns="http://www.w3.org/2000/svg" xmlns:xlink="http://www.w3.org/1999/xlink" x="0px"
	 y="0px" width="53px" height="64px" viewBox="0 0 53 64" enable-background="new 0 0 53 64" xml:space="preserve">
<g>
	<g>
		<polygon fill="#A5AEB4" points="48.52,46.431 52.17,50.778 52.17,63.126 0.75,63.126 0.75,50.778 4.402,46.431 		"/>
		<path fill="#7E5B45" d="M52.17,63.876H0.75c-0.414,0-0.75-0.336-0.75-0.75V50.778c0-0.177,0.063-0.348,0.176-0.482l3.652-4.348
			c0.143-0.17,0.353-0.268,0.574-0.268H48.52c0.222,0,0.432,0.098,0.574,0.268l3.65,4.348c0.113,0.135,0.176,0.306,0.176,0.482
			v12.348C52.92,63.54,52.584,63.876,52.17,63.876z M1.5,62.376h49.92V51.052l-3.25-3.871H4.752L1.5,51.052V62.376z"/>
	</g>
	<g>
		<g>
			<path fill="#A5AEB4" d="M48.83,45.293c0,1.56-1.275,2.835-2.834,2.835H6.926c-1.559,0-2.834-1.275-2.834-2.835V3.585
				c0-1.56,1.275-2.835,2.834-2.835h39.07c1.559,0,2.834,1.275,2.834,2.835V45.293z"/>
		</g>
		<g>
			<path fill="#7E5B45" d="M45.996,48.878H6.926c-1.977,0-3.584-1.608-3.584-3.585V3.585C3.342,1.608,4.949,0,6.926,0h39.07
				c1.977,0,3.584,1.608,3.584,3.585v41.708C49.58,47.27,47.973,48.878,45.996,48.878z M6.926,1.5c-1.149,0-2.084,0.936-2.084,2.085
				v41.708c0,1.149,0.935,2.085,2.084,2.085h39.07c1.149,0,2.084-0.936,2.084-2.085V3.585c0-1.149-0.935-2.085-2.084-2.085H6.926z"
				/>
		</g>
	</g>
	<g>
		<path fill="#7E5B45" d="M44.781,45.741H8.141c-1.001,0-1.816-0.816-1.816-1.818V4.954c0-1.002,0.815-1.817,1.816-1.817h36.641
			c1.002,0,1.818,0.815,1.818,1.817v38.969C46.6,44.925,45.783,45.741,44.781,45.741z M8.141,3.938
			c-0.561,0-1.016,0.456-1.016,1.017v38.969c0,0.562,0.455,1.018,1.016,1.018h36.641c0.562,0,1.018-0.456,1.018-1.018V4.954
			c0-0.561-0.456-1.017-1.018-1.017H8.141z"/>
	</g>
	<g>
		<g>
			<path fill="#FFFFFF" d="M43.871,38.367c0,0.78-0.639,1.417-1.418,1.417H10.471c-0.779,0-1.418-0.637-1.418-1.417V7.421
				c0-0.779,0.639-1.417,1.418-1.417h31.982c0.779,0,1.418,0.638,1.418,1.417V38.367z"/>
		</g>
		<g>
			<path fill="#7E5B45" d="M42.453,40.534H10.471c-1.195,0-2.168-0.972-2.168-2.167V7.421c0-1.195,0.973-2.167,2.168-2.167h31.982
				c1.195,0,2.168,0.972,2.168,2.167v30.946C44.621,39.563,43.648,40.534,42.453,40.534z M10.471,6.754
				c-0.368,0-0.668,0.299-0.668,0.667v30.946c0,0.368,0.3,0.667,0.668,0.667h31.982c0.368,0,0.668-0.299,0.668-0.667V7.421
				c0-0.368-0.3-0.667-0.668-0.667H10.471z"/>
		</g>
	</g>
	<g>
		<rect x="12.701" y="11.496" fill="#A7B68B" width="26.945" height="12.144"/>
		<path fill="#7E5B45" d="M39.646,24.04H12.701c-0.221,0-0.4-0.18-0.4-0.4V11.496c0-0.221,0.18-0.4,0.4-0.4h26.945
			c0.221,0,0.4,0.18,0.4,0.4V23.64C40.047,23.86,39.867,24.04,39.646,24.04z M13.102,23.239h26.145V11.896H13.102V23.239z"/>
	</g>
	<g>
		<path fill="#7E5B45" d="M39.393,17.969H12.701c-0.221,0-0.4-0.18-0.4-0.4s0.18-0.4,0.4-0.4h26.691c0.221,0,0.4,0.18,0.4,0.4
			S39.613,17.969,39.393,17.969z"/>
	</g>
	<g>
		<path fill="#7E5B45" d="M23.959,17.843c-0.221,0-0.4-0.18-0.4-0.4v-5.693c0-0.221,0.18-0.4,0.4-0.4s0.4,0.18,0.4,0.4v5.693
			C24.359,17.663,24.18,17.843,23.959,17.843z"/>
	</g>
	<g>
		<path fill="#7E5B45" d="M33.699,17.843c-0.221,0-0.4-0.18-0.4-0.4v-5.693c0-0.221,0.18-0.4,0.4-0.4s0.4,0.18,0.4,0.4v5.693
			C34.1,17.663,33.92,17.843,33.699,17.843z"/>
	</g>
	<g>
		<path fill="#7E5B45" d="M43.525,28.627H9.191c-0.221,0-0.4-0.18-0.4-0.4s0.18-0.4,0.4-0.4h34.334c0.221,0,0.4,0.18,0.4,0.4
			S43.746,28.627,43.525,28.627z"/>
	</g>
	<g>
		<path fill="#7E5B45" d="M43.525,33.71H9.191c-0.221,0-0.4-0.18-0.4-0.4s0.18-0.4,0.4-0.4h34.334c0.221,0,0.4,0.18,0.4,0.4
			S43.746,33.71,43.525,33.71z"/>
	</g>
	<g>
		<path fill="#7E5B45" d="M32.525,38.377h-7.5c-0.221,0-0.4-0.18-0.4-0.4v-2.833c0-0.221,0.18-0.4,0.4-0.4h7.5
			c0.221,0,0.4,0.18,0.4,0.4v2.833C32.926,38.197,32.746,38.377,32.525,38.377z M25.426,37.576h6.699v-2.032h-6.699V37.576z"/>
	</g>
	<g>
		<path fill="#7E5B45" d="M41.609,38.377h-7.5c-0.221,0-0.4-0.18-0.4-0.4v-2.833c0-0.221,0.18-0.4,0.4-0.4h7.5
			c0.221,0,0.4,0.18,0.4,0.4v2.833C42.01,38.197,41.83,38.377,41.609,38.377z M34.51,37.576h6.699v-2.032H34.51V37.576z"/>
	</g>
	<g>
		<path fill="#7E5B45" d="M43.525,10.427H9.191c-0.221,0-0.4-0.18-0.4-0.4s0.18-0.4,0.4-0.4h34.334c0.221,0,0.4,0.18,0.4,0.4
			S43.746,10.427,43.525,10.427z"/>
	</g>
	<g>
		<circle fill="#B4B4B5" cx="49.107" cy="55.001" r="1.275"/>
		<path fill="#7E5B45" d="M49.107,56.677c-0.924,0-1.676-0.752-1.676-1.676s0.752-1.676,1.676-1.676s1.676,0.752,1.676,1.676
			S50.031,56.677,49.107,56.677z M49.107,54.126c-0.482,0-0.875,0.393-0.875,0.875s0.393,0.875,0.875,0.875s0.875-0.393,0.875-0.875
			S49.59,54.126,49.107,54.126z"/>
	</g>
	<g>
		<circle fill="#B4B4B5" cx="49.107" cy="59.692" r="0.893"/>
		<path fill="#7E5B45" d="M49.107,60.985c-0.713,0-1.293-0.58-1.293-1.293s0.58-1.293,1.293-1.293s1.293,0.58,1.293,1.293
			S49.82,60.985,49.107,60.985z M49.107,59.2c-0.271,0-0.492,0.221-0.492,0.492s0.221,0.492,0.492,0.492s0.492-0.221,0.492-0.492
			S49.379,59.2,49.107,59.2z"/>
	</g>
	<g>
		<circle fill="#B4B4B5" cx="3.813" cy="55.001" r="1.275"/>
		<path fill="#7E5B45" d="M3.813,56.677c-0.924,0-1.676-0.752-1.676-1.676s0.752-1.676,1.676-1.676s1.676,0.752,1.676,1.676
			S4.736,56.677,3.813,56.677z M3.813,54.126c-0.482,0-0.875,0.393-0.875,0.875s0.393,0.875,0.875,0.875s0.875-0.393,0.875-0.875
			S4.295,54.126,3.813,54.126z"/>
	</g>
	<g>
		<circle fill="#B4B4B5" cx="3.813" cy="59.692" r="0.893"/>
		<path fill="#7E5B45" d="M3.813,60.985c-0.713,0-1.293-0.58-1.293-1.293s0.58-1.293,1.293-1.293s1.293,0.58,1.293,1.293
			S4.525,60.985,3.813,60.985z M3.813,59.2c-0.271,0-0.492,0.221-0.492,0.492s0.221,0.492,0.492,0.492s0.492-0.221,0.492-0.492
			S4.084,59.2,3.813,59.2z"/>
	</g>
</g>
</svg>
