<?xml version="1.0" encoding="utf-8"?>
<!-- Generator: Adobe Illustrator 16.0.3, SVG Export Plug-In . SVG Version: 6.00 Build 0)  -->
<!DOCTYPE svg PUBLIC "-//W3C//DTD SVG 1.1//EN" "http://www.w3.org/Graphics/SVG/1.1/DTD/svg11.dtd">
<svg version="1.1" id="レイヤー_1" xmlns="http://www.w3.org/2000/svg" xmlns:xlink="http://www.w3.org/1999/xlink" x="0px"
	 y="0px" width="99px" height="70px" viewBox="0 0 99 70" enable-background="new 0 0 99 70" xml:space="preserve">
<g>
	<g>
		<g>
			<path fill="#FFFFFF" d="M96.507,57.82c1.82,4.434-0.399,8.262-4.398,9.902c-4.001,1.641-8.27,0.48-10.088-3.955
				c-1.821-4.434-1.273-11.104,3.158-12.922C89.671,49.002,94.687,53.385,96.507,57.82z"/>
			<path fill="#7E5B45" d="M88.674,69.932c-3.652,0-6.584-2.039-8.041-5.596c-1.037-2.525-1.356-5.625-0.852-8.289
				c0.609-3.223,2.324-5.563,4.828-6.59c0.88-0.361,1.81-0.543,2.762-0.543c4.612,0,8.864,4.295,10.523,8.338
				c1.031,2.51,1.013,5.008-0.054,7.219c-0.977,2.027-2.811,3.674-5.163,4.639C91.349,69.656,90.001,69.932,88.674,69.932z
				 M87.371,51.914c-0.56,0-1.106,0.107-1.623,0.318c-1.965,0.807-2.727,2.822-3.02,4.371c-0.4,2.119-0.146,4.582,0.68,6.594
				c0.987,2.408,2.857,3.734,5.266,3.734c0.935,0,1.899-0.201,2.865-0.598c1.666-0.684,2.944-1.809,3.6-3.166
				c0.687-1.424,0.68-3.076-0.02-4.777C93.813,55.207,90.558,51.914,87.371,51.914z"/>
		</g>
		<g>
			<path fill="#7E5B45" d="M81.262,61.059c-0.179,0-0.36-0.047-0.524-0.148c-0.47-0.289-0.615-0.906-0.325-1.375
				c0.151-0.246,3.829-6.031,13.522-6.375c0.526-0.021,1.016,0.412,1.034,0.963c0.02,0.553-0.412,1.016-0.964,1.035
				c-8.635,0.307-11.859,5.375-11.892,5.426C81.925,60.891,81.597,61.059,81.262,61.059z"/>
		</g>
		<g>
			<line fill="#FFFFFF" x1="87.157" y1="55.553" x2="85.224" y2="50.85"/>
			<path fill="#7E5B45" d="M87.157,56.553c-0.393,0-0.766-0.232-0.925-0.619l-1.934-4.703c-0.21-0.512,0.034-1.096,0.545-1.307
				c0.509-0.209,1.094,0.035,1.305,0.545l1.934,4.703c0.21,0.512-0.034,1.096-0.545,1.307
				C87.413,56.529,87.284,56.553,87.157,56.553z"/>
		</g>
	</g>
	<g>
		<g>
			<rect x="35.028" y="51.625" fill="#B4B4B5" width="6.798" height="8.711"/>
			<path fill="#7E5B45" d="M41.826,61.836h-6.798c-0.828,0-1.5-0.672-1.5-1.5v-8.711c0-0.828,0.672-1.5,1.5-1.5h6.798
				c0.828,0,1.5,0.672,1.5,1.5v8.711C43.326,61.164,42.654,61.836,41.826,61.836z M36.528,58.836h3.798v-5.711h-3.798V58.836z"/>
		</g>
		<g>
			<rect x="3.741" y="1.5" fill="#B4B4B5" width="69.4" height="51.326"/>
			<path fill="#7E5B45" d="M73.142,54.326h-69.4c-0.828,0-1.5-0.672-1.5-1.5V1.5c0-0.829,0.672-1.5,1.5-1.5h69.4
				c0.828,0,1.5,0.671,1.5,1.5v51.326C74.642,53.654,73.97,54.326,73.142,54.326z M5.241,51.326h66.4V3h-66.4V51.326z"/>
		</g>
		<g>
			<rect x="9.403" y="6.567" fill="#4593D0" width="58.074" height="41.193"/>
			<path fill="#7E5B45" d="M67.478,49.26H9.403c-0.828,0-1.5-0.672-1.5-1.5V6.567c0-0.829,0.672-1.5,1.5-1.5h58.074
				c0.828,0,1.5,0.671,1.5,1.5V47.76C68.978,48.588,68.306,49.26,67.478,49.26z M10.903,46.26h55.074V8.067H10.903V46.26z"/>
		</g>
		<g>
			<polygon fill="#B4B4B5" points="75.419,65.189 1.5,65.189 10.028,57.039 66.891,57.039 			"/>
			<path fill="#7E5B45" d="M75.438,66.689c-0.004,0-0.012,0-0.02,0H1.5c-0.613,0-1.164-0.373-1.393-0.943
				c-0.228-0.568-0.087-1.219,0.356-1.643l8.528-8.15c0.279-0.266,0.65-0.414,1.036-0.414h56.862c0.386,0,0.757,0.148,1.036,0.414
				l8.392,8.02c0.376,0.273,0.62,0.717,0.62,1.217C76.938,66.018,76.268,66.689,75.438,66.689z M5.24,63.689h66.438l-5.39-5.15
				H10.63L5.24,63.689z"/>
		</g>
		<g>
			<path fill="#7E5B45" d="M63.595,62.082H13.33c-0.553,0-1-0.447-1-1s0.447-1,1-1h50.265c0.553,0,1,0.447,1,1
				S64.147,62.082,63.595,62.082z"/>
		</g>
		<g>
			<path fill="#7E5B45" d="M38.446,61.977c-0.553,0-1-0.447-1-1v-3.768c0-0.553,0.447-1,1-1s1,0.447,1,1v3.768
				C39.446,61.529,38.999,61.977,38.446,61.977z"/>
		</g>
		<g>
			<path fill="#7E5B45" d="M32.715,61.975c-0.012,0-0.022,0-0.033,0c-0.553-0.02-0.985-0.48-0.967-1.033l0.123-3.766
				c0.019-0.553,0.528-0.986,1.031-0.967c0.553,0.02,0.985,0.48,0.967,1.033l-0.123,3.766
				C33.695,61.549,33.252,61.975,32.715,61.975z"/>
		</g>
		<g>
			<path fill="#7E5B45" d="M26.678,61.926c-0.075,0-0.151-0.008-0.228-0.025c-0.538-0.125-0.873-0.662-0.747-1.201l0.854-3.668
				c0.125-0.539,0.665-0.873,1.2-0.748c0.538,0.125,0.873,0.662,0.747,1.201l-0.854,3.668
				C27.543,61.615,27.132,61.926,26.678,61.926z"/>
		</g>
		<g>
			<path fill="#7E5B45" d="M20.22,61.787c-0.147,0-0.297-0.033-0.438-0.102c-0.496-0.242-0.702-0.842-0.46-1.338l1.652-3.385
				c0.242-0.496,0.845-0.703,1.337-0.459c0.496,0.242,0.702,0.84,0.46,1.336l-1.652,3.385C20.946,61.58,20.59,61.787,20.22,61.787z"
				/>
		</g>
		<g>
			<path fill="#7E5B45" d="M13.63,61.654c-0.192,0-0.387-0.057-0.559-0.172c-0.458-0.309-0.578-0.93-0.27-1.389l2.107-3.123
				c0.309-0.457,0.93-0.578,1.389-0.27c0.458,0.309,0.578,0.93,0.27,1.389l-2.107,3.123C14.267,61.5,13.951,61.654,13.63,61.654z"/>
		</g>
		<g>
			<path fill="#7E5B45" d="M44.184,61.975c-0.537,0-0.98-0.426-0.998-0.967l-0.123-3.766c-0.019-0.553,0.414-1.014,0.967-1.033
				c0.507-0.037,1.014,0.414,1.031,0.967l0.123,3.766c0.019,0.553-0.414,1.014-0.967,1.033
				C44.206,61.975,44.195,61.975,44.184,61.975z"/>
		</g>
		<g>
			<path fill="#7E5B45" d="M50.219,61.926c-0.454,0-0.866-0.313-0.973-0.773l-0.853-3.668c-0.125-0.539,0.209-1.076,0.747-1.201
				c0.535-0.123,1.076,0.209,1.2,0.748l0.853,3.668c0.125,0.539-0.209,1.076-0.747,1.201C50.37,61.918,50.294,61.926,50.219,61.926z
				"/>
		</g>
		<g>
			<path fill="#7E5B45" d="M56.678,61.787c-0.37,0-0.727-0.207-0.899-0.563l-1.652-3.385c-0.242-0.496-0.036-1.094,0.46-1.336
				c0.496-0.244,1.096-0.037,1.337,0.459l1.652,3.385c0.242,0.496,0.036,1.096-0.46,1.338
				C56.975,61.754,56.824,61.787,56.678,61.787z"/>
		</g>
		<g>
			<path fill="#7E5B45" d="M63.27,61.654c-0.321,0-0.637-0.154-0.83-0.441l-2.108-3.123c-0.309-0.459-0.188-1.08,0.27-1.389
				c0.458-0.311,1.08-0.188,1.389,0.27l2.108,3.123c0.309,0.459,0.188,1.08-0.27,1.389C63.656,61.598,63.462,61.654,63.27,61.654z"
				/>
		</g>
	</g>
</g>
</svg>
