<?xml version="1.0" encoding="utf-8"?>
<!-- Generator: Adobe Illustrator 16.0.3, SVG Export Plug-In . SVG Version: 6.00 Build 0)  -->
<!DOCTYPE svg PUBLIC "-//W3C//DTD SVG 1.1//EN" "http://www.w3.org/Graphics/SVG/1.1/DTD/svg11.dtd">
<svg version="1.1" id="レイヤー_1" xmlns="http://www.w3.org/2000/svg" xmlns:xlink="http://www.w3.org/1999/xlink" x="0px"
	 y="0px" width="46px" height="79px" viewBox="0 0 46 79" enable-background="new 0 0 46 79" xml:space="preserve">
<g>
	<g>
		<path fill="#DECBA0" d="M3.635,77.383h37.996c0,0,0.227-24.648-1.669-28.441c-1.896-3.791-10.238-7.887-17.822-7.887
			S7.958,44.469,5.986,48.336S3.635,77.383,3.635,77.383z"/>
	</g>
	<g>
		<path fill="#B3BB95" d="M38.352,44.494c2.615,1.686,3.94,3.596,4.719,6.297c0.688,2.385,0.961,5.4,1.152,9.203
			c0.415,8.273,0.002,17.398,0.002,17.398l-6.511-0.021c0,0-0.009-4.223-0.053-10.65c-0.067-9.729-0.371-14.639-0.371-14.639
			s-0.002-3.156-0.433-4.641c-0.401-1.383-6.303-3.807-6.303-3.807l-0.906-2.797c0,0,3.032,0.869,5.859,2.141
			C36.49,43.42,37.564,43.988,38.352,44.494z"/>
	</g>
	<g>
		<path fill="#B3BB95" d="M6.798,44.494c-2.615,1.686-3.94,3.596-4.719,6.297c-0.688,2.385-0.961,5.4-1.152,9.203
			c-0.415,8.273-0.002,17.398-0.002,17.398l6.567-0.021c0,0-0.048-4.223-0.004-10.65c0.067-9.729,0.371-14.639,0.371-14.639
			s0.002-3.156,0.433-4.641c0.401-1.383,6.303-3.807,6.303-3.807l0.906-2.797c0,0-3.032,0.869-5.859,2.141
			C8.659,43.42,7.585,43.988,6.798,44.494z"/>
	</g>
	<g>
		<path fill="#7E5B45" d="M0.931,78.143c-0.398,0-0.73-0.313-0.748-0.716c-0.004-0.092-0.41-9.256,0.002-17.47
			c0.402-7.997,1.043-13.084,6.537-16.294c4.78-2.797,10.403-3.996,10.64-4.046c0.412-0.086,0.803,0.175,0.889,0.58
			c0.085,0.405-0.175,0.803-0.58,0.889c-0.056,0.012-5.627,1.201-10.191,3.872c-4.678,2.733-5.384,6.889-5.796,15.074
			c-0.408,8.143-0.006,17.235-0.002,17.326c0.019,0.414-0.302,0.765-0.715,0.783C0.954,78.143,0.942,78.143,0.931,78.143z"/>
	</g>
	<g>
		<path fill="#7E5B45" d="M44.23,78.143c-0.012,0-0.023,0-0.035-0.001c-0.413-0.019-0.733-0.369-0.715-0.783
			c0.004-0.091,0.406-9.186-0.002-17.327c-0.41-8.15-1.116-12.294-5.8-15.076c-4.543-2.698-10.127-3.857-10.183-3.868
			c-0.406-0.083-0.668-0.479-0.585-0.885c0.083-0.406,0.479-0.665,0.884-0.586c0.238,0.049,5.884,1.219,10.649,4.05
			c5.492,3.261,6.132,8.33,6.532,16.29c0.412,8.215,0.006,17.379,0.002,17.471C44.961,77.829,44.629,78.143,44.23,78.143z"/>
	</g>
	<g>
		<path fill="#B3BB95" d="M21.112,53.742c-0.305-0.252-0.185-0.162-0.586-0.422c-0.658-0.42-1.205-0.738-1.877-1.141
			c-0.768-0.459-1.271-0.66-2.054-1.092c-0.254-0.139-0.567-0.27-0.614-0.563c-0.091-0.582,0.812-1.514,1.088-1.947
			c0.358-0.561,0.345-0.775-0.32-1.057c-1.053-0.447-2.451-0.977-3.146-1.33c-0.881-0.449-0.354-1.582-0.148-2.242
			c0.279-0.908,1.13-2.713,1.494-3.467c0.301-0.623,2.592-1.744,3.411-1.689"/>
	</g>
	<g>
		<path fill="#DECBA0" d="M22.492,53.76c0.172-0.281-0.094-1.031-0.094-1.031c-0.094-0.344-0.457-1.48-0.668-1.895
			c-0.344-0.672-0.632-1.381-0.891-2.09c-0.251-0.688-0.464-1.42-0.875-2.027c-0.176-0.26-0.352-0.707-0.724-0.582
			c-0.28,0.094-0.408,0.197-0.702,0.516c-0.239,0.258-0.908,1.063-1.094,1.359c-0.143,0.229-0.23,0.34-0.376,0.568
			c-0.276,0.434-1.179,1.365-1.088,1.947c0.047,0.293,0.36,0.424,0.614,0.563c0.783,0.432,1.286,0.633,2.054,1.092
			c0.672,0.402,1.219,0.721,1.877,1.141c0.401,0.26,0.281,0.17,0.586,0.422c0,0,0.599,0.486,0.911,0.33S22.492,53.76,22.492,53.76z"
			/>
	</g>
	<g>
		<path fill="#7E5B45" d="M21.112,54.492c-0.169,0-0.338-0.057-0.478-0.172l-0.095-0.078c-0.114-0.096-0.115-0.096-0.242-0.177
			l-0.179-0.115c-0.508-0.324-0.951-0.588-1.44-0.879l-0.415-0.248c-0.428-0.256-0.771-0.429-1.131-0.609
			c-0.276-0.14-0.563-0.284-0.899-0.469c-0.362-0.192-0.892-0.473-0.992-1.102c-0.119-0.759,0.467-1.514,0.938-2.121
			c0.097-0.124,0.184-0.235,0.243-0.325c-0.354-0.149-0.744-0.308-1.133-0.466c-0.794-0.322-1.544-0.626-2.026-0.871
			c-1.354-0.69-0.828-2.235-0.604-2.895l0.079-0.239c0.3-0.977,1.173-2.822,1.534-3.57c0.46-0.954,3.102-2.188,4.137-2.111
			c0.413,0.027,0.727,0.385,0.698,0.798c-0.027,0.413-0.385,0.727-0.798,0.698c-0.539-0.032-2.409,0.868-2.698,1.29
			c-0.545,1.131-1.219,2.619-1.44,3.339l-0.092,0.278c-0.205,0.603-0.299,0.992-0.136,1.075c0.425,0.216,1.18,0.522,1.91,0.818
			c0.409,0.166,0.819,0.333,1.188,0.489c0.393,0.166,0.815,0.4,0.964,0.879c0.166,0.536-0.141,1.015-0.305,1.272
			c-0.078,0.122-0.199,0.281-0.338,0.459c-0.155,0.201-0.487,0.63-0.601,0.885c0.032,0.019,0.066,0.036,0.094,0.051l0.099,0.053
			c0.32,0.177,0.591,0.313,0.853,0.444c0.39,0.196,0.762,0.384,1.227,0.662l0.413,0.246c0.502,0.3,0.957,0.57,1.482,0.906
			l0.177,0.113c0.206,0.132,0.206,0.132,0.393,0.287l0.091,0.075c0.319,0.264,0.364,0.737,0.101,1.056
			C21.542,54.399,21.328,54.492,21.112,54.492z"/>
	</g>
	<g>
		<path fill="#B3BB95" d="M23.981,53.742c0.305-0.252,0.185-0.162,0.586-0.422c0.658-0.42,1.205-0.738,1.877-1.141
			c0.768-0.459,1.271-0.66,2.054-1.092c0.254-0.139,0.567-0.27,0.614-0.563c0.091-0.582-0.812-1.514-1.088-1.947
			c-0.358-0.561-0.345-0.775,0.32-1.057c1.053-0.447,2.451-0.977,3.146-1.33c0.881-0.449,0.354-1.582,0.148-2.242
			c-0.279-0.908-1.13-2.713-1.494-3.467c-0.301-0.623-2.592-1.744-3.411-1.689"/>
	</g>
	<g>
		<path fill="#DECBA0" d="M22.602,53.76c-0.172-0.281,0.094-1.031,0.094-1.031c0.094-0.344,0.457-1.48,0.668-1.895
			c0.344-0.672,0.632-1.381,0.891-2.09c0.251-0.688,0.464-1.42,0.875-2.027c0.176-0.26,0.352-0.707,0.724-0.582
			c0.28,0.094,0.408,0.197,0.702,0.516c0.239,0.258,0.908,1.063,1.094,1.359c0.143,0.229,0.23,0.34,0.376,0.568
			c0.276,0.434,1.179,1.365,1.088,1.947c-0.047,0.293-0.36,0.424-0.614,0.563c-0.783,0.432-1.286,0.633-2.054,1.092
			c-0.672,0.402-1.219,0.721-1.877,1.141c-0.401,0.26-0.281,0.17-0.586,0.422c0,0-0.599,0.486-0.911,0.33S22.602,53.76,22.602,53.76
			z"/>
	</g>
	<g>
		<path fill="#7E5B45" d="M23.981,54.492c-0.216,0-0.43-0.093-0.578-0.272c-0.264-0.318-0.219-0.792,0.101-1.056l0.091-0.075
			c0.187-0.155,0.187-0.155,0.393-0.287l0.173-0.111c0.529-0.338,0.984-0.608,1.486-0.908l0.412-0.246
			c0.466-0.278,0.838-0.466,1.228-0.662c0.262-0.132,0.532-0.268,0.85-0.443l0.102-0.054c0.031-0.017,0.069-0.036,0.104-0.057
			c-0.105-0.226-0.452-0.672-0.611-0.879c-0.139-0.178-0.26-0.337-0.339-0.46c-0.163-0.257-0.47-0.735-0.304-1.271
			c0.148-0.479,0.571-0.713,0.965-0.879c0.368-0.156,0.778-0.323,1.188-0.489c0.73-0.296,1.485-0.603,1.911-0.819
			c0.162-0.082,0.068-0.472-0.137-1.074l-0.091-0.276c-0.223-0.722-0.896-2.21-1.454-3.363c-0.275-0.398-2.179-1.303-2.686-1.268
			c-0.4,0.028-0.77-0.285-0.798-0.698s0.285-0.771,0.698-0.798c1.034-0.076,3.677,1.157,4.137,2.111
			c0.361,0.748,1.234,2.594,1.535,3.572l0.078,0.237c0.225,0.659,0.75,2.204-0.603,2.894c-0.483,0.246-1.233,0.55-2.027,0.872
			c-0.389,0.158-0.78,0.316-1.133,0.466c0.06,0.091,0.147,0.201,0.243,0.325c0.471,0.607,1.057,1.362,0.938,2.118
			c-0.102,0.632-0.631,0.912-0.916,1.063c-0.414,0.227-0.7,0.371-0.977,0.511c-0.36,0.181-0.703,0.354-1.132,0.609l-0.414,0.248
			c-0.489,0.291-0.933,0.555-1.444,0.881l-0.175,0.113c-0.127,0.081-0.128,0.081-0.242,0.177l-0.095,0.078
			C24.319,54.436,24.15,54.492,23.981,54.492z"/>
	</g>
	<g>
		<path fill="#FFFFFF" d="M17.742,38.871c0,0-0.814,1.76-0.601,2.402c0.216,0.643,5.409,12.379,5.409,12.379l5.231-11.865
			c0,0,0.259-0.855,0.084-1.244c-0.172-0.387-0.898-1.846-0.898-1.846"/>
		<path fill="#7E5B45" d="M22.551,54.402c-0.297,0-0.565-0.175-0.686-0.446c-0.533-1.205-5.214-11.787-5.435-12.443
			c-0.278-0.837,0.349-2.347,0.631-2.957c0.175-0.375,0.621-0.536,0.995-0.365c0.376,0.174,0.54,0.619,0.366,0.995
			c-0.339,0.733-0.607,1.625-0.564,1.869c0.145,0.418,2.676,6.179,4.691,10.741l4.546-10.312c0.05-0.186,0.102-0.55,0.075-0.664
			c-0.159-0.354-0.874-1.789-0.874-1.789l1.342-0.668c0,0,0.738,1.482,0.913,1.875c0.26,0.579,0.051,1.428-0.052,1.766
			l-5.263,11.951C23.117,54.227,22.849,54.402,22.551,54.402C22.551,54.402,22.551,54.402,22.551,54.402z"/>
	</g>
	<g>
		<path fill="#7E5B45" d="M26.438,45.49c-0.158,0-0.318-0.05-0.454-0.154l-3.508-2.679l-3.337,2.669
			c-0.322,0.258-0.795,0.206-1.055-0.117c-0.259-0.324-0.206-0.796,0.117-1.055l3.795-3.035c0.269-0.215,0.649-0.22,0.924-0.01
			l3.974,3.035c0.329,0.251,0.393,0.722,0.141,1.051C26.888,45.389,26.665,45.49,26.438,45.49z"/>
	</g>
	<g>
		<path fill="#BB6435" d="M34.725,8.24c0,0,1.733,1.346,2.384,3.947s0.928,7.545-0.677,13.285c-1.882,6.734-4.877,2.766-4.877,2.766
			V8.729L34.725,8.24z"/>
		<path fill="#7E5B45" d="M33.534,30.149c-1.436,0-2.466-1.31-2.578-1.459c-0.099-0.131-0.151-0.289-0.151-0.452V8.729
			c0-0.37,0.27-0.685,0.636-0.741l3.17-0.488c0.202-0.031,0.41,0.022,0.574,0.148c0.079,0.062,1.946,1.537,2.651,4.358
			c0.717,2.865,0.913,7.961-0.682,13.669C36.324,28.645,35.106,30.149,33.534,30.149z M32.305,27.96
			c0.266,0.278,0.76,0.689,1.229,0.689c0.782,0,1.575-1.231,2.175-3.379c1.517-5.426,1.342-10.222,0.672-12.901
			c-0.445-1.78-1.441-2.901-1.89-3.334l-2.187,0.337V27.96z"/>
	</g>
	<g>
		<path fill="#FBD6A0" d="M34.805,21.998c0.226-0.373,0.877-0.604,1.556-0.463c1.126,0.23,1.94,1.236,2.037,2.498
			c0.181,2.352-1.448,3.809-3.497,4.1"/>
		<path fill="#7E5B45" d="M34.899,28.883c-0.367,0-0.688-0.271-0.741-0.645c-0.059-0.41,0.227-0.79,0.637-0.848
			c1.486-0.212,3.017-1.189,2.854-3.3C37.578,23.163,37,22.432,36.21,22.27c-0.401-0.085-0.712,0.054-0.768,0.123
			c-0.215,0.354-0.673,0.466-1.027,0.25c-0.354-0.214-0.467-0.678-0.252-1.032c0.403-0.667,1.388-1.009,2.35-0.81
			c1.451,0.297,2.51,1.573,2.633,3.175c0.195,2.551-1.468,4.521-4.14,4.899C34.97,28.881,34.935,28.883,34.899,28.883z"/>
	</g>
	<g>
		<path fill="#7E5B45" d="M33.134,9.889c0,0,1.733,1.346,2.384,3.947c0.65,2.6,0.928,7.545-0.677,13.285
			c-1.882,6.734-4.877,2.764-4.877,2.764V10.377L33.134,9.889z"/>
		<path fill="#7E5B45" d="M31.944,31.798c-1.436,0-2.467-1.312-2.579-1.462c-0.099-0.13-0.151-0.288-0.151-0.451V10.377
			c0-0.37,0.27-0.685,0.636-0.741l3.17-0.488c0.202-0.031,0.411,0.022,0.574,0.148c0.079,0.062,1.946,1.537,2.651,4.358
			c0.717,2.864,0.914,7.959-0.682,13.669C34.733,30.292,33.516,31.798,31.944,31.798z M30.714,29.606
			c0.266,0.278,0.761,0.691,1.23,0.691c0.781,0,1.574-1.231,2.174-3.379c1.518-5.427,1.342-10.223,0.672-12.901
			c-0.445-1.78-1.441-2.901-1.89-3.334l-2.187,0.337V29.606z"/>
	</g>
	<g>
		<path fill="#BB6435" d="M10.441,8.24c0,0-1.732,1.346-2.383,3.947S7.13,19.732,8.734,25.473c1.882,6.734,4.878,2.766,4.878,2.766
			V8.729L10.441,8.24z"/>
		<path fill="#7E5B45" d="M11.633,30.149L11.633,30.149c-1.573,0-2.791-1.506-3.621-4.475c-1.595-5.707-1.397-10.803-0.681-13.669
			c0.705-2.821,2.571-4.297,2.65-4.358c0.162-0.126,0.37-0.178,0.574-0.148l3.171,0.488c0.365,0.057,0.636,0.371,0.636,0.741v19.51
			c0,0.163-0.053,0.321-0.151,0.452C14.098,28.84,13.067,30.149,11.633,30.149z M10.678,9.035c-0.448,0.437-1.451,1.571-1.892,3.334
			c-0.67,2.681-0.846,7.478,0.671,12.901c0.6,2.147,1.393,3.379,2.176,3.379c0.476,0,0.973-0.421,1.229-0.689V9.372L10.678,9.035z"
			/>
	</g>
	<g>
		<path fill="#FBD6A0" d="M10.361,21.998c-0.226-0.373-0.877-0.604-1.556-0.463c-1.126,0.23-1.939,1.236-2.037,2.498
			c-0.181,2.352,1.448,3.809,3.497,4.1"/>
		<path fill="#7E5B45" d="M10.267,28.883c-0.035,0-0.07-0.002-0.106-0.008c-2.672-0.379-4.335-2.349-4.14-4.899
			c0.124-1.603,1.183-2.878,2.635-3.175c0.954-0.2,1.943,0.142,2.348,0.81c0.215,0.354,0.101,0.815-0.254,1.029
			s-0.813,0.102-1.026-0.249c-0.06-0.069-0.37-0.204-0.765-0.121c-0.791,0.162-1.37,0.894-1.441,1.821
			c-0.162,2.11,1.368,3.088,2.854,3.3c0.41,0.058,0.695,0.438,0.637,0.848C10.955,28.612,10.634,28.883,10.267,28.883z"/>
	</g>
	<g>
		<path fill="#7E5B45" d="M12.033,9.889c0,0-1.733,1.346-2.384,3.947c-0.65,2.6-0.929,7.545,0.676,13.285
			c1.882,6.734,4.878,2.764,4.878,2.764V10.377L12.033,9.889z"/>
		<path fill="#7E5B45" d="M13.223,31.798L13.223,31.798c-1.572-0.001-2.79-1.506-3.62-4.475C8.008,21.615,8.205,16.52,8.922,13.654
			c0.705-2.821,2.572-4.297,2.651-4.358c0.163-0.126,0.372-0.18,0.574-0.148l3.17,0.488c0.366,0.057,0.636,0.371,0.636,0.741v19.508
			c0,0.163-0.053,0.321-0.151,0.452C15.689,30.486,14.658,31.798,13.223,31.798z M12.27,10.684
			c-0.448,0.437-1.452,1.571-1.893,3.334c-0.67,2.68-0.846,7.476,0.671,12.901c0.6,2.147,1.393,3.379,2.175,3.379
			c0.477,0,0.974-0.422,1.23-0.691V11.021L12.27,10.684z"/>
	</g>
	<g>
		<path fill="#FBD6A0" d="M24.113,41.582c1.937-0.146,4.825-0.77,6.89-1.887c2.194-1.188,3.342-3.021,3.76-4.951
			c0.412-1.902,0.441-4.705,0.362-7.123c-0.045-1.383-0.134-3.664-0.086-5.424c0.051-1.873-0.14-3.316-0.249-4.627H10.376
			c-0.109,1.311-0.3,2.754-0.249,4.627c0.048,1.76-0.04,4.041-0.085,5.424c-0.079,2.418-0.05,5.221,0.361,7.123
			c0.418,1.93,1.565,3.764,3.76,4.951c2.065,1.117,4.953,1.74,6.89,1.887c0,0,0.736,0.068,1.526,0.068
			C23.37,41.65,24.113,41.582,24.113,41.582z"/>
		<path fill="#7E5B45" d="M22.579,42.4c-0.815,0-1.564-0.068-1.596-0.071c-1.885-0.143-4.907-0.746-7.177-1.974
			c-2.767-1.498-3.776-3.792-4.137-5.452c-0.355-1.646-0.482-4.104-0.378-7.307l0.015-0.435c0.045-1.347,0.113-3.381,0.07-4.944
			c-0.042-1.552,0.076-2.814,0.181-3.93l0.071-0.78c0.032-0.389,0.357-0.688,0.747-0.688H34.79c0.39,0,0.715,0.299,0.747,0.688
			l0.071,0.78c0.104,1.115,0.223,2.378,0.181,3.93c-0.043,1.554,0.022,3.499,0.07,4.92l0.016,0.459
			c0.104,3.204-0.023,5.662-0.379,7.307c-0.36,1.66-1.37,3.954-4.136,5.451c-2.27,1.229-5.292,1.832-7.19,1.976
			C24.15,42.332,23.396,42.4,22.579,42.4z M11.062,18.32l-0.01,0.108c-0.101,1.072-0.215,2.287-0.175,3.748
			c0.044,1.609-0.025,3.671-0.071,5.035l-0.014,0.434c-0.102,3.08,0.015,5.415,0.345,6.94c0.293,1.353,1.118,3.224,3.384,4.45
			c1.93,1.044,4.7,1.655,6.589,1.798c0.02,0.002,0.727,0.066,1.47,0.066c0.745,0,1.459-0.064,1.466-0.065
			c1.901-0.144,4.672-0.755,6.601-1.799c2.266-1.227,3.091-3.098,3.384-4.451c0.331-1.523,0.447-3.858,0.346-6.939l-0.015-0.458
			c-0.049-1.439-0.114-3.411-0.071-5.011c0.04-1.461-0.074-2.676-0.175-3.748l-0.01-0.108H11.062z"/>
	</g>
	<g>
		<path fill="#7E5B45" d="M19.078,21.279c-0.097,0-0.194-0.035-0.271-0.106c-0.361-0.334-1.421-0.569-2.191-0.17
			c-0.193,0.103-0.438,0.026-0.539-0.17c-0.103-0.195-0.026-0.438,0.17-0.539c1.144-0.599,2.563-0.208,3.104,0.291
			c0.162,0.149,0.173,0.402,0.022,0.565C19.293,21.235,19.186,21.279,19.078,21.279z"/>
	</g>
	<g>
		<path fill="#7E5B45" d="M18.002,27.08c-0.391,0-0.72-0.303-0.747-0.698c-0.045-0.646-0.02-1.104,0.009-1.375
			c0.044-0.411,0.428-0.707,0.825-0.667c0.412,0.044,0.711,0.414,0.667,0.825c-0.019,0.174-0.044,0.548-0.005,1.113
			c0.028,0.413-0.283,0.771-0.696,0.8C18.037,27.079,18.02,27.08,18.002,27.08z"/>
	</g>
	<g>
		<path fill="#7E5B45" d="M26.089,21.279c-0.107,0-0.215-0.044-0.294-0.129c-0.15-0.163-0.14-0.416,0.022-0.565
			c0.543-0.5,1.96-0.889,3.103-0.291c0.196,0.102,0.272,0.344,0.17,0.539c-0.102,0.196-0.345,0.273-0.539,0.17
			c-0.771-0.399-1.828-0.163-2.19,0.17C26.283,21.244,26.186,21.279,26.089,21.279z"/>
	</g>
	<g>
		<path fill="#7E5B45" d="M27.165,27.08c-0.018,0-0.034-0.001-0.052-0.002c-0.413-0.027-0.726-0.386-0.697-0.799
			c0.039-0.575,0.014-0.943-0.005-1.111c-0.046-0.411,0.251-0.782,0.663-0.827c0.399-0.058,0.781,0.251,0.827,0.663
			c0.029,0.266,0.056,0.72,0.011,1.377C27.886,26.776,27.556,27.08,27.165,27.08z"/>
	</g>
	<g>
		<path fill="#7E5B45" d="M22.672,31.117c-0.193,0-0.364-0.142-0.395-0.34c-0.033-0.219,0.116-0.423,0.335-0.456
			c0.249-0.038,0.445-0.13,0.523-0.246c0.02-0.029,0.079-0.118,0.027-0.337c-0.061-0.258-0.142-0.514-0.224-0.776
			c-0.186-0.594-0.396-1.267-0.44-2.107c-0.012-0.22,0.158-0.408,0.379-0.42c0.234-0.003,0.409,0.158,0.42,0.379
			c0.039,0.739,0.225,1.334,0.405,1.909c0.088,0.281,0.173,0.555,0.239,0.831c0.109,0.463-0.018,0.782-0.144,0.968
			c-0.279,0.415-0.787,0.548-1.065,0.591C22.713,31.115,22.692,31.117,22.672,31.117z"/>
	</g>
	<g>
		<path fill="#7E5B45" d="M22.689,35.971c-0.418,0-0.834-0.027-1.195-0.086c-1.377-0.216-2.546-1.21-3.049-2.041
			c-0.115-0.188-0.055-0.435,0.135-0.549c0.187-0.114,0.435-0.055,0.549,0.135c0.424,0.699,1.415,1.496,2.49,1.665
			c0.789,0.127,1.897,0.093,2.579-0.077c0.59-0.146,0.974-0.297,1.558-0.766c0.21-0.167,0.494-0.509,0.623-0.865
			c0.076-0.207,0.305-0.315,0.513-0.239c0.208,0.075,0.314,0.305,0.239,0.513c-0.195,0.538-0.594,0.992-0.875,1.217
			c-0.692,0.555-1.189,0.751-1.865,0.918C23.924,35.91,23.304,35.971,22.689,35.971z"/>
	</g>
	<g>
		<path fill="#FFFFFF" d="M24.059,0.785c0,0,5.782-0.072,9.908,4.104c3.653,3.697,4.226,10.566,4.226,10.566
			s0.906,0.201,1.258,0.703c0.347,0.494,0.379,1.734-1.811,2.063c-2.012,0.303-6.648,0.674-14.54,0.711h-0.849
			c-7.929-0.037-12.712-0.408-14.724-0.711c-2.19-0.328-2.158-1.568-1.812-2.063c0.353-0.502,1.258-0.703,1.258-0.703
			S7.546,8.586,11.2,4.889c4.125-4.176,9.834-4.104,9.834-4.104s0.737-0.035,1.549-0.035S24.059,0.785,24.059,0.785z"/>
		<path fill="#7E5B45" d="M23.1,19.682h-0.849c-9.63-0.045-13.79-0.562-14.835-0.72c-1.619-0.242-2.241-0.951-2.479-1.504
			c-0.294-0.685-0.107-1.343,0.164-1.73c0.301-0.429,0.794-0.69,1.18-0.841c0.212-1.703,1.13-7.231,4.386-10.525
			c4.153-4.205,9.727-4.326,10.349-4.326c-0.001,0-0.001,0-0.001,0C21.018,0.035,21.764,0,22.583,0c0.833,0,1.516,0.036,1.516,0.036
			c0.002,0,0.005,0,0.008,0c0.648,0,6.257,0.139,10.394,4.325c3.255,3.294,4.173,8.821,4.385,10.525
			c0.386,0.15,0.88,0.412,1.18,0.841c0.271,0.388,0.458,1.046,0.164,1.73c-0.237,0.553-0.859,1.262-2.478,1.505
			c-1.046,0.157-5.196,0.674-14.647,0.719C23.102,19.682,23.101,19.682,23.1,19.682z M22.583,1.5c-0.789,0-1.507,0.034-1.513,0.034
			c-0.277,0.001-5.547,0.045-9.337,3.882C8.311,8.88,7.727,15.451,7.721,15.518c-0.027,0.327-0.264,0.599-0.584,0.67
			c-0.295,0.067-0.7,0.25-0.808,0.401c-0.021,0.03-0.069,0.146-0.013,0.277c0.044,0.104,0.271,0.455,1.322,0.612
			c2.103,0.317,7.047,0.668,14.616,0.703h0.844c9.35-0.044,13.408-0.549,14.43-0.702c1.05-0.158,1.277-0.509,1.321-0.613
			c0.057-0.131,0.008-0.247-0.014-0.277c-0.106-0.152-0.512-0.334-0.809-0.402c-0.318-0.073-0.555-0.344-0.582-0.669
			c-0.006-0.065-0.598-6.646-4.012-10.102c-3.791-3.837-9.131-3.881-9.355-3.881C24.011,1.534,23.368,1.5,22.583,1.5z"/>
	</g>
	<g>
		<path fill="#7E5B45" d="M17.297,14.273c-0.002,0-0.004,0-0.006,0c-7.93-0.111-9.679-0.665-9.75-0.688
			c-0.209-0.07-0.322-0.297-0.253-0.507c0.07-0.208,0.296-0.322,0.504-0.253c0.044,0.013,1.854,0.541,9.511,0.647
			c0.221,0.004,0.397,0.186,0.395,0.406C17.693,14.098,17.516,14.273,17.297,14.273z"/>
	</g>
	<g>
		<path fill="#7E5B45" d="M27.869,14.273c-0.219,0-0.396-0.176-0.4-0.395c-0.003-0.221,0.174-0.402,0.395-0.406
			c7.715-0.107,9.495-0.643,9.513-0.648c0.207-0.066,0.434,0.048,0.502,0.258c0.068,0.209-0.044,0.433-0.252,0.503
			c-0.071,0.023-1.82,0.577-9.751,0.688C27.873,14.273,27.871,14.273,27.869,14.273z"/>
	</g>
	<g>
		<rect x="20.101" y="12.928" fill="#7E5B45" width="4.968" height="1.5"/>
	</g>
	<g>
		<rect x="21.835" y="11.193" fill="#7E5B45" width="1.5" height="4.969"/>
	</g>
	<g>
		<path fill="#7E5B45" d="M16.935,62.895H10.39c-0.221,0-0.4-0.18-0.4-0.4v-7.586c0-0.221,0.18-0.4,0.4-0.4h6.545
			c0.221,0,0.4,0.18,0.4,0.4v7.586C17.335,62.715,17.155,62.895,16.935,62.895z M10.79,62.094h5.744v-6.785H10.79V62.094z"/>
	</g>
	<g>
		<path fill="#7E5B45" d="M16.835,57.391h-6.318c-0.221,0-0.4-0.18-0.4-0.4s0.18-0.4,0.4-0.4h6.318c0.221,0,0.4,0.18,0.4,0.4
			S17.056,57.391,16.835,57.391z"/>
	</g>
	<g>
		<path fill="#7E5B45" d="M22.598,77.75c-0.221,0-0.4-0.18-0.4-0.4V55.201c0-0.221,0.18-0.4,0.4-0.4s0.4,0.18,0.4,0.4V77.35
			C22.998,77.57,22.818,77.75,22.598,77.75z"/>
	</g>
	<g>
		<path fill="#7E5B45" d="M7.508,78.121c-0.412,0-0.747-0.332-0.75-0.745c0,0-0.038-5.398-0.07-11.829
			c-0.051-10.143,0.53-13.991,0.555-14.15c0.064-0.408,0.45-0.686,0.856-0.626c0.409,0.063,0.689,0.447,0.626,0.856
			c-0.006,0.038-0.587,3.922-0.537,13.912c0.032,6.429,0.07,11.826,0.07,11.827c0.003,0.414-0.33,0.752-0.745,0.755
			C7.512,78.121,7.51,78.121,7.508,78.121z"/>
	</g>
	<g>
		<path fill="#7E5B45" d="M37.719,78.121c-0.413,0-0.749-0.335-0.75-0.748c0-0.001-0.009-4.223-0.053-10.647
			c-0.066-9.59-0.366-14.548-0.37-14.598c-0.025-0.413,0.289-0.769,0.703-0.795c0.411-0.038,0.769,0.289,0.795,0.703
			c0.003,0.049,0.306,5.042,0.372,14.68c0.044,6.43,0.053,10.653,0.053,10.653c0.001,0.415-0.334,0.751-0.748,0.752
			C37.72,78.121,37.719,78.121,37.719,78.121z"/>
	</g>
	<g>
		<path fill="#7E5B45" d="M34.836,62.895h-6.544c-0.221,0-0.4-0.18-0.4-0.4v-7.586c0-0.221,0.18-0.4,0.4-0.4h6.544
			c0.221,0,0.4,0.18,0.4,0.4v7.586C35.236,62.715,35.057,62.895,34.836,62.895z M28.692,62.094h5.743v-6.785h-5.743V62.094z"/>
	</g>
	<g>
		<rect x="28.292" y="54.908" fill="#B3BB95" width="6.544" height="2.07"/>
		<path fill="#7E5B45" d="M34.836,57.379h-6.544c-0.221,0-0.4-0.18-0.4-0.4v-2.07c0-0.221,0.18-0.4,0.4-0.4h6.544
			c0.221,0,0.4,0.18,0.4,0.4v2.07C35.236,57.199,35.057,57.379,34.836,57.379z M28.692,56.578h5.743v-1.27h-5.743V56.578z"/>
	</g>
	<g>
		<polygon fill="#748BAC" points="20.333,43.4 22.466,41.705 24.581,43.322 23.502,46.322 24.395,49.467 22.551,53.643 
			20.733,49.553 21.573,46.322 		"/>
		<path fill="#7E5B45" d="M22.551,54.393c-0.296,0-0.565-0.175-0.686-0.445l-1.817-4.09c-0.068-0.155-0.083-0.329-0.04-0.493
			l0.775-2.983l-1.141-2.688c-0.132-0.311-0.04-0.67,0.224-0.88l2.133-1.695c0.269-0.213,0.649-0.218,0.922-0.009l2.115,1.617
			c0.26,0.198,0.361,0.542,0.251,0.85l-0.998,2.773l0.827,2.912c0.048,0.169,0.035,0.348-0.035,0.508l-1.844,4.176
			C23.117,54.217,22.849,54.393,22.551,54.393L22.551,54.393z M21.525,49.487l1.023,2.304l1.051-2.38l-0.819-2.884
			c-0.043-0.151-0.037-0.312,0.016-0.459l0.894-2.483l-1.215-0.929l-1.229,0.977l1.018,2.396c0.064,0.152,0.077,0.321,0.035,0.481
			L21.525,49.487z"/>
	</g>
	<g>
		<path fill="#7E5B45" d="M23.483,47.072h-1.925c-0.414,0-0.75-0.336-0.75-0.75s0.336-0.75,0.75-0.75h1.925
			c0.414,0,0.75,0.336,0.75,0.75S23.897,47.072,23.483,47.072z"/>
	</g>
</g>
</svg>
