<?xml version="1.0" encoding="utf-8"?>
<!-- Generator: Adobe Illustrator 16.0.3, SVG Export Plug-In . SVG Version: 6.00 Build 0)  -->
<!DOCTYPE svg PUBLIC "-//W3C//DTD SVG 1.1//EN" "http://www.w3.org/Graphics/SVG/1.1/DTD/svg11.dtd">
<svg version="1.1" id="レイヤー_1" xmlns="http://www.w3.org/2000/svg" xmlns:xlink="http://www.w3.org/1999/xlink" x="0px"
	 y="0px" width="145px" height="73px" viewBox="0 0 145 73" enable-background="new 0 0 145 73" xml:space="preserve">
<g>
	<g>
		<g>
			<rect x="4.429" y="35.234" fill="#FFFFFF" width="8.248" height="11.822"/>
			<path fill="#7E5B45" d="M12.677,47.807H4.429c-0.414,0-0.75-0.336-0.75-0.75V35.234c0-0.414,0.336-0.75,0.75-0.75h8.248
				c0.414,0,0.75,0.336,0.75,0.75v11.822C13.427,47.471,13.091,47.807,12.677,47.807z M5.179,46.307h6.748V35.984H5.179V46.307z"/>
		</g>
		<g>
			<rect x="8.917" y="38.277" fill="#7E5B45" width="0.301" height="0.895"/>
		</g>
		<g>
			<rect x="7.938" y="38.277" fill="#7E5B45" width="0.301" height="0.895"/>
		</g>
		<g>
			<path fill="#7E5B45" d="M10.685,40.422H6.44V36.98h4.244V40.422z M7.241,39.621h2.643v-1.84H7.241V39.621z"/>
		</g>
		<g>
			<rect x="8.917" y="43.09" fill="#7E5B45" width="0.301" height="0.895"/>
		</g>
		<g>
			<rect x="7.938" y="43.09" fill="#7E5B45" width="0.301" height="0.895"/>
		</g>
		<g>
			<path fill="#7E5B45" d="M10.685,45.234H6.44v-3.441h4.244V45.234z M7.241,44.434h2.643v-1.84H7.241V44.434z"/>
		</g>
	</g>
	<g>
		<polygon fill="#656464" points="24.731,58.939 30.148,55.707 57.377,55.707 62.795,58.939 		"/>
		<path fill="#7E5B45" d="M62.814,59.689c-0.005,0-0.012,0.001-0.02,0H24.731c-0.338,0-0.634-0.226-0.723-0.551
			c-0.09-0.325,0.049-0.67,0.338-0.844l5.417-3.232c0.116-0.069,0.249-0.105,0.385-0.105h27.229c0.136,0,0.269,0.036,0.384,0.105
			l5.326,3.178c0.279,0.109,0.478,0.381,0.478,0.699C63.564,59.354,63.229,59.689,62.814,59.689z M27.452,58.189h32.622
			l-2.904-1.732H30.355L27.452,58.189z"/>
	</g>
	<g>
		<path fill="#656464" d="M39.594,56.309c0,0,1.378,0.262,4.302,0.262c2.979,0,4.208-0.262,4.208-0.262v-7.074h-8.51V56.309z"/>
		<path fill="#7E5B45" d="M43.896,57.32c-2.96,0-4.383-0.264-4.441-0.274c-0.354-0.067-0.61-0.377-0.61-0.737v-7.074
			c0-0.414,0.336-0.75,0.75-0.75h8.51c0.414,0,0.75,0.336,0.75,0.75v7.074c0,0.354-0.247,0.66-0.594,0.733
			C48.206,57.054,46.919,57.32,43.896,57.32z M40.344,55.654c0.651,0.072,1.827,0.166,3.552,0.166c1.719,0,2.839-0.09,3.458-0.16
			v-5.676h-7.01V55.654z"/>
	</g>
	<g>
		
			<rect x="5.609" y="56.504" transform="matrix(0.8984 0.4391 -0.4391 0.8984 25.6702 2.8286)" fill="#7E5B45" width="2.224" height="0.8"/>
	</g>
	<g>
		
			<rect x="6.362" y="55.02" transform="matrix(0.8923 0.4514 -0.4514 0.8923 25.8233 2.5965)" fill="#7E5B45" width="2.215" height="0.799"/>
	</g>
	<g>
		<g>
			<g>
				
					<rect x="1.356" y="52.948" transform="matrix(0.8258 0.5639 -0.5639 0.8258 30.7806 7.7391)" fill="#ED781E" width="3.013" height="1.5"/>
			</g>
			<g>
				
					<rect x="0.816" y="56.427" transform="matrix(0.0898 0.996 -0.996 0.0898 59.1231 51.1675)" fill="#ED781E" width="1.5" height="3.01"/>
			</g>
		</g>
		<g>
			<g>
				
					<rect x="4.846" y="50.23" transform="matrix(0.2723 0.9622 -0.9622 0.2723 53.6763 30.9849)" fill="#ED781E" width="3.012" height="1.5"/>
			</g>
		</g>
	</g>
	<g>
		<path fill="#7E5B45" d="M17.448,60.738c-2.973,0-6.191-1.581-6.344-1.656c-0.371-0.185-0.521-0.635-0.338-1.005
			c0.184-0.371,0.634-0.522,1.005-0.339c0.038,0.019,3.782,1.856,6.538,1.438c1.374-0.209,2.51-0.672,3.572-1.456
			c2.02-1.491,4.353-5.418,4.376-5.458c0.21-0.356,0.669-0.477,1.027-0.264c0.356,0.21,0.475,0.67,0.264,1.027
			c-0.102,0.172-2.514,4.23-4.776,5.901c-1.249,0.922-2.635,1.488-4.237,1.731C18.182,60.714,17.816,60.738,17.448,60.738z"/>
	</g>
	<g>
		<path fill="#888888" d="M11.929,56.512c0.488,0.248,0.686,0.85,0.436,1.338l-0.803,1.576c-0.248,0.486-0.852,0.678-1.338,0.43
			l-2.322-1.18c-0.486-0.25-0.684-0.85-0.436-1.338l0.805-1.572c0.25-0.49,0.848-0.686,1.338-0.434L11.929,56.512z"/>
		<path fill="#7E5B45" d="M10.675,60.714c-0.273,0-0.548-0.065-0.792-0.19l-2.321-1.179c-0.856-0.44-1.198-1.492-0.765-2.347
			l0.806-1.574c0.425-0.832,1.515-1.186,2.349-0.759l2.317,1.178c0.416,0.212,0.725,0.573,0.869,1.018
			c0.144,0.444,0.106,0.917-0.105,1.331l-0.803,1.575C11.932,60.351,11.336,60.714,10.675,60.714z M9.155,55.972
			c-0.071,0-0.166,0.035-0.217,0.135L8.134,57.68c-0.06,0.116-0.009,0.268,0.11,0.329l2.319,1.178c0.1,0.053,0.255,0.046,0.33-0.102
			l0.803-1.576c0.04-0.077,0.025-0.149,0.015-0.186c-0.013-0.036-0.044-0.104-0.122-0.143l-2.32-1.18
			C9.23,55.981,9.193,55.972,9.155,55.972z"/>
	</g>
	<g>
		<rect x="19.683" y="18.965" fill="#656464" width="48.334" height="34.762"/>
		<path fill="#7E5B45" d="M68.017,54.477H19.683c-0.414,0-0.75-0.336-0.75-0.75V18.965c0-0.414,0.336-0.75,0.75-0.75h48.334
			c0.414,0,0.75,0.336,0.75,0.75v34.762C68.767,54.141,68.431,54.477,68.017,54.477z M20.433,52.977h46.834V19.715H20.433V52.977z"
			/>
	</g>
	<g>
		<rect x="22.272" y="21.467" fill="#9E9E9F" width="43.157" height="27.77"/>
		<path fill="#7E5B45" d="M65.43,49.637H22.272c-0.221,0-0.4-0.18-0.4-0.4v-27.77c0-0.221,0.18-0.4,0.4-0.4H65.43
			c0.221,0,0.4,0.18,0.4,0.4v27.77C65.83,49.457,65.65,49.637,65.43,49.637z M22.673,48.836h42.356V21.867H22.673V48.836z"/>
	</g>
	<g>
		<rect x="19.786" y="51.422" fill="#7E5B45" width="48.187" height="0.801"/>
	</g>
</g>
<g>
	<g>
		<g>
			<rect x="124.512" y="45.139" fill="#FFFFFF" width="8.248" height="11.822"/>
			<path fill="#7E5B45" d="M132.76,57.711h-8.248c-0.414,0-0.75-0.336-0.75-0.75V45.139c0-0.414,0.336-0.75,0.75-0.75h8.248
				c0.414,0,0.75,0.336,0.75,0.75v11.822C133.51,57.375,133.174,57.711,132.76,57.711z M125.262,56.211h6.748V45.889h-6.748V56.211z
				"/>
		</g>
		<g>
			<rect x="129" y="48.182" fill="#7E5B45" width="0.301" height="0.895"/>
		</g>
		<g>
			<rect x="128.021" y="48.182" fill="#7E5B45" width="0.301" height="0.895"/>
		</g>
		<g>
			<path fill="#7E5B45" d="M130.768,50.326h-4.244v-3.441h4.244V50.326z M127.324,49.525h2.643v-1.84h-2.643V49.525z"/>
		</g>
		<g>
			<rect x="129" y="52.994" fill="#7E5B45" width="0.301" height="0.895"/>
		</g>
		<g>
			<rect x="128.021" y="52.994" fill="#7E5B45" width="0.301" height="0.895"/>
		</g>
		<g>
			<path fill="#7E5B45" d="M130.768,55.139h-4.244v-3.441h4.244V55.139z M127.324,54.338h2.643v-1.84h-2.643V54.338z"/>
		</g>
	</g>
	<g>
		<g>
			<path fill="#7E5B45" d="M123.969,67.478c-2.089,0-3.674-0.337-5.131-0.701c-2.717-0.678-6.187-3.093-6.332-3.195
				c-0.34-0.237-0.422-0.705-0.185-1.044c0.236-0.341,0.704-0.423,1.044-0.185c0.034,0.023,3.39,2.358,5.836,2.969
				c2.098,0.524,4.284,0.95,7.958,0.403c2.839-0.424,5.707-2.06,5.736-2.076c0.356-0.204,0.816-0.083,1.023,0.276
				c0.207,0.358,0.084,0.817-0.274,1.023c-0.127,0.073-3.138,1.794-6.265,2.261C126.098,67.399,124.975,67.478,123.969,67.478z"/>
		</g>
		<g>
			<path fill="#888888" d="M105.912,61.99l-9.788,7.379c0.635,1.697,10.294,2.146,13.192,2.146c2.994,0,12.447-0.48,12.908-2.146
				l-9.788-7.504L105.912,61.99z"/>
			<path fill="#7E5B45" d="M109.316,72.266c-0.527,0-12.921-0.03-13.895-2.634c-0.116-0.312-0.015-0.662,0.251-0.861l9.788-7.379
				c0.126-0.096,0.279-0.148,0.437-0.151l6.524-0.125c0.183,0.013,0.337,0.052,0.471,0.155l9.788,7.504
				c0.243,0.186,0.349,0.5,0.267,0.795C122.21,72.235,109.843,72.266,109.316,72.266z M97.303,69.42
				c1.742,0.745,7.521,1.346,12.014,1.346c4.382,0,10.044-0.592,11.749-1.341l-8.877-6.805l-6.019,0.115L97.303,69.42z"/>
		</g>
		<g>
			
				<rect x="137.257" y="61.223" transform="matrix(0.5558 0.8313 -0.8313 0.5558 112.9629 -86.7467)" fill="#7E5B45" width="0.801" height="2.225"/>
		</g>
		<g>
			
				<rect x="136.315" y="59.857" transform="matrix(0.5687 0.8225 -0.8225 0.5687 109.111 -86.1599)" fill="#7E5B45" width="0.8" height="2.216"/>
		</g>
		<g>
			<path fill="#888888" d="M132.443,62.648c-0.449,0.313-0.563,0.934-0.252,1.385l1.01,1.453c0.311,0.449,0.934,0.559,1.385,0.246
				l2.141-1.482c0.449-0.313,0.563-0.934,0.252-1.383l-1.008-1.451c-0.316-0.451-0.936-0.564-1.387-0.25L132.443,62.648z"/>
			<path fill="#7E5B45" d="M134.017,66.66c-0.573,0-1.108-0.279-1.433-0.747l-1.009-1.452c-0.545-0.792-0.348-1.881,0.439-2.428
				l2.143-1.483c0.759-0.53,1.895-0.325,2.428,0.436l1.01,1.454c0.546,0.79,0.349,1.878-0.439,2.426l-2.143,1.483
				C134.719,66.553,134.374,66.66,134.017,66.66z M135.149,61.738c-0.049,0-0.096,0.015-0.137,0.043l-2.143,1.483
				c-0.108,0.076-0.137,0.233-0.061,0.344l1.008,1.45c0.12,0.175,0.228,0.134,0.342,0.058l2.141-1.482
				c0.107-0.075,0.137-0.231,0.062-0.34l-1.007-1.45C135.288,61.748,135.189,61.738,135.149,61.738z"/>
		</g>
		<g>
			<path fill="#888888" d="M102.602,58.043v6.75c0,0.93,5.396,1.053,6.645,1.053c1.117,0,6.406-0.092,6.406-1.053v-6.738
				L102.602,58.043z"/>
			<path fill="#7E5B45" d="M109.246,66.596c-7.395,0-7.395-1.264-7.395-1.803v-6.75c0-0.199,0.079-0.39,0.22-0.53
				s0.331-0.22,0.53-0.22c0,0,0,0,0.001,0l13.051,0.012c0.414,0,0.749,0.336,0.749,0.75v6.738
				C116.402,65.378,116.402,66.596,109.246,66.596z M103.352,64.532c0.722,0.308,3.331,0.563,5.895,0.563
				c2.513,0,4.976-0.244,5.656-0.548v-5.744l-11.551-0.01V64.532z"/>
		</g>
		<g>
			<path fill="#B4B4B5" d="M115.652,8.721v-6.75c0-0.93-5.309-1.221-6.557-1.221c-1.118,0-6.494,0.26-6.494,1.221v6.738
				L115.652,8.721z"/>
			<path fill="#7E5B45" d="M115.652,9.471C115.652,9.471,115.652,9.471,115.652,9.471l-13.052-0.012
				c-0.414,0-0.749-0.336-0.749-0.75V1.971c0-1.778,5.066-1.971,7.244-1.971c1.714,0,7.307,0.143,7.307,1.971v6.75
				c0,0.199-0.079,0.39-0.22,0.53S115.852,9.471,115.652,9.471z M103.352,7.96l11.551,0.01V2.214
				C114.1,1.819,110.899,1.5,109.096,1.5c-1.791,0-4.963,0.315-5.744,0.705V7.96z"/>
		</g>
		<g>
			<path fill="#DBDCDC" d="M99.623,61.408c0,0,3.295,0.789,9.514,0.789c6.531,0,9.455-0.789,9.455-0.789V5.285
				c0,0-3.089-1.191-9.496-1.191c-6.271,0-9.473,1.191-9.473,1.191V61.408z"/>
			<path fill="#7E5B45" d="M109.137,62.947c-6.235,0-9.55-0.776-9.688-0.81c-0.337-0.081-0.575-0.383-0.575-0.729V5.285
				c0-0.313,0.194-0.594,0.488-0.703c0.136-0.051,3.4-1.238,9.734-1.238c6.473,0,9.635,1.191,9.766,1.241
				c0.29,0.112,0.48,0.39,0.48,0.7v56.123c0,0.339-0.228,0.636-0.555,0.724C118.664,62.166,115.692,62.947,109.137,62.947z
				 M100.373,60.793c1.186,0.215,4.176,0.654,8.764,0.654c4.762,0,7.588-0.429,8.705-0.644V5.833
				c-1.08-0.312-3.979-0.989-8.746-0.989c-4.678,0-7.622,0.682-8.723,0.993V60.793z"/>
		</g>
		<g>
			<path fill="#9E9E9F" d="M102.251,56.924c0,0,2.38,0.408,6.871,0.408c4.718,0,6.829-0.408,6.829-0.408V8.707
				c0,0-2.231-0.545-6.859-0.545c-4.529,0-6.841,0.545-6.841,0.545V56.924z"/>
			<path fill="#7E5B45" d="M109.122,58.082c-4.503,0-6.898-0.402-6.998-0.419c-0.36-0.062-0.623-0.374-0.623-0.739V8.707
				c0-0.348,0.239-0.65,0.578-0.73c0.098-0.022,2.448-0.564,7.013-0.564c4.664,0,6.942,0.543,7.037,0.566
				c0.336,0.082,0.572,0.383,0.572,0.729v48.217c0,0.359-0.255,0.668-0.607,0.736C116.005,57.678,113.857,58.082,109.122,58.082z
				 M103.001,56.27c0.969,0.117,3.049,0.313,6.121,0.313c3.175,0,5.158-0.189,6.079-0.306V9.327
				c-0.919-0.154-2.947-0.415-6.109-0.415c-3.107,0-5.158,0.264-6.091,0.417V56.27z"/>
		</g>
		<g>
			<path fill="#F5AC3C" d="M107.904,57.301V11.158c0-0.742,0.602-1.344,1.344-1.344l0,0c0.742,0,1.344,0.602,1.344,1.344v46.143
				c0,0-0.48,0.031-1.34,0.031S107.904,57.301,107.904,57.301z"/>
			<path fill="#7E5B45" d="M109.252,58.082c-0.89,0-1.396-0.033-1.396-0.033c-0.395-0.025-0.702-0.353-0.702-0.748V11.158
				c0-1.154,0.939-2.094,2.094-2.094s2.094,0.939,2.094,2.094v46.143c0,0.396-0.307,0.723-0.701,0.748
				C110.641,58.049,110.143,58.082,109.252,58.082z M108.654,56.576c0.34,0.008,0.848,0.007,1.188,0.001V11.158
				c0-0.327-0.267-0.594-0.594-0.594s-0.594,0.267-0.594,0.594V56.576z"/>
		</g>
		<g>
			<g>
				<g>
					
						<rect x="140.296" y="57.13" transform="matrix(0.6704 0.742 -0.742 0.6704 89.9975 -85.3289)" fill="#ED781E" width="1.5" height="3.015"/>
				</g>
				<g>
					
						<rect x="142.154" y="61.156" transform="matrix(0.0456 0.999 -0.999 0.0456 198.9841 -82.951)" fill="#ED781E" width="1.5" height="3.009"/>
				</g>
			</g>
			<g>
				<g>
					
						<rect x="136.473" y="54.911" transform="matrix(0.9903 0.1392 -0.1392 0.9903 9.1917 -18.5567)" fill="#ED781E" width="1.501" height="3.01"/>
				</g>
			</g>
		</g>
		<g>
			<rect x="112.336" y="8.324" fill="#7E5B45" width="0.801" height="48.846"/>
		</g>
		<g>
			<rect x="105.1" y="8.324" fill="#7E5B45" width="0.801" height="48.846"/>
		</g>
		<g>
			<rect x="102.264" y="10.053" fill="#7E5B45" width="13.676" height="0.801"/>
		</g>
		<g>
			<rect x="102.264" y="12.545" fill="#7E5B45" width="13.676" height="0.801"/>
		</g>
		<g>
			<rect x="102.264" y="15.037" fill="#7E5B45" width="13.676" height="0.801"/>
		</g>
		<g>
			<rect x="102.264" y="17.529" fill="#7E5B45" width="13.676" height="0.801"/>
		</g>
		<g>
			<rect x="102.264" y="20.021" fill="#7E5B45" width="13.676" height="0.801"/>
		</g>
		<g>
			<rect x="102.264" y="22.514" fill="#7E5B45" width="13.676" height="0.801"/>
		</g>
		<g>
			<rect x="102.264" y="25.006" fill="#7E5B45" width="13.676" height="0.801"/>
		</g>
		<g>
			<rect x="102.264" y="27.498" fill="#7E5B45" width="13.676" height="0.801"/>
		</g>
		<g>
			<rect x="102.264" y="29.99" fill="#7E5B45" width="13.676" height="0.801"/>
		</g>
		<g>
			<rect x="102.264" y="32.482" fill="#7E5B45" width="13.676" height="0.801"/>
		</g>
		<g>
			<rect x="102.264" y="34.975" fill="#7E5B45" width="13.676" height="0.801"/>
		</g>
		<g>
			<rect x="102.264" y="37.467" fill="#7E5B45" width="13.676" height="0.801"/>
		</g>
		<g>
			<rect x="102.264" y="39.959" fill="#7E5B45" width="13.676" height="0.801"/>
		</g>
		<g>
			<rect x="102.264" y="42.451" fill="#7E5B45" width="13.676" height="0.801"/>
		</g>
		<g>
			<rect x="102.264" y="44.943" fill="#7E5B45" width="13.676" height="0.801"/>
		</g>
		<g>
			<rect x="102.264" y="47.436" fill="#7E5B45" width="13.676" height="0.801"/>
		</g>
		<g>
			<rect x="102.264" y="49.928" fill="#7E5B45" width="13.676" height="0.801"/>
		</g>
		<g>
			<rect x="102.264" y="52.42" fill="#7E5B45" width="13.676" height="0.801"/>
		</g>
		<g>
			<rect x="102.264" y="54.912" fill="#7E5B45" width="13.676" height="0.801"/>
		</g>
	</g>
</g>
</svg>
