<?xml version="1.0" encoding="utf-8"?>
<!-- Generator: Adobe Illustrator 16.0.3, SVG Export Plug-In . SVG Version: 6.00 Build 0)  -->
<!DOCTYPE svg PUBLIC "-//W3C//DTD SVG 1.1//EN" "http://www.w3.org/Graphics/SVG/1.1/DTD/svg11.dtd">
<svg version="1.1" id="レイヤー_1" xmlns="http://www.w3.org/2000/svg" xmlns:xlink="http://www.w3.org/1999/xlink" x="0px"
	 y="0px" width="72px" height="48px" viewBox="0 0 72 48" enable-background="new 0 0 72 48" xml:space="preserve">
<g>
	<g>
		<g>
			<path fill="#FFFDED" d="M70.92,44.322c0,1.559-1.275,2.834-2.834,2.834H3.584c-1.559,0-2.834-1.275-2.834-2.834V3.584
				c0-1.559,1.275-2.834,2.834-2.834h64.502c1.559,0,2.834,1.275,2.834,2.834V44.322z"/>
		</g>
		<g>
			<path fill="#7E5B45" d="M68.086,47.906H3.584C1.607,47.906,0,46.299,0,44.322V3.584C0,1.607,1.607,0,3.584,0h64.502
				c1.977,0,3.584,1.607,3.584,3.584v40.738C71.67,46.299,70.063,47.906,68.086,47.906z M3.584,1.5C2.435,1.5,1.5,2.435,1.5,3.584
				v40.738c0,1.149,0.935,2.084,2.084,2.084h64.502c1.149,0,2.084-0.935,2.084-2.084V3.584c0-1.149-0.935-2.084-2.084-2.084H3.584z"
				/>
		</g>
	</g>
	<g>
		<path fill="#7E5B45" d="M67.547,44.439H4.225c-0.414,0-0.75-0.336-0.75-0.75V4.342c0-0.414,0.336-0.75,0.75-0.75h63.322
			c0.414,0,0.75,0.336,0.75,0.75v39.348C68.297,44.104,67.961,44.439,67.547,44.439z M4.975,42.939h61.822V5.092H4.975V42.939z"/>
	</g>
	<g>
		<path fill="#7E5B45" d="M22.472,39.688H6.805c-0.414,0-0.75-0.336-0.75-0.75V8.604c0-0.414,0.336-0.75,0.75-0.75h15.667
			c0.414,0,0.75,0.336,0.75,0.75v30.334C23.222,39.352,22.886,39.688,22.472,39.688z M7.555,38.188h14.167V9.354H7.555V38.188z"/>
	</g>
	<g>
		<path fill="#7E5B45" d="M40.322,39.688H24.656c-0.414,0-0.75-0.336-0.75-0.75V8.604c0-0.414,0.336-0.75,0.75-0.75h15.666
			c0.414,0,0.75,0.336,0.75,0.75v30.334C41.072,39.352,40.736,39.688,40.322,39.688z M25.406,38.188h14.166V9.354H25.406V38.188z"/>
	</g>
	<g>
		<path fill="#7E5B45" d="M64.736,39.688H42.42c-0.414,0-0.75-0.336-0.75-0.75V8.604c0-0.414,0.336-0.75,0.75-0.75h22.316
			c0.414,0,0.75,0.336,0.75,0.75v30.334C65.486,39.352,65.15,39.688,64.736,39.688z M43.17,38.188h20.816V9.354H43.17V38.188z"/>
	</g>
	<g>
		<rect x="26.482" y="19.289" fill="#888888" width="12.004" height="8.969"/>
		<path fill="#7E5B45" d="M38.887,28.658H26.082v-9.77h12.805V28.658z M26.883,27.857h11.203v-8.168H26.883V27.857z"/>
	</g>
	<g>
		<rect x="9.514" y="15.574" fill="#A6D296" width="10.266" height="16.425"/>
		<path fill="#7E5B45" d="M20.18,32.399H9.113V15.174H20.18V32.399z M9.914,31.599h9.465V15.975H9.914V31.599z"/>
	</g>
	<g>
		<rect x="12.08" y="19.68" fill="#888888" width="5.133" height="8.213"/>
		<path fill="#7E5B45" d="M17.613,28.293H11.68v-9.014h5.934V28.293z M12.48,27.492h4.332V20.08H12.48V27.492z"/>
	</g>
	<g>
		<rect x="13.39" y="20.912" fill="#595757" width="2.515" height="5.749"/>
		<path fill="#7E5B45" d="M16.305,27.062h-3.315v-6.55h3.315V27.062z M13.79,26.261h1.714v-4.948H13.79V26.261z"/>
	</g>
	<g>
		<rect x="13.39" y="20.912" fill="#9E9E9F" width="2.515" height="1.825"/>
		<path fill="#7E5B45" d="M16.305,23.138h-3.315v-2.626h3.315V23.138z M13.79,22.337h1.714v-1.024H13.79V22.337z"/>
	</g>
	<g>
		<rect x="44.976" y="13.922" fill="#595757" width="2.515" height="6.997"/>
		<path fill="#7E5B45" d="M47.891,21.319h-3.315v-7.798h3.315V21.319z M45.376,20.519h1.714v-6.196h-1.714V20.519z"/>
	</g>
	<g>
		<rect x="44.976" y="13.922" fill="#9E9E9F" width="2.515" height="1.826"/>
		<path fill="#7E5B45" d="M47.891,16.148h-3.315v-2.627h3.315V16.148z M45.376,15.348h1.714v-1.025h-1.714V15.348z"/>
	</g>
	<g>
		<rect x="49.861" y="13.922" fill="#595757" width="2.516" height="6.997"/>
		<path fill="#7E5B45" d="M52.777,21.319h-3.316v-7.798h3.316V21.319z M50.262,20.519h1.715v-6.196h-1.715V20.519z"/>
	</g>
	<g>
		<rect x="49.861" y="13.922" fill="#9E9E9F" width="2.516" height="1.826"/>
		<path fill="#7E5B45" d="M52.777,16.148h-3.316v-2.627h3.316V16.148z M50.262,15.348h1.715v-1.025h-1.715V15.348z"/>
	</g>
	<g>
		<rect x="54.748" y="13.922" fill="#595757" width="2.515" height="6.997"/>
		<path fill="#7E5B45" d="M57.663,21.319h-3.315v-7.798h3.315V21.319z M55.148,20.519h1.714v-6.196h-1.714V20.519z"/>
	</g>
	<g>
		<rect x="54.748" y="13.922" fill="#9E9E9F" width="2.515" height="1.826"/>
		<path fill="#7E5B45" d="M57.663,16.148h-3.315v-2.627h3.315V16.148z M55.148,15.348h1.714v-1.025h-1.714V15.348z"/>
	</g>
	<g>
		<rect x="59.635" y="13.922" fill="#595757" width="2.514" height="6.997"/>
		<path fill="#7E5B45" d="M62.549,21.319h-3.314v-7.798h3.314V21.319z M60.035,20.519h1.713v-6.196h-1.713V20.519z"/>
	</g>
	<g>
		<rect x="59.635" y="13.922" fill="#9E9E9F" width="2.514" height="1.826"/>
		<path fill="#7E5B45" d="M62.549,16.148h-3.314v-2.627h3.314V16.148z M60.035,15.348h1.713v-1.025h-1.713V15.348z"/>
	</g>
	<g>
		<rect x="44.976" y="27.97" fill="#595757" width="2.515" height="6.997"/>
		<path fill="#7E5B45" d="M47.891,35.367h-3.315v-7.798h3.315V35.367z M45.376,34.566h1.714V28.37h-1.714V34.566z"/>
	</g>
	<g>
		<rect x="44.976" y="27.97" fill="#9E9E9F" width="2.515" height="1.825"/>
		<path fill="#7E5B45" d="M47.891,30.195h-3.315v-2.626h3.315V30.195z M45.376,29.395h1.714V28.37h-1.714V29.395z"/>
	</g>
	<g>
		<rect x="49.861" y="27.97" fill="#595757" width="2.516" height="6.997"/>
		<path fill="#7E5B45" d="M52.777,35.367h-3.316v-7.798h3.316V35.367z M50.262,34.566h1.715V28.37h-1.715V34.566z"/>
	</g>
	<g>
		<rect x="49.861" y="27.97" fill="#9E9E9F" width="2.516" height="1.825"/>
		<path fill="#7E5B45" d="M52.777,30.195h-3.316v-2.626h3.316V30.195z M50.262,29.395h1.715V28.37h-1.715V29.395z"/>
	</g>
	<g>
		<rect x="54.748" y="27.97" fill="#595757" width="2.515" height="6.997"/>
		<path fill="#7E5B45" d="M57.663,35.367h-3.315v-7.798h3.315V35.367z M55.148,34.566h1.714V28.37h-1.714V34.566z"/>
	</g>
	<g>
		<rect x="54.748" y="27.97" fill="#9E9E9F" width="2.515" height="1.825"/>
		<path fill="#7E5B45" d="M57.663,30.195h-3.315v-2.626h3.315V30.195z M55.148,29.395h1.714V28.37h-1.714V29.395z"/>
	</g>
	<g>
		<rect x="59.635" y="27.97" fill="#595757" width="2.514" height="6.997"/>
		<path fill="#7E5B45" d="M62.549,35.367h-3.314v-7.798h3.314V35.367z M60.035,34.566h1.713V28.37h-1.713V34.566z"/>
	</g>
	<g>
		<rect x="59.635" y="27.97" fill="#9E9E9F" width="2.514" height="1.825"/>
		<path fill="#7E5B45" d="M62.549,30.195h-3.314v-2.626h3.314V30.195z M60.035,29.395h1.713V28.37h-1.713V29.395z"/>
	</g>
	<g>
		<rect x="28.445" y="21.719" fill="#595757" width="4.295" height="4.155"/>
		<path fill="#7E5B45" d="M33.141,26.274h-5.096v-4.956h5.096V26.274z M28.846,25.474h3.494v-3.354h-3.494V25.474z"/>
	</g>
	<g>
		<rect x="28.445" y="24.051" fill="#9E9E9F" width="4.295" height="1.825"/>
		<path fill="#7E5B45" d="M33.141,26.276h-5.096V23.65h5.096V26.276z M28.846,25.476h3.494v-1.024h-3.494V25.476z"/>
	</g>
	<g>
		<circle fill="#E95532" cx="36.103" cy="25.273" r="0.854"/>
		<path fill="#7E5B45" d="M36.103,26.529c-0.691,0-1.255-0.563-1.255-1.256c0-0.691,0.563-1.255,1.255-1.255
			s1.255,0.563,1.255,1.255C37.357,25.966,36.794,26.529,36.103,26.529z M36.103,24.819c-0.251,0-0.454,0.203-0.454,0.454
			s0.203,0.455,0.454,0.455s0.454-0.204,0.454-0.455S36.354,24.819,36.103,24.819z"/>
	</g>
	<g>
		<circle fill="#FFE33F" cx="36.103" cy="22.253" r="0.854"/>
		<path fill="#7E5B45" d="M36.103,23.508c-0.691,0-1.255-0.563-1.255-1.255s0.563-1.255,1.255-1.255s1.255,0.563,1.255,1.255
			S36.794,23.508,36.103,23.508z M36.103,21.799c-0.251,0-0.454,0.203-0.454,0.454s0.203,0.454,0.454,0.454s0.454-0.203,0.454-0.454
			S36.354,21.799,36.103,21.799z"/>
	</g>
</g>
</svg>
