<?xml version="1.0" encoding="utf-8"?>
<!-- Generator: Adobe Illustrator 16.0.3, SVG Export Plug-In . SVG Version: 6.00 Build 0)  -->
<!DOCTYPE svg PUBLIC "-//W3C//DTD SVG 1.1//EN" "http://www.w3.org/Graphics/SVG/1.1/DTD/svg11.dtd">
<svg version="1.1" id="レイヤー_1" xmlns="http://www.w3.org/2000/svg" xmlns:xlink="http://www.w3.org/1999/xlink" x="0px"
	 y="0px" width="88px" height="81px" viewBox="0 0 88 81" enable-background="new 0 0 88 81" xml:space="preserve">
<g>
	<g>
		<rect x="8.789" y="28.307" fill="#FFFBDA" width="69.411" height="51"/>
		<path fill="#7E5B45" d="M78.2,80.807H8.789c-0.828,0-1.5-0.672-1.5-1.5v-51c0-0.828,0.672-1.5,1.5-1.5H78.2
			c0.828,0,1.5,0.672,1.5,1.5v51C79.7,80.135,79.028,80.807,78.2,80.807z M10.289,77.807H76.7v-48H10.289V77.807z"/>
	</g>
	<g>
		<rect x="26.141" y="41.209" fill="#FAC959" width="34.709" height="23.869"/>
		<path fill="#7E5B45" d="M60.85,66.578H26.141c-0.828,0-1.5-0.672-1.5-1.5V41.209c0-0.828,0.672-1.5,1.5-1.5H60.85
			c0.828,0,1.5,0.672,1.5,1.5v23.869C62.35,65.906,61.678,66.578,60.85,66.578z M27.641,63.578H59.35V42.709H27.641V63.578z"/>
	</g>
	<g>
		<polygon fill="#4593D0" points="85.488,30.393 1.5,30.393 43.48,1.5 		"/>
		<path fill="#7E5B45" d="M85.508,31.893c-0.005,0-0.013,0.001-0.02,0H1.5c-0.657,0-1.237-0.428-1.433-1.055
			c-0.194-0.627,0.041-1.309,0.582-1.681L42.63,0.265c0.512-0.354,1.188-0.353,1.7-0.001l41.868,28.797
			c0.481,0.249,0.81,0.752,0.81,1.332C87.008,31.221,86.337,31.893,85.508,31.893z M6.325,28.893H80.66L43.48,3.32L6.325,28.893z"/>
	</g>
	<g>
		<circle fill="#FFFFFF" cx="43.461" cy="49.475" r="3.994"/>
		<path fill="#7E5B45" d="M43.461,54.971c-3.029,0-5.494-2.466-5.494-5.496c0-3.029,2.465-5.494,5.494-5.494
			s5.494,2.465,5.494,5.494C48.955,52.505,46.49,54.971,43.461,54.971z M43.461,46.98c-1.375,0-2.494,1.119-2.494,2.494
			c0,1.376,1.119,2.496,2.494,2.496s2.494-1.12,2.494-2.496C45.955,48.1,44.836,46.98,43.461,46.98z"/>
	</g>
	<g>
		<polygon fill="#FFFFFF" points="52.566,49.188 34.426,49.188 43.49,41.258 		"/>
		<path fill="#7E5B45" d="M52.586,50.688c-0.005,0.001-0.013,0.001-0.02,0H34.426c-0.625,0-1.185-0.388-1.404-0.973
			s-0.054-1.245,0.417-1.656l9.064-7.93c0.564-0.494,1.408-0.495,1.975-0.001l8.937,7.809c0.405,0.269,0.672,0.729,0.672,1.251
			C54.086,50.016,53.415,50.688,52.586,50.688z M38.419,47.688h10.15l-5.078-4.438L38.419,47.688z"/>
	</g>
	<g>
		<path fill="#7E5B45" d="M40.893,60.111c-0.099,0-0.199-0.015-0.299-0.046c-0.527-0.165-0.82-0.726-0.655-1.253l0.586-1.871
			c0.165-0.527,0.723-0.821,1.253-0.655c0.527,0.165,0.82,0.726,0.655,1.253l-0.586,1.871
			C41.713,59.838,41.318,60.111,40.893,60.111z"/>
	</g>
	<g>
		<path fill="#7E5B45" d="M36.496,57.904c-0.265,0-0.529-0.104-0.726-0.313c-0.38-0.4-0.363-1.033,0.038-1.413l1.426-1.352
			c0.4-0.379,1.034-0.363,1.413,0.038c0.38,0.4,0.363,1.033-0.038,1.413l-1.426,1.352C36.99,57.813,36.743,57.904,36.496,57.904z"/>
	</g>
	<g>
		<path fill="#7E5B45" d="M46.055,60.111c-0.427,0-0.821-0.274-0.955-0.702l-0.583-1.871c-0.164-0.527,0.13-1.088,0.657-1.253
			c0.53-0.16,1.088,0.131,1.253,0.657l0.583,1.871c0.164,0.527-0.13,1.088-0.657,1.253C46.253,60.097,46.153,60.111,46.055,60.111z"
			/>
	</g>
	<g>
		<path fill="#7E5B45" d="M50.429,57.904c-0.247,0-0.494-0.091-0.688-0.274l-1.426-1.352c-0.401-0.38-0.418-1.013-0.038-1.413
			c0.379-0.402,1.013-0.418,1.413-0.038l1.426,1.352c0.401,0.38,0.418,1.013,0.038,1.413C50.958,57.8,50.693,57.904,50.429,57.904z"
			/>
	</g>
</g>
</svg>
