<?xml version="1.0" encoding="utf-8"?>
<!-- Generator: Adobe Illustrator 16.0.3, SVG Export Plug-In . SVG Version: 6.00 Build 0)  -->
<!DOCTYPE svg PUBLIC "-//W3C//DTD SVG 1.1//EN" "http://www.w3.org/Graphics/SVG/1.1/DTD/svg11.dtd">
<svg version="1.1" id="レイヤー_1" xmlns="http://www.w3.org/2000/svg" xmlns:xlink="http://www.w3.org/1999/xlink" x="0px"
	 y="0px" width="214px" height="49px" viewBox="0 0 214 49" enable-background="new 0 0 214 49" xml:space="preserve">
<path fill="#FEFF99" d="M107.854,18.282c-0.605,0.227-0.73,0.41-0.883,1.299c-0.154-0.889-0.279-1.072-0.884-1.299
	c0.604-0.227,0.729-0.41,0.884-1.299C107.124,17.872,107.249,18.055,107.854,18.282z"/>
<path fill="#FEFF99" d="M85.021,6.669c-0.605,0.227-0.73,0.41-0.883,1.299c-0.154-0.889-0.279-1.072-0.884-1.299
	c0.604-0.227,0.729-0.41,0.884-1.299C84.291,6.259,84.416,6.442,85.021,6.669z"/>
<path fill="#FEFF99" d="M66.855,9.722c-0.605,0.227-0.73,0.41-0.883,1.299c-0.154-0.889-0.279-1.072-0.884-1.299
	c0.604-0.227,0.729-0.41,0.884-1.299C66.125,9.312,66.25,9.495,66.855,9.722z"/>
<path fill="#FEFF99" d="M80.963,28.859c-0.605,0.227-0.73,0.41-0.883,1.299c-0.154-0.889-0.279-1.072-0.884-1.299
	c0.604-0.227,0.729-0.41,0.884-1.299C80.233,28.449,80.358,28.633,80.963,28.859z"/>
<path fill="#FEFF99" d="M65.666,39.81c-0.605,0.227-0.73,0.41-0.883,1.299c-0.154-0.889-0.279-1.072-0.884-1.299
	c0.604-0.227,0.729-0.41,0.884-1.299C64.936,39.399,65.061,39.583,65.666,39.81z"/>
<path fill="#FEFF99" d="M94.701,45.722c-0.605,0.227-0.73,0.41-0.883,1.299c-0.154-0.889-0.279-1.072-0.884-1.299
	c0.604-0.227,0.729-0.41,0.884-1.299C93.971,45.312,94.096,45.495,94.701,45.722z"/>
<path fill="#FEFF99" d="M130.674,39.193c-0.604,0.227-0.729,0.41-0.883,1.299c-0.154-0.889-0.279-1.072-0.884-1.299
	c0.604-0.227,0.729-0.41,0.884-1.299C129.944,38.783,130.069,38.967,130.674,39.193z"/>
<path fill="#FEFF99" d="M152.348,24.634c-0.604,0.227-0.729,0.41-0.883,1.299c-0.154-0.889-0.279-1.072-0.884-1.299
	c0.604-0.227,0.729-0.41,0.884-1.299C151.618,24.224,151.743,24.407,152.348,24.634z"/>
<path fill="#FEFF99" d="M148.55,9.331c-0.604,0.227-0.729,0.41-0.883,1.299c-0.154-0.889-0.279-1.072-0.884-1.299
	c0.604-0.227,0.729-0.41,0.884-1.299C147.82,8.921,147.945,9.104,148.55,9.331z"/>
<path fill="#FEFF99" d="M131.558,3.361c-0.604,0.227-0.729,0.41-0.883,1.299c-0.154-0.889-0.279-1.072-0.884-1.299
	c0.604-0.227,0.729-0.41,0.884-1.299C130.828,2.951,130.953,3.135,131.558,3.361z"/>
</svg>
