<svg xmlns="http://www.w3.org/2000/svg" width="30.36" height="30.358" viewBox="0 0 30.36 30.358">
  <g id="グループ_6109" data-name="グループ 6109" transform="translate(1 1)">
    <g id="グループ_6108" data-name="グループ 6108">
      <g id="グループ_6107" data-name="グループ 6107">
        <path id="パス_183" data-name="パス 183" d="M132.053,176.979h-4.824a3.2,3.2,0,0,0-3.191,3.191,25.505,25.505,0,0,0,25.169,25.167,3.194,3.194,0,0,0,3.191-3.191v-4.824a3.2,3.2,0,0,0-3.191-3.191,17.489,17.489,0,0,1-4.747-.906,3.138,3.138,0,0,0-1.016-.166,3.085,3.085,0,0,0-2.091.792l-2.2,1.562a14.59,14.59,0,0,1-5.632-5.555l1.868-1.937a3.193,3.193,0,0,0,.772-3.223,15.287,15.287,0,0,1-.921-4.528,3.194,3.194,0,0,0-3.191-3.191Z" transform="translate(-124.038 -176.979)" fill="none" stroke="#e85400" stroke-width="2"/>
      </g>
    </g>
  </g>
</svg>
