<?xml version="1.0" encoding="utf-8"?>
<!-- Generator: Adobe Illustrator 16.0.3, SVG Export Plug-In . SVG Version: 6.00 Build 0)  -->
<!DOCTYPE svg PUBLIC "-//W3C//DTD SVG 1.1//EN" "http://www.w3.org/Graphics/SVG/1.1/DTD/svg11.dtd">
<svg version="1.1" id="レイヤー_1" xmlns="http://www.w3.org/2000/svg" xmlns:xlink="http://www.w3.org/1999/xlink" x="0px"
	 y="0px" width="74px" height="46px" viewBox="0 0 74 46" enable-background="new 0 0 74 46" xml:space="preserve">
<g>
	<g>
		<polygon fill="#FFFFFF" points="30.35,5.891 51.555,5.891 51.555,44.816 22.096,44.816 22.096,15.897 30.35,15.897 		"/>
		<path fill="#231815" d="M51.555,46.066H22.096c-0.69,0-1.25-0.56-1.25-1.25V15.897c0-0.69,0.56-1.25,1.25-1.25H29.1V5.891
			c0-0.69,0.56-1.25,1.25-1.25h21.205c0.691,0,1.25,0.56,1.25,1.25v38.925C52.805,45.507,52.246,46.066,51.555,46.066z
			 M23.346,43.566h26.959V7.141H31.6v8.756c0,0.69-0.56,1.25-1.25,1.25h-7.004V43.566z"/>
	</g>
	<g>
		<rect x="42.541" y="34.291" fill="#A0CAEC" width="3.449" height="3.941"/>
		<path fill="#231815" d="M45.99,39.032h-3.449c-0.441,0-0.799-0.358-0.799-0.8v-3.941c0-0.441,0.357-0.8,0.799-0.8h3.449
			c0.441,0,0.801,0.358,0.801,0.8v3.941C46.791,38.674,46.432,39.032,45.99,39.032z M43.342,37.433h1.85v-2.342h-1.85V37.433z"/>
	</g>
	<g>
		<rect x="35.432" y="34.291" fill="#A0CAEC" width="3.449" height="3.941"/>
		<path fill="#231815" d="M38.881,39.032h-3.449c-0.442,0-0.8-0.358-0.8-0.8v-3.941c0-0.441,0.358-0.8,0.8-0.8h3.449
			c0.441,0,0.801,0.358,0.801,0.8v3.941C39.682,38.674,39.322,39.032,38.881,39.032z M36.231,37.433h1.851v-2.342h-1.851V37.433z"/>
	</g>
	<g>
		<rect x="28.322" y="34.291" fill="#A0CAEC" width="3.449" height="3.941"/>
		<path fill="#231815" d="M31.771,39.032h-3.449c-0.442,0-0.8-0.358-0.8-0.8v-3.941c0-0.441,0.358-0.8,0.8-0.8h3.449
			c0.442,0,0.8,0.358,0.8,0.8v3.941C32.571,38.674,32.213,39.032,31.771,39.032z M29.122,37.433h1.85v-2.342h-1.85V37.433z"/>
	</g>
	<g>
		<rect x="42.541" y="23.164" fill="#A0CAEC" width="3.449" height="3.941"/>
		<path fill="#231815" d="M45.99,27.905h-3.449c-0.441,0-0.799-0.358-0.799-0.8v-3.941c0-0.442,0.357-0.8,0.799-0.8h3.449
			c0.441,0,0.801,0.358,0.801,0.8v3.941C46.791,27.547,46.432,27.905,45.99,27.905z M43.342,26.306h1.85v-2.343h-1.85V26.306z"/>
	</g>
	<g>
		<rect x="35.432" y="23.164" fill="#A0CAEC" width="3.449" height="3.941"/>
		<path fill="#231815" d="M38.881,27.905h-3.449c-0.442,0-0.8-0.358-0.8-0.8v-3.941c0-0.442,0.358-0.8,0.8-0.8h3.449
			c0.441,0,0.801,0.358,0.801,0.8v3.941C39.682,27.547,39.322,27.905,38.881,27.905z M36.231,26.306h1.851v-2.343h-1.851V26.306z"/>
	</g>
	<g>
		<rect x="28.322" y="23.164" fill="#A0CAEC" width="3.449" height="3.941"/>
		<path fill="#231815" d="M31.771,27.905h-3.449c-0.442,0-0.8-0.358-0.8-0.8v-3.941c0-0.442,0.358-0.8,0.8-0.8h3.449
			c0.442,0,0.8,0.358,0.8,0.8v3.941C32.571,27.547,32.213,27.905,31.771,27.905z M29.122,26.306h1.85v-2.343h-1.85V26.306z"/>
	</g>
	<g>
		<rect x="42.541" y="12.037" fill="#A0CAEC" width="3.449" height="3.941"/>
		<path fill="#231815" d="M45.99,16.778h-3.449c-0.441,0-0.799-0.358-0.799-0.8v-3.941c0-0.442,0.357-0.8,0.799-0.8h3.449
			c0.441,0,0.801,0.358,0.801,0.8v3.941C46.791,16.42,46.432,16.778,45.99,16.778z M43.342,15.178h1.85v-2.342h-1.85V15.178z"/>
	</g>
	<g>
		<rect x="35.432" y="12.037" fill="#A0CAEC" width="3.449" height="3.941"/>
		<path fill="#231815" d="M38.881,16.778h-3.449c-0.442,0-0.8-0.358-0.8-0.8v-3.941c0-0.442,0.358-0.8,0.8-0.8h3.449
			c0.441,0,0.801,0.358,0.801,0.8v3.941C39.682,16.42,39.322,16.778,38.881,16.778z M36.231,15.178h1.851v-2.342h-1.851V15.178z"/>
	</g>
	<g>
		<path fill="#231815" d="M30.307,11.542h-8.313c-0.442,0-0.8-0.358-0.8-0.8s0.358-0.8,0.8-0.8h8.313c0.442,0,0.8,0.358,0.8,0.8
			S30.749,11.542,30.307,11.542z"/>
	</g>
	<g>
		<path fill="#231815" d="M26.518,16.695c-0.442,0-0.8-0.358-0.8-0.8V10.75c0-0.442,0.358-0.8,0.8-0.8s0.8,0.358,0.8,0.8v5.145
			C27.317,16.337,26.959,16.695,26.518,16.695z"/>
	</g>
	<g>
		<path fill="#231815" d="M23.01,16.695c-0.442,0-0.8-0.358-0.8-0.8V10.75c0-0.442,0.358-0.8,0.8-0.8s0.8,0.358,0.8,0.8v5.145
			C23.81,16.337,23.452,16.695,23.01,16.695z"/>
	</g>
</g>
</svg>
