<?xml version="1.0" encoding="utf-8"?>
<!-- Generator: Adobe Illustrator 16.0.3, SVG Export Plug-In . SVG Version: 6.00 Build 0)  -->
<!DOCTYPE svg PUBLIC "-//W3C//DTD SVG 1.1//EN" "http://www.w3.org/Graphics/SVG/1.1/DTD/svg11.dtd">
<svg version="1.1" id="レイヤー_1" xmlns="http://www.w3.org/2000/svg" xmlns:xlink="http://www.w3.org/1999/xlink" x="0px"
	 y="0px" width="74px" height="46px" viewBox="0 0 74 46" enable-background="new 0 0 74 46" xml:space="preserve">
<g>
	<g>
		<rect x="63.748" y="2.122" fill="#C8C9CA" width="4.998" height="15.513"/>
		<path fill="#231815" d="M68.746,18.884h-4.998c-0.689,0-1.25-0.56-1.25-1.25V2.122c0-0.69,0.561-1.25,1.25-1.25h4.998
			c0.691,0,1.25,0.56,1.25,1.25v15.513C69.996,18.325,69.438,18.884,68.746,18.884z M64.998,16.384h2.498V3.372h-2.498V16.384z"/>
	</g>
	<g>
		<polygon fill="#FFFFFF" points="24.957,8.428 48.639,19.325 48.639,9.43 72.385,20.393 72.385,44.816 1.25,44.816 1.25,8.974 
			24.953,19.833 		"/>
		<path fill="#231815" d="M72.385,46.066H1.25c-0.69,0-1.25-0.56-1.25-1.25V8.974c0-0.426,0.217-0.822,0.575-1.052
			c0.359-0.229,0.809-0.262,1.196-0.084l21.933,10.047l0.003-9.458c0-0.426,0.217-0.822,0.576-1.052
			c0.359-0.229,0.81-0.26,1.197-0.083l21.909,10.081V9.43c0-0.426,0.217-0.823,0.576-1.053c0.359-0.23,0.811-0.261,1.197-0.082
			l23.746,10.963c0.443,0.204,0.727,0.647,0.727,1.135v24.423C73.635,45.507,73.076,46.066,72.385,46.066z M2.5,43.566h68.635
			V21.193l-21.246-9.809v7.94c0,0.426-0.217,0.823-0.576,1.053c-0.357,0.23-0.809,0.26-1.195,0.083L26.207,10.379l-0.003,9.454
			c0,0.425-0.217,0.822-0.575,1.052c-0.358,0.229-0.808,0.262-1.195,0.084L2.5,10.922V43.566z"/>
	</g>
	<g>
		<polygon fill="#888888" points="24.943,21.485 1.25,10.483 1.25,6.356 24.953,17.358 		"/>
		<path fill="#231815" d="M24.943,22.735c-0.179,0-0.359-0.039-0.526-0.116L0.724,11.617C0.282,11.412,0,10.969,0,10.483V6.356
			c0-0.427,0.218-0.824,0.578-1.054c0.359-0.229,0.812-0.26,1.199-0.08l23.703,11.002c0.442,0.205,0.725,0.649,0.724,1.137
			l-0.01,4.127c-0.001,0.426-0.219,0.823-0.579,1.052C25.411,22.669,25.178,22.735,24.943,22.735z M2.5,9.685l21.198,9.843
			l0.003-1.374L2.5,8.314V9.685z"/>
	</g>
	<g>
		<polygon fill="#888888" points="48.633,21.523 24.953,10.483 24.953,6.356 48.627,17.386 		"/>
		<path fill="#231815" d="M48.633,22.773c-0.18,0-0.359-0.039-0.527-0.118l-23.681-11.04c-0.44-0.205-0.722-0.647-0.722-1.133V6.356
			c0-0.427,0.218-0.825,0.578-1.054c0.36-0.229,0.813-0.259,1.2-0.079l23.673,11.03c0.441,0.205,0.723,0.646,0.723,1.131
			l0.006,3.913c0.014,0.073,0.02,0.148,0.02,0.226c0,0.694-0.561,1.268-1.26,1.25C48.641,22.773,48.637,22.773,48.633,22.773z
			 M26.203,9.687l21.178,9.873l-0.002-1.376L26.203,8.317V9.687z"/>
	</g>
	<g>
		<polygon fill="#888888" points="72.381,21.507 48.635,10.483 48.635,6.356 72.375,17.374 		"/>
		<path fill="#231815" d="M72.381,22.758c-0.18,0-0.359-0.039-0.525-0.117L48.109,11.617c-0.441-0.205-0.725-0.647-0.725-1.134
			V6.356c0-0.427,0.219-0.824,0.578-1.054c0.357-0.229,0.811-0.26,1.199-0.08l23.74,11.018c0.439,0.205,0.723,0.646,0.723,1.132
			l0.006,3.91c0.014,0.073,0.02,0.148,0.02,0.226c0,0.69-0.559,1.25-1.25,1.25C72.393,22.757,72.387,22.757,72.381,22.758z
			 M49.885,9.685l21.244,9.862l-0.002-1.375L49.885,8.314V9.685z"/>
	</g>
	<g>
		<rect x="8.934" y="29.403" fill="#A0CAEC" width="8.145" height="5.121"/>
		<path fill="#231815" d="M17.078,35.324H8.934c-0.442,0-0.8-0.357-0.8-0.8v-5.121c0-0.442,0.358-0.8,0.8-0.8h8.145
			c0.442,0,0.8,0.357,0.8,0.8v5.121C17.878,34.967,17.52,35.324,17.078,35.324z M9.733,33.725h6.545v-3.521H9.733V33.725z"/>
	</g>
	<g>
		<path fill="#231815" d="M13.025,35.222c-0.442,0-0.8-0.358-0.8-0.8v-4.888c0-0.442,0.358-0.8,0.8-0.8s0.8,0.357,0.8,0.8v4.888
			C13.825,34.863,13.467,35.222,13.025,35.222z"/>
	</g>
	<g>
		<rect x="32.625" y="29.403" fill="#A0CAEC" width="8.146" height="5.121"/>
		<path fill="#231815" d="M40.771,35.324h-8.146c-0.442,0-0.8-0.357-0.8-0.8v-5.121c0-0.442,0.358-0.8,0.8-0.8h8.146
			c0.441,0,0.801,0.357,0.801,0.8v5.121C41.572,34.967,41.213,35.324,40.771,35.324z M33.425,33.725h6.548v-3.521h-6.548V33.725z"/>
	</g>
	<g>
		<path fill="#231815" d="M36.717,35.222c-0.442,0-0.8-0.358-0.8-0.8v-4.888c0-0.442,0.358-0.8,0.8-0.8s0.8,0.357,0.8,0.8v4.888
			C37.517,34.863,37.159,35.222,36.717,35.222z"/>
	</g>
	<g>
		<rect x="56.314" y="29.403" fill="#A0CAEC" width="8.146" height="5.121"/>
		<path fill="#231815" d="M64.461,35.324h-8.146c-0.441,0-0.799-0.357-0.799-0.8v-5.121c0-0.442,0.357-0.8,0.799-0.8h8.146
			c0.441,0,0.801,0.357,0.801,0.8v5.121C65.262,34.967,64.902,35.324,64.461,35.324z M57.115,33.725h6.547v-3.521h-6.547V33.725z"/>
	</g>
	<g>
		<path fill="#231815" d="M60.408,35.222c-0.441,0-0.799-0.358-0.799-0.8v-4.888c0-0.442,0.357-0.8,0.799-0.8s0.801,0.357,0.801,0.8
			v4.888C61.209,34.863,60.85,35.222,60.408,35.222z"/>
	</g>
</g>
</svg>
