<?xml version="1.0" encoding="utf-8"?>
<!-- Generator: Adobe Illustrator 16.0.3, SVG Export Plug-In . SVG Version: 6.00 Build 0)  -->
<!DOCTYPE svg PUBLIC "-//W3C//DTD SVG 1.1//EN" "http://www.w3.org/Graphics/SVG/1.1/DTD/svg11.dtd">
<svg version="1.1" id="レイヤー_1" xmlns="http://www.w3.org/2000/svg" xmlns:xlink="http://www.w3.org/1999/xlink" x="0px"
	 y="0px" width="74px" height="46px" viewBox="0 0 74 46" enable-background="new 0 0 74 46" xml:space="preserve">
<g>
	<g>
		<rect x="22.357" y="22.064" fill="#FFFBDA" width="28.916" height="22.752"/>
		<path fill="#231815" d="M51.273,46.066H22.357c-0.69,0-1.25-0.56-1.25-1.25V22.064c0-0.69,0.56-1.25,1.25-1.25h28.916
			c0.689,0,1.25,0.56,1.25,1.25v22.752C52.523,45.507,51.963,46.066,51.273,46.066z M23.607,43.566h26.416V23.314H23.607V43.566z"/>
	</g>
	<g>
		<polygon fill="#E84730" points="51.273,22.064 22.357,22.064 36.831,10.385 		"/>
		<path fill="#231815" d="M51.293,23.314c-0.006-0.001-0.014-0.001-0.02,0H22.357c-0.53,0-1.002-0.334-1.179-0.834
			c-0.176-0.5-0.019-1.056,0.394-1.389L36.045,9.413c0.458-0.371,1.113-0.369,1.571,0L51.934,20.99
			c0.365,0.218,0.609,0.618,0.609,1.074C52.543,22.754,51.984,23.314,51.293,23.314z M25.897,20.814H47.74L36.83,11.992
			L25.897,20.814z"/>
	</g>
	<g>
		<rect x="40.352" y="26.838" fill="#A0CAEC" width="5.986" height="4.918"/>
		<path fill="#231815" d="M46.338,32.556h-5.986c-0.441,0-0.799-0.358-0.799-0.8v-4.918c0-0.441,0.357-0.799,0.799-0.799h5.986
			c0.441,0,0.799,0.357,0.799,0.799v4.918C47.137,32.197,46.779,32.556,46.338,32.556z M41.152,30.956h4.385v-3.317h-4.385V30.956z"
			/>
	</g>
	<g>
		<rect x="27.054" y="34.66" fill="#E5A755" width="8.081" height="10.152"/>
		<path fill="#231815" d="M35.134,45.612h-8.081c-0.442,0-0.8-0.358-0.8-0.8V34.66c0-0.441,0.358-0.8,0.8-0.8h8.081
			c0.442,0,0.8,0.358,0.8,0.8v10.152C35.934,45.254,35.576,45.612,35.134,45.612z M27.854,44.013h6.481V35.46h-6.481V44.013z"/>
	</g>
	<g>
		<path fill="#231815" d="M32.622,42.673h-3.056c-0.442,0-0.8-0.358-0.8-0.8v-4.496c0-0.441,0.358-0.8,0.8-0.8h3.056
			c0.442,0,0.8,0.358,0.8,0.8v4.496C33.421,42.314,33.063,42.673,32.622,42.673z M30.366,41.073h1.456v-2.896h-1.456V41.073z"/>
	</g>
</g>
</svg>
