<?xml version="1.0" encoding="utf-8"?>
<!-- Generator: Adobe Illustrator 21.1.0, SVG Export Plug-In . SVG Version: 6.00 Build 0)  -->
<svg version="1.1" id="レイヤー_1" xmlns="http://www.w3.org/2000/svg" xmlns:xlink="http://www.w3.org/1999/xlink" x="0px"
	 y="0px" viewBox="0 0 4.4 8.8" style="enable-background:new 0 0 4.4 8.8;" xml:space="preserve">
<style type="text/css">
	.st0{fill:url(#SVGID_1_);}
	.st1{fill:#F39700;}
	.st2{fill:url(#SVGID_2_);}
	.st3{fill:#FFFFFF;}
	.st4{fill:#E51F1F;}
</style>
<g>
	<g>
		<g>
			<path d="M-295.6,101.6c-0.2,0.2-0.5,0.3-0.8,0.3s-0.5-0.1-0.8-0.3c-0.2-0.2-0.3-0.5-0.3-0.8v-5.5c0-0.2-0.1-0.2-0.2-0.2h-9
				c-0.1,0-0.2,0.1-0.2,0.2v3c0,0.3-0.1,0.5-0.3,0.7c-0.2,0.2-0.4,0.3-0.7,0.3c-0.3,0-0.5-0.1-0.7-0.3c-0.2-0.2-0.3-0.4-0.3-0.7
				v-3.1c0-0.5,0.2-0.9,0.5-1.2c0.3-0.3,0.7-0.5,1.2-0.5h9.5c0.1,0,0.2-0.1,0.2-0.2v-1.4c0-0.2-0.1-0.2-0.2-0.2h-8.6
				c-0.2,0-0.4-0.1-0.6-0.2c-0.2-0.2-0.3-0.4-0.3-0.6c0-0.2,0.1-0.4,0.3-0.6c0.2-0.2,0.4-0.2,0.6-0.2h20c0.2,0,0.4,0.1,0.6,0.2
				c0.2,0.2,0.3,0.4,0.3,0.6c0,0.2-0.1,0.4-0.3,0.6c-0.2,0.2-0.4,0.2-0.6,0.2h-8.8c-0.1,0-0.2,0.1-0.2,0.2v1.4
				c0,0.2,0.1,0.2,0.2,0.2h9.7c0.5,0,0.9,0.2,1.2,0.5c0.3,0.3,0.5,0.7,0.5,1.2v3c0,0.3-0.1,0.5-0.3,0.7c-0.2,0.2-0.4,0.3-0.7,0.3
				c-0.3,0-0.5-0.1-0.7-0.3c-0.2-0.2-0.3-0.4-0.3-0.7v-2.9c0-0.2-0.1-0.2-0.2-0.2h-9.1c-0.1,0-0.2,0.1-0.2,0.2v5.5
				C-295.3,101.2-295.4,101.4-295.6,101.6z M-293.2,114h6.7c0.7,0,1.2-0.2,1.5-0.5s0.4-1,0.5-2c0-0.2,0.1-0.4,0.4-0.5
				c0.2-0.1,0.4-0.1,0.7-0.1c0.3,0.1,0.5,0.3,0.7,0.5c0.1,0.2,0.2,0.4,0.2,0.6c0,0.1,0,0.1,0,0.2c-0.2,1.4-0.5,2.3-1.1,2.8
				c-0.5,0.5-1.4,0.7-2.7,0.7h-6.9c-1.7,0-2.8-0.2-3.4-0.6c-0.6-0.4-0.9-1.2-0.9-2.4V112c0-0.2-0.1-0.2-0.2-0.2h-6.2
				c-0.1,0-0.2,0.1-0.2,0.2v0.3c0,0.3-0.1,0.5-0.3,0.8c-0.2,0.2-0.5,0.3-0.8,0.3s-0.5-0.1-0.7-0.3c-0.2-0.2-0.3-0.5-0.3-0.8v-7.6
				c0-0.5,0.2-0.9,0.5-1.2c0.3-0.3,0.7-0.5,1.2-0.5h16.8c0.5,0,0.9,0.2,1.2,0.5c0.3,0.3,0.5,0.7,0.5,1.2v5.4c0,0.5-0.2,0.9-0.5,1.2
				c-0.3,0.3-0.7,0.5-1.2,0.5h-7.4c-0.1,0-0.2,0.1-0.2,0.2v0.7c0,0.5,0.1,0.8,0.4,1C-294.7,113.9-294.1,114-293.2,114z
				 M-305.2,101.2c-0.2,0-0.4-0.1-0.5-0.2c-0.1-0.1-0.2-0.3-0.2-0.5c0-0.2,0.1-0.4,0.2-0.5c0.1-0.1,0.3-0.2,0.5-0.2h5.5
				c0.2,0,0.4,0.1,0.5,0.2c0.1,0.1,0.2,0.3,0.2,0.5c0,0.2-0.1,0.4-0.2,0.5c-0.1,0.1-0.3,0.2-0.5,0.2H-305.2z M-299.7,96.7
				c0.2,0,0.4,0.1,0.5,0.2c0.1,0.1,0.2,0.3,0.2,0.5c0,0.2-0.1,0.4-0.2,0.5c-0.1,0.1-0.3,0.2-0.5,0.2h-5c-0.2,0-0.3-0.1-0.5-0.2
				c-0.1-0.1-0.2-0.3-0.2-0.5c0-0.2,0.1-0.4,0.2-0.5c0.1-0.1,0.3-0.2,0.5-0.2H-299.7z M-297.6,104.8c0-0.1-0.1-0.2-0.2-0.2h-6.2
				c-0.1,0-0.2,0.1-0.2,0.2v1.6c0,0.1,0.1,0.2,0.2,0.2h6.2c0.2,0,0.2-0.1,0.2-0.2V104.8z M-304.2,110c0,0.1,0.1,0.2,0.2,0.2h6.2
				c0.2,0,0.2-0.1,0.2-0.2v-1.6c0-0.1-0.1-0.2-0.2-0.2h-6.2c-0.1,0-0.2,0.1-0.2,0.2V110z M-288.5,106.6c0.1,0,0.2-0.1,0.2-0.2v-1.6
				c0-0.1-0.1-0.2-0.2-0.2h-6.7c-0.1,0-0.2,0.1-0.2,0.2v1.6c0,0.1,0.1,0.2,0.2,0.2H-288.5z M-295.4,110c0,0.1,0.1,0.2,0.2,0.2h6.7
				c0.1,0,0.2-0.1,0.2-0.2v-1.6c0-0.1-0.1-0.2-0.2-0.2h-6.7c-0.1,0-0.2,0.1-0.2,0.2V110z M-293.5,97.9c-0.1-0.1-0.2-0.3-0.2-0.5
				c0-0.2,0.1-0.4,0.2-0.5c0.1-0.1,0.3-0.2,0.5-0.2h5c0.2,0,0.3,0.1,0.5,0.2c0.1,0.1,0.2,0.3,0.2,0.5c0,0.2-0.1,0.4-0.2,0.5
				c-0.1,0.1-0.3,0.2-0.5,0.2h-5C-293.2,98.1-293.4,98-293.5,97.9z M-293,101.2c-0.2,0-0.4-0.1-0.5-0.2c-0.1-0.1-0.2-0.3-0.2-0.5
				c0-0.2,0.1-0.4,0.2-0.5c0.1-0.1,0.3-0.2,0.5-0.2h5.7c0.2,0,0.4,0.1,0.5,0.2c0.1,0.1,0.2,0.3,0.2,0.5c0,0.2-0.1,0.4-0.2,0.5
				c-0.1,0.1-0.3,0.2-0.5,0.2H-293z"/>
			<path d="M-263.1,94.3c0,0.1,0.1,0.2,0.2,0.2h10.5c0.5,0,0.9,0.2,1.2,0.5c0.3,0.3,0.4,0.7,0.4,1.1c0,3.7-0.3,7.9-1,12.8
				c-0.4,2.6-0.9,4.3-1.6,5.1c-0.6,0.7-1.4,1.1-2.5,1.2c-0.4,0-0.8,0-1.3,0c-0.6,0-1.4,0-2.3-0.1c-0.4,0-0.7-0.1-0.9-0.4
				c-0.3-0.2-0.4-0.5-0.6-0.9c-0.1-0.3,0-0.5,0.1-0.7c0.1-0.2,0.3-0.3,0.6-0.3c1.2,0.1,2.4,0.1,3.5,0.1c0.6,0,1.1-0.1,1.4-0.4
				c0.5-0.5,1-2,1.3-4.4c0.4-2.4,0.7-6.1,1-11.2c0-0.2-0.1-0.2-0.2-0.2h-9.8c-0.2,0-0.2,0.1-0.3,0.2c-0.1,1.3-0.2,2.5-0.4,3.6
				c-0.2,1.2-0.6,2.5-1.1,3.9s-1.2,2.7-2,3.9c-0.8,1.2-1.8,2.4-3.1,3.7c-1,1-2.1,1.9-3.4,2.7c-0.2,0.1-0.5,0.2-0.7,0.2
				c-0.1,0-0.2,0-0.3,0c-0.3-0.1-0.6-0.2-0.9-0.5c-0.2-0.2-0.3-0.4-0.3-0.7c0-0.3,0.1-0.6,0.4-0.7c1.5-1,2.8-2.1,3.9-3.2
				c1.4-1.4,2.5-2.9,3.2-4.4c0.7-1.5,1.3-3,1.6-4.4c0.3-1.3,0.6-2.7,0.7-4.2c0-0.1,0-0.2-0.2-0.2h-8.3c-0.3,0-0.6-0.1-0.8-0.3
				c-0.2-0.2-0.3-0.5-0.3-0.8c0-0.3,0.1-0.6,0.3-0.8c0.2-0.2,0.5-0.3,0.8-0.3h8.4c0.1,0,0.2-0.1,0.2-0.2v-1.1v-4
				c0-0.3,0.1-0.6,0.3-0.8c0.2-0.2,0.5-0.3,0.8-0.3s0.6,0.1,0.8,0.3c0.2,0.2,0.3,0.5,0.3,0.8v4V94.3z"/>
			<path d="M-240.2,110.1c0.1-0.3,0.3-0.5,0.6-0.6c0.3-0.2,0.5-0.2,0.8-0.1c0.3,0.1,0.5,0.2,0.6,0.5c0.1,0.3,0.2,0.5,0.1,0.8
				c-0.7,1.8-1.5,3.3-2.4,4.6c-0.2,0.2-0.4,0.4-0.7,0.4c-0.3,0-0.6,0-0.8-0.2c-0.3-0.2-0.4-0.5-0.4-0.8c0-0.2,0.1-0.4,0.2-0.6
				C-241.4,112.9-240.7,111.6-240.2,110.1z M-234.2,89.8c0.5,0,0.9,0.2,1.2,0.5c0.3,0.3,0.5,0.7,0.5,1.2v15.2c0,0.5-0.2,0.9-0.5,1.2
				c-0.3,0.3-0.7,0.5-1.2,0.5h-5.5c-0.5,0-0.9-0.2-1.2-0.5c-0.3-0.3-0.5-0.7-0.5-1.2V91.5c0-0.5,0.2-0.9,0.5-1.2
				c0.3-0.3,0.7-0.5,1.2-0.5H-234.2z M-234.7,95.4c0.2,0,0.2-0.1,0.2-0.2v-3.3c0-0.2-0.1-0.2-0.2-0.2h-4.5c-0.1,0-0.2,0.1-0.2,0.2
				v3.3c0,0.1,0.1,0.2,0.2,0.2H-234.7z M-234.7,101c0.2,0,0.2-0.1,0.2-0.2v-3.4c0-0.1-0.1-0.2-0.2-0.2h-4.5c-0.1,0-0.2,0.1-0.2,0.2
				v3.4c0,0.2,0.1,0.2,0.2,0.2H-234.7z M-234.7,106.7c0.2,0,0.2-0.1,0.2-0.2V103c0-0.2-0.1-0.2-0.2-0.2h-4.5c-0.1,0-0.2,0.1-0.2,0.2
				v3.5c0,0.1,0.1,0.2,0.2,0.2H-234.7z M-235.5,110.7c-0.1-0.1-0.1-0.3-0.1-0.4c0-0.1,0-0.2,0-0.3c0.1-0.2,0.2-0.4,0.4-0.5
				c0.3-0.1,0.5-0.1,0.8-0.1c0.3,0.1,0.5,0.2,0.6,0.5c0.5,0.7,0.9,1.4,1.2,2.1c0.1,0.3,0.2,0.5,0.1,0.8c-0.1,0.3-0.3,0.5-0.5,0.6
				c-0.2,0.1-0.5,0.1-0.7,0s-0.5-0.3-0.6-0.5C-234.6,112.2-235,111.5-235.5,110.7z M-218.6,97.7c0.6,0,1,0,1.3,0.1
				c0.2,0.1,0.3,0.2,0.5,0.3c0.1,0.2,0.2,0.3,0.1,0.5c-0.7,4.4-2.1,8.1-4.1,11.1c-0.1,0.1-0.1,0.2,0,0.4c1.3,1.5,2.9,2.7,4.6,3.6
				c0.3,0.1,0.4,0.3,0.4,0.6c0,0.1,0,0.1,0,0.2c0,0.2-0.1,0.4-0.2,0.6c-0.2,0.3-0.5,0.4-0.8,0.5c-0.1,0-0.2,0.1-0.3,0.1
				c-0.2,0-0.4,0-0.6-0.1c-1.7-1-3.2-2.2-4.5-3.7c-0.1-0.1-0.2-0.1-0.3,0c-1.3,1.5-2.9,2.7-4.6,3.6c-0.3,0.1-0.6,0.2-0.8,0.1
				s-0.5-0.3-0.7-0.5c-0.2-0.2-0.2-0.5-0.1-0.7s0.2-0.5,0.4-0.6c1.7-0.9,3.3-2.1,4.6-3.6c0.1-0.1,0.1-0.2,0-0.4c-1.7-2.6-3-6-3.9-10
				c0-0.1-0.1-0.1-0.1-0.1c-0.1,0-0.1,0-0.1,0.1v1.2c0,6.3-0.9,11-2.7,14.2c-0.1,0.2-0.3,0.4-0.6,0.4c-0.3,0-0.5,0-0.8-0.2
				c-0.2-0.2-0.4-0.4-0.4-0.6c0-0.1-0.1-0.2-0.1-0.3c0-0.2,0-0.4,0.1-0.5c0.5-0.9,0.9-1.9,1.3-3c0.3-1.1,0.6-2.3,0.7-3.5
				c0.1-1.2,0.2-2.3,0.3-3.3c0-1,0.1-2,0.1-3.2v-9.1c0-0.5,0.2-0.9,0.5-1.2c0.3-0.3,0.7-0.5,1.2-0.5h11.1c0.3,0,0.5,0.1,0.7,0.3
				c0.2,0.2,0.3,0.4,0.3,0.7c0,0.3-0.1,0.5-0.3,0.7c-0.2,0.2-0.4,0.3-0.7,0.3h-10.5c-0.1,0-0.2,0.1-0.2,0.2v5.1
				c0,0.1,0.1,0.2,0.2,0.2H-218.6z M-219,99.9c0-0.1,0-0.2-0.2-0.2h-6.3c-0.1,0-0.2,0.1-0.2,0.2c0.7,3.2,1.8,5.9,3.3,8.1
				c0,0.1,0.1,0.1,0.1,0.1c0,0,0.1,0,0.1-0.1C-220.7,105.8-219.7,103.1-219,99.9z"/>
			<path d="M-200.7,105.7c0-0.3,0.2-0.6,0.4-0.8c0.2-0.2,0.5-0.3,0.8-0.3c0.3,0,0.6,0.1,0.8,0.3c0.2,0.2,0.3,0.5,0.2,0.8
				c-0.2,1.4-0.4,2.5-0.7,3.5c-0.3,1-0.8,1.9-1.4,2.7c-0.6,0.9-1.4,1.6-2.4,2.2c-1,0.6-2.3,1.1-3.8,1.6c-0.1,0-0.2,0-0.4,0
				c-0.2,0-0.4,0-0.6-0.1c-0.3-0.1-0.5-0.4-0.7-0.6c-0.1-0.1-0.1-0.3-0.1-0.4c0-0.1,0-0.2,0.1-0.3c0.1-0.2,0.2-0.4,0.5-0.5
				c1.3-0.4,2.4-0.8,3.3-1.3c0.9-0.5,1.6-1.1,2.2-1.8c0.5-0.7,0.9-1.5,1.2-2.2C-201,107.8-200.9,106.8-200.7,105.7z M-196.9,96.6
				c0.1,0,0.2-0.1,0.2-0.2v-2.5c0-0.1-0.1-0.2-0.2-0.2h-10.5c-0.3,0-0.5-0.1-0.7-0.3c-0.2-0.2-0.3-0.4-0.3-0.7
				c0-0.3,0.1-0.5,0.3-0.7c0.2-0.2,0.4-0.3,0.7-0.3h10.5c0.1,0,0.2-0.1,0.2-0.2v-1.6c0-0.3,0.1-0.6,0.3-0.8c0.2-0.2,0.5-0.3,0.8-0.3
				c0.3,0,0.6,0.1,0.8,0.3c0.2,0.2,0.3,0.5,0.3,0.8v1.6c0,0.1,0.1,0.2,0.2,0.2h10.7c0.3,0,0.5,0.1,0.7,0.3c0.2,0.2,0.3,0.4,0.3,0.7
				c0,0.3-0.1,0.5-0.3,0.7c-0.2,0.2-0.4,0.3-0.7,0.3h-10.7c-0.1,0-0.2,0.1-0.2,0.2v2.5c0,0.1,0.1,0.2,0.2,0.2h8.1
				c0.3,0,0.5,0.1,0.7,0.3c0.2,0.2,0.3,0.4,0.3,0.7c0,0.3-0.1,0.5-0.3,0.7c-0.2,0.2-0.4,0.3-0.7,0.3h-18.5c-0.3,0-0.5-0.1-0.7-0.3
				c-0.2-0.2-0.3-0.4-0.3-0.7c0-0.3,0.1-0.5,0.3-0.7c0.2-0.2,0.4-0.3,0.7-0.3H-196.9z M-183.3,105.6c0,0.3-0.1,0.6-0.3,0.8
				c-0.2,0.2-0.5,0.3-0.8,0.3c-0.3,0-0.6-0.1-0.8-0.3c-0.2-0.2-0.3-0.5-0.3-0.8v-2.3c0-0.2-0.1-0.2-0.2-0.2h-19.5
				c-0.1,0-0.2,0.1-0.2,0.2v2.4c0,0.3-0.1,0.5-0.3,0.7c-0.2,0.2-0.5,0.3-0.8,0.3s-0.5-0.1-0.8-0.3c-0.2-0.2-0.3-0.5-0.3-0.7v-2.9
				c0-0.5,0.2-0.9,0.5-1.2c0.3-0.3,0.7-0.5,1.2-0.5h20.9c0.5,0,0.9,0.2,1.2,0.5c0.3,0.3,0.5,0.7,0.5,1.2V105.6z M-189.6,113.4h4
				c0.5,0,0.8-0.2,1-0.5c0.2-0.3,0.3-1.1,0.4-2.2c0-0.3,0.1-0.4,0.3-0.6c0.2-0.1,0.5-0.1,0.7,0c0.3,0.1,0.5,0.3,0.7,0.6
				c0.2,0.2,0.2,0.5,0.2,0.7c0,1.4-0.3,2.5-0.9,3.3c-0.4,0.5-1.2,0.8-2.2,0.8h-4.4c-1.3,0-2.3-0.2-2.7-0.6c-0.5-0.4-0.7-1.2-0.7-2.4
				v-6.8c0-0.3,0.1-0.6,0.3-0.8c0.2-0.2,0.5-0.3,0.8-0.3c0.3,0,0.6,0.1,0.8,0.3c0.2,0.2,0.3,0.5,0.3,0.8v6.8c0,0.4,0.1,0.7,0.2,0.8
				C-190.6,113.4-190.2,113.4-189.6,113.4z"/>
		</g>
	</g>
	<g>
		<g>
			<path d="M-295,68.8C-295,68.8-295,68.8-295,68.8C-295,68.9-295,68.9-295,68.8l0.3,0.3c0.2,0.1,0.3,0.3,0.3,0.5
				c0,0.2-0.1,0.4-0.3,0.5c-0.7,0.5-1.6,1-2.5,1.4c0,0,0,0,0,0.1c0,0,0,0,0,0.1c1,0.7,2.1,1.1,3.3,1.5c0.2,0,0.3,0.1,0.3,0.3
				c0.1,0.2,0,0.3-0.1,0.5c-0.1,0.2-0.3,0.4-0.5,0.5c-0.1,0.1-0.3,0.1-0.4,0.1c-0.1,0-0.2,0-0.3,0c-1.4-0.4-2.6-1-3.7-1.9
				c-1.2-0.9-2.1-2.2-2.8-3.7c0-0.1-0.1-0.1-0.2-0.1h-1.8c-0.1,0-0.1,0-0.1,0.1v3.6c0,0.1,0,0.1,0.1,0.1l3.1-0.5c0,0,0.1,0,0.1,0
				c0.1,0,0.3,0,0.4,0.1c0.2,0.1,0.2,0.3,0.2,0.5c0,0.2-0.1,0.3-0.2,0.4c-0.1,0.1-0.3,0.2-0.4,0.3c-1.9,0.3-3.8,0.7-5.8,1
				c-0.1,0-0.1,0-0.1,0c-0.1,0-0.3,0-0.4-0.1c-0.2-0.1-0.3-0.3-0.3-0.5c0-0.1,0-0.1,0-0.2c0-0.1,0-0.2,0.1-0.3
				c0.1-0.2,0.3-0.3,0.4-0.3c0.3,0,0.7-0.1,1.2-0.2c0.1,0,0.1-0.1,0.1-0.1v-3.8c0-0.1,0-0.1-0.1-0.1h-2c-0.2,0-0.3-0.1-0.5-0.2
				c-0.1-0.1-0.2-0.3-0.2-0.5c0-0.2,0.1-0.3,0.2-0.5c0.1-0.1,0.3-0.2,0.5-0.2h2c0.1,0,0.1,0,0.1-0.1v-5.9c0-0.3,0.1-0.5,0.3-0.6
				c0.2-0.2,0.4-0.3,0.6-0.3h8.3c0.2,0,0.3,0.1,0.4,0.2c0.1,0.1,0.2,0.3,0.2,0.4c0,0.2-0.1,0.3-0.2,0.4c-0.1,0.1-0.3,0.2-0.4,0.2
				h-7.6c-0.1,0-0.1,0-0.1,0.1v0.8c0,0.1,0,0.1,0.1,0.1h7.2c0.2,0,0.3,0.1,0.4,0.2c0.1,0.1,0.2,0.3,0.2,0.4c0,0.2-0.1,0.3-0.2,0.4
				c-0.1,0.1-0.3,0.2-0.4,0.2h-7.2c-0.1,0-0.1,0-0.1,0.1v0.9c0,0.1,0,0.1,0.1,0.1h7.2c0.2,0,0.3,0.1,0.4,0.2
				c0.1,0.1,0.2,0.3,0.2,0.4c0,0.2-0.1,0.3-0.2,0.4c-0.1,0.1-0.3,0.2-0.4,0.2h-7.2c-0.1,0-0.1,0-0.1,0.1v0.9c0,0.1,0,0.1,0.1,0.1
				h9.2c0.2,0,0.3,0.1,0.5,0.2c0.1,0.1,0.2,0.3,0.2,0.5c0,0.2-0.1,0.3-0.2,0.5c-0.1,0.1-0.3,0.2-0.5,0.2H-295z M-295.2,68.9
				C-295.2,68.9-295.2,68.9-295.2,68.9C-295.2,68.8-295.2,68.8-295.2,68.9l-4.3-0.1c0,0,0,0-0.1,0c0,0,0,0,0,0.1
				c0.4,0.7,0.8,1.3,1.3,1.8c0.1,0.1,0.1,0.1,0.2,0C-296.9,70.1-295.9,69.5-295.2,68.9z"/>
			<path d="M-285.1,70.6c-0.1,0-0.1,0-0.1,0.1v1.7c0,0.1,0,0.1,0.1,0.1c1.2-0.1,2-0.2,2.4-0.3c0.2,0,0.3,0,0.5,0.1
				c0.1,0.1,0.2,0.3,0.2,0.5c0,0.2-0.1,0.3-0.2,0.5c-0.1,0.1-0.3,0.2-0.5,0.3c-0.5,0.1-2.6,0.4-6.3,0.9c0,0-0.1,0-0.1,0
				c-0.2,0-0.3-0.1-0.4-0.2c-0.2-0.1-0.2-0.3-0.3-0.5c0,0,0,0,0-0.1c0-0.2,0.1-0.3,0.2-0.5c0.1-0.2,0.3-0.2,0.5-0.3
				c0.8-0.1,1.6-0.2,2.4-0.3c0.1,0,0.1-0.1,0.1-0.1v-1.8c0-0.1,0-0.1-0.1-0.1h-1.9c-0.2,0-0.3-0.1-0.5-0.2c-0.1-0.1-0.2-0.3-0.2-0.5
				s0.1-0.3,0.2-0.5c0.1-0.1,0.3-0.2,0.5-0.2h1.9c0.1,0,0.1,0,0.1-0.1v-1.4c0-0.1,0-0.1-0.1-0.1h-1.7c-0.3,0-0.5-0.1-0.7-0.3
				c-0.2-0.2-0.3-0.4-0.3-0.6V62c0-0.3,0.1-0.5,0.3-0.6c0.2-0.2,0.4-0.3,0.7-0.3h5.1c0.3,0,0.5,0.1,0.7,0.3c0.2,0.2,0.3,0.4,0.3,0.6
				v4.7c0,0.3-0.1,0.5-0.3,0.6c-0.2,0.2-0.4,0.3-0.7,0.3h-1.7c-0.1,0-0.1,0-0.1,0.1v1.4c0,0.1,0,0.1,0.1,0.1h2
				c0.2,0,0.3,0.1,0.5,0.2c0.1,0.1,0.2,0.3,0.2,0.5s-0.1,0.3-0.2,0.5c-0.1,0.1-0.3,0.2-0.5,0.2H-285.1z M-288,62.3
				c-0.1,0-0.1,0-0.1,0.1v1.3c0,0.1,0,0.1,0.1,0.1h1.4c0.1,0,0.1,0,0.1-0.1v-1.3c0-0.1,0-0.1-0.1-0.1H-288z M-288,64.9
				c-0.1,0-0.1,0-0.1,0.1v1.3c0,0.1,0,0.1,0.1,0.1h1.4c0.1,0,0.1,0,0.1-0.1V65c0-0.1,0-0.1-0.1-0.1H-288z M-283.8,63.8
				c0.1,0,0.1,0,0.1-0.1v-1.3c0-0.1,0-0.1-0.1-0.1h-1.4c-0.1,0-0.1,0-0.1,0.1v1.3c0,0.1,0,0.1,0.1,0.1H-283.8z M-283.8,66.4
				c0.1,0,0.1,0,0.1-0.1V65c0-0.1,0-0.1-0.1-0.1h-1.4c-0.1,0-0.1,0-0.1,0.1v1.3c0,0.1,0,0.1,0.1,0.1H-283.8z M-276.2,66.2
				c0.1,0,0.3,0,0.4,0l0.3,0.1c0.1,0,0.2,0.1,0.3,0.2c0.1,0.1,0.1,0.2,0.1,0.3c0,0.1,0,0.1,0,0.1c-0.3,1.2-0.6,2.1-0.9,2.8
				c-0.1,0.2-0.2,0.3-0.3,0.4c-0.1,0.1-0.2,0.1-0.3,0.1c-0.1,0-0.1,0-0.2,0c-0.2,0-0.3-0.1-0.4-0.3c-0.1-0.1-0.1-0.3,0-0.5
				c0.1-0.4,0.3-1,0.5-1.7c0,0,0-0.1,0-0.1c0,0,0,0-0.1,0h-1.3c-0.1,0-0.1,0-0.1,0.1v5.5c0,0.4,0,0.7-0.1,0.9
				c-0.1,0.2-0.3,0.4-0.5,0.5c-0.3,0.2-0.9,0.3-1.8,0.3h0c-0.2,0-0.4-0.1-0.6-0.2c-0.2-0.1-0.3-0.3-0.4-0.5c0-0.1,0-0.1,0-0.2
				c0-0.1,0-0.2,0.1-0.3c0.1-0.1,0.2-0.2,0.4-0.2c0.2,0,0.4,0,0.6,0c0.2,0,0.4,0,0.5,0c0.1,0,0.2,0,0.2-0.1c0,0,0.1-0.1,0.1-0.2
				v-5.5c0-0.1,0-0.1-0.1-0.1h-1.5c-0.2,0-0.4-0.1-0.5-0.2c-0.1-0.1-0.2-0.3-0.2-0.5c0-0.2,0.1-0.4,0.2-0.5c0.1-0.1,0.3-0.2,0.5-0.2
				h3c0,0,0,0,0,0c0,0,0,0,0,0c-0.8-0.6-1.6-1.2-2.5-1.7c-0.1-0.1-0.2-0.2-0.2-0.4c0-0.2,0-0.3,0.1-0.4c0.1-0.1,0.3-0.2,0.5-0.3
				c0.1,0,0.1,0,0.1,0c0.1,0,0.3,0,0.4,0.1c0.3,0.2,0.6,0.3,0.8,0.5c0.1,0,0.1,0,0.2,0c0.4-0.4,0.9-0.9,1.3-1.5c0,0,0,0,0-0.1
				c0,0,0,0,0,0h-3.5c-0.2,0-0.3-0.1-0.5-0.2c-0.1-0.1-0.2-0.3-0.2-0.5c0-0.2,0.1-0.3,0.2-0.5c0.1-0.1,0.3-0.2,0.5-0.2h4.7
				c0,0,0,0,0.1,0c0.1,0,0.1,0,0.2,0c0.1,0,0.2,0,0.3,0.1l0.3,0.2c0.1,0.1,0.2,0.2,0.3,0.4s0,0.3-0.1,0.4c-0.7,0.9-1.4,1.8-2.2,2.5
				c-0.1,0.1-0.1,0.1,0,0.1c0.3,0.2,0.6,0.5,0.9,0.7c0.1,0.1,0.1,0.2,0.1,0.3c0,0.1,0,0.2-0.1,0.3c0,0,0,0,0,0c0,0,0,0,0,0
				L-276.2,66.2C-276.3,66.3-276.3,66.2-276.2,66.2z"/>
			<path d="M-264.9,61.6c0.1-0.2,0.2-0.3,0.4-0.4c0.1-0.1,0.2-0.1,0.3-0.1c0.1,0,0.1,0,0.2,0c0.2,0.1,0.3,0.2,0.4,0.3
				c0,0.1,0.1,0.2,0.1,0.3c0,0.1,0,0.2-0.1,0.3c-0.5,1.1-1.1,2.1-1.7,3c0,0,0,0,0,0.1c0,0,0,0,0,0h0.9c0.2,0,0.3,0.1,0.5,0.2
				s0.2,0.3,0.2,0.5c0,0.2-0.1,0.3-0.2,0.5s-0.3,0.2-0.5,0.2h-1.9c-0.1,0-0.2,0-0.2,0.1c-0.3,0.4-0.7,0.8-1.1,1.2c0,0,0,0,0,0
				c0,0,0,0,0,0h2.3c0.3,0,0.5,0.1,0.7,0.3c0.2,0.2,0.3,0.4,0.3,0.6V74c0,0.2-0.1,0.4-0.2,0.5c-0.1,0.1-0.3,0.2-0.5,0.2h-0.1
				c-0.2,0-0.3-0.1-0.4-0.2c-0.1-0.1-0.2-0.2-0.2-0.4c0-0.1,0-0.1-0.1-0.1h-3c-0.1,0-0.1,0-0.1,0.1v0.1c0,0.2-0.1,0.3-0.2,0.5
				c-0.1,0.1-0.3,0.2-0.5,0.2c-0.2,0-0.3-0.1-0.5-0.2c-0.1-0.1-0.2-0.3-0.2-0.5v-4.4c0,0,0-0.1,0-0.1c0,0,0,0-0.1,0
				c0,0-0.1,0.1-0.3,0.2c-0.1,0.1-0.2,0.1-0.4,0.1c-0.1,0-0.1,0-0.2,0c-0.2-0.1-0.4-0.2-0.5-0.3c-0.1-0.1-0.1-0.2-0.1-0.4
				c0-0.1,0-0.1,0-0.1c0-0.2,0.1-0.3,0.3-0.4c1.2-0.7,2.3-1.5,3.2-2.4c0,0,0,0,0,0c0,0,0,0,0,0h-2.8c-0.2,0-0.3-0.1-0.5-0.2
				s-0.2-0.3-0.2-0.5c0-0.2,0.1-0.3,0.2-0.5s0.3-0.2,0.5-0.2h2.2c0.1,0,0.1,0,0.1-0.1v-1.4c0-0.1,0-0.1-0.1-0.1h-1.5
				c-0.2,0-0.3-0.1-0.5-0.2s-0.2-0.3-0.2-0.4s0.1-0.3,0.2-0.4s0.3-0.2,0.5-0.2h1.5c0.1,0,0.1,0,0.1-0.1v-0.8c0-0.2,0.1-0.3,0.2-0.5
				c0.1-0.1,0.3-0.2,0.5-0.2c0.2,0,0.4,0.1,0.5,0.2c0.1,0.1,0.2,0.3,0.2,0.5V62c0,0.1,0,0.1,0.1,0.1h1c0.2,0,0.4,0.1,0.5,0.2
				s0.2,0.3,0.2,0.5c0,0,0,0,0,0C-265.3,62.4-265.1,62-264.9,61.6z M-265.9,70.3c0.1,0,0.1,0,0.1-0.1V69c0-0.1,0-0.1-0.1-0.1h-2.9
				c-0.1,0-0.1,0-0.1,0.1v1.1c0,0.1,0,0.1,0.1,0.1H-265.9z M-268.9,72.7c0,0.1,0,0.1,0.1,0.1h2.9c0.1,0,0.1,0,0.1-0.1v-1.2
				c0-0.1,0-0.1-0.1-0.1h-2.9c-0.1,0-0.1,0-0.1,0.1V72.7z M-267.5,64.9c0,0.1,0,0.1,0.1,0.1h0.2c0.1,0,0.1,0,0.2-0.1
				c0.3-0.4,0.7-0.9,1-1.5c0,0,0,0,0-0.1c0,0,0,0,0,0h-1.3c-0.1,0-0.1,0-0.1,0.1V64.9z M-258.4,61.2c0,0,0.1,0,0.1,0
				c0.1,0,0.2,0,0.3,0.1l0.4,0.2c0.2,0.1,0.3,0.2,0.3,0.4c0,0.1,0,0.1,0,0.2c0,0.1,0,0.2-0.1,0.3c-0.7,1.6-1.3,3-1.8,4.1
				c0,0.1,0,0.1,0,0.2c1.2,1.1,1.8,2.4,1.8,3.7c0,0,0,0.1,0,0.1c0,1.1-0.3,1.8-0.8,2.1c-0.3,0.2-0.6,0.3-1.1,0.4c-0.2,0-0.5,0-0.7,0
				c-0.2,0-0.4-0.1-0.5-0.2c-0.2-0.1-0.3-0.3-0.3-0.5c-0.1-0.2,0-0.3,0.1-0.4c0.1-0.1,0.2-0.2,0.4-0.2c0.2,0,0.3,0,0.5,0
				c0.3,0,0.5-0.1,0.7-0.2c0.3-0.2,0.5-0.6,0.5-1.2c0-0.9-0.4-1.9-1.3-2.8c-0.2-0.2-0.3-0.4-0.4-0.7c0-0.1,0-0.2,0-0.3
				c0-0.2,0-0.3,0.1-0.5c0.4-1,0.9-2.1,1.3-3.2c0,0,0,0,0-0.1c0,0,0,0-0.1,0h-2.3c-0.1,0-0.1,0-0.1,0.1v11.5c0,0.2-0.1,0.4-0.2,0.5
				s-0.3,0.2-0.5,0.2c-0.2,0-0.4-0.1-0.5-0.2c-0.1-0.1-0.2-0.3-0.2-0.5V62.1c0-0.3,0.1-0.5,0.3-0.6c0.2-0.2,0.4-0.3,0.6-0.3H-258.4
				C-258.5,61.2-258.5,61.2-258.4,61.2z"/>
			<path d="M-239.7,62.6c0.1,0.1,0.2,0.2,0.2,0.2s0,0.1,0,0.3c0,0.2-0.1,0.4-0.2,0.5s-0.3,0.2-0.5,0.2h-5.6c-0.1,0-0.1,0-0.1,0.1
				v1.7c0,0.1,0,0.1,0.1,0.1h4c0.3,0,0.5,0.1,0.6,0.3c0.2,0.2,0.3,0.4,0.3,0.6v4.6c0,0.4-0.1,0.7-0.2,0.9c-0.1,0.2-0.3,0.4-0.6,0.5
				c-0.4,0.1-1.1,0.2-2,0.3h0c-0.2,0-0.4-0.1-0.6-0.2c-0.2-0.1-0.3-0.3-0.4-0.5c-0.1-0.2,0-0.3,0.1-0.5c0.1-0.1,0.2-0.2,0.4-0.2
				c0.3,0,0.6,0,0.9,0c0.2,0,0.4,0,0.5,0c0.1,0,0.2,0,0.3-0.1c0,0,0.1-0.1,0.1-0.2v-3.9c0-0.1,0-0.1-0.1-0.1h-3.3
				c-0.1,0-0.1,0-0.1,0.1v6.9c0,0.2-0.1,0.4-0.2,0.5c-0.2,0.2-0.3,0.2-0.5,0.2c-0.2,0-0.4-0.1-0.5-0.2c-0.2-0.2-0.2-0.3-0.2-0.5
				v-6.9c0-0.1,0-0.1-0.1-0.1h-3c-0.1,0-0.1,0-0.1,0.1v4.9c0,0.2-0.1,0.4-0.2,0.5c-0.1,0.1-0.3,0.2-0.5,0.2s-0.4-0.1-0.5-0.2
				c-0.1-0.1-0.2-0.3-0.2-0.5v-5.6c0-0.3,0.1-0.5,0.3-0.6c0.2-0.2,0.4-0.3,0.7-0.3h3.7c0.1,0,0.1,0,0.1-0.1V64c0-0.1,0-0.1-0.1-0.1
				h-5.5c-0.2,0-0.4-0.1-0.5-0.2s-0.2-0.3-0.2-0.5c0-0.2,0.1-0.4,0.2-0.5s0.3-0.2,0.5-0.2h5.5c0.1,0,0.1,0,0.1-0.1V61
				c0-0.2,0.1-0.4,0.2-0.6c0.2-0.2,0.3-0.2,0.6-0.2s0.4,0.1,0.6,0.2c0.2,0.2,0.2,0.3,0.2,0.6v1.3c0,0.1,0,0.1,0.1,0.1h5.6
				C-240,62.4-239.8,62.5-239.7,62.6z"/>
			<path d="M-228.9,64c0,0.1,0,0.1,0.1,0.1h3.3c0.2,0,0.3,0,0.5,0c0.1,0,0.2,0,0.2,0c0.3,0,0.7,0.1,0.9,0.2c0.2,0.1,0.3,0.2,0.4,0.4
				c0.1,0.1,0.1,0.3,0.1,0.4c0,0,0,0.1,0,0.1c0,0.1,0,0.1,0,0.2c0,0.8-0.1,1.6-0.1,2.4c-0.1,0.8-0.2,1.8-0.3,2.9
				c-0.2,1.1-0.3,1.9-0.5,2.4c-0.2,0.4-0.4,0.7-0.7,0.8c-0.3,0.2-0.7,0.3-1.2,0.3c-0.5,0-1,0-1.8-0.1c-0.2,0-0.5-0.1-0.6-0.3
				c-0.2-0.2-0.3-0.4-0.3-0.6c0,0,0-0.1,0-0.1c0-0.2,0.1-0.3,0.2-0.5c0.1-0.1,0.3-0.2,0.5-0.2c0,0,0.1,0,0.1,0
				c0.6,0.1,1.1,0.1,1.5,0.1c0.2,0,0.4,0,0.6-0.1s0.3-0.2,0.3-0.4c0.2-0.5,0.4-1.4,0.6-2.7c0.1-1.3,0.2-2.5,0.2-3.6
				c0-0.1,0-0.1-0.1-0.1h-3.9c-0.1,0-0.1,0-0.1,0.1c-0.3,1.9-0.7,3.5-1.4,4.8s-1.6,2.4-2.8,3.3c-0.2,0.2-0.4,0.2-0.7,0.2
				c0,0,0,0,0,0c-0.3,0-0.5-0.1-0.7-0.3l0,0c-0.2-0.1-0.2-0.3-0.2-0.5c0-0.3,0.1-0.4,0.3-0.6c0.4-0.3,0.8-0.6,1.1-0.9
				c0.8-0.7,1.4-1.6,1.9-2.6c0.5-1,0.8-2.2,1-3.6c0-0.1,0-0.1-0.1-0.1h-2.3c-0.4,0-0.8,0-1.1,0c0,0,0,0,0,0c-0.2,0-0.4-0.1-0.6-0.2
				c-0.2-0.2-0.3-0.3-0.3-0.6c0-0.2,0.1-0.4,0.3-0.6c0.2-0.1,0.3-0.2,0.5-0.2c0,0,0,0,0.1,0c0.4,0,0.8,0,1.1,0h2.5
				c0.1,0,0.1,0,0.1-0.1c0-0.4,0-0.9,0-1.4l0-0.5c0-0.2,0.1-0.4,0.2-0.6c0.2-0.2,0.4-0.3,0.6-0.3h0c0.3,0,0.5,0.1,0.6,0.3
				c0.2,0.2,0.2,0.4,0.2,0.6l0,0.5C-228.9,63-228.9,63.4-228.9,64z M-223.5,62.8c0.1,0.1,0.1,0.3,0,0.4c-0.1,0.1-0.2,0.3-0.3,0.3
				c-0.1,0.1-0.3,0.1-0.4,0c-0.2-0.1-0.3-0.2-0.3-0.3c-0.2-0.5-0.5-0.9-0.7-1.2c-0.1-0.1-0.1-0.3-0.1-0.4c0-0.1,0.1-0.2,0.3-0.3
				c0.1-0.1,0.3-0.1,0.5,0c0.2,0,0.3,0.1,0.4,0.3C-224,61.9-223.8,62.3-223.5,62.8z M-223.5,61.3c-0.1-0.1-0.1-0.2-0.1-0.3
				c0,0,0-0.1,0-0.1c0-0.1,0.1-0.2,0.3-0.3c0.1,0,0.2-0.1,0.3-0.1c0.1,0,0.1,0,0.2,0c0.2,0,0.3,0.1,0.4,0.3c0.2,0.4,0.5,0.8,0.7,1.2
				c0.1,0.1,0.1,0.2,0.1,0.3c0,0.1,0,0.1,0,0.2c-0.1,0.1-0.1,0.3-0.3,0.3c-0.1,0-0.2,0-0.3,0c-0.1,0-0.1,0-0.2,0
				c-0.1-0.1-0.3-0.2-0.3-0.3C-223,62.1-223.3,61.6-223.5,61.3z"/>
			<path d="M-207.5,62.3c0.1,0,0.2,0,0.3,0c0.4,0,0.7,0.1,0.9,0.3c0.1,0.1,0.2,0.3,0.3,0.4c0,0.1,0,0.1,0,0.1c0,0.1,0,0.2-0.1,0.4
				c-0.1,0.1-0.1,0.2-0.1,0.3c-0.7,1.7-1.6,3.2-2.5,4.5c-0.1,0.1,0,0.1,0,0.2c1.3,1.1,2.6,2.4,3.9,3.9c0.1,0.2,0.2,0.4,0.2,0.6
				c0,0,0,0.1,0,0.1c0,0.3-0.1,0.5-0.3,0.6l0,0c-0.2,0.1-0.3,0.2-0.5,0.2c0,0-0.1,0-0.1,0c-0.2,0-0.4-0.1-0.6-0.3
				c-1-1.3-2.2-2.6-3.6-3.9c-0.1-0.1-0.1-0.1-0.2,0c-1.7,1.8-3.4,3.1-5.3,4.1c-0.2,0.1-0.4,0.1-0.5,0.1c-0.1,0-0.1,0-0.2,0
				c-0.3-0.1-0.5-0.2-0.7-0.4l0,0c-0.1-0.1-0.2-0.3-0.2-0.4c0,0,0-0.1,0-0.1c0-0.2,0.2-0.4,0.4-0.5c1.1-0.5,2.1-1.1,3.1-1.9
				c1-0.8,1.9-1.6,2.6-2.4c0.5-0.6,1-1.3,1.5-2s0.8-1.5,1-2.1c0,0,0,0,0-0.1c0,0,0,0-0.1,0h-5.8c-0.2,0-0.5,0-0.8,0c0,0,0,0-0.1,0
				c-0.2,0-0.4-0.1-0.6-0.2c-0.2-0.2-0.3-0.4-0.3-0.6c0-0.2,0.1-0.4,0.3-0.6c0.2-0.1,0.3-0.2,0.6-0.2c0,0,0,0,0.1,0
				c0.3,0,0.6,0,0.8,0h5.9C-207.9,62.4-207.7,62.4-207.5,62.3z"/>
			<path d="M-191.4,74.1c-0.1,0-0.2,0-0.3,0c-0.2,0-0.3,0-0.5-0.1c-0.2-0.1-0.4-0.3-0.6-0.5c-0.1-0.1-0.1-0.2-0.1-0.3
				c0-0.1,0-0.2,0.1-0.3c0.1-0.2,0.2-0.3,0.4-0.3c0.2,0,0.4-0.1,0.5-0.1c0.5-0.1,1-0.3,1.5-0.5c0.4-0.2,0.9-0.5,1.2-0.9
				c0.4-0.4,0.6-0.8,0.9-1.3c0.2-0.5,0.3-1.1,0.3-1.7c0-1.2-0.3-2.1-1-2.9c-0.7-0.8-1.6-1.3-2.7-1.5c-0.1,0-0.1,0-0.1,0.1
				c-0.3,1.7-0.6,3.1-0.9,4.3c-0.5,1.6-1,2.9-1.7,3.7c-0.7,0.9-1.4,1.3-2.2,1.3c-0.8,0-1.5-0.4-2.1-1.2c-0.6-0.8-0.9-1.9-0.9-3.2
				c0-0.9,0.2-1.7,0.6-2.5c0.4-0.8,0.9-1.5,1.5-2.1c0.6-0.6,1.4-1.1,2.3-1.4c0.9-0.4,1.8-0.5,2.8-0.5c0.9,0,1.8,0.2,2.6,0.5
				c0.8,0.3,1.4,0.7,2,1.3c0.5,0.5,0.9,1.2,1.2,1.9c0.3,0.7,0.4,1.5,0.4,2.3c0,1.5-0.4,2.8-1.3,3.9C-188.5,73-189.8,73.8-191.4,74.1
				z M-196.5,71.2c0.8,0,1.5-1.2,2.2-3.5c0.4-1.2,0.7-2.6,0.8-4c0,0,0,0,0-0.1c0,0,0,0-0.1,0c-0.7,0.1-1.3,0.4-1.9,0.7
				c-0.6,0.3-1,0.7-1.4,1.2c-0.4,0.5-0.6,0.9-0.9,1.5s-0.3,1-0.3,1.5c0,0.8,0.2,1.5,0.5,2C-197.2,71-196.9,71.2-196.5,71.2z"/>
		</g>
	</g>
	<g>
		<linearGradient id="SVGID_1_" gradientUnits="userSpaceOnUse" x1="-242.8727" y1="18.8083" x2="-242.8727" y2="49.2249">
			<stop  offset="0" style="stop-color:#F2D500"/>
			<stop  offset="1.000000e-02" style="stop-color:#F2D500"/>
			<stop  offset="0.25" style="stop-color:#F2D500"/>
			<stop  offset="0.5" style="stop-color:#F39700"/>
			<stop  offset="0.99" style="stop-color:#F39700"/>
			<stop  offset="1" style="stop-color:#F39700"/>
		</linearGradient>
		<path class="st0" d="M-237.1,17.3c0.1-0.4,0-0.4-0.2-0.1l-15.5,19.1c-0.2,0.3-0.1,0.6,0.3,0.6h6.6c0.4,0,0.6,0.3,0.5,0.7
			l-2.8,11.5c-0.1,0.4,0,0.4,0.2,0.1l15.1-19c0.3-0.3,0.1-0.6-0.3-0.6h-5.6c-0.4,0-0.6-0.3-0.5-0.7L-237.1,17.3z"/>
	</g>
</g>
<polygon class="st1" points="-111.5,28.8 -112.4,27.9 -115.9,24.4 -115.9,26.2 -113.3,28.8 -115.9,31.4 -115.9,33.2 -112.4,29.7 "/>
<g>
	<linearGradient id="SVGID_2_" gradientUnits="userSpaceOnUse" x1="-61.4985" y1="2.2702" x2="-61.4985" y2="39.9042">
		<stop  offset="0" style="stop-color:#F2D500"/>
		<stop  offset="1.000000e-02" style="stop-color:#F2D500"/>
		<stop  offset="0.25" style="stop-color:#F2D500"/>
		<stop  offset="0.5" style="stop-color:#F39700"/>
		<stop  offset="0.99" style="stop-color:#F39700"/>
		<stop  offset="1" style="stop-color:#F39700"/>
	</linearGradient>
	<path class="st2" d="M-55,0.4c0.1-0.4,0-0.5-0.3-0.1l-17.6,21.8c-0.3,0.4-0.1,0.7,0.3,0.7h7.5c0.5,0,0.7,0.4,0.6,0.8l-3.1,13.1
		c-0.2,0.4,0,0.5,0.3,0.1L-50.2,15c0.3-0.4,0.1-0.7-0.3-0.7h-6.4c-0.5,0-0.7-0.4-0.6-0.8L-55,0.4z"/>
</g>
<polygon points="4.4,4.4 3.5,3.5 0,0 0,1.8 2.6,4.4 0,7 0,8.8 3.5,5.3 "/>
<g>
	
		<text transform="matrix(1 0 0 1 110.2874 4054.999)" style="font-family:'GenJyuuGothic-Regular'; font-size:14px; letter-spacing:1;">内部リンク</text>
</g>
<polygon points="104,4049 103,4048.1 99.6,4044.6 99.6,4046.4 102.1,4049 99.6,4051.6 99.6,4053.4 103,4049.9 "/>
<g>
	<g>
		
			<text transform="matrix(1 0 0 1 235.1839 4054)" style="font-family:'GenJyuuGothic-Regular'; font-size:14px; letter-spacing:1;">外部リンク</text>
	</g>
	<g>
		<g>
			<path d="M227.6,4047.2v4.7h-6.9v-4.7H227.6 M228.6,4046.2h-8.9v6.7h8.9V4046.2L228.6,4046.2z"/>
		</g>
		<g>
			<rect x="217.7" y="4044" class="st3" width="7.9" height="5.7"/>
			<path d="M225.1,4044.5v4.7h-6.9v-4.7H225.1 M226.1,4043.5h-8.9v6.7h8.9V4043.5L226.1,4043.5z"/>
		</g>
	</g>
</g>
<g>
	<g>
		
			<text transform="matrix(1 0 0 1 363.3494 4052)" style="font-family:'GenJyuuGothic-Regular'; font-size:14px; letter-spacing:1;">PDFリンク</text>
	</g>
	<g>
		<path class="st4" d="M354.6,4054c0,2.2-1.8,4-4,4h-14.9c-2.2,0-4-1.8-4-4v-14c0-2.2,1.8-4,4-4h14.9c2.2,0,4,1.8,4,4V4054z"/>
	</g>
	<text transform="matrix(1 0 0 1 334.5538 4049.8325)" class="st3" style="font-family:'GenJyuuGothic-Bold'; font-size:9px;">PDF</text>
</g>
<g>
	<g>
		<rect x="57.4" y="3.2" class="st3" width="7.9" height="5.7"/>
		<path d="M64.8,3.7v4.7h-6.9V3.7H64.8 M65.8,2.7h-8.9v6.7h8.9V2.7L65.8,2.7z"/>
	</g>
	<g>
		<rect x="54.9" y="0.5" class="st3" width="7.9" height="5.7"/>
		<path d="M62.3,1v4.7h-6.9V1H62.3 M63.3,0h-8.9v6.7h8.9V0L63.3,0z"/>
	</g>
</g>
<g>
	<path class="st4" d="M150.3,18c0,2.2-1.8,4-4,4h-14.9c-2.2,0-4-1.8-4-4V4c0-2.2,1.8-4,4-4h14.9c2.2,0,4,1.8,4,4V18z"/>
</g>
<text transform="matrix(1 0 0 1 130.3097 13.8336)" class="st3" style="font-family:'GenJyuuGothic-Bold'; font-size:9px;">PDF</text>
</svg>
