<?xml version="1.0" encoding="utf-8"?>
<!-- Generator: Adobe Illustrator 21.1.0, SVG Export Plug-In . SVG Version: 6.00 Build 0)  -->
<svg version="1.1" id="レイヤー_1" xmlns="http://www.w3.org/2000/svg" xmlns:xlink="http://www.w3.org/1999/xlink" x="0px"
	 y="0px" viewBox="0 0 9 5" style="enable-background:new 0 0 9 5;" xml:space="preserve">
<style type="text/css">
	.st0{fill:url(#SVGID_1_);}
	.st1{fill:#F39700;}
	.st2{fill:url(#SVGID_2_);}
	.st3{fill:#FFFFFF;}
	.st4{fill:#E51F1F;}
</style>
<g>
	<g>
		<g>
			<path d="M-496,101.6c-0.2,0.2-0.5,0.3-0.8,0.3s-0.5-0.1-0.8-0.3c-0.2-0.2-0.3-0.5-0.3-0.8v-5.5c0-0.2-0.1-0.2-0.2-0.2h-9
				c-0.1,0-0.2,0.1-0.2,0.2v3c0,0.3-0.1,0.5-0.3,0.7c-0.2,0.2-0.4,0.3-0.7,0.3c-0.3,0-0.5-0.1-0.7-0.3c-0.2-0.2-0.3-0.4-0.3-0.7
				v-3.1c0-0.5,0.2-0.9,0.5-1.2c0.3-0.3,0.7-0.5,1.2-0.5h9.5c0.1,0,0.2-0.1,0.2-0.2v-1.4c0-0.2-0.1-0.2-0.2-0.2h-8.6
				c-0.2,0-0.4-0.1-0.6-0.2c-0.2-0.2-0.3-0.4-0.3-0.6c0-0.2,0.1-0.4,0.3-0.6c0.2-0.2,0.4-0.2,0.6-0.2h20c0.2,0,0.4,0.1,0.6,0.2
				c0.2,0.2,0.3,0.4,0.3,0.6c0,0.2-0.1,0.4-0.3,0.6c-0.2,0.2-0.4,0.2-0.6,0.2h-8.8c-0.1,0-0.2,0.1-0.2,0.2v1.4
				c0,0.2,0.1,0.2,0.2,0.2h9.7c0.5,0,0.9,0.2,1.2,0.5c0.3,0.3,0.5,0.7,0.5,1.2v3c0,0.3-0.1,0.5-0.3,0.7c-0.2,0.2-0.4,0.3-0.7,0.3
				c-0.3,0-0.5-0.1-0.7-0.3c-0.2-0.2-0.3-0.4-0.3-0.7v-2.9c0-0.2-0.1-0.2-0.2-0.2h-9.1c-0.1,0-0.2,0.1-0.2,0.2v5.5
				C-495.7,101.2-495.8,101.4-496,101.6z M-493.6,114h6.7c0.7,0,1.2-0.2,1.5-0.5s0.4-1,0.5-2c0-0.2,0.1-0.4,0.4-0.5
				c0.2-0.1,0.4-0.1,0.7-0.1c0.3,0.1,0.5,0.3,0.7,0.5c0.1,0.2,0.2,0.4,0.2,0.6c0,0.1,0,0.1,0,0.2c-0.2,1.4-0.5,2.3-1.1,2.8
				c-0.5,0.5-1.4,0.7-2.7,0.7h-6.9c-1.7,0-2.8-0.2-3.4-0.6c-0.6-0.4-0.9-1.2-0.9-2.4V112c0-0.2-0.1-0.2-0.2-0.2h-6.2
				c-0.1,0-0.2,0.1-0.2,0.2v0.3c0,0.3-0.1,0.5-0.3,0.8c-0.2,0.2-0.5,0.3-0.8,0.3s-0.5-0.1-0.7-0.3c-0.2-0.2-0.3-0.5-0.3-0.8v-7.6
				c0-0.5,0.2-0.9,0.5-1.2c0.3-0.3,0.7-0.5,1.2-0.5h16.8c0.5,0,0.9,0.2,1.2,0.5c0.3,0.3,0.5,0.7,0.5,1.2v5.4c0,0.5-0.2,0.9-0.5,1.2
				c-0.3,0.3-0.7,0.5-1.2,0.5h-7.4c-0.1,0-0.2,0.1-0.2,0.2v0.7c0,0.5,0.1,0.8,0.4,1C-495.1,113.9-494.5,114-493.6,114z
				 M-505.6,101.2c-0.2,0-0.4-0.1-0.5-0.2c-0.1-0.1-0.2-0.3-0.2-0.5c0-0.2,0.1-0.4,0.2-0.5c0.1-0.1,0.3-0.2,0.5-0.2h5.5
				c0.2,0,0.4,0.1,0.5,0.2c0.1,0.1,0.2,0.3,0.2,0.5c0,0.2-0.1,0.4-0.2,0.5c-0.1,0.1-0.3,0.2-0.5,0.2H-505.6z M-500.1,96.7
				c0.2,0,0.4,0.1,0.5,0.2c0.1,0.1,0.2,0.3,0.2,0.5c0,0.2-0.1,0.4-0.2,0.5c-0.1,0.1-0.3,0.2-0.5,0.2h-5c-0.2,0-0.3-0.1-0.5-0.2
				c-0.1-0.1-0.2-0.3-0.2-0.5c0-0.2,0.1-0.4,0.2-0.5c0.1-0.1,0.3-0.2,0.5-0.2H-500.1z M-497.9,104.8c0-0.1-0.1-0.2-0.2-0.2h-6.2
				c-0.1,0-0.2,0.1-0.2,0.2v1.6c0,0.1,0.1,0.2,0.2,0.2h6.2c0.2,0,0.2-0.1,0.2-0.2V104.8z M-504.6,110c0,0.1,0.1,0.2,0.2,0.2h6.2
				c0.2,0,0.2-0.1,0.2-0.2v-1.6c0-0.1-0.1-0.2-0.2-0.2h-6.2c-0.1,0-0.2,0.1-0.2,0.2V110z M-488.9,106.6c0.1,0,0.2-0.1,0.2-0.2v-1.6
				c0-0.1-0.1-0.2-0.2-0.2h-6.7c-0.1,0-0.2,0.1-0.2,0.2v1.6c0,0.1,0.1,0.2,0.2,0.2H-488.9z M-495.8,110c0,0.1,0.1,0.2,0.2,0.2h6.7
				c0.1,0,0.2-0.1,0.2-0.2v-1.6c0-0.1-0.1-0.2-0.2-0.2h-6.7c-0.1,0-0.2,0.1-0.2,0.2V110z M-493.9,97.9c-0.1-0.1-0.2-0.3-0.2-0.5
				c0-0.2,0.1-0.4,0.2-0.5c0.1-0.1,0.3-0.2,0.5-0.2h5c0.2,0,0.3,0.1,0.5,0.2c0.1,0.1,0.2,0.3,0.2,0.5c0,0.2-0.1,0.4-0.2,0.5
				c-0.1,0.1-0.3,0.2-0.5,0.2h-5C-493.6,98.1-493.8,98-493.9,97.9z M-493.4,101.2c-0.2,0-0.4-0.1-0.5-0.2c-0.1-0.1-0.2-0.3-0.2-0.5
				c0-0.2,0.1-0.4,0.2-0.5c0.1-0.1,0.3-0.2,0.5-0.2h5.7c0.2,0,0.4,0.1,0.5,0.2c0.1,0.1,0.2,0.3,0.2,0.5c0,0.2-0.1,0.4-0.2,0.5
				c-0.1,0.1-0.3,0.2-0.5,0.2H-493.4z"/>
			<path d="M-463.4,94.3c0,0.1,0.1,0.2,0.2,0.2h10.5c0.5,0,0.9,0.2,1.2,0.5c0.3,0.3,0.4,0.7,0.4,1.1c0,3.7-0.3,7.9-1,12.8
				c-0.4,2.6-0.9,4.3-1.6,5.1c-0.6,0.7-1.4,1.1-2.5,1.2c-0.4,0-0.8,0-1.3,0c-0.6,0-1.4,0-2.3-0.1c-0.4,0-0.7-0.1-0.9-0.4
				c-0.3-0.2-0.4-0.5-0.6-0.9c-0.1-0.3,0-0.5,0.1-0.7c0.1-0.2,0.3-0.3,0.6-0.3c1.2,0.1,2.4,0.1,3.5,0.1c0.6,0,1.1-0.1,1.4-0.4
				c0.5-0.5,1-2,1.3-4.4c0.4-2.4,0.7-6.1,1-11.2c0-0.2-0.1-0.2-0.2-0.2h-9.8c-0.2,0-0.2,0.1-0.3,0.2c-0.1,1.3-0.2,2.5-0.4,3.6
				c-0.2,1.2-0.6,2.5-1.1,3.9s-1.2,2.7-2,3.9c-0.8,1.2-1.8,2.4-3.1,3.7c-1,1-2.1,1.9-3.4,2.7c-0.2,0.1-0.5,0.2-0.7,0.2
				c-0.1,0-0.2,0-0.3,0c-0.3-0.1-0.6-0.2-0.9-0.5c-0.2-0.2-0.3-0.4-0.3-0.7c0-0.3,0.1-0.6,0.4-0.7c1.5-1,2.8-2.1,3.9-3.2
				c1.4-1.4,2.5-2.9,3.2-4.4c0.7-1.5,1.3-3,1.6-4.4c0.3-1.3,0.6-2.7,0.7-4.2c0-0.1,0-0.2-0.2-0.2h-8.3c-0.3,0-0.6-0.1-0.8-0.3
				c-0.2-0.2-0.3-0.5-0.3-0.8c0-0.3,0.1-0.6,0.3-0.8c0.2-0.2,0.5-0.3,0.8-0.3h8.4c0.1,0,0.2-0.1,0.2-0.2v-1.1v-4
				c0-0.3,0.1-0.6,0.3-0.8c0.2-0.2,0.5-0.3,0.8-0.3s0.6,0.1,0.8,0.3c0.2,0.2,0.3,0.5,0.3,0.8v4V94.3z"/>
			<path d="M-440.6,110.1c0.1-0.3,0.3-0.5,0.6-0.6c0.3-0.2,0.5-0.2,0.8-0.1c0.3,0.1,0.5,0.2,0.6,0.5c0.1,0.3,0.2,0.5,0.1,0.8
				c-0.7,1.8-1.5,3.3-2.4,4.6c-0.2,0.2-0.4,0.4-0.7,0.4c-0.3,0-0.6,0-0.8-0.2c-0.3-0.2-0.4-0.5-0.4-0.8c0-0.2,0.1-0.4,0.2-0.6
				C-441.8,112.9-441.1,111.6-440.6,110.1z M-434.6,89.8c0.5,0,0.9,0.2,1.2,0.5c0.3,0.3,0.5,0.7,0.5,1.2v15.2c0,0.5-0.2,0.9-0.5,1.2
				c-0.3,0.3-0.7,0.5-1.2,0.5h-5.5c-0.5,0-0.9-0.2-1.2-0.5c-0.3-0.3-0.5-0.7-0.5-1.2V91.5c0-0.5,0.2-0.9,0.5-1.2
				c0.3-0.3,0.7-0.5,1.2-0.5H-434.6z M-435.1,95.4c0.2,0,0.2-0.1,0.2-0.2v-3.3c0-0.2-0.1-0.2-0.2-0.2h-4.5c-0.1,0-0.2,0.1-0.2,0.2
				v3.3c0,0.1,0.1,0.2,0.2,0.2H-435.1z M-435.1,101c0.2,0,0.2-0.1,0.2-0.2v-3.4c0-0.1-0.1-0.2-0.2-0.2h-4.5c-0.1,0-0.2,0.1-0.2,0.2
				v3.4c0,0.2,0.1,0.2,0.2,0.2H-435.1z M-435.1,106.7c0.2,0,0.2-0.1,0.2-0.2V103c0-0.2-0.1-0.2-0.2-0.2h-4.5c-0.1,0-0.2,0.1-0.2,0.2
				v3.5c0,0.1,0.1,0.2,0.2,0.2H-435.1z M-435.9,110.7c-0.1-0.1-0.1-0.3-0.1-0.4c0-0.1,0-0.2,0-0.3c0.1-0.2,0.2-0.4,0.4-0.5
				c0.3-0.1,0.5-0.1,0.8-0.1c0.3,0.1,0.5,0.2,0.6,0.5c0.5,0.7,0.9,1.4,1.2,2.1c0.1,0.3,0.2,0.5,0.1,0.8c-0.1,0.3-0.3,0.5-0.5,0.6
				c-0.2,0.1-0.5,0.1-0.7,0s-0.5-0.3-0.6-0.5C-435,112.2-435.4,111.5-435.9,110.7z M-419,97.7c0.6,0,1,0,1.3,0.1
				c0.2,0.1,0.3,0.2,0.5,0.3c0.1,0.2,0.2,0.3,0.1,0.5c-0.7,4.4-2.1,8.1-4.1,11.1c-0.1,0.1-0.1,0.2,0,0.4c1.3,1.5,2.9,2.7,4.6,3.6
				c0.3,0.1,0.4,0.3,0.4,0.6c0,0.1,0,0.1,0,0.2c0,0.2-0.1,0.4-0.2,0.6c-0.2,0.3-0.5,0.4-0.8,0.5c-0.1,0-0.2,0.1-0.3,0.1
				c-0.2,0-0.4,0-0.6-0.1c-1.7-1-3.2-2.2-4.5-3.7c-0.1-0.1-0.2-0.1-0.3,0c-1.3,1.5-2.9,2.7-4.6,3.6c-0.3,0.1-0.6,0.2-0.8,0.1
				s-0.5-0.3-0.7-0.5c-0.2-0.2-0.2-0.5-0.1-0.7s0.2-0.5,0.4-0.6c1.7-0.9,3.3-2.1,4.6-3.6c0.1-0.1,0.1-0.2,0-0.4c-1.7-2.6-3-6-3.9-10
				c0-0.1-0.1-0.1-0.1-0.1c-0.1,0-0.1,0-0.1,0.1v1.2c0,6.3-0.9,11-2.7,14.2c-0.1,0.2-0.3,0.4-0.6,0.4c-0.3,0-0.5,0-0.8-0.2
				c-0.2-0.2-0.4-0.4-0.4-0.6c0-0.1-0.1-0.2-0.1-0.3c0-0.2,0-0.4,0.1-0.5c0.5-0.9,0.9-1.9,1.3-3c0.3-1.1,0.6-2.3,0.7-3.5
				c0.1-1.2,0.2-2.3,0.3-3.3c0-1,0.1-2,0.1-3.2v-9.1c0-0.5,0.2-0.9,0.5-1.2c0.3-0.3,0.7-0.5,1.2-0.5h11.1c0.3,0,0.5,0.1,0.7,0.3
				c0.2,0.2,0.3,0.4,0.3,0.7c0,0.3-0.1,0.5-0.3,0.7c-0.2,0.2-0.4,0.3-0.7,0.3h-10.5c-0.1,0-0.2,0.1-0.2,0.2v5.1
				c0,0.1,0.1,0.2,0.2,0.2H-419z M-419.4,99.9c0-0.1,0-0.2-0.2-0.2h-6.3c-0.1,0-0.2,0.1-0.2,0.2c0.7,3.2,1.8,5.9,3.3,8.1
				c0,0.1,0.1,0.1,0.1,0.1c0,0,0.1,0,0.1-0.1C-421.1,105.8-420.1,103.1-419.4,99.9z"/>
			<path d="M-401.1,105.7c0-0.3,0.2-0.6,0.4-0.8c0.2-0.2,0.5-0.3,0.8-0.3c0.3,0,0.6,0.1,0.8,0.3c0.2,0.2,0.3,0.5,0.2,0.8
				c-0.2,1.4-0.4,2.5-0.7,3.5c-0.3,1-0.8,1.9-1.4,2.7c-0.6,0.9-1.4,1.6-2.4,2.2c-1,0.6-2.3,1.1-3.8,1.6c-0.1,0-0.2,0-0.4,0
				c-0.2,0-0.4,0-0.6-0.1c-0.3-0.1-0.5-0.4-0.7-0.6c-0.1-0.1-0.1-0.3-0.1-0.4c0-0.1,0-0.2,0.1-0.3c0.1-0.2,0.2-0.4,0.5-0.5
				c1.3-0.4,2.4-0.8,3.3-1.3c0.9-0.5,1.6-1.1,2.2-1.8c0.5-0.7,0.9-1.5,1.2-2.2C-401.4,107.8-401.2,106.8-401.1,105.7z M-397.3,96.6
				c0.1,0,0.2-0.1,0.2-0.2v-2.5c0-0.1-0.1-0.2-0.2-0.2h-10.5c-0.3,0-0.5-0.1-0.7-0.3c-0.2-0.2-0.3-0.4-0.3-0.7
				c0-0.3,0.1-0.5,0.3-0.7c0.2-0.2,0.4-0.3,0.7-0.3h10.5c0.1,0,0.2-0.1,0.2-0.2v-1.6c0-0.3,0.1-0.6,0.3-0.8c0.2-0.2,0.5-0.3,0.8-0.3
				c0.3,0,0.6,0.1,0.8,0.3c0.2,0.2,0.3,0.5,0.3,0.8v1.6c0,0.1,0.1,0.2,0.2,0.2h10.7c0.3,0,0.5,0.1,0.7,0.3c0.2,0.2,0.3,0.4,0.3,0.7
				c0,0.3-0.1,0.5-0.3,0.7c-0.2,0.2-0.4,0.3-0.7,0.3h-10.7c-0.1,0-0.2,0.1-0.2,0.2v2.5c0,0.1,0.1,0.2,0.2,0.2h8.1
				c0.3,0,0.5,0.1,0.7,0.3c0.2,0.2,0.3,0.4,0.3,0.7c0,0.3-0.1,0.5-0.3,0.7c-0.2,0.2-0.4,0.3-0.7,0.3h-18.5c-0.3,0-0.5-0.1-0.7-0.3
				c-0.2-0.2-0.3-0.4-0.3-0.7c0-0.3,0.1-0.5,0.3-0.7c0.2-0.2,0.4-0.3,0.7-0.3H-397.3z M-383.7,105.6c0,0.3-0.1,0.6-0.3,0.8
				c-0.2,0.2-0.5,0.3-0.8,0.3c-0.3,0-0.6-0.1-0.8-0.3c-0.2-0.2-0.3-0.5-0.3-0.8v-2.3c0-0.2-0.1-0.2-0.2-0.2h-19.5
				c-0.1,0-0.2,0.1-0.2,0.2v2.4c0,0.3-0.1,0.5-0.3,0.7c-0.2,0.2-0.5,0.3-0.8,0.3s-0.5-0.1-0.8-0.3c-0.2-0.2-0.3-0.5-0.3-0.7v-2.9
				c0-0.5,0.2-0.9,0.5-1.2c0.3-0.3,0.7-0.5,1.2-0.5h20.9c0.5,0,0.9,0.2,1.2,0.5c0.3,0.3,0.5,0.7,0.5,1.2V105.6z M-390,113.4h4
				c0.5,0,0.8-0.2,1-0.5c0.2-0.3,0.3-1.1,0.4-2.2c0-0.3,0.1-0.4,0.3-0.6c0.2-0.1,0.5-0.1,0.7,0c0.3,0.1,0.5,0.3,0.7,0.6
				c0.2,0.2,0.2,0.5,0.2,0.7c0,1.4-0.3,2.5-0.9,3.3c-0.4,0.5-1.2,0.8-2.2,0.8h-4.4c-1.3,0-2.3-0.2-2.7-0.6c-0.5-0.4-0.7-1.2-0.7-2.4
				v-6.8c0-0.3,0.1-0.6,0.3-0.8c0.2-0.2,0.5-0.3,0.8-0.3c0.3,0,0.6,0.1,0.8,0.3c0.2,0.2,0.3,0.5,0.3,0.8v6.8c0,0.4,0.1,0.7,0.2,0.8
				C-391,113.4-390.6,113.4-390,113.4z"/>
		</g>
	</g>
	<g>
		<g>
			<path d="M-495.4,68.8C-495.4,68.8-495.4,68.8-495.4,68.8C-495.4,68.9-495.4,68.9-495.4,68.8l0.3,0.3c0.2,0.1,0.3,0.3,0.3,0.5
				c0,0.2-0.1,0.4-0.3,0.5c-0.7,0.5-1.6,1-2.5,1.4c0,0,0,0,0,0.1c0,0,0,0,0,0.1c1,0.7,2.1,1.1,3.3,1.5c0.2,0,0.3,0.1,0.3,0.3
				c0.1,0.2,0,0.3-0.1,0.5c-0.1,0.2-0.3,0.4-0.5,0.5c-0.1,0.1-0.3,0.1-0.4,0.1c-0.1,0-0.2,0-0.3,0c-1.4-0.4-2.6-1-3.7-1.9
				c-1.2-0.9-2.1-2.2-2.8-3.7c0-0.1-0.1-0.1-0.2-0.1h-1.8c-0.1,0-0.1,0-0.1,0.1v3.6c0,0.1,0,0.1,0.1,0.1l3.1-0.5c0,0,0.1,0,0.1,0
				c0.1,0,0.3,0,0.4,0.1c0.2,0.1,0.2,0.3,0.2,0.5c0,0.2-0.1,0.3-0.2,0.4c-0.1,0.1-0.3,0.2-0.4,0.3c-1.9,0.3-3.8,0.7-5.8,1
				c-0.1,0-0.1,0-0.1,0c-0.1,0-0.3,0-0.4-0.1c-0.2-0.1-0.3-0.3-0.3-0.5c0-0.1,0-0.1,0-0.2c0-0.1,0-0.2,0.1-0.3
				c0.1-0.2,0.3-0.3,0.4-0.3c0.3,0,0.7-0.1,1.2-0.2c0.1,0,0.1-0.1,0.1-0.1v-3.8c0-0.1,0-0.1-0.1-0.1h-2c-0.2,0-0.3-0.1-0.5-0.2
				c-0.1-0.1-0.2-0.3-0.2-0.5c0-0.2,0.1-0.3,0.2-0.5c0.1-0.1,0.3-0.2,0.5-0.2h2c0.1,0,0.1,0,0.1-0.1v-5.9c0-0.3,0.1-0.5,0.3-0.6
				c0.2-0.2,0.4-0.3,0.6-0.3h8.3c0.2,0,0.3,0.1,0.4,0.2c0.1,0.1,0.2,0.3,0.2,0.4c0,0.2-0.1,0.3-0.2,0.4c-0.1,0.1-0.3,0.2-0.4,0.2
				h-7.6c-0.1,0-0.1,0-0.1,0.1v0.8c0,0.1,0,0.1,0.1,0.1h7.2c0.2,0,0.3,0.1,0.4,0.2c0.1,0.1,0.2,0.3,0.2,0.4c0,0.2-0.1,0.3-0.2,0.4
				c-0.1,0.1-0.3,0.2-0.4,0.2h-7.2c-0.1,0-0.1,0-0.1,0.1v0.9c0,0.1,0,0.1,0.1,0.1h7.2c0.2,0,0.3,0.1,0.4,0.2
				c0.1,0.1,0.2,0.3,0.2,0.4c0,0.2-0.1,0.3-0.2,0.4c-0.1,0.1-0.3,0.2-0.4,0.2h-7.2c-0.1,0-0.1,0-0.1,0.1v0.9c0,0.1,0,0.1,0.1,0.1
				h9.2c0.2,0,0.3,0.1,0.5,0.2c0.1,0.1,0.2,0.3,0.2,0.5c0,0.2-0.1,0.3-0.2,0.5c-0.1,0.1-0.3,0.2-0.5,0.2H-495.4z M-495.6,68.9
				C-495.6,68.9-495.6,68.9-495.6,68.9C-495.6,68.8-495.6,68.8-495.6,68.9l-4.3-0.1c0,0,0,0-0.1,0c0,0,0,0,0,0.1
				c0.4,0.7,0.8,1.3,1.3,1.8c0.1,0.1,0.1,0.1,0.2,0C-497.3,70.1-496.3,69.5-495.6,68.9z"/>
			<path d="M-485.4,70.6c-0.1,0-0.1,0-0.1,0.1v1.7c0,0.1,0,0.1,0.1,0.1c1.2-0.1,2-0.2,2.4-0.3c0.2,0,0.3,0,0.5,0.1
				c0.1,0.1,0.2,0.3,0.2,0.5c0,0.2-0.1,0.3-0.2,0.5c-0.1,0.1-0.3,0.2-0.5,0.3c-0.5,0.1-2.6,0.4-6.3,0.9c0,0-0.1,0-0.1,0
				c-0.2,0-0.3-0.1-0.4-0.2c-0.2-0.1-0.2-0.3-0.3-0.5c0,0,0,0,0-0.1c0-0.2,0.1-0.3,0.2-0.5c0.1-0.2,0.3-0.2,0.5-0.3
				c0.8-0.1,1.6-0.2,2.4-0.3c0.1,0,0.1-0.1,0.1-0.1v-1.8c0-0.1,0-0.1-0.1-0.1h-1.9c-0.2,0-0.3-0.1-0.5-0.2c-0.1-0.1-0.2-0.3-0.2-0.5
				s0.1-0.3,0.2-0.5c0.1-0.1,0.3-0.2,0.5-0.2h1.9c0.1,0,0.1,0,0.1-0.1v-1.4c0-0.1,0-0.1-0.1-0.1h-1.7c-0.3,0-0.5-0.1-0.7-0.3
				c-0.2-0.2-0.3-0.4-0.3-0.6V62c0-0.3,0.1-0.5,0.3-0.6c0.2-0.2,0.4-0.3,0.7-0.3h5.1c0.3,0,0.5,0.1,0.7,0.3c0.2,0.2,0.3,0.4,0.3,0.6
				v4.7c0,0.3-0.1,0.5-0.3,0.6c-0.2,0.2-0.4,0.3-0.7,0.3h-1.7c-0.1,0-0.1,0-0.1,0.1v1.4c0,0.1,0,0.1,0.1,0.1h2
				c0.2,0,0.3,0.1,0.5,0.2c0.1,0.1,0.2,0.3,0.2,0.5s-0.1,0.3-0.2,0.5c-0.1,0.1-0.3,0.2-0.5,0.2H-485.4z M-488.4,62.3
				c-0.1,0-0.1,0-0.1,0.1v1.3c0,0.1,0,0.1,0.1,0.1h1.4c0.1,0,0.1,0,0.1-0.1v-1.3c0-0.1,0-0.1-0.1-0.1H-488.4z M-488.4,64.9
				c-0.1,0-0.1,0-0.1,0.1v1.3c0,0.1,0,0.1,0.1,0.1h1.4c0.1,0,0.1,0,0.1-0.1V65c0-0.1,0-0.1-0.1-0.1H-488.4z M-484.2,63.8
				c0.1,0,0.1,0,0.1-0.1v-1.3c0-0.1,0-0.1-0.1-0.1h-1.4c-0.1,0-0.1,0-0.1,0.1v1.3c0,0.1,0,0.1,0.1,0.1H-484.2z M-484.2,66.4
				c0.1,0,0.1,0,0.1-0.1V65c0-0.1,0-0.1-0.1-0.1h-1.4c-0.1,0-0.1,0-0.1,0.1v1.3c0,0.1,0,0.1,0.1,0.1H-484.2z M-476.6,66.2
				c0.1,0,0.3,0,0.4,0l0.3,0.1c0.1,0,0.2,0.1,0.3,0.2c0.1,0.1,0.1,0.2,0.1,0.3c0,0.1,0,0.1,0,0.1c-0.3,1.2-0.6,2.1-0.9,2.8
				c-0.1,0.2-0.2,0.3-0.3,0.4c-0.1,0.1-0.2,0.1-0.3,0.1c-0.1,0-0.1,0-0.2,0c-0.2,0-0.3-0.1-0.4-0.3c-0.1-0.1-0.1-0.3,0-0.5
				c0.1-0.4,0.3-1,0.5-1.7c0,0,0-0.1,0-0.1c0,0,0,0-0.1,0h-1.3c-0.1,0-0.1,0-0.1,0.1v5.5c0,0.4,0,0.7-0.1,0.9
				c-0.1,0.2-0.3,0.4-0.5,0.5c-0.3,0.2-0.9,0.3-1.8,0.3h0c-0.2,0-0.4-0.1-0.6-0.2c-0.2-0.1-0.3-0.3-0.4-0.5c0-0.1,0-0.1,0-0.2
				c0-0.1,0-0.2,0.1-0.3c0.1-0.1,0.2-0.2,0.4-0.2c0.2,0,0.4,0,0.6,0c0.2,0,0.4,0,0.5,0c0.1,0,0.2,0,0.2-0.1c0,0,0.1-0.1,0.1-0.2
				v-5.5c0-0.1,0-0.1-0.1-0.1h-1.5c-0.2,0-0.4-0.1-0.5-0.2c-0.1-0.1-0.2-0.3-0.2-0.5c0-0.2,0.1-0.4,0.2-0.5c0.1-0.1,0.3-0.2,0.5-0.2
				h3c0,0,0,0,0,0c0,0,0,0,0,0c-0.8-0.6-1.6-1.2-2.5-1.7c-0.1-0.1-0.2-0.2-0.2-0.4c0-0.2,0-0.3,0.1-0.4c0.1-0.1,0.3-0.2,0.5-0.3
				c0.1,0,0.1,0,0.1,0c0.1,0,0.3,0,0.4,0.1c0.3,0.2,0.6,0.3,0.8,0.5c0.1,0,0.1,0,0.2,0c0.4-0.4,0.9-0.9,1.3-1.5c0,0,0,0,0-0.1
				c0,0,0,0,0,0h-3.5c-0.2,0-0.3-0.1-0.5-0.2c-0.1-0.1-0.2-0.3-0.2-0.5c0-0.2,0.1-0.3,0.2-0.5c0.1-0.1,0.3-0.2,0.5-0.2h4.7
				c0,0,0,0,0.1,0c0.1,0,0.1,0,0.2,0c0.1,0,0.2,0,0.3,0.1l0.3,0.2c0.1,0.1,0.2,0.2,0.3,0.4s0,0.3-0.1,0.4c-0.7,0.9-1.4,1.8-2.2,2.5
				c-0.1,0.1-0.1,0.1,0,0.1c0.3,0.2,0.6,0.5,0.9,0.7c0.1,0.1,0.1,0.2,0.1,0.3c0,0.1,0,0.2-0.1,0.3c0,0,0,0,0,0c0,0,0,0,0,0
				L-476.6,66.2C-476.7,66.3-476.6,66.2-476.6,66.2z"/>
			<path d="M-465.3,61.6c0.1-0.2,0.2-0.3,0.4-0.4c0.1-0.1,0.2-0.1,0.3-0.1c0.1,0,0.1,0,0.2,0c0.2,0.1,0.3,0.2,0.4,0.3
				c0,0.1,0.1,0.2,0.1,0.3c0,0.1,0,0.2-0.1,0.3c-0.5,1.1-1.1,2.1-1.7,3c0,0,0,0,0,0.1c0,0,0,0,0,0h0.9c0.2,0,0.3,0.1,0.5,0.2
				s0.2,0.3,0.2,0.5c0,0.2-0.1,0.3-0.2,0.5s-0.3,0.2-0.5,0.2h-1.9c-0.1,0-0.2,0-0.2,0.1c-0.3,0.4-0.7,0.8-1.1,1.2c0,0,0,0,0,0
				c0,0,0,0,0,0h2.3c0.3,0,0.5,0.1,0.7,0.3c0.2,0.2,0.3,0.4,0.3,0.6V74c0,0.2-0.1,0.4-0.2,0.5c-0.1,0.1-0.3,0.2-0.5,0.2h-0.1
				c-0.2,0-0.3-0.1-0.4-0.2c-0.1-0.1-0.2-0.2-0.2-0.4c0-0.1,0-0.1-0.1-0.1h-3c-0.1,0-0.1,0-0.1,0.1v0.1c0,0.2-0.1,0.3-0.2,0.5
				c-0.1,0.1-0.3,0.2-0.5,0.2c-0.2,0-0.3-0.1-0.5-0.2c-0.1-0.1-0.2-0.3-0.2-0.5v-4.4c0,0,0-0.1,0-0.1c0,0,0,0-0.1,0
				c0,0-0.1,0.1-0.3,0.2c-0.1,0.1-0.2,0.1-0.4,0.1c-0.1,0-0.1,0-0.2,0c-0.2-0.1-0.4-0.2-0.5-0.3c-0.1-0.1-0.1-0.2-0.1-0.4
				c0-0.1,0-0.1,0-0.1c0-0.2,0.1-0.3,0.3-0.4c1.2-0.7,2.3-1.5,3.2-2.4c0,0,0,0,0,0c0,0,0,0,0,0h-2.8c-0.2,0-0.3-0.1-0.5-0.2
				s-0.2-0.3-0.2-0.5c0-0.2,0.1-0.3,0.2-0.5s0.3-0.2,0.5-0.2h2.2c0.1,0,0.1,0,0.1-0.1v-1.4c0-0.1,0-0.1-0.1-0.1h-1.5
				c-0.2,0-0.3-0.1-0.5-0.2s-0.2-0.3-0.2-0.4s0.1-0.3,0.2-0.4s0.3-0.2,0.5-0.2h1.5c0.1,0,0.1,0,0.1-0.1v-0.8c0-0.2,0.1-0.3,0.2-0.5
				c0.1-0.1,0.3-0.2,0.5-0.2c0.2,0,0.4,0.1,0.5,0.2c0.1,0.1,0.2,0.3,0.2,0.5V62c0,0.1,0,0.1,0.1,0.1h1c0.2,0,0.4,0.1,0.5,0.2
				s0.2,0.3,0.2,0.5c0,0,0,0,0,0C-465.7,62.4-465.5,62-465.3,61.6z M-466.2,70.3c0.1,0,0.1,0,0.1-0.1V69c0-0.1,0-0.1-0.1-0.1h-2.9
				c-0.1,0-0.1,0-0.1,0.1v1.1c0,0.1,0,0.1,0.1,0.1H-466.2z M-469.3,72.7c0,0.1,0,0.1,0.1,0.1h2.9c0.1,0,0.1,0,0.1-0.1v-1.2
				c0-0.1,0-0.1-0.1-0.1h-2.9c-0.1,0-0.1,0-0.1,0.1V72.7z M-467.8,64.9c0,0.1,0,0.1,0.1,0.1h0.2c0.1,0,0.1,0,0.2-0.1
				c0.3-0.4,0.7-0.9,1-1.5c0,0,0,0,0-0.1c0,0,0,0,0,0h-1.3c-0.1,0-0.1,0-0.1,0.1V64.9z M-458.8,61.2c0,0,0.1,0,0.1,0
				c0.1,0,0.2,0,0.3,0.1l0.4,0.2c0.2,0.1,0.3,0.2,0.3,0.4c0,0.1,0,0.1,0,0.2c0,0.1,0,0.2-0.1,0.3c-0.7,1.6-1.3,3-1.8,4.1
				c0,0.1,0,0.1,0,0.2c1.2,1.1,1.8,2.4,1.8,3.7c0,0,0,0.1,0,0.1c0,1.1-0.3,1.8-0.8,2.1c-0.3,0.2-0.6,0.3-1.1,0.4c-0.2,0-0.5,0-0.7,0
				c-0.2,0-0.4-0.1-0.5-0.2c-0.2-0.1-0.3-0.3-0.3-0.5c-0.1-0.2,0-0.3,0.1-0.4c0.1-0.1,0.2-0.2,0.4-0.2c0.2,0,0.3,0,0.5,0
				c0.3,0,0.5-0.1,0.7-0.2c0.3-0.2,0.5-0.6,0.5-1.2c0-0.9-0.4-1.9-1.3-2.8c-0.2-0.2-0.3-0.4-0.4-0.7c0-0.1,0-0.2,0-0.3
				c0-0.2,0-0.3,0.1-0.5c0.4-1,0.9-2.1,1.3-3.2c0,0,0,0,0-0.1c0,0,0,0-0.1,0h-2.3c-0.1,0-0.1,0-0.1,0.1v11.5c0,0.2-0.1,0.4-0.2,0.5
				s-0.3,0.2-0.5,0.2c-0.2,0-0.4-0.1-0.5-0.2c-0.1-0.1-0.2-0.3-0.2-0.5V62.1c0-0.3,0.1-0.5,0.3-0.6c0.2-0.2,0.4-0.3,0.6-0.3H-458.8
				C-458.9,61.2-458.8,61.2-458.8,61.2z"/>
			<path d="M-440,62.6c0.1,0.1,0.2,0.2,0.2,0.2s0,0.1,0,0.3c0,0.2-0.1,0.4-0.2,0.5s-0.3,0.2-0.5,0.2h-5.6c-0.1,0-0.1,0-0.1,0.1v1.7
				c0,0.1,0,0.1,0.1,0.1h4c0.3,0,0.5,0.1,0.6,0.3c0.2,0.2,0.3,0.4,0.3,0.6v4.6c0,0.4-0.1,0.7-0.2,0.9c-0.1,0.2-0.3,0.4-0.6,0.5
				c-0.4,0.1-1.1,0.2-2,0.3h0c-0.2,0-0.4-0.1-0.6-0.2c-0.2-0.1-0.3-0.3-0.4-0.5c-0.1-0.2,0-0.3,0.1-0.5c0.1-0.1,0.2-0.2,0.4-0.2
				c0.3,0,0.6,0,0.9,0c0.2,0,0.4,0,0.5,0c0.1,0,0.2,0,0.3-0.1c0,0,0.1-0.1,0.1-0.2v-3.9c0-0.1,0-0.1-0.1-0.1h-3.3
				c-0.1,0-0.1,0-0.1,0.1v6.9c0,0.2-0.1,0.4-0.2,0.5c-0.2,0.2-0.3,0.2-0.5,0.2c-0.2,0-0.4-0.1-0.5-0.2c-0.2-0.2-0.2-0.3-0.2-0.5
				v-6.9c0-0.1,0-0.1-0.1-0.1h-3c-0.1,0-0.1,0-0.1,0.1v4.9c0,0.2-0.1,0.4-0.2,0.5c-0.1,0.1-0.3,0.2-0.5,0.2s-0.4-0.1-0.5-0.2
				c-0.1-0.1-0.2-0.3-0.2-0.5v-5.6c0-0.3,0.1-0.5,0.3-0.6c0.2-0.2,0.4-0.3,0.7-0.3h3.7c0.1,0,0.1,0,0.1-0.1V64c0-0.1,0-0.1-0.1-0.1
				h-5.5c-0.2,0-0.4-0.1-0.5-0.2s-0.2-0.3-0.2-0.5c0-0.2,0.1-0.4,0.2-0.5s0.3-0.2,0.5-0.2h5.5c0.1,0,0.1,0,0.1-0.1V61
				c0-0.2,0.1-0.4,0.2-0.6c0.2-0.2,0.3-0.2,0.6-0.2s0.4,0.1,0.6,0.2c0.2,0.2,0.2,0.3,0.2,0.6v1.3c0,0.1,0,0.1,0.1,0.1h5.6
				C-440.4,62.4-440.2,62.5-440,62.6z"/>
			<path d="M-429.3,64c0,0.1,0,0.1,0.1,0.1h3.3c0.2,0,0.3,0,0.5,0c0.1,0,0.2,0,0.2,0c0.3,0,0.7,0.1,0.9,0.2c0.2,0.1,0.3,0.2,0.4,0.4
				c0.1,0.1,0.1,0.3,0.1,0.4c0,0,0,0.1,0,0.1c0,0.1,0,0.1,0,0.2c0,0.8-0.1,1.6-0.1,2.4c-0.1,0.8-0.2,1.8-0.3,2.9
				c-0.2,1.1-0.3,1.9-0.5,2.4c-0.2,0.4-0.4,0.7-0.7,0.8c-0.3,0.2-0.7,0.3-1.2,0.3c-0.5,0-1,0-1.8-0.1c-0.2,0-0.5-0.1-0.6-0.3
				c-0.2-0.2-0.3-0.4-0.3-0.6c0,0,0-0.1,0-0.1c0-0.2,0.1-0.3,0.2-0.5c0.1-0.1,0.3-0.2,0.5-0.2c0,0,0.1,0,0.1,0
				c0.6,0.1,1.1,0.1,1.5,0.1c0.2,0,0.4,0,0.6-0.1s0.3-0.2,0.3-0.4c0.2-0.5,0.4-1.4,0.6-2.7c0.1-1.3,0.2-2.5,0.2-3.6
				c0-0.1,0-0.1-0.1-0.1h-3.9c-0.1,0-0.1,0-0.1,0.1c-0.3,1.9-0.7,3.5-1.4,4.8s-1.6,2.4-2.8,3.3c-0.2,0.2-0.4,0.2-0.7,0.2
				c0,0,0,0,0,0c-0.3,0-0.5-0.1-0.7-0.3l0,0c-0.2-0.1-0.2-0.3-0.2-0.5c0-0.3,0.1-0.4,0.3-0.6c0.4-0.3,0.8-0.6,1.1-0.9
				c0.8-0.7,1.4-1.6,1.9-2.6c0.5-1,0.8-2.2,1-3.6c0-0.1,0-0.1-0.1-0.1h-2.3c-0.4,0-0.8,0-1.1,0c0,0,0,0,0,0c-0.2,0-0.4-0.1-0.6-0.2
				c-0.2-0.2-0.3-0.3-0.3-0.6c0-0.2,0.1-0.4,0.3-0.6c0.2-0.1,0.3-0.2,0.5-0.2c0,0,0,0,0.1,0c0.4,0,0.8,0,1.1,0h2.5
				c0.1,0,0.1,0,0.1-0.1c0-0.4,0-0.9,0-1.4l0-0.5c0-0.2,0.1-0.4,0.2-0.6c0.2-0.2,0.4-0.3,0.6-0.3h0c0.3,0,0.5,0.1,0.6,0.3
				c0.2,0.2,0.2,0.4,0.2,0.6l0,0.5C-429.2,63-429.3,63.4-429.3,64z M-423.9,62.8c0.1,0.1,0.1,0.3,0,0.4c-0.1,0.1-0.2,0.3-0.3,0.3
				c-0.1,0.1-0.3,0.1-0.4,0c-0.2-0.1-0.3-0.2-0.3-0.3c-0.2-0.5-0.5-0.9-0.7-1.2c-0.1-0.1-0.1-0.3-0.1-0.4c0-0.1,0.1-0.2,0.3-0.3
				c0.1-0.1,0.3-0.1,0.5,0c0.2,0,0.3,0.1,0.4,0.3C-424.4,61.9-424.2,62.3-423.9,62.8z M-423.9,61.3c-0.1-0.1-0.1-0.2-0.1-0.3
				c0,0,0-0.1,0-0.1c0-0.1,0.1-0.2,0.3-0.3c0.1,0,0.2-0.1,0.3-0.1c0.1,0,0.1,0,0.2,0c0.2,0,0.3,0.1,0.4,0.3c0.2,0.4,0.5,0.8,0.7,1.2
				c0.1,0.1,0.1,0.2,0.1,0.3c0,0.1,0,0.1,0,0.2c-0.1,0.1-0.1,0.3-0.3,0.3c-0.1,0-0.2,0-0.3,0c-0.1,0-0.1,0-0.2,0
				c-0.1-0.1-0.3-0.2-0.3-0.3C-423.4,62.1-423.6,61.6-423.9,61.3z"/>
			<path d="M-407.8,62.3c0.1,0,0.2,0,0.3,0c0.4,0,0.7,0.1,0.9,0.3c0.1,0.1,0.2,0.3,0.3,0.4c0,0.1,0,0.1,0,0.1c0,0.1,0,0.2-0.1,0.4
				c-0.1,0.1-0.1,0.2-0.1,0.3c-0.7,1.7-1.6,3.2-2.5,4.5c-0.1,0.1,0,0.1,0,0.2c1.3,1.1,2.6,2.4,3.9,3.9c0.1,0.2,0.2,0.4,0.2,0.6
				c0,0,0,0.1,0,0.1c0,0.3-0.1,0.5-0.3,0.6l0,0c-0.2,0.1-0.3,0.2-0.5,0.2c0,0-0.1,0-0.1,0c-0.2,0-0.4-0.1-0.6-0.3
				c-1-1.3-2.2-2.6-3.6-3.9c-0.1-0.1-0.1-0.1-0.2,0c-1.7,1.8-3.4,3.1-5.3,4.1c-0.2,0.1-0.4,0.1-0.5,0.1c-0.1,0-0.1,0-0.2,0
				c-0.3-0.1-0.5-0.2-0.7-0.4l0,0c-0.1-0.1-0.2-0.3-0.2-0.4c0,0,0-0.1,0-0.1c0-0.2,0.2-0.4,0.4-0.5c1.1-0.5,2.1-1.1,3.1-1.9
				c1-0.8,1.9-1.6,2.6-2.4c0.5-0.6,1-1.3,1.5-2s0.8-1.5,1-2.1c0,0,0,0,0-0.1c0,0,0,0-0.1,0h-5.8c-0.2,0-0.5,0-0.8,0c0,0,0,0-0.1,0
				c-0.2,0-0.4-0.1-0.6-0.2c-0.2-0.2-0.3-0.4-0.3-0.6c0-0.2,0.1-0.4,0.3-0.6c0.2-0.1,0.3-0.2,0.6-0.2c0,0,0,0,0.1,0
				c0.3,0,0.6,0,0.8,0h5.9C-408.3,62.4-408.1,62.4-407.8,62.3z"/>
			<path d="M-391.8,74.1c-0.1,0-0.2,0-0.3,0c-0.2,0-0.3,0-0.5-0.1c-0.2-0.1-0.4-0.3-0.6-0.5c-0.1-0.1-0.1-0.2-0.1-0.3
				c0-0.1,0-0.2,0.1-0.3c0.1-0.2,0.2-0.3,0.4-0.3c0.2,0,0.4-0.1,0.5-0.1c0.5-0.1,1-0.3,1.5-0.5c0.4-0.2,0.9-0.5,1.2-0.9
				c0.4-0.4,0.6-0.8,0.9-1.3c0.2-0.5,0.3-1.1,0.3-1.7c0-1.2-0.3-2.1-1-2.9c-0.7-0.8-1.6-1.3-2.7-1.5c-0.1,0-0.1,0-0.1,0.1
				c-0.3,1.7-0.6,3.1-0.9,4.3c-0.5,1.6-1,2.9-1.7,3.7c-0.7,0.9-1.4,1.3-2.2,1.3c-0.8,0-1.5-0.4-2.1-1.2c-0.6-0.8-0.9-1.9-0.9-3.2
				c0-0.9,0.2-1.7,0.6-2.5c0.4-0.8,0.9-1.5,1.5-2.1c0.6-0.6,1.4-1.1,2.3-1.4c0.9-0.4,1.8-0.5,2.8-0.5c0.9,0,1.8,0.2,2.6,0.5
				c0.8,0.3,1.4,0.7,2,1.3c0.5,0.5,0.9,1.2,1.2,1.9c0.3,0.7,0.4,1.5,0.4,2.3c0,1.5-0.4,2.8-1.3,3.9C-388.9,73-390.2,73.8-391.8,74.1
				z M-396.9,71.2c0.8,0,1.5-1.2,2.2-3.5c0.4-1.2,0.7-2.6,0.8-4c0,0,0,0,0-0.1c0,0,0,0-0.1,0c-0.7,0.1-1.3,0.4-1.9,0.7
				c-0.6,0.3-1,0.7-1.4,1.2c-0.4,0.5-0.6,0.9-0.9,1.5s-0.3,1-0.3,1.5c0,0.8,0.2,1.5,0.5,2C-397.6,71-397.3,71.2-396.9,71.2z"/>
		</g>
	</g>
	<g>
		<linearGradient id="SVGID_1_" gradientUnits="userSpaceOnUse" x1="-443.2573" y1="18.8083" x2="-443.2573" y2="49.2249">
			<stop  offset="0" style="stop-color:#F2D500"/>
			<stop  offset="1.000000e-02" style="stop-color:#F2D500"/>
			<stop  offset="0.25" style="stop-color:#F2D500"/>
			<stop  offset="0.5" style="stop-color:#F39700"/>
			<stop  offset="0.99" style="stop-color:#F39700"/>
			<stop  offset="1" style="stop-color:#F39700"/>
		</linearGradient>
		<path class="st0" d="M-437.5,17.3c0.1-0.4,0-0.4-0.2-0.1l-15.5,19.1c-0.2,0.3-0.1,0.6,0.3,0.6h6.6c0.4,0,0.6,0.3,0.5,0.7
			l-2.8,11.5c-0.1,0.4,0,0.4,0.2,0.1l15.1-19c0.3-0.3,0.1-0.6-0.3-0.6h-5.6c-0.4,0-0.6-0.3-0.5-0.7L-437.5,17.3z"/>
	</g>
</g>
<polygon class="st1" points="-311.9,28.8 -312.8,27.9 -316.3,24.4 -316.3,26.2 -313.7,28.8 -316.3,31.4 -316.3,33.2 -312.8,29.7 "/>
<g>
	<linearGradient id="SVGID_2_" gradientUnits="userSpaceOnUse" x1="-261.8831" y1="2.2702" x2="-261.8831" y2="39.9042">
		<stop  offset="0" style="stop-color:#F2D500"/>
		<stop  offset="1.000000e-02" style="stop-color:#F2D500"/>
		<stop  offset="0.25" style="stop-color:#F2D500"/>
		<stop  offset="0.5" style="stop-color:#F39700"/>
		<stop  offset="0.99" style="stop-color:#F39700"/>
		<stop  offset="1" style="stop-color:#F39700"/>
	</linearGradient>
	<path class="st2" d="M-255.4,0.4c0.1-0.4,0-0.5-0.3-0.1l-17.6,21.8c-0.3,0.4-0.1,0.7,0.3,0.7h7.5c0.5,0,0.7,0.4,0.6,0.8l-3.1,13.1
		c-0.2,0.4,0,0.5,0.3,0.1l17.2-21.7c0.3-0.4,0.1-0.7-0.3-0.7h-6.4c-0.5,0-0.7-0.4-0.6-0.8L-255.4,0.4z"/>
</g>
<polygon points="-196,4.4 -196.9,3.5 -200.4,0 -200.4,1.8 -197.8,4.4 -200.4,7 -200.4,8.8 -196.9,5.3 "/>
<g>
	
		<text transform="matrix(1 0 0 1 -90.0971 4054.999)" style="font-family:'GenJyuuGothic-Regular'; font-size:14px; letter-spacing:1;">内部リンク</text>
</g>
<polygon points="-96.4,4049 -97.3,4048.1 -100.8,4044.6 -100.8,4046.4 -98.2,4049 -100.8,4051.6 -100.8,4053.4 -97.3,4049.9 "/>
<g>
	<g>
		<text transform="matrix(1 0 0 1 34.7993 4054)" style="font-family:'GenJyuuGothic-Regular'; font-size:14px; letter-spacing:1;">外部リンク</text>
	</g>
	<g>
		<g>
			<path d="M27.3,4047.2v4.7h-6.9v-4.7H27.3 M28.3,4046.2h-8.9v6.7h8.9V4046.2L28.3,4046.2z"/>
		</g>
		<g>
			<rect x="17.3" y="4044" class="st3" width="7.9" height="5.7"/>
			<path d="M24.7,4044.5v4.7h-6.9v-4.7H24.7 M25.7,4043.5h-8.9v6.7h8.9V4043.5L25.7,4043.5z"/>
		</g>
	</g>
</g>
<g>
	<g>
		
			<text transform="matrix(1 0 0 1 162.9649 4052)" style="font-family:'GenJyuuGothic-Regular'; font-size:14px; letter-spacing:1;">PDFリンク</text>
	</g>
	<g>
		<path class="st4" d="M154.2,4054c0,2.2-1.8,4-4,4h-14.9c-2.2,0-4-1.8-4-4v-14c0-2.2,1.8-4,4-4h14.9c2.2,0,4,1.8,4,4V4054z"/>
	</g>
	<text transform="matrix(1 0 0 1 134.1692 4049.8325)" class="st3" style="font-family:'GenJyuuGothic-Bold'; font-size:9px;">PDF</text>
</g>
<g>
	<g>
		<rect x="-142.9" y="3.2" class="st3" width="7.9" height="5.7"/>
		<path d="M-135.5,3.7v4.7h-6.9V3.7H-135.5 M-134.5,2.7h-8.9v6.7h8.9V2.7L-134.5,2.7z"/>
	</g>
	<g>
		<rect x="-145.5" y="0.5" class="st3" width="7.9" height="5.7"/>
		<path d="M-138.1,1v4.7h-6.9V1H-138.1 M-137.1,0h-8.9v6.7h8.9V0L-137.1,0z"/>
	</g>
</g>
<g>
	<path class="st4" d="M-50,18c0,2.2-1.8,4-4,4h-14.9c-2.2,0-4-1.8-4-4V4c0-2.2,1.8-4,4-4H-54c2.2,0,4,1.8,4,4V18z"/>
</g>
<text transform="matrix(1 0 0 1 -70.0748 13.8336)" class="st3" style="font-family:'GenJyuuGothic-Bold'; font-size:9px;">PDF</text>
<polygon class="st3" points="4.5,4.7 5.4,3.8 8.9,0.3 7.1,0.3 4.5,2.9 1.9,0.3 0.1,0.3 3.6,3.8 "/>
</svg>
