<?xml version="1.0" encoding="utf-8"?>
<!-- Generator: Adobe Illustrator 21.1.0, SVG Export Plug-In . SVG Version: 6.00 Build 0)  -->
<svg version="1.1" id="レイヤー_1" xmlns="http://www.w3.org/2000/svg" xmlns:xlink="http://www.w3.org/1999/xlink" x="0px"
	 y="0px" viewBox="0 0 4.4 8.8" style="enable-background:new 0 0 4.4 8.8;" xml:space="preserve">
<style type="text/css">
	.st0{fill:url(#SVGID_1_);}
	.st1{fill:#F39700;}
	.st2{fill:url(#SVGID_2_);}
	.st3{fill:#FFFFFF;}
	.st4{fill:#E51F1F;}
</style>
<g>
	<g>
		<g>
			<path d="M-179.7,77.2c-0.2,0.2-0.5,0.3-0.8,0.3s-0.5-0.1-0.8-0.3c-0.2-0.2-0.3-0.5-0.3-0.8v-5.5c0-0.2-0.1-0.2-0.2-0.2h-9
				c-0.1,0-0.2,0.1-0.2,0.2v3c0,0.3-0.1,0.5-0.3,0.7c-0.2,0.2-0.4,0.3-0.7,0.3c-0.3,0-0.5-0.1-0.7-0.3c-0.2-0.2-0.3-0.4-0.3-0.7
				v-3.1c0-0.5,0.2-0.9,0.5-1.2c0.3-0.3,0.7-0.5,1.2-0.5h9.5c0.1,0,0.2-0.1,0.2-0.2v-1.4c0-0.2-0.1-0.2-0.2-0.2h-8.6
				c-0.2,0-0.4-0.1-0.6-0.2c-0.2-0.2-0.3-0.4-0.3-0.6c0-0.2,0.1-0.4,0.3-0.6c0.2-0.2,0.4-0.2,0.6-0.2h20c0.2,0,0.4,0.1,0.6,0.2
				c0.2,0.2,0.3,0.4,0.3,0.6c0,0.2-0.1,0.4-0.3,0.6c-0.2,0.2-0.4,0.2-0.6,0.2h-8.8c-0.1,0-0.2,0.1-0.2,0.2v1.4
				c0,0.2,0.1,0.2,0.2,0.2h9.7c0.5,0,0.9,0.2,1.2,0.5c0.3,0.3,0.5,0.7,0.5,1.2v3c0,0.3-0.1,0.5-0.3,0.7c-0.2,0.2-0.4,0.3-0.7,0.3
				c-0.3,0-0.5-0.1-0.7-0.3c-0.2-0.2-0.3-0.4-0.3-0.7v-2.9c0-0.2-0.1-0.2-0.2-0.2h-9.1c-0.1,0-0.2,0.1-0.2,0.2v5.5
				C-179.4,76.8-179.5,77-179.7,77.2z M-177.3,89.6h6.7c0.7,0,1.2-0.2,1.5-0.5s0.4-1,0.5-2c0-0.2,0.1-0.4,0.4-0.5
				c0.2-0.1,0.4-0.1,0.7-0.1c0.3,0.1,0.5,0.3,0.7,0.5c0.1,0.2,0.2,0.4,0.2,0.6c0,0.1,0,0.1,0,0.2c-0.2,1.4-0.5,2.3-1.1,2.8
				c-0.5,0.5-1.4,0.7-2.7,0.7h-6.9c-1.7,0-2.8-0.2-3.4-0.6c-0.6-0.4-0.9-1.2-0.9-2.4v-0.7c0-0.2-0.1-0.2-0.2-0.2h-6.2
				c-0.1,0-0.2,0.1-0.2,0.2v0.3c0,0.3-0.1,0.5-0.3,0.8c-0.2,0.2-0.5,0.3-0.8,0.3s-0.5-0.1-0.7-0.3c-0.2-0.2-0.3-0.5-0.3-0.8v-7.6
				c0-0.5,0.2-0.9,0.5-1.2c0.3-0.3,0.7-0.5,1.2-0.5h16.8c0.5,0,0.9,0.2,1.2,0.5c0.3,0.3,0.5,0.7,0.5,1.2v5.4c0,0.5-0.2,0.9-0.5,1.2
				c-0.3,0.3-0.7,0.5-1.2,0.5h-7.4c-0.1,0-0.2,0.1-0.2,0.2v0.7c0,0.5,0.1,0.8,0.4,1C-178.8,89.5-178.2,89.6-177.3,89.6z
				 M-189.3,76.8c-0.2,0-0.4-0.1-0.5-0.2c-0.1-0.1-0.2-0.3-0.2-0.5c0-0.2,0.1-0.4,0.2-0.5c0.1-0.1,0.3-0.2,0.5-0.2h5.5
				c0.2,0,0.4,0.1,0.5,0.2c0.1,0.1,0.2,0.3,0.2,0.5c0,0.2-0.1,0.4-0.2,0.5c-0.1,0.1-0.3,0.2-0.5,0.2H-189.3z M-183.8,72.3
				c0.2,0,0.4,0.1,0.5,0.2c0.1,0.1,0.2,0.3,0.2,0.5c0,0.2-0.1,0.4-0.2,0.5c-0.1,0.1-0.3,0.2-0.5,0.2h-5c-0.2,0-0.3-0.1-0.5-0.2
				c-0.1-0.1-0.2-0.3-0.2-0.5c0-0.2,0.1-0.4,0.2-0.5c0.1-0.1,0.3-0.2,0.5-0.2H-183.8z M-181.7,80.4c0-0.1-0.1-0.2-0.2-0.2h-6.2
				c-0.1,0-0.2,0.1-0.2,0.2V82c0,0.1,0.1,0.2,0.2,0.2h6.2c0.2,0,0.2-0.1,0.2-0.2V80.4z M-188.3,85.6c0,0.1,0.1,0.2,0.2,0.2h6.2
				c0.2,0,0.2-0.1,0.2-0.2V84c0-0.1-0.1-0.2-0.2-0.2h-6.2c-0.1,0-0.2,0.1-0.2,0.2V85.6z M-172.6,82.2c0.1,0,0.2-0.1,0.2-0.2v-1.6
				c0-0.1-0.1-0.2-0.2-0.2h-6.7c-0.1,0-0.2,0.1-0.2,0.2V82c0,0.1,0.1,0.2,0.2,0.2H-172.6z M-179.5,85.6c0,0.1,0.1,0.2,0.2,0.2h6.7
				c0.1,0,0.2-0.1,0.2-0.2V84c0-0.1-0.1-0.2-0.2-0.2h-6.7c-0.1,0-0.2,0.1-0.2,0.2V85.6z M-177.6,73.5c-0.1-0.1-0.2-0.3-0.2-0.5
				c0-0.2,0.1-0.4,0.2-0.5c0.1-0.1,0.3-0.2,0.5-0.2h5c0.2,0,0.3,0.1,0.5,0.2c0.1,0.1,0.2,0.3,0.2,0.5c0,0.2-0.1,0.4-0.2,0.5
				c-0.1,0.1-0.3,0.2-0.5,0.2h-5C-177.3,73.7-177.5,73.6-177.6,73.5z M-177.1,76.8c-0.2,0-0.4-0.1-0.5-0.2c-0.1-0.1-0.2-0.3-0.2-0.5
				c0-0.2,0.1-0.4,0.2-0.5c0.1-0.1,0.3-0.2,0.5-0.2h5.7c0.2,0,0.4,0.1,0.5,0.2c0.1,0.1,0.2,0.3,0.2,0.5c0,0.2-0.1,0.4-0.2,0.5
				c-0.1,0.1-0.3,0.2-0.5,0.2H-177.1z"/>
			<path d="M-147.2,69.9c0,0.1,0.1,0.2,0.2,0.2h10.5c0.5,0,0.9,0.2,1.2,0.5c0.3,0.3,0.4,0.7,0.4,1.1c0,3.7-0.3,7.9-1,12.8
				c-0.4,2.6-0.9,4.3-1.6,5.1c-0.6,0.7-1.4,1.1-2.5,1.2c-0.4,0-0.8,0-1.3,0c-0.6,0-1.4,0-2.3-0.1c-0.4,0-0.7-0.1-0.9-0.4
				c-0.3-0.2-0.4-0.5-0.6-0.9c-0.1-0.3,0-0.5,0.1-0.7c0.1-0.2,0.3-0.3,0.6-0.3c1.2,0.1,2.4,0.1,3.5,0.1c0.6,0,1.1-0.1,1.4-0.4
				c0.5-0.5,1-2,1.3-4.4c0.4-2.4,0.7-6.1,1-11.2c0-0.2-0.1-0.2-0.2-0.2h-9.8c-0.2,0-0.2,0.1-0.3,0.2c-0.1,1.3-0.2,2.5-0.4,3.6
				c-0.2,1.2-0.6,2.5-1.1,3.9s-1.2,2.7-2,3.9c-0.8,1.2-1.8,2.4-3.1,3.7c-1,1-2.1,1.9-3.4,2.7c-0.2,0.1-0.5,0.2-0.7,0.2
				c-0.1,0-0.2,0-0.3,0c-0.3-0.1-0.6-0.2-0.9-0.5c-0.2-0.2-0.3-0.4-0.3-0.7c0-0.3,0.1-0.6,0.4-0.7c1.5-1,2.8-2.1,3.9-3.2
				c1.4-1.4,2.5-2.9,3.2-4.4c0.7-1.5,1.3-3,1.6-4.4c0.3-1.3,0.6-2.7,0.7-4.2c0-0.1,0-0.2-0.2-0.2h-8.3c-0.3,0-0.6-0.1-0.8-0.3
				c-0.2-0.2-0.3-0.5-0.3-0.8c0-0.3,0.1-0.6,0.3-0.8c0.2-0.2,0.5-0.3,0.8-0.3h8.4c0.1,0,0.2-0.1,0.2-0.2v-1.1v-4
				c0-0.3,0.1-0.6,0.3-0.8c0.2-0.2,0.5-0.3,0.8-0.3s0.6,0.1,0.8,0.3c0.2,0.2,0.3,0.5,0.3,0.8v4V69.9z"/>
			<path d="M-124.3,85.8c0.1-0.3,0.3-0.5,0.6-0.6c0.3-0.2,0.5-0.2,0.8-0.1c0.3,0.1,0.5,0.2,0.6,0.5c0.1,0.3,0.2,0.5,0.1,0.8
				c-0.7,1.8-1.5,3.3-2.4,4.6c-0.2,0.2-0.4,0.4-0.7,0.4c-0.3,0-0.6,0-0.8-0.2c-0.3-0.2-0.4-0.5-0.4-0.8c0-0.2,0.1-0.4,0.2-0.6
				C-125.5,88.5-124.8,87.2-124.3,85.8z M-118.3,65.4c0.5,0,0.9,0.2,1.2,0.5c0.3,0.3,0.5,0.7,0.5,1.2v15.2c0,0.5-0.2,0.9-0.5,1.2
				c-0.3,0.3-0.7,0.5-1.2,0.5h-5.5c-0.5,0-0.9-0.2-1.2-0.5c-0.3-0.3-0.5-0.7-0.5-1.2V67.1c0-0.5,0.2-0.9,0.5-1.2
				c0.3-0.3,0.7-0.5,1.2-0.5H-118.3z M-118.8,71c0.2,0,0.2-0.1,0.2-0.2v-3.3c0-0.2-0.1-0.2-0.2-0.2h-4.5c-0.1,0-0.2,0.1-0.2,0.2v3.3
				c0,0.1,0.1,0.2,0.2,0.2H-118.8z M-118.8,76.6c0.2,0,0.2-0.1,0.2-0.2V73c0-0.1-0.1-0.2-0.2-0.2h-4.5c-0.1,0-0.2,0.1-0.2,0.2v3.4
				c0,0.2,0.1,0.2,0.2,0.2H-118.8z M-118.8,82.3c0.2,0,0.2-0.1,0.2-0.2v-3.5c0-0.2-0.1-0.2-0.2-0.2h-4.5c-0.1,0-0.2,0.1-0.2,0.2v3.5
				c0,0.1,0.1,0.2,0.2,0.2H-118.8z M-119.6,86.3c-0.1-0.1-0.1-0.3-0.1-0.4c0-0.1,0-0.2,0-0.3c0.1-0.2,0.2-0.4,0.4-0.5
				c0.3-0.1,0.5-0.1,0.8-0.1c0.3,0.1,0.5,0.2,0.6,0.5c0.5,0.7,0.9,1.4,1.2,2.1c0.1,0.3,0.2,0.5,0.1,0.8c-0.1,0.3-0.3,0.5-0.5,0.6
				c-0.2,0.1-0.5,0.1-0.7,0s-0.5-0.3-0.6-0.5C-118.7,87.8-119.1,87.1-119.6,86.3z M-102.7,73.3c0.6,0,1,0,1.3,0.1
				c0.2,0.1,0.3,0.2,0.5,0.3c0.1,0.2,0.2,0.3,0.1,0.5c-0.7,4.4-2.1,8.1-4.1,11.1c-0.1,0.1-0.1,0.2,0,0.4c1.3,1.5,2.9,2.7,4.6,3.6
				c0.3,0.1,0.4,0.3,0.4,0.6c0,0.1,0,0.1,0,0.2c0,0.2-0.1,0.4-0.2,0.6c-0.2,0.3-0.5,0.4-0.8,0.5c-0.1,0-0.2,0.1-0.3,0.1
				c-0.2,0-0.4,0-0.6-0.1c-1.7-1-3.2-2.2-4.5-3.7c-0.1-0.1-0.2-0.1-0.3,0c-1.3,1.5-2.9,2.7-4.6,3.6c-0.3,0.1-0.6,0.2-0.8,0.1
				s-0.5-0.3-0.7-0.5c-0.2-0.2-0.2-0.5-0.1-0.7s0.2-0.5,0.4-0.6c1.7-0.9,3.3-2.1,4.6-3.6c0.1-0.1,0.1-0.2,0-0.4c-1.7-2.6-3-6-3.9-10
				c0-0.1-0.1-0.1-0.1-0.1c-0.1,0-0.1,0-0.1,0.1v1.2c0,6.3-0.9,11-2.7,14.2c-0.1,0.2-0.3,0.4-0.6,0.4c-0.3,0-0.5,0-0.8-0.2
				c-0.2-0.2-0.4-0.4-0.4-0.6c0-0.1-0.1-0.2-0.1-0.3c0-0.2,0-0.4,0.1-0.5c0.5-0.9,0.9-1.9,1.3-3c0.3-1.1,0.6-2.3,0.7-3.5
				c0.1-1.2,0.2-2.3,0.3-3.3c0-1,0.1-2,0.1-3.2v-9.1c0-0.5,0.2-0.9,0.5-1.2c0.3-0.3,0.7-0.5,1.2-0.5h11.1c0.3,0,0.5,0.1,0.7,0.3
				c0.2,0.2,0.3,0.4,0.3,0.7c0,0.3-0.1,0.5-0.3,0.7c-0.2,0.2-0.4,0.3-0.7,0.3h-10.5c-0.1,0-0.2,0.1-0.2,0.2v5.1
				c0,0.1,0.1,0.2,0.2,0.2H-102.7z M-103.1,75.5c0-0.1,0-0.2-0.2-0.2h-6.3c-0.1,0-0.2,0.1-0.2,0.2c0.7,3.2,1.8,5.9,3.3,8.1
				c0,0.1,0.1,0.1,0.1,0.1c0,0,0.1,0,0.1-0.1C-104.8,81.4-103.8,78.7-103.1,75.5z"/>
			<path d="M-84.8,81.3c0-0.3,0.2-0.6,0.4-0.8c0.2-0.2,0.5-0.3,0.8-0.3c0.3,0,0.6,0.1,0.8,0.3c0.2,0.2,0.3,0.5,0.2,0.8
				c-0.2,1.4-0.4,2.5-0.7,3.5c-0.3,1-0.8,1.9-1.4,2.7c-0.6,0.9-1.4,1.6-2.4,2.2c-1,0.6-2.3,1.1-3.8,1.6c-0.1,0-0.2,0-0.4,0
				c-0.2,0-0.4,0-0.6-0.1c-0.3-0.1-0.5-0.4-0.7-0.6c-0.1-0.1-0.1-0.3-0.1-0.4c0-0.1,0-0.2,0.1-0.3c0.1-0.2,0.2-0.4,0.5-0.5
				c1.3-0.4,2.4-0.8,3.3-1.3c0.9-0.5,1.6-1.1,2.2-1.8c0.5-0.7,0.9-1.5,1.2-2.2C-85.2,83.4-85,82.4-84.8,81.3z M-81,72.2
				c0.1,0,0.2-0.1,0.2-0.2v-2.5c0-0.1-0.1-0.2-0.2-0.2h-10.5c-0.3,0-0.5-0.1-0.7-0.3c-0.2-0.2-0.3-0.4-0.3-0.7
				c0-0.3,0.1-0.5,0.3-0.7c0.2-0.2,0.4-0.3,0.7-0.3H-81c0.1,0,0.2-0.1,0.2-0.2v-1.6c0-0.3,0.1-0.6,0.3-0.8c0.2-0.2,0.5-0.3,0.8-0.3
				c0.3,0,0.6,0.1,0.8,0.3c0.2,0.2,0.3,0.5,0.3,0.8V67c0,0.1,0.1,0.2,0.2,0.2h10.7c0.3,0,0.5,0.1,0.7,0.3c0.2,0.2,0.3,0.4,0.3,0.7
				c0,0.3-0.1,0.5-0.3,0.7c-0.2,0.2-0.4,0.3-0.7,0.3h-10.7c-0.1,0-0.2,0.1-0.2,0.2V72c0,0.1,0.1,0.2,0.2,0.2h8.1
				c0.3,0,0.5,0.1,0.7,0.3c0.2,0.2,0.3,0.4,0.3,0.7c0,0.3-0.1,0.5-0.3,0.7c-0.2,0.2-0.4,0.3-0.7,0.3h-18.5c-0.3,0-0.5-0.1-0.7-0.3
				c-0.2-0.2-0.3-0.4-0.3-0.7c0-0.3,0.1-0.5,0.3-0.7c0.2-0.2,0.4-0.3,0.7-0.3H-81z M-67.4,81.2c0,0.3-0.1,0.6-0.3,0.8
				c-0.2,0.2-0.5,0.3-0.8,0.3c-0.3,0-0.6-0.1-0.8-0.3c-0.2-0.2-0.3-0.5-0.3-0.8v-2.3c0-0.2-0.1-0.2-0.2-0.2h-19.5
				c-0.1,0-0.2,0.1-0.2,0.2v2.4c0,0.3-0.1,0.5-0.3,0.7c-0.2,0.2-0.5,0.3-0.8,0.3s-0.5-0.1-0.8-0.3c-0.2-0.2-0.3-0.5-0.3-0.7v-2.9
				c0-0.5,0.2-0.9,0.5-1.2c0.3-0.3,0.7-0.5,1.2-0.5h20.9c0.5,0,0.9,0.2,1.2,0.5c0.3,0.3,0.5,0.7,0.5,1.2V81.2z M-73.8,89h4
				c0.5,0,0.8-0.2,1-0.5c0.2-0.3,0.3-1.1,0.4-2.2c0-0.3,0.1-0.4,0.3-0.6c0.2-0.1,0.5-0.1,0.7,0c0.3,0.1,0.5,0.3,0.7,0.6
				c0.2,0.2,0.2,0.5,0.2,0.7c0,1.4-0.3,2.5-0.9,3.3c-0.4,0.5-1.2,0.8-2.2,0.8H-74c-1.3,0-2.3-0.2-2.7-0.6c-0.5-0.4-0.7-1.2-0.7-2.4
				v-6.8c0-0.3,0.1-0.6,0.3-0.8c0.2-0.2,0.5-0.3,0.8-0.3c0.3,0,0.6,0.1,0.8,0.3c0.2,0.2,0.3,0.5,0.3,0.8v6.8c0,0.4,0.1,0.7,0.2,0.8
				C-74.7,89-74.3,89-73.8,89z"/>
		</g>
	</g>
	<g>
		<g>
			<path d="M-179.1,44.4C-179.1,44.4-179.1,44.5-179.1,44.4C-179.1,44.5-179.1,44.5-179.1,44.4l0.3,0.3c0.2,0.1,0.3,0.3,0.3,0.5
				c0,0.2-0.1,0.4-0.3,0.5c-0.7,0.5-1.6,1-2.5,1.4c0,0,0,0,0,0.1c0,0,0,0,0,0.1c1,0.7,2.1,1.1,3.3,1.5c0.2,0,0.3,0.1,0.3,0.3
				c0.1,0.2,0,0.3-0.1,0.5c-0.1,0.2-0.3,0.4-0.5,0.5c-0.1,0.1-0.3,0.1-0.4,0.1c-0.1,0-0.2,0-0.3,0c-1.4-0.4-2.6-1-3.7-1.9
				c-1.2-0.9-2.1-2.2-2.8-3.7c0-0.1-0.1-0.1-0.2-0.1h-1.8c-0.1,0-0.1,0-0.1,0.1v3.6c0,0.1,0,0.1,0.1,0.1l3.1-0.5c0,0,0.1,0,0.1,0
				c0.1,0,0.3,0,0.4,0.1c0.2,0.1,0.2,0.3,0.2,0.5c0,0.2-0.1,0.3-0.2,0.4c-0.1,0.1-0.3,0.2-0.4,0.3c-1.9,0.3-3.8,0.7-5.8,1
				c-0.1,0-0.1,0-0.1,0c-0.1,0-0.3,0-0.4-0.1c-0.2-0.1-0.3-0.3-0.3-0.5c0-0.1,0-0.1,0-0.2c0-0.1,0-0.2,0.1-0.3
				c0.1-0.2,0.3-0.3,0.4-0.3c0.3,0,0.7-0.1,1.2-0.2c0.1,0,0.1-0.1,0.1-0.1v-3.8c0-0.1,0-0.1-0.1-0.1h-2c-0.2,0-0.3-0.1-0.5-0.2
				c-0.1-0.1-0.2-0.3-0.2-0.5c0-0.2,0.1-0.3,0.2-0.5c0.1-0.1,0.3-0.2,0.5-0.2h2c0.1,0,0.1,0,0.1-0.1v-5.9c0-0.3,0.1-0.5,0.3-0.6
				c0.2-0.2,0.4-0.3,0.6-0.3h8.3c0.2,0,0.3,0.1,0.4,0.2c0.1,0.1,0.2,0.3,0.2,0.4c0,0.2-0.1,0.3-0.2,0.4c-0.1,0.1-0.3,0.2-0.4,0.2
				h-7.6c-0.1,0-0.1,0-0.1,0.1v0.8c0,0.1,0,0.1,0.1,0.1h7.2c0.2,0,0.3,0.1,0.4,0.2c0.1,0.1,0.2,0.3,0.2,0.4c0,0.2-0.1,0.3-0.2,0.4
				c-0.1,0.1-0.3,0.2-0.4,0.2h-7.2c-0.1,0-0.1,0-0.1,0.1v0.9c0,0.1,0,0.1,0.1,0.1h7.2c0.2,0,0.3,0.1,0.4,0.2
				c0.1,0.1,0.2,0.3,0.2,0.4c0,0.2-0.1,0.3-0.2,0.4c-0.1,0.1-0.3,0.2-0.4,0.2h-7.2c-0.1,0-0.1,0-0.1,0.1V43c0,0.1,0,0.1,0.1,0.1h9.2
				c0.2,0,0.3,0.1,0.5,0.2c0.1,0.1,0.2,0.3,0.2,0.5c0,0.2-0.1,0.3-0.2,0.5c-0.1,0.1-0.3,0.2-0.5,0.2H-179.1z M-179.3,44.5
				C-179.3,44.5-179.3,44.5-179.3,44.5C-179.3,44.5-179.3,44.4-179.3,44.5l-4.3-0.1c0,0,0,0-0.1,0c0,0,0,0,0,0.1
				c0.4,0.7,0.8,1.3,1.3,1.8c0.1,0.1,0.1,0.1,0.2,0C-181,45.7-180,45.1-179.3,44.5z"/>
			<path d="M-169.2,46.2c-0.1,0-0.1,0-0.1,0.1V48c0,0.1,0,0.1,0.1,0.1c1.2-0.1,2-0.2,2.4-0.3c0.2,0,0.3,0,0.5,0.1
				c0.1,0.1,0.2,0.3,0.2,0.5c0,0.2-0.1,0.3-0.2,0.5c-0.1,0.1-0.3,0.2-0.5,0.3c-0.5,0.1-2.6,0.4-6.3,0.9c0,0-0.1,0-0.1,0
				c-0.2,0-0.3-0.1-0.4-0.2c-0.2-0.1-0.2-0.3-0.3-0.5c0,0,0,0,0-0.1c0-0.2,0.1-0.3,0.2-0.5c0.1-0.2,0.3-0.2,0.5-0.3
				c0.8-0.1,1.6-0.2,2.4-0.3c0.1,0,0.1-0.1,0.1-0.1v-1.8c0-0.1,0-0.1-0.1-0.1h-1.9c-0.2,0-0.3-0.1-0.5-0.2c-0.1-0.1-0.2-0.3-0.2-0.5
				s0.1-0.3,0.2-0.5c0.1-0.1,0.3-0.2,0.5-0.2h1.9c0.1,0,0.1,0,0.1-0.1v-1.4c0-0.1,0-0.1-0.1-0.1h-1.7c-0.3,0-0.5-0.1-0.7-0.3
				c-0.2-0.2-0.3-0.4-0.3-0.6v-4.7c0-0.3,0.1-0.5,0.3-0.6c0.2-0.2,0.4-0.3,0.7-0.3h5.1c0.3,0,0.5,0.1,0.7,0.3
				c0.2,0.2,0.3,0.4,0.3,0.6v4.7c0,0.3-0.1,0.5-0.3,0.6c-0.2,0.2-0.4,0.3-0.7,0.3h-1.7c-0.1,0-0.1,0-0.1,0.1v1.4
				c0,0.1,0,0.1,0.1,0.1h2c0.2,0,0.3,0.1,0.5,0.2c0.1,0.1,0.2,0.3,0.2,0.5s-0.1,0.3-0.2,0.5c-0.1,0.1-0.3,0.2-0.5,0.2H-169.2z
				 M-172.1,37.9c-0.1,0-0.1,0-0.1,0.1v1.3c0,0.1,0,0.1,0.1,0.1h1.4c0.1,0,0.1,0,0.1-0.1V38c0-0.1,0-0.1-0.1-0.1H-172.1z
				 M-172.1,40.6c-0.1,0-0.1,0-0.1,0.1v1.3c0,0.1,0,0.1,0.1,0.1h1.4c0.1,0,0.1,0,0.1-0.1v-1.3c0-0.1,0-0.1-0.1-0.1H-172.1z
				 M-167.9,39.4c0.1,0,0.1,0,0.1-0.1V38c0-0.1,0-0.1-0.1-0.1h-1.4c-0.1,0-0.1,0-0.1,0.1v1.3c0,0.1,0,0.1,0.1,0.1H-167.9z
				 M-167.9,42.1c0.1,0,0.1,0,0.1-0.1v-1.3c0-0.1,0-0.1-0.1-0.1h-1.4c-0.1,0-0.1,0-0.1,0.1v1.3c0,0.1,0,0.1,0.1,0.1H-167.9z
				 M-160.3,41.9c0.1,0,0.3,0,0.4,0l0.3,0.1c0.1,0,0.2,0.1,0.3,0.2c0.1,0.1,0.1,0.2,0.1,0.3c0,0.1,0,0.1,0,0.1
				c-0.3,1.2-0.6,2.1-0.9,2.8c-0.1,0.2-0.2,0.3-0.3,0.4c-0.1,0.1-0.2,0.1-0.3,0.1c-0.1,0-0.1,0-0.2,0c-0.2,0-0.3-0.1-0.4-0.3
				c-0.1-0.1-0.1-0.3,0-0.5c0.1-0.4,0.3-1,0.5-1.7c0,0,0-0.1,0-0.1c0,0,0,0-0.1,0h-1.3c-0.1,0-0.1,0-0.1,0.1v5.5
				c0,0.4,0,0.7-0.1,0.9c-0.1,0.2-0.3,0.4-0.5,0.5c-0.3,0.2-0.9,0.3-1.8,0.3h0c-0.2,0-0.4-0.1-0.6-0.2c-0.2-0.1-0.3-0.3-0.4-0.5
				c0-0.1,0-0.1,0-0.2c0-0.1,0-0.2,0.1-0.3c0.1-0.1,0.2-0.2,0.4-0.2c0.2,0,0.4,0,0.6,0c0.2,0,0.4,0,0.5,0c0.1,0,0.2,0,0.2-0.1
				c0,0,0.1-0.1,0.1-0.2v-5.5c0-0.1,0-0.1-0.1-0.1h-1.5c-0.2,0-0.4-0.1-0.5-0.2c-0.1-0.1-0.2-0.3-0.2-0.5c0-0.2,0.1-0.4,0.2-0.5
				c0.1-0.1,0.3-0.2,0.5-0.2h3c0,0,0,0,0,0c0,0,0,0,0,0c-0.8-0.6-1.6-1.2-2.5-1.7c-0.1-0.1-0.2-0.2-0.2-0.4c0-0.2,0-0.3,0.1-0.4
				c0.1-0.1,0.3-0.2,0.5-0.3c0.1,0,0.1,0,0.1,0c0.1,0,0.3,0,0.4,0.1c0.3,0.2,0.6,0.3,0.8,0.5c0.1,0,0.1,0,0.2,0
				c0.4-0.4,0.9-0.9,1.3-1.5c0,0,0,0,0-0.1c0,0,0,0,0,0h-3.5c-0.2,0-0.3-0.1-0.5-0.2c-0.1-0.1-0.2-0.3-0.2-0.5
				c0-0.2,0.1-0.3,0.2-0.5c0.1-0.1,0.3-0.2,0.5-0.2h4.7c0,0,0,0,0.1,0c0.1,0,0.1,0,0.2,0c0.1,0,0.2,0,0.3,0.1l0.3,0.2
				c0.1,0.1,0.2,0.2,0.3,0.4s0,0.3-0.1,0.4c-0.7,0.9-1.4,1.8-2.2,2.5c-0.1,0.1-0.1,0.1,0,0.1c0.3,0.2,0.6,0.5,0.9,0.7
				c0.1,0.1,0.1,0.2,0.1,0.3c0,0.1,0,0.2-0.1,0.3c0,0,0,0,0,0c0,0,0,0,0,0L-160.3,41.9C-160.4,41.9-160.4,41.9-160.3,41.9z"/>
			<path d="M-149,37.2c0.1-0.2,0.2-0.3,0.4-0.4c0.1-0.1,0.2-0.1,0.3-0.1c0.1,0,0.1,0,0.2,0c0.2,0.1,0.3,0.2,0.4,0.3
				c0,0.1,0.1,0.2,0.1,0.3c0,0.1,0,0.2-0.1,0.3c-0.5,1.1-1.1,2.1-1.7,3c0,0,0,0,0,0.1c0,0,0,0,0,0h0.9c0.2,0,0.3,0.1,0.5,0.2
				s0.2,0.3,0.2,0.5c0,0.2-0.1,0.3-0.2,0.5s-0.3,0.2-0.5,0.2h-1.9c-0.1,0-0.2,0-0.2,0.1c-0.3,0.4-0.7,0.8-1.1,1.2c0,0,0,0,0,0
				c0,0,0,0,0,0h2.3c0.3,0,0.5,0.1,0.7,0.3c0.2,0.2,0.3,0.4,0.3,0.6v5.4c0,0.2-0.1,0.4-0.2,0.5c-0.1,0.1-0.3,0.2-0.5,0.2h-0.1
				c-0.2,0-0.3-0.1-0.4-0.2c-0.1-0.1-0.2-0.2-0.2-0.4c0-0.1,0-0.1-0.1-0.1h-3c-0.1,0-0.1,0-0.1,0.1v0.1c0,0.2-0.1,0.3-0.2,0.5
				c-0.1,0.1-0.3,0.2-0.5,0.2c-0.2,0-0.3-0.1-0.5-0.2c-0.1-0.1-0.2-0.3-0.2-0.5v-4.4c0,0,0-0.1,0-0.1c0,0,0,0-0.1,0
				c0,0-0.1,0.1-0.3,0.2c-0.1,0.1-0.2,0.1-0.4,0.1c-0.1,0-0.1,0-0.2,0c-0.2-0.1-0.4-0.2-0.5-0.3c-0.1-0.1-0.1-0.2-0.1-0.4
				c0-0.1,0-0.1,0-0.1c0-0.2,0.1-0.3,0.3-0.4c1.2-0.7,2.3-1.5,3.2-2.4c0,0,0,0,0,0c0,0,0,0,0,0h-2.8c-0.2,0-0.3-0.1-0.5-0.2
				s-0.2-0.3-0.2-0.5c0-0.2,0.1-0.3,0.2-0.5s0.3-0.2,0.5-0.2h2.2c0.1,0,0.1,0,0.1-0.1v-1.4c0-0.1,0-0.1-0.1-0.1h-1.5
				c-0.2,0-0.3-0.1-0.5-0.2s-0.2-0.3-0.2-0.4s0.1-0.3,0.2-0.4s0.3-0.2,0.5-0.2h1.5c0.1,0,0.1,0,0.1-0.1v-0.8c0-0.2,0.1-0.3,0.2-0.5
				c0.1-0.1,0.3-0.2,0.5-0.2c0.2,0,0.4,0.1,0.5,0.2c0.1,0.1,0.2,0.3,0.2,0.5v0.8c0,0.1,0,0.1,0.1,0.1h1c0.2,0,0.4,0.1,0.5,0.2
				s0.2,0.3,0.2,0.5c0,0,0,0,0,0C-149.5,38.1-149.2,37.6-149,37.2z M-150,45.9c0.1,0,0.1,0,0.1-0.1v-1.1c0-0.1,0-0.1-0.1-0.1h-2.9
				c-0.1,0-0.1,0-0.1,0.1v1.1c0,0.1,0,0.1,0.1,0.1H-150z M-153,48.4c0,0.1,0,0.1,0.1,0.1h2.9c0.1,0,0.1,0,0.1-0.1v-1.2
				c0-0.1,0-0.1-0.1-0.1h-2.9c-0.1,0-0.1,0-0.1,0.1V48.4z M-151.6,40.6c0,0.1,0,0.1,0.1,0.1h0.2c0.1,0,0.1,0,0.2-0.1
				c0.3-0.4,0.7-0.9,1-1.5c0,0,0,0,0-0.1c0,0,0,0,0,0h-1.3c-0.1,0-0.1,0-0.1,0.1V40.6z M-142.5,36.8c0,0,0.1,0,0.1,0
				c0.1,0,0.2,0,0.3,0.1l0.4,0.2c0.2,0.1,0.3,0.2,0.3,0.4c0,0.1,0,0.1,0,0.2c0,0.1,0,0.2-0.1,0.3c-0.7,1.6-1.3,3-1.8,4.1
				c0,0.1,0,0.1,0,0.2c1.2,1.1,1.8,2.4,1.8,3.7c0,0,0,0.1,0,0.1c0,1.1-0.3,1.8-0.8,2.1c-0.3,0.2-0.6,0.3-1.1,0.4c-0.2,0-0.5,0-0.7,0
				c-0.2,0-0.4-0.1-0.5-0.2c-0.2-0.1-0.3-0.3-0.3-0.5c-0.1-0.2,0-0.3,0.1-0.4c0.1-0.1,0.2-0.2,0.4-0.2c0.2,0,0.3,0,0.5,0
				c0.3,0,0.5-0.1,0.7-0.2c0.3-0.2,0.5-0.6,0.5-1.2c0-0.9-0.4-1.9-1.3-2.8c-0.2-0.2-0.3-0.4-0.4-0.7c0-0.1,0-0.2,0-0.3
				c0-0.2,0-0.3,0.1-0.5c0.4-1,0.9-2.1,1.3-3.2c0,0,0,0,0-0.1c0,0,0,0-0.1,0h-2.3c-0.1,0-0.1,0-0.1,0.1v11.5c0,0.2-0.1,0.4-0.2,0.5
				s-0.3,0.2-0.5,0.2c-0.2,0-0.4-0.1-0.5-0.2c-0.1-0.1-0.2-0.3-0.2-0.5V37.8c0-0.3,0.1-0.5,0.3-0.6c0.2-0.2,0.4-0.3,0.6-0.3H-142.5
				C-142.6,36.8-142.6,36.8-142.5,36.8z"/>
			<path d="M-123.8,38.3c0.1,0.1,0.2,0.2,0.2,0.2s0,0.1,0,0.3c0,0.2-0.1,0.4-0.2,0.5s-0.3,0.2-0.5,0.2h-5.6c-0.1,0-0.1,0-0.1,0.1
				v1.7c0,0.1,0,0.1,0.1,0.1h4c0.3,0,0.5,0.1,0.6,0.3c0.2,0.2,0.3,0.4,0.3,0.6v4.6c0,0.4-0.1,0.7-0.2,0.9c-0.1,0.2-0.3,0.4-0.6,0.5
				c-0.4,0.1-1.1,0.2-2,0.3h0c-0.2,0-0.4-0.1-0.6-0.2c-0.2-0.1-0.3-0.3-0.4-0.5c-0.1-0.2,0-0.3,0.1-0.5c0.1-0.1,0.2-0.2,0.4-0.2
				c0.3,0,0.6,0,0.9,0c0.2,0,0.4,0,0.5,0c0.1,0,0.2,0,0.3-0.1c0,0,0.1-0.1,0.1-0.2V43c0-0.1,0-0.1-0.1-0.1h-3.3
				c-0.1,0-0.1,0-0.1,0.1v6.9c0,0.2-0.1,0.4-0.2,0.5c-0.2,0.2-0.3,0.2-0.5,0.2c-0.2,0-0.4-0.1-0.5-0.2c-0.2-0.2-0.2-0.3-0.2-0.5V43
				c0-0.1,0-0.1-0.1-0.1h-3c-0.1,0-0.1,0-0.1,0.1v4.9c0,0.2-0.1,0.4-0.2,0.5c-0.1,0.1-0.3,0.2-0.5,0.2s-0.4-0.1-0.5-0.2
				c-0.1-0.1-0.2-0.3-0.2-0.5v-5.6c0-0.3,0.1-0.5,0.3-0.6c0.2-0.2,0.4-0.3,0.7-0.3h3.7c0.1,0,0.1,0,0.1-0.1v-1.7
				c0-0.1,0-0.1-0.1-0.1h-5.5c-0.2,0-0.4-0.1-0.5-0.2s-0.2-0.3-0.2-0.5c0-0.2,0.1-0.4,0.2-0.5s0.3-0.2,0.5-0.2h5.5
				c0.1,0,0.1,0,0.1-0.1v-1.3c0-0.2,0.1-0.4,0.2-0.6c0.2-0.2,0.3-0.2,0.6-0.2s0.4,0.1,0.6,0.2c0.2,0.2,0.2,0.3,0.2,0.6v1.3
				c0,0.1,0,0.1,0.1,0.1h5.6C-124.1,38.1-123.9,38.1-123.8,38.3z"/>
			<path d="M-113,39.6c0,0.1,0,0.1,0.1,0.1h3.3c0.2,0,0.3,0,0.5,0c0.1,0,0.2,0,0.2,0c0.3,0,0.7,0.1,0.9,0.2c0.2,0.1,0.3,0.2,0.4,0.4
				c0.1,0.1,0.1,0.3,0.1,0.4c0,0,0,0.1,0,0.1c0,0.1,0,0.1,0,0.2c0,0.8-0.1,1.6-0.1,2.4c-0.1,0.8-0.2,1.8-0.3,2.9
				c-0.2,1.1-0.3,1.9-0.5,2.4c-0.2,0.4-0.4,0.7-0.7,0.8c-0.3,0.2-0.7,0.3-1.2,0.3c-0.5,0-1,0-1.8-0.1c-0.2,0-0.5-0.1-0.6-0.3
				c-0.2-0.2-0.3-0.4-0.3-0.6c0,0,0-0.1,0-0.1c0-0.2,0.1-0.3,0.2-0.5c0.1-0.1,0.3-0.2,0.5-0.2c0,0,0.1,0,0.1,0
				c0.6,0.1,1.1,0.1,1.5,0.1c0.2,0,0.4,0,0.6-0.1s0.3-0.2,0.3-0.4c0.2-0.5,0.4-1.4,0.6-2.7c0.1-1.3,0.2-2.5,0.2-3.6
				c0-0.1,0-0.1-0.1-0.1h-3.9c-0.1,0-0.1,0-0.1,0.1c-0.3,1.9-0.7,3.5-1.4,4.8s-1.6,2.4-2.8,3.3c-0.2,0.2-0.4,0.2-0.7,0.2
				c0,0,0,0,0,0c-0.3,0-0.5-0.1-0.7-0.3l0,0c-0.2-0.1-0.2-0.3-0.2-0.5c0-0.3,0.1-0.4,0.3-0.6c0.4-0.3,0.8-0.6,1.1-0.9
				c0.8-0.7,1.4-1.6,1.9-2.6c0.5-1,0.8-2.2,1-3.6c0-0.1,0-0.1-0.1-0.1h-2.3c-0.4,0-0.8,0-1.1,0c0,0,0,0,0,0c-0.2,0-0.4-0.1-0.6-0.2
				c-0.2-0.2-0.3-0.3-0.3-0.6c0-0.2,0.1-0.4,0.3-0.6c0.2-0.1,0.3-0.2,0.5-0.2c0,0,0,0,0.1,0c0.4,0,0.8,0,1.1,0h2.5
				c0.1,0,0.1,0,0.1-0.1c0-0.4,0-0.9,0-1.4l0-0.5c0-0.2,0.1-0.4,0.2-0.6c0.2-0.2,0.4-0.3,0.6-0.3h0c0.3,0,0.5,0.1,0.6,0.3
				c0.2,0.2,0.2,0.4,0.2,0.6l0,0.5C-113,38.6-113,39.1-113,39.6z M-107.7,38.4c0.1,0.1,0.1,0.3,0,0.4c-0.1,0.1-0.2,0.3-0.3,0.3
				c-0.1,0.1-0.3,0.1-0.4,0c-0.2-0.1-0.3-0.2-0.3-0.3c-0.2-0.5-0.5-0.9-0.7-1.2c-0.1-0.1-0.1-0.3-0.1-0.4c0-0.1,0.1-0.2,0.3-0.3
				c0.1-0.1,0.3-0.1,0.5,0c0.2,0,0.3,0.1,0.4,0.3C-108.1,37.6-107.9,38-107.7,38.4z M-107.6,36.9c-0.1-0.1-0.1-0.2-0.1-0.3
				c0,0,0-0.1,0-0.1c0-0.1,0.1-0.2,0.3-0.3c0.1,0,0.2-0.1,0.3-0.1c0.1,0,0.1,0,0.2,0c0.2,0,0.3,0.1,0.4,0.3c0.2,0.4,0.5,0.8,0.7,1.2
				c0.1,0.1,0.1,0.2,0.1,0.3c0,0.1,0,0.1,0,0.2c-0.1,0.1-0.1,0.3-0.3,0.3c-0.1,0-0.2,0-0.3,0c-0.1,0-0.1,0-0.2,0
				c-0.1-0.1-0.3-0.2-0.3-0.3C-107.1,37.7-107.4,37.3-107.6,36.9z"/>
			<path d="M-91.6,38c0.1,0,0.2,0,0.3,0c0.4,0,0.7,0.1,0.9,0.3c0.1,0.1,0.2,0.3,0.3,0.4c0,0.1,0,0.1,0,0.1c0,0.1,0,0.2-0.1,0.4
				c-0.1,0.1-0.1,0.2-0.1,0.3c-0.7,1.7-1.6,3.2-2.5,4.5c-0.1,0.1,0,0.1,0,0.2c1.3,1.1,2.6,2.4,3.9,3.9c0.1,0.2,0.2,0.4,0.2,0.6
				c0,0,0,0.1,0,0.1c0,0.3-0.1,0.5-0.3,0.6l0,0c-0.2,0.1-0.3,0.2-0.5,0.2c0,0-0.1,0-0.1,0c-0.2,0-0.4-0.1-0.6-0.3
				c-1-1.3-2.2-2.6-3.6-3.9c-0.1-0.1-0.1-0.1-0.2,0c-1.7,1.8-3.4,3.1-5.3,4.1c-0.2,0.1-0.4,0.1-0.5,0.1c-0.1,0-0.1,0-0.2,0
				c-0.3-0.1-0.5-0.2-0.7-0.4l0,0c-0.1-0.1-0.2-0.3-0.2-0.4c0,0,0-0.1,0-0.1c0-0.2,0.2-0.4,0.4-0.5c1.1-0.5,2.1-1.1,3.1-1.9
				c1-0.8,1.9-1.6,2.6-2.4c0.5-0.6,1-1.3,1.5-2s0.8-1.5,1-2.1c0,0,0,0,0-0.1c0,0,0,0-0.1,0h-5.8c-0.2,0-0.5,0-0.8,0c0,0,0,0-0.1,0
				c-0.2,0-0.4-0.1-0.6-0.2c-0.2-0.2-0.3-0.4-0.3-0.6c0-0.2,0.1-0.4,0.3-0.6c0.2-0.1,0.3-0.2,0.6-0.2c0,0,0,0,0.1,0
				c0.3,0,0.6,0,0.8,0h5.9C-92,38-91.8,38-91.6,38z"/>
			<path d="M-75.5,49.7c-0.1,0-0.2,0-0.3,0c-0.2,0-0.3,0-0.5-0.1c-0.2-0.1-0.4-0.3-0.6-0.5c-0.1-0.1-0.1-0.2-0.1-0.3
				c0-0.1,0-0.2,0.1-0.3c0.1-0.2,0.2-0.3,0.4-0.3c0.2,0,0.4-0.1,0.5-0.1c0.5-0.1,1-0.3,1.5-0.5c0.4-0.2,0.9-0.5,1.2-0.9
				c0.4-0.4,0.6-0.8,0.9-1.3c0.2-0.5,0.3-1.1,0.3-1.7c0-1.2-0.3-2.1-1-2.9c-0.7-0.8-1.6-1.3-2.7-1.5c-0.1,0-0.1,0-0.1,0.1
				c-0.3,1.7-0.6,3.1-0.9,4.3c-0.5,1.6-1,2.9-1.7,3.7c-0.7,0.9-1.4,1.3-2.2,1.3c-0.8,0-1.5-0.4-2.1-1.2c-0.6-0.8-0.9-1.9-0.9-3.2
				c0-0.9,0.2-1.7,0.6-2.5c0.4-0.8,0.9-1.5,1.5-2.1c0.6-0.6,1.4-1.1,2.3-1.4c0.9-0.4,1.8-0.5,2.8-0.5c0.9,0,1.8,0.2,2.6,0.5
				c0.8,0.3,1.4,0.7,2,1.3c0.5,0.5,0.9,1.2,1.2,1.9c0.3,0.7,0.4,1.5,0.4,2.3c0,1.5-0.4,2.8-1.3,3.9C-72.6,48.7-73.9,49.4-75.5,49.7z
				 M-80.6,46.8c0.8,0,1.5-1.2,2.2-3.5c0.4-1.2,0.7-2.6,0.8-4c0,0,0,0,0-0.1c0,0,0,0-0.1,0c-0.7,0.1-1.3,0.4-1.9,0.7
				c-0.6,0.3-1,0.7-1.4,1.2c-0.4,0.5-0.6,0.9-0.9,1.5s-0.3,1-0.3,1.5c0,0.8,0.2,1.5,0.5,2C-81.4,46.6-81,46.8-80.6,46.8z"/>
		</g>
	</g>
	<g>
		<linearGradient id="SVGID_1_" gradientUnits="userSpaceOnUse" x1="-126.9837" y1="-5.5744" x2="-126.9837" y2="24.8422">
			<stop  offset="0" style="stop-color:#F2D500"/>
			<stop  offset="1.000000e-02" style="stop-color:#F2D500"/>
			<stop  offset="0.25" style="stop-color:#F2D500"/>
			<stop  offset="0.5" style="stop-color:#F39700"/>
			<stop  offset="0.99" style="stop-color:#F39700"/>
			<stop  offset="1" style="stop-color:#F39700"/>
		</linearGradient>
		<path class="st0" d="M-121.3-7.1c0.1-0.4,0-0.4-0.2-0.1l-15.5,19.1c-0.2,0.3-0.1,0.6,0.3,0.6h6.6c0.4,0,0.6,0.3,0.5,0.7l-2.8,11.5
			c-0.1,0.4,0,0.4,0.2,0.1l15.1-19c0.3-0.3,0.1-0.6-0.3-0.6h-5.6c-0.4,0-0.6-0.3-0.5-0.7L-121.3-7.1z"/>
	</g>
</g>
<polygon class="st1" points="4.4,4.4 3.5,3.5 0,0 0,1.8 2.6,4.4 0,7 0,8.8 3.5,5.3 "/>
<g>
	<linearGradient id="SVGID_2_" gradientUnits="userSpaceOnUse" x1="54.3905" y1="-22.1125" x2="54.3905" y2="15.5215">
		<stop  offset="0" style="stop-color:#F2D500"/>
		<stop  offset="1.000000e-02" style="stop-color:#F2D500"/>
		<stop  offset="0.25" style="stop-color:#F2D500"/>
		<stop  offset="0.5" style="stop-color:#F39700"/>
		<stop  offset="0.99" style="stop-color:#F39700"/>
		<stop  offset="1" style="stop-color:#F39700"/>
	</linearGradient>
	<path class="st2" d="M60.9-24c0.1-0.4,0-0.5-0.3-0.1L43-2.3c-0.3,0.4-0.1,0.7,0.3,0.7h7.5c0.5,0,0.7,0.4,0.6,0.8l-3.1,13.1
		c-0.2,0.4,0,0.5,0.3,0.1L65.7-9.3C66-9.7,65.9-10,65.4-10H59c-0.5,0-0.7-0.4-0.6-0.8L60.9-24z"/>
</g>
<polygon points="120.3,-20 119.4,-20.9 115.9,-24.4 115.9,-22.6 118.5,-20 115.9,-17.4 115.9,-15.6 119.4,-19.1 "/>
<g>
	
		<text transform="matrix(1 0 0 1 226.1764 4030.6162)" style="font-family:'GenJyuuGothic-Regular'; font-size:14px; letter-spacing:1;">内部リンク</text>
</g>
<polygon points="219.8,4024.6 218.9,4023.7 215.5,4020.2 215.5,4022 218,4024.6 215.5,4027.2 215.5,4029 218.9,4025.5 "/>
<g>
	<g>
		
			<text transform="matrix(1 0 0 1 351.0729 4029.6172)" style="font-family:'GenJyuuGothic-Regular'; font-size:14px; letter-spacing:1;">外部リンク</text>
	</g>
	<g>
		<g>
			<path d="M343.5,4022.8v4.7h-6.9v-4.7H343.5 M344.5,4021.8h-8.9v6.7h8.9V4021.8L344.5,4021.8z"/>
		</g>
		<g>
			<rect x="333.6" y="4019.6" class="st3" width="7.9" height="5.7"/>
			<path d="M341,4020.1v4.7h-6.9v-4.7H341 M342,4019.1h-8.9v6.7h8.9V4019.1L342,4019.1z"/>
		</g>
	</g>
</g>
<g>
	<g>
		
			<text transform="matrix(1 0 0 1 479.2384 4027.6172)" style="font-family:'GenJyuuGothic-Regular'; font-size:14px; letter-spacing:1;">PDFリンク</text>
	</g>
	<g>
		<path class="st4" d="M470.5,4029.6c0,2.2-1.8,4-4,4h-14.9c-2.2,0-4-1.8-4-4v-14c0-2.2,1.8-4,4-4h14.9c2.2,0,4,1.8,4,4V4029.6z"/>
	</g>
	<text transform="matrix(1 0 0 1 450.4427 4025.4497)" class="st3" style="font-family:'GenJyuuGothic-Bold'; font-size:9px;">PDF</text>
</g>
<g>
	<g>
		<rect x="173.3" y="-21.2" class="st3" width="7.9" height="5.7"/>
		<path d="M180.7-20.7v4.7h-6.9v-4.7H180.7 M181.7-21.7h-8.9v6.7h8.9V-21.7L181.7-21.7z"/>
	</g>
	<g>
		<rect x="170.8" y="-23.9" class="st3" width="7.9" height="5.7"/>
		<path d="M178.2-23.4v4.7h-6.9v-4.7H178.2 M179.2-24.4h-8.9v6.7h8.9V-24.4L179.2-24.4z"/>
	</g>
</g>
<g>
	<path class="st4" d="M266.2-6.4c0,2.2-1.8,4-4,4h-14.9c-2.2,0-4-1.8-4-4v-14c0-2.2,1.8-4,4-4h14.9c2.2,0,4,1.8,4,4V-6.4z"/>
</g>
<text transform="matrix(1 0 0 1 246.1987 -10.5491)" class="st3" style="font-family:'GenJyuuGothic-Bold'; font-size:9px;">PDF</text>
</svg>
