<?xml version="1.0" encoding="utf-8"?>
<!-- Generator: Adobe Illustrator 21.1.0, SVG Export Plug-In . SVG Version: 6.00 Build 0)  -->
<svg version="1.1" id="レイヤー_1" xmlns="http://www.w3.org/2000/svg" xmlns:xlink="http://www.w3.org/1999/xlink" x="0px"
	 y="0px" viewBox="0 0 301 71" style="enable-background:new 0 0 301 71;" xml:space="preserve">
<style type="text/css">
	.st0{fill:#FFFFFF;}
</style>
<g>
	<path class="st0" d="M108.6,55.3V43.9h1.5c1,0,1.9,0.3,2.5,0.8c0.6,0.6,0.9,1.3,0.9,2.3c0,1-0.3,1.8-0.9,2.4s-1.4,0.9-2.3,0.9H110
		v5H108.6z M110,48.9h0.3c1.2,0,1.8-0.7,1.8-2c0-1.2-0.7-1.7-2-1.7V48.9z"/>
	<path class="st0" d="M116.5,55.3V43.9h1.6c2.6,0,3.9,1.9,3.9,5.7c0,1.9-0.3,3.3-1,4.3c-0.6,1-1.6,1.4-2.7,1.4H116.5z M118,53.9h0.2
		c0.9,0,1.5-0.3,1.8-1c0.4-0.7,0.5-1.8,0.5-3.3c0-1.6-0.2-2.7-0.5-3.4s-0.9-1-1.8-1H118V53.9z"/>
	<path class="st0" d="M125.4,55.3V43.9h3.5v1.4h-2.1v3.4h1.9V50h-1.9v5.3H125.4z"/>
	<path class="st0" d="M132.6,46.2c0.5,0.1,1.4,0.1,2.5,0.1h4.6c0.3,0,0.6,0,0.7-0.1c0.1,0,0.1-0.1,0.2-0.1c0.1,0,0.1,0,0.2,0.1
		c0.4,0.2,0.7,0.5,1,0.9c0.1,0.1,0.1,0.1,0.1,0.2c0,0.1-0.1,0.2-0.2,0.3c-0.1,0.1-0.2,0.3-0.3,0.5c-0.7,1.7-1.5,3.1-2.5,4.2
		c-1.2,1.3-2.4,2.4-3.7,3.1c-0.1,0.1-0.2,0.1-0.4,0.1s-0.2,0-0.3-0.1c-0.3-0.3-0.7-0.5-1.2-0.7c1-0.5,1.8-1,2.5-1.6
		c0.6-0.5,1.2-1,1.7-1.7c1-1.1,1.7-2.3,2.2-3.7h-4.7c-0.5,0-1.2,0-2.1,0.1c-0.1,0-0.2-0.1-0.2-0.3C132.6,47.3,132.6,46.9,132.6,46.2
		z"/>
	<path class="st0" d="M146.4,48.1c0.6,0.1,1.3,0.1,2.1,0.1h4.4c0.3,0,0.6,0,0.7-0.1c0.1,0,0.1-0.1,0.2-0.1c0.1,0,0.1,0,0.2,0.1
		c0.3,0.2,0.5,0.5,0.8,0.9c0,0.1,0.1,0.1,0.1,0.2c0,0.1,0,0.1-0.1,0.2c-0.2,0.1-0.3,0.2-0.3,0.3c-0.6,0.8-1.1,1.5-1.7,2
		c-0.1,0.1-0.1,0.1-0.2,0.1c-0.1,0-0.2,0-0.3-0.1c-0.3-0.2-0.6-0.4-0.9-0.5c0.7-0.6,1.2-1.2,1.6-1.8h-4.2c-0.2,0-0.8,0-1.8,0.1
		c-0.2,0-0.3-0.1-0.3-0.2C146.5,49,146.5,48.6,146.4,48.1z M149.4,49.9c0.8,0.1,1.3,0.2,1.4,0.2c0.1,0,0.2,0.1,0.2,0.2
		c0,0.1,0,0.1-0.1,0.2c-0.1,0.1-0.1,0.3-0.1,0.5c0,2.1-0.8,3.7-2.5,4.7c-0.1,0.1-0.3,0.1-0.3,0.1c-0.1,0-0.2,0-0.2-0.1
		c-0.3-0.2-0.6-0.4-1-0.5c1-0.5,1.7-1.2,2.1-1.9c0.4-0.6,0.6-1.4,0.6-2.4C149.5,50.6,149.5,50.3,149.4,49.9z"/>
	<path class="st0" d="M165.4,48.5v4.3c0,0.8,0,1.7,0,2.7c0,0,0,0,0,0c0,0.1-0.1,0.2-0.2,0.2c-0.2,0-0.4,0-0.6,0c-0.2,0-0.4,0-0.6,0
		c-0.1,0-0.2-0.1-0.2-0.2c0,0,0,0,0,0c0-0.2,0-0.7,0-1.4c0-0.5,0-0.9,0-1.2v-3c-1.3,1.1-2.5,1.9-3.6,2.5c-0.1,0-0.1,0.1-0.2,0.1
		c-0.1,0-0.2,0-0.3-0.1c-0.2-0.2-0.6-0.5-1.1-0.8c1.5-0.8,2.9-1.7,4.1-2.7c1.1-0.9,2-1.8,2.8-2.7c0.4-0.4,0.7-0.9,0.8-1.3
		c0.7,0.4,1.2,0.7,1.4,0.9c0.1,0,0.1,0.1,0.1,0.2c0,0.1-0.1,0.2-0.2,0.3c-0.2,0.1-0.4,0.4-0.8,0.7C166.4,47.4,165.9,48,165.4,48.5z"
		/>
	<path class="st0" d="M174.9,46.8c0.8,0.1,1.4,0.2,1.7,0.3c0.1,0,0.2,0.1,0.2,0.2c0,0,0,0.1,0,0.2c-0.1,0.2-0.2,0.5-0.2,0.9
		c0,1.6-0.3,2.8-0.7,3.8c-0.4,0.9-1,1.7-1.8,2.4c-0.1,0.1-0.3,0.2-0.3,0.2c-0.1,0-0.2,0-0.2-0.1c-0.3-0.2-0.7-0.4-1.1-0.5
		c1-0.8,1.7-1.6,2.2-2.6c0.2-0.5,0.3-1,0.4-1.5c0.1-0.5,0.1-1.2,0.1-2.2C175.1,47.4,175,47.1,174.9,46.8z M179.5,52.5
		c0.6-0.3,1.2-0.7,1.8-1.2c0.9-0.7,1.7-1.4,2.3-2.2c0.1,0.5,0.2,0.9,0.4,1.3c0.1,0.1,0.1,0.2,0.1,0.2c0,0.1-0.1,0.2-0.2,0.3
		c-0.6,0.7-1.3,1.2-1.9,1.7c-0.7,0.6-1.5,1.1-2.3,1.6c-0.1,0.1-0.2,0.2-0.4,0.3c-0.1,0.1-0.2,0.1-0.3,0.1c-0.1,0-0.2,0-0.3-0.1
		c-0.3-0.2-0.5-0.4-0.8-0.8c-0.1-0.1-0.1-0.2-0.1-0.3s0-0.1,0.1-0.2c0.1-0.1,0.1-0.4,0.1-1v-4.1c0-1.1,0-1.9-0.1-2.3
		c0.8,0.1,1.4,0.2,1.6,0.3c0.2,0,0.2,0.1,0.2,0.2c0,0.1,0,0.2-0.1,0.3c-0.1,0.2-0.1,0.6-0.1,1.4V52.5z"/>
</g>
<g>
	<path class="st0" d="M94.8,19v-0.9c0-0.5,0.3-0.8,0.9-0.8c0.6,0,1,0.2,1,0.8V19h2.1c1.6,0,2,0.4,2,2v1.5c0,0.3,0,0.9-0.9,0.9
		c-0.3,0-0.5-0.1-0.7-0.2c0.1,0.3,0.1,0.4,0.1,0.9v1.7c0,1.6-0.4,2-2,2h-3.2v1.5h4.2c1.6,0,2,0.4,2,2v1.7c0,1.6-0.4,2-2,2h-4.1
		c-1.6,0-2-0.4-2-2v-8.8c0-0.2,0-0.5,0.1-0.8c-0.2,0.1-0.3,0.1-0.5,0.1c-0.8,0-0.8-0.6-0.8-1v-0.9c-0.1,0.1-0.2,0.2-0.5,0.2
		c-0.6,0-1.3-0.8-2.3-2.1c-0.2-0.2-0.2-0.3-0.3-0.3s-0.2,0-0.4,0.3c-0.7,1-1.2,1.7-2.2,2.7c-0.3,0.3-0.9,0.9-1.3,0.9
		c-0.7,0-0.9-0.7-0.9-1c0-0.4,0.2-0.6,1.3-1.5c0.8-0.7,1.5-1.6,2.3-2.7c0.2-0.3,0.4-0.6,1.2-0.6c0.8,0,0.9,0.2,1.7,1.1
		c0.4,0.5,0.7,0.9,1,1.1C91,19.9,91,20,91.1,20c0.2-0.9,1-1,1.9-1H94.8z M84.3,24.7c0-1.5,0.4-2,2-2h0.6V22c0-0.2,0-1,0.9-1
		c0.8,0,0.9,0.6,0.9,1v0.7h0.5c1.6,0,1.7,0.8,1.7,2v3c0,1.6-0.4,2-2,2h-2.8v2.8c1.3-0.4,1.4-0.4,2.4-0.7c-0.2-0.3-0.4-0.7-0.4-1
		c0-0.5,0.5-0.8,0.9-0.8c0.4,0,0.7,0.2,1.1,1c0.3,0.6,1.3,2.4,1.3,3c0,0.8-0.8,0.9-1,0.9c-0.4,0-0.6-0.3-0.7-0.4
		c-0.1-0.2-0.4-1-0.5-1.2c-0.9,0.3-4.5,1.5-5.1,1.5c-0.6,0-0.9-0.6-0.9-1c0-0.6,0.4-0.8,1.1-0.9V24.7z M86.1,25.5h3v-0.7
		c0-0.3-0.2-0.5-0.5-0.5h-1.9c-0.3,0-0.5,0.2-0.5,0.5V25.5z M89.1,26.9h-3v1.3h2.5c0.4,0,0.5-0.2,0.5-0.5V26.9z M92.6,22.4
		c0,0,0,0.2,0,0.2c0.2-0.2,0.4-0.5,1.7-0.5h3.1c1,0,1.4,0.1,1.7,0.6c0-0.1,0-0.1,0-0.2v-1.3c0-0.4-0.2-0.5-0.5-0.5h-5.4
		c-0.3,0-0.5,0.1-0.5,0.5V22.4z M94.1,26.1h2.8c0.4,0,0.5-0.3,0.5-0.5v-1.4c0-0.3-0.1-0.5-0.5-0.5h-2.3c-0.3,0-0.5,0.2-0.5,0.5V26.1
		z M94.1,30.7v1.9c0,0.4,0.2,0.6,0.5,0.6h3.2c0.4,0,0.5-0.2,0.5-0.6v-1.4c0-0.4-0.2-0.5-0.5-0.5H94.1z"/>
	<path class="st0" d="M109.8,22c-0.6,0-0.9,0.3-0.9,0.8v11.3c0,0.3,0,1-0.9,1c-0.7,0-1.1-0.2-1.1-1V22.7c0-2.1,0.7-2.6,2.6-2.6h4.4
		v-1.8c0-0.3,0-1,1-1c0.8,0,1.1,0.3,1.1,1v1.8h4.4c1.9,0,2.6,0.6,2.6,2.6v9.7c0,0.9-0.1,1.9-1,2.3c-0.6,0.3-1.1,0.3-2.4,0.3
		c-1.2,0-1.5,0-1.7-0.1c-0.4-0.2-0.6-0.6-0.6-0.9c0-0.8,0.5-1,1.1-1c0.3,0,1.6,0,1.9,0c0.5-0.1,0.6-0.4,0.6-0.8v-9.3
		c0-0.5-0.2-0.8-0.9-0.8h-4c0.6,3.8,2.8,5.7,4.1,6.8c0.4,0.3,0.6,0.5,0.6,0.9c0,0.6-0.5,1.2-1.1,1.2c-0.3,0-0.6,0-1.7-1.2
		c-2.1-2.1-2.7-4-3-4.9c-0.4,1.2-1,2.7-2.1,4c-0.2,0.3-1.9,2-2.7,2c-0.6,0-1-0.7-1-1.2c0-0.5,0.3-0.7,0.7-1c1.3-1,2.6-2,3.5-4.5
		c0.3-1,0.5-1.8,0.5-2.2H109.8z"/>
	<path class="st0" d="M136.1,30.5c-0.8,1.3-1.7,2.3-3.2,2.3c-2.3,0-3.7-2.4-3.7-5.5c0-5.6,4.1-8.8,9-8.8c6.3,0,8.1,4.4,8.1,7.8
		c0,1.1,0,4.5-3.8,6.8c-1.8,1.1-4,1.3-4.2,1.3c-1.1,0-1.1-1-1.1-1.1c0-0.8,0.6-0.9,1.4-1c1.4-0.2,5.6-0.9,5.6-5.9
		c0-2.5-1.2-5.5-5.2-5.7C138.1,26.3,136.8,29.4,136.1,30.5z M134.4,21.4c-2.4,1.3-3.2,3.9-3.2,5.9c0,2,0.9,3.2,1.7,3.2
		c0.8,0,1.4-1,2-2.5c1.1-2.8,1.4-4.9,1.8-7.5C136.2,20.7,135.4,20.9,134.4,21.4z"/>
	<path class="st0" d="M166.7,33.6c-1.1,0.3-3.7,0.5-6.2,0.5c-1.5,0-2.7-0.1-3.6-0.2c-1.3-0.2-4.8-0.9-4.8-3.9c0-1.9,1.2-3.1,2.1-3.9
		c0.5-0.4,0.7-0.5,1-0.5c0.8,0,1.1,0.7,1.1,1c0,0.3-0.1,0.4-0.9,1.2c-0.9,0.9-1.2,1.3-1.2,2c0,1.9,2.9,2.2,5.7,2.2
		c1.6,0,3.3-0.1,4.7-0.3c0.3,0,1.7-0.3,2-0.3c0.9,0,1,0.6,1,1C167.8,33.2,167.5,33.4,166.7,33.6z M154.9,21.1c-0.7,0-1.5,0-1.5-1
		c0-1,0.7-1,1.5-1c0.3,0,2.6,0,2.9,0c0.5,0,3.6-0.1,5.2-0.1c0.3,0,1.5-0.1,1.7-0.1c0.6,0,1.4,0,1.4,1c0,0.7-0.3,0.8-1.1,1.3
		c-1.4,0.7-2,1.1-3.6,2.1c-0.5,0.3-0.8,0.4-1.1,0.4c-0.6,0-1-0.5-1-1c0-0.4,0.3-0.6,1.2-1.2c0.2-0.1,1.2-0.6,1.4-0.7
		C159.7,21,157,21.1,154.9,21.1z M163.8,23.6c0-0.1-0.1-0.2-0.1-0.3c0-0.3,0.4-0.5,0.6-0.5c0.3,0,0.4,0.1,0.8,0.8
		c0.2,0.3,0.8,1.4,0.8,1.8c0,0.4-0.4,0.6-0.6,0.6c-0.3,0-0.5-0.3-0.5-0.4c-0.1-0.2-0.4-0.8-0.4-1C164.2,24.4,163.9,23.7,163.8,23.6z
		 M166,23c-0.1-0.2-0.2-0.4-0.2-0.6c0-0.4,0.4-0.5,0.6-0.5c0.3,0,0.5,0.2,0.9,0.9c0.2,0.4,0.6,1.2,0.6,1.6c0,0.4-0.4,0.6-0.6,0.6
		c-0.2,0-0.4-0.1-0.5-0.3c-0.1-0.2-0.4-0.8-0.4-0.9C166.2,23.4,166.1,23.2,166,23z"/>
	<path class="st0" d="M183.2,34.2c0,0.2,0,1-0.9,1c-0.8,0-1-0.3-1-1v-3.3c-3,3-6.4,3.8-6.9,3.8c-0.6,0-1-0.6-1-1.1
		c0-0.6,0.4-0.7,0.8-0.9c1.4-0.4,3.5-1.1,5.5-2.8h-5.6c-0.3,0-0.9-0.1-0.9-0.8c0-0.7,0.4-0.8,0.9-0.8h7.1v-0.6
		c0-0.5,0.3-0.8,0.9-0.8s1.1,0.1,1.1,0.8v0.6h7.1c0.3,0,0.9,0.1,0.9,0.8c0,0.7-0.5,0.8-0.9,0.8h-5.6c2.1,1.8,4.4,2.5,5.5,2.8
		c0.5,0.1,0.8,0.3,0.8,0.9c0,0.5-0.3,1.1-1,1.1c-0.4,0-3.8-0.8-6.9-3.9V34.2z M176.4,22.9c-0.2,0-0.7,0-0.8-0.6
		c-0.2,0.2-0.4,0.4-0.8,0.4c-0.8,0-1-0.3-1-1v-0.9c0-1.7,0.4-2.2,2.2-2.2h5.3v-0.5c0-0.5,0.3-0.8,0.9-0.8c0.7,0,1.1,0.2,1.1,0.8v0.5
		h5.4c1.7,0,2.2,0.4,2.2,2.2v0.9c0,0.4-0.1,1-0.9,1c-0.6,0-0.8-0.2-1-0.4c-0.1,0.6-0.6,0.6-0.8,0.6h-0.8c-0.6,0.9-1.2,1.5-1.9,2.1
		c2.1,0.5,2.9,0.8,3.6,1c0.6,0.2,0.7,0.4,0.7,0.8c0,0.2-0.2,1-0.9,1c-0.2,0-0.4,0-0.8-0.2c-0.9-0.3-2.4-0.8-4.4-1.4
		c-1.2,0.6-2.6,0.9-3.9,1.1c-2.1,0.3-4,0.4-4.3,0.4c-0.3,0-1,0-1-0.8c0-0.7,0.5-0.8,1.1-0.8c1.7-0.1,3.9-0.2,5.5-0.6
		c-0.5-0.1-2.5-0.5-2.8-0.6c-0.3-0.1-0.7-0.4-0.7-0.8c0-0.4,0.2-0.6,0.7-1.2H176.4z M176.4,20.2c-0.4,0-0.7,0.2-0.7,0.7v0.8
		c0.2-0.3,0.5-0.3,0.7-0.3h3c0.1-0.2,0.7-0.8,0.8-0.9c0.3-0.2,0.6-0.2,0.7-0.3H176.4z M180.5,22.9c-0.1,0.1-0.5,0.5-0.6,0.6
		c-0.2,0.2-0.2,0.2-0.2,0.4c0,0.2,0.2,0.2,0.3,0.2c0.4,0.1,2.6,0.4,3.1,0.5c0.3-0.2,1.2-0.7,1.9-1.6H180.5z M181,20.2
		c0.2,0,1,0.1,1,0.6c0,0.2-0.1,0.3-0.2,0.5h6.3c0.3,0,0.5,0.1,0.7,0.3v-0.8c0-0.4-0.2-0.7-0.7-0.7H181z"/>
	<path class="st0" d="M199.9,22c-0.6,0-0.9,0.3-0.9,0.8v11.3c0,0.3,0,1-1,1c-0.7,0-1.1-0.2-1.1-1V22.7c0-2.1,0.7-2.6,2.6-2.6h4.4
		v-1.8c0-0.3,0-1,1-1c0.8,0,1.1,0.3,1.1,1v1.8h4.4c1.9,0,2.6,0.6,2.6,2.6v9.7c0,0.9-0.1,1.9-1,2.3c-0.6,0.3-1.1,0.3-2.4,0.3
		c-1.2,0-1.5,0-1.7-0.1c-0.4-0.2-0.6-0.6-0.6-0.9c0-0.8,0.5-1,1.1-1c0.3,0,1.6,0,1.9,0c0.5-0.1,0.6-0.4,0.6-0.8v-9.3
		c0-0.5-0.2-0.8-0.9-0.8h-4c0.6,3.8,2.8,5.7,4.1,6.8c0.4,0.3,0.6,0.5,0.6,0.9c0,0.6-0.5,1.2-1.1,1.2c-0.3,0-0.6,0-1.7-1.2
		c-2.1-2.1-2.7-4-3-4.9c-0.4,1.2-1,2.7-2.1,4c-0.2,0.3-1.9,2-2.7,2c-0.6,0-1-0.7-1-1.2c0-0.5,0.3-0.7,0.7-1c1.3-1,2.6-2,3.5-4.5
		c0.3-1,0.5-1.8,0.5-2.2H199.9z"/>
</g>
</svg>
