<?xml version="1.0" encoding="utf-8"?>
<!-- Generator: Adobe Illustrator 21.1.0, SVG Export Plug-In . SVG Version: 6.00 Build 0)  -->
<svg version="1.1" id="レイヤー_1" xmlns="http://www.w3.org/2000/svg" xmlns:xlink="http://www.w3.org/1999/xlink" x="0px"
	 y="0px" viewBox="0 0 29 23.6" style="enable-background:new 0 0 29 23.6;" xml:space="preserve">
<style type="text/css">
	.st0{fill:#333333;}
	.st1{fill:#47A738;stroke:#47A738;}
	.st2{fill:#FFFFFF;}
</style>
<rect y="-0.2" class="st1" width="29" height="24"/>
<g>
	<path class="st2" d="M5.5,17.2V6.5h3.3v1.3h-2v3.2h1.8v1.3H6.9v4.9H5.5z"/>
	<path class="st2" d="M10.8,17.2l2-10.8h1.4l2,10.8h-1.3l-0.4-2.4h-2l-0.4,2.4H10.8z M12.8,13.5h1.5L13.6,9h0L12.8,13.5z"/>
	<path class="st2" d="M18.1,17.2l1.9-5.7l-1.6-5h1.5l0.9,3.5l0,0l1-3.5h1.5l-1.6,5l1.9,5.7H22l-1.2-4h0l-1.2,4H18.1z"/>
</g>
</svg>
