<?xml version="1.0" encoding="utf-8"?>
<!-- Generator: Adobe Illustrator 21.1.0, SVG Export Plug-In . SVG Version: 6.00 Build 0)  -->
<svg version="1.1" id="レイヤー_1" xmlns="http://www.w3.org/2000/svg" xmlns:xlink="http://www.w3.org/1999/xlink" x="0px"
	 y="0px" viewBox="0 0 101.3 23.6" style="enable-background:new 0 0 101.3 23.6;" xml:space="preserve">
<style type="text/css">
	.st0{fill:#333333;}
</style>
<g>
	<g>
		<path class="st0" d="M9.8,6C9.7,5.9,9.2,5.1,9.2,5C8.7,4.1,8.6,4.1,8.6,3.8c0-0.5,0.6-0.9,1.3-0.9c0.6,0,0.7,0.2,1.3,1.2
			c0.3,0.4,0.7,1.1,0.7,1.5c0,0.3-0.1,0.4-0.2,0.5h3.1c0.4-0.8,0.5-0.9,1.1-2.2C16.1,3.3,16.4,3,17,3c0.7,0,1.4,0.4,1.4,1
			c0,0.4-0.6,1.5-0.9,2h0.7c2.2,0,2.2,1.7,2.2,2.4V10c0,0.3,0,1.1-1.1,1.1c-0.9,0-1.2-0.4-1.2-1.1V8.7c0-0.5-0.2-0.8-0.8-0.8H3.7
			c-0.6,0-0.8,0.3-0.8,0.8V10c0,0.3,0,1.1-1.1,1.1c-0.9,0-1.2-0.3-1.2-1.1V8.5C0.6,6.6,1.4,6,3.1,6h0.6C3.5,5.6,3.2,5.2,2.9,4.8
			C2.8,4.5,2.7,4.3,2.7,4.1c0-0.6,0.7-1,1.3-1c0.5,0,0.7,0.2,1.1,0.8C5.4,4.5,6,5.3,6,5.7C6,5.9,5.9,6,5.9,6H9.8z M5.7,15
			c-1.7,0-2.2-0.4-2.2-2.1v-1.3c0-1.7,0.4-2.1,2.2-2.1h9.4c1.7,0,2.1,0.4,2.1,2.1v1.3c0,1.7-0.4,2.1-2.1,2.1h-3.6
			c-0.1,0.3-0.4,1.4-0.5,1.6H17c1.5,0,2.2,0.6,2.2,2.2v2.1c0,1.6-0.6,2.2-2.2,2.2h-13c-1.5,0-2.2-0.5-2.2-2.2v-2.1
			c0-1.7,0.7-2.2,2.2-2.2h4.8C8.9,15.9,9,15.8,9.2,15H5.7z M16.9,19.2c0-0.5-0.2-0.7-0.7-0.7H4.7c-0.5,0-0.7,0.2-0.7,0.7v1.4
			c0,0.5,0.2,0.7,0.7,0.7h11.5c0.5,0,0.7-0.2,0.7-0.7V19.2z M15.1,11.9c0-0.4-0.2-0.6-0.6-0.6H6.4c-0.4,0-0.6,0.2-0.6,0.6v0.8
			c0,0.4,0.2,0.6,0.6,0.6h8.1c0.4,0,0.6-0.2,0.6-0.6V11.9z"/>
		<path class="st0" d="M33.7,6.1v-2c0-0.8,0.3-1.2,1.1-1.2c1,0,1,0.9,1,1.2v2h1.8v-2c0-0.7,0.2-1.2,1.1-1.2c1,0,1,0.9,1,1.2v2h1.6
			c0-0.1-0.1-0.2-0.1-0.4c0-0.3,0.1-0.4,0.2-0.5c0.4-0.5,0.5-0.7,0.6-0.9c0.5-1,0.7-1.1,1.3-1.1c0.5,0,1.2,0.3,1.2,0.9
			c0,0.4-0.6,1.5-1.1,2.1h2.5c0.5,0,1.1,0.2,1.1,1c0,0.5-0.4,0.9-1.1,0.9h-4.1c-0.3,1-0.3,1.1-0.6,1.8h4.1c0.2,0,1,0,1,0.9
			c0,0.9-0.8,0.9-1,0.9h-7.3v1.2h6.7c0.4,0,1,0.1,1,0.9c0,0.8-0.7,0.8-1,0.8h-6.7v1.3h8c0.5,0,1.1,0.2,1.1,0.9
			c0,0.9-0.9,0.9-1.1,0.9h-6.5c2,1.6,3.7,2.2,5.3,2.8c1.8,0.6,2,0.6,2,1.3c0,0.5-0.3,1.3-1.1,1.3c-0.3,0-4-0.8-7.7-4.3v3.8
			c0,0.8-0.4,1.2-1.2,1.2c-1.1,0-1.1-0.9-1.1-1.2v-3.8c-3.2,3.2-7.2,4.3-7.7,4.3c-0.9,0-1.1-1-1.1-1.3c0-0.7,0.2-0.7,1.9-1.3
			c1.3-0.4,3.1-1,5.4-2.8h-6.6c-0.5,0-1.1-0.2-1.1-0.9c0-0.9,0.9-0.9,1.1-0.9h8.1v-1.3H29c-0.4,0-1-0.1-1-0.9c0-0.7,0.6-0.8,1-0.8
			h6.7v-1.2h-7.3c-0.4,0-1-0.1-1-0.9c0-0.9,0.8-0.9,1-0.9h4.1C32.3,9.4,32,8.4,31.8,8h-4.1c-0.5,0-1.1-0.2-1.1-1
			c0-0.9,0.8-0.9,1.1-0.9h2.5c-0.2-0.3-1-1.7-1-2c0-0.5,0.6-0.9,1.1-0.9c0.5,0,0.7,0.2,1.1,0.8c0.3,0.4,0.8,1.2,0.8,1.6
			c0,0.2-0.1,0.4-0.2,0.5H33.7z M38.9,9.9c0.3-0.6,0.5-1.5,0.6-1.8h-5.4c0.1,0.3,0.5,1.6,0.6,1.8H38.9z"/>
		<path class="st0" d="M60.3,19.9c0,1.8-0.4,2.3-2.3,2.3h-2.2c-1.8,0-2.3-0.4-2.3-2.3V6.1c0-1.8,0.4-2.3,2.3-2.3h2.2
			c1.8,0,2.3,0.4,2.3,2.3V19.9z M58.3,12V6.6c0-0.4-0.2-0.6-0.6-0.6h-1.3c-0.4,0-0.6,0.2-0.6,0.6V12H58.3z M58.3,13.9h-2.6v5.6
			c0,0.4,0.2,0.6,0.6,0.6h1.3c0.4,0,0.6-0.2,0.6-0.6V13.9z M61.7,16c-0.3,0-1.1,0-1.1-1c0-0.8,0.3-1.1,1.1-1.1h7v-2.1h-7.2
			c-0.3,0-1.1,0-1.1-1c0-0.7,0.3-1.1,1.1-1.1h4.2V7.1h-3.6c-0.3,0-1.1,0-1.1-1c0-0.9,0.6-1,1.1-1h3.6V3.9c0-0.5,0.2-1,1.1-1
			c0.7,0,1.2,0.2,1.2,1v1.2h3.7c0.3,0,1.1,0,1.1,1c0,1-0.8,1-1.1,1H68v2.4h4.4c0.3,0,1.1,0,1.1,1c0,0.7-0.2,1.1-1,1.1H71v2.1h1.3
			c0.6,0,1,0.3,1,1.1c0,0.6-0.3,1.1-1,1.1H71v4.8c0,2.5-0.9,2.6-3.6,2.6c-1.4,0-2.2,0-2.2-1.3c0-1,0.7-1,1.1-1c0.2,0,1.3,0,1.5,0
			c0.6,0,1-0.1,1-1V16H61.7z M64.8,17.7c0.5,0.6,1.3,1.6,1.3,2.2c0,0.5-0.6,1.1-1.3,1.1c-0.5,0-0.7-0.2-1.1-0.9
			c-0.4-0.7-0.9-1.3-1.4-1.9C62.1,18,62,17.8,62,17.5c0-0.8,0.9-1,1.2-1.1C63.7,16.4,63.9,16.6,64.8,17.7z"/>
		<path class="st0" d="M82.4,22.6c0,0.3,0,1.1-1,1.1c-0.9,0-1.1-0.4-1.1-1.1V5.8c0-1.7,0.7-2.2,2.2-2.2h4.2c1.5,0,2.2,0.5,2.2,2.2
			v3.7c0,1.7-0.7,2.2-2.2,2.2h-4.2V22.6z M86.7,6.8V6c0-0.3-0.1-0.6-0.6-0.6H83c-0.5,0-0.6,0.3-0.6,0.6v0.7H86.7z M82.4,8.4v1.5H86
			c0.5,0,0.6-0.2,0.6-0.6V8.4H82.4z M94.7,19c0,1.7-0.7,2.2-2.2,2.2h-5.8c-1.5,0-2.2-0.5-2.2-2.2V15c0-1.7,0.7-2.2,2.2-2.2h5.8
			c1.5,0,2.2,0.5,2.2,2.2V19z M86.6,16.1h6v-1c0-0.4-0.2-0.6-0.6-0.6h-4.8c-0.4,0-0.6,0.2-0.6,0.6V16.1z M86.6,17.7v1.1
			c0,0.4,0.2,0.6,0.6,0.6H92c0.4,0,0.6-0.2,0.6-0.6v-1.1H86.6z M92.7,11.7c-1.6,0-2.2-0.6-2.2-2.2V5.8c0-1.7,0.7-2.2,2.2-2.2h4.1
			c1.6,0,2.2,0.6,2.2,2.2V21c0,2-0.6,2.4-2.9,2.4c-2.2,0-2.3-0.1-2.5-0.2c-0.3-0.1-0.6-0.5-0.6-1.1c0-1.1,0.7-1.1,1-1.1
			c0.3,0,1.7,0,2,0c0.6,0,0.9-0.1,0.9-0.7v-8.7H92.7z M92.6,6.8h4.3V6c0-0.4-0.2-0.6-0.6-0.6h-3.1c-0.4,0-0.6,0.2-0.6,0.6V6.8z
			 M96.9,8.4h-4.3v0.9c0,0.4,0.2,0.6,0.6,0.6h3.7V8.4z"/>
	</g>
</g>
</svg>
