<?xml version="1.0" encoding="utf-8"?>
<!-- Generator: Adobe Illustrator 21.1.0, SVG Export Plug-In . SVG Version: 6.00 Build 0)  -->
<svg version="1.1" id="レイヤー_1" xmlns="http://www.w3.org/2000/svg" xmlns:xlink="http://www.w3.org/1999/xlink" x="0px"
	 y="0px" viewBox="0 0 145.9 23.6" style="enable-background:new 0 0 145.9 23.6;" xml:space="preserve">
<style type="text/css">
	.st0{fill:#333333;}
	.st1{fill:#47A738;stroke:#47A738;}
	.st2{fill:#FFFFFF;}
</style>
<g>
	<g>
		<path class="st0" d="M9.7,22.1c0,0.3,0,0.9-0.9,0.9c-0.8,0-1-0.4-1-0.9v-7.2c-3,1.5-5.4,2.2-6,2.2c-0.8,0-0.9-0.8-0.9-1
			c0-0.6,0.4-0.7,0.9-0.8c1.2-0.3,6.1-1.7,9.8-5c0.4-0.3,0.9-0.9,1.3-1.2c0.2-0.2,0.4-0.3,0.6-0.3c0.5,0,1,0.4,1,1
			c0,0.3-0.1,0.5-0.5,0.8c-1.4,1.3-2.6,2.2-4.4,3.2V22.1z"/>
		<path class="st0" d="M26.2,13.5c-0.8-1-1.1-1.1-1.3-1.1c-0.4,0-0.6,0.2-1.2,1.2c-0.6,0.9-1.1,1.7-1.7,2.6
			c-0.9,1.4-1.2,1.8-1.8,1.8c-0.5,0-1-0.5-1-1c0-0.4,0.1-0.5,0.7-1.2c0.6-0.7,0.8-1,2.5-3.5c0.7-1,1.3-1.7,2.4-1.7
			c1.2,0,1.8,0.7,3.1,2.4c3.2,4,3.4,4.2,5.5,6.6c0.4,0.5,0.6,0.7,0.6,1.1c0,0.7-0.6,1.1-1.1,1.1c-0.4,0-0.7-0.3-1.1-0.7
			c-0.8-0.9-0.9-1-3.8-4.8L26.2,13.5z M29.5,10.8c-0.1-0.1-0.1-0.2-0.1-0.3c0-0.3,0.3-0.4,0.6-0.4c0.2,0,0.3,0,0.8,0.8
			c0.2,0.3,0.5,0.9,0.5,1.2c0,0.4-0.4,0.5-0.6,0.5c-0.2,0-0.3-0.1-0.4-0.2c-0.1-0.1-0.3-0.7-0.4-0.8C29.8,11.4,29.6,10.9,29.5,10.8z
			 M31.4,10.3c-0.1-0.1-0.1-0.2-0.1-0.3c0-0.3,0.3-0.5,0.6-0.5c0.3,0,0.4,0.1,0.8,0.8c0.2,0.3,0.5,0.9,0.5,1.1
			c0,0.3-0.3,0.5-0.5,0.5c-0.2,0-0.4-0.1-0.5-0.3c-0.1-0.1-0.3-0.6-0.3-0.7C31.7,10.9,31.5,10.4,31.4,10.3z"/>
		<path class="st0" d="M41.6,10.7c0.8,0.5,2.7,1.6,3.1,2c0.2,0.2,0.3,0.4,0.3,0.6c0,0.4-0.5,1-0.9,1c-0.4,0-0.5-0.1-2.1-1.2
			c-0.7-0.5-1.8-1.1-2.8-1.6c-0.3-0.2-0.7-0.4-0.7-0.8c0-0.6,0.5-0.9,0.8-0.9C39.7,9.7,40.1,9.8,41.6,10.7z M52,12
			c0,0.7-1.4,4.1-3,6.1c-2,2.4-4.4,3.3-6.5,3.8c-1,0.3-2.1,0.4-2.5,0.4c-1,0-1-0.8-1-1c0-0.7,0.4-0.8,1.1-0.9
			c5.1-0.6,8.1-2.6,10.1-8.3c0.2-0.7,0.3-1,0.9-1c0.1,0,0.3,0,0.4,0C51.6,11.3,52,11.5,52,12z"/>
		<path class="st0" d="M60.3,22.1c0,0.3,0,0.9-0.9,0.9c-0.9,0-1-0.6-1-0.9V9.6c0-0.3,0-0.9,0.9-0.9c0.9,0,1,0.6,1,0.9v3.2
			c2.2,0.7,4.4,1.6,6.5,2.6c1.3,0.7,1.5,0.9,1.5,1.3c0,0.4-0.3,1.1-0.9,1.1c-0.3,0-0.6-0.2-1.5-0.7c-0.9-0.5-2.4-1.3-3.3-1.6
			c-1.1-0.5-1.7-0.7-2.3-0.8V22.1z"/>
		<path class="st0" d="M74.6,22.6c0,0.2,0,0.8-0.8,0.8c-0.6,0-0.8-0.3-0.8-0.8v-12C73,9.3,73.5,9,74.6,9h3.1c1.1,0,1.6,0.4,1.6,1.6
			v2.1c0,1.2-0.4,1.6-1.6,1.6h-3.1V22.6z M77.8,11.1v-0.4c0-0.3-0.1-0.4-0.4-0.4H75c-0.4,0-0.4,0.3-0.4,0.4v0.4H77.8z M77.8,12.2
			h-3.2v0.9h2.8c0.3,0,0.4-0.2,0.4-0.4V12.2z M84,18c0.2,0,0.7,0,0.7,0.7s-0.5,0.7-0.7,0.7h-1.4v3c0,0.2,0,0.8-0.8,0.8
			c-0.8,0-0.8-0.5-0.8-0.8v-3h-2.1c-0.1,0.9-0.4,1.8-1,2.5c-0.2,0.3-0.9,1.1-1.4,1.1c-0.4,0-0.9-0.4-0.9-0.8c0-0.3,0.2-0.4,0.3-0.6
			c0.5-0.5,1.1-1,1.3-2.2h-1.5c-0.2,0-0.7,0-0.7-0.7s0.5-0.7,0.7-0.7h1.6v-1.5h-1.2c-0.1,0-0.7,0-0.7-0.7c0-0.7,0.5-0.7,0.7-0.7h7.4
			c0.2,0,0.7,0,0.7,0.7c0,0.5-0.2,0.7-0.7,0.7h-1.1V18H84z M81.1,18v-1.5h-2V18H81.1z M82.2,14.3c-1.1,0-1.6-0.4-1.6-1.6v-2.1
			C80.6,9.4,81,9,82.2,9h3.2c1.1,0,1.6,0.4,1.6,1.6v11c0,1.7-0.6,1.7-2.6,1.7c-0.5,0-1.2,0-1.2-0.9c0-0.8,0.6-0.8,0.8-0.8
			c0.2,0,0.9,0,1.1,0c0.3,0,0.4-0.2,0.4-0.5v-6.7H82.2z M82.1,11.1h3.2v-0.4c0-0.3-0.1-0.4-0.4-0.4h-2.3c-0.4,0-0.4,0.3-0.4,0.4
			V11.1z M82.1,12.2v0.5c0,0.3,0.1,0.4,0.4,0.4h2.8v-0.9H82.1z"/>
		<path class="st0" d="M95,22.6c0,0.2,0,0.8-0.8,0.8c-0.8,0-0.8-0.5-0.8-0.8v-7c-0.5,0.6-0.6,0.8-1,0.8c-0.5,0-0.8-0.4-0.8-1
			c0-0.3,0.1-0.5,0.2-0.6c1-1.5,1.4-2,2.1-4c0.1-0.3,0.6-2.1,0.6-2.1c0.1-0.2,0.2-0.4,0.7-0.4c0.2,0,0.9,0,0.9,0.7
			c0,0.4-0.4,1.9-1,3.4V22.6z M97,17.1c-0.5,0.6-0.8,0.8-1.1,0.8c-0.4,0-0.8-0.4-0.8-0.8c0-0.2,0.1-0.4,0.2-0.6
			c1-1.1,1.3-1.4,1.8-2.3c0.1-0.2,0.6-1.3,0.8-1.6c-1.1,0-1.5-0.3-1.5-1.7V9.7c0-0.4,0.2-0.8,0.8-0.8c0.7,0,0.7,0.6,0.7,0.8v1.1
			c0,0.3,0.1,0.4,0.4,0.4h2V9c0-0.5,0.2-0.8,0.8-0.8c0.7,0,0.7,0.6,0.7,0.8v2.2h2c0.3,0,0.4-0.2,0.4-0.4V9.7c0-0.5,0.2-0.8,0.8-0.8
			c0.7,0,0.7,0.6,0.7,0.8V11c0,1.3-0.3,1.7-1.6,1.7h-1.6c0.2,0.1,0.4,0.3,0.4,0.5c0,0.2,0,0.2-0.4,0.9h2.8c0.4,0,0.8,0.2,0.8,0.6
			c0,0.6-0.5,0.6-0.8,0.6h-2.9v1.2h2.6c0.4,0,0.7,0.1,0.7,0.6c0,0.6-0.5,0.6-0.7,0.6h-2.6v1.3h2.6c0.4,0,0.7,0.2,0.7,0.6
			c0,0.6-0.5,0.6-0.7,0.6h-2.6v1.4h3.1c0.5,0,0.8,0.2,0.8,0.7c0,0.6-0.4,0.7-0.8,0.7h-7.2c-1.1,0-1.6-0.4-1.6-1.6V17.1z M98.6,16.6
			h2.5v-1.2h-2.1c-0.3,0-0.4,0.2-0.4,0.4V16.6z M101.2,17.8h-2.5v1.3h2.5V17.8z M101.2,21.7v-1.4h-2.5v0.9c0,0.3,0.1,0.4,0.4,0.4
			H101.2z M101.1,14.1c0.1-0.2,0.5-1,0.6-1.2c0.1-0.2,0.2-0.2,0.3-0.3h-2.9c0.1,0.1,0.2,0.2,0.2,0.5c0,0.3-0.3,0.8-0.3,1H101.1z"/>
		<path class="st0" d="M116.3,20.7c0,1.3-0.3,1.6-1.6,1.6H113c-1.3,0-1.6-0.3-1.6-1.6v-10c0-1.3,0.3-1.6,1.6-1.6h1.6
			c1.3,0,1.6,0.3,1.6,1.6V20.7z M114.8,14.9V11c0-0.3-0.2-0.4-0.4-0.4h-1c-0.3,0-0.4,0.1-0.4,0.4v3.9H114.8z M114.8,16.3h-1.9v4.1
			c0,0.3,0.1,0.4,0.4,0.4h1c0.3,0,0.4-0.1,0.4-0.4V16.3z M117.2,17.9c-0.2,0-0.8,0-0.8-0.7c0-0.6,0.2-0.8,0.8-0.8h5.1v-1.6h-5.3
			c-0.2,0-0.8,0-0.8-0.8c0-0.5,0.2-0.8,0.8-0.8h3.1v-1.8h-2.6c-0.2,0-0.8,0-0.8-0.7c0-0.7,0.4-0.8,0.8-0.8h2.6V9
			c0-0.4,0.1-0.8,0.8-0.8c0.5,0,0.9,0.1,0.9,0.8v0.8h2.7c0.2,0,0.8,0,0.8,0.8c0,0.7-0.6,0.7-0.8,0.7h-2.7v1.8h3.2
			c0.2,0,0.8,0,0.8,0.8c0,0.5-0.2,0.8-0.8,0.8H124v1.6h0.9c0.5,0,0.8,0.2,0.8,0.8c0,0.5-0.2,0.8-0.8,0.8H124v3.5
			c0,1.8-0.7,1.9-2.6,1.9c-1,0-1.6,0-1.6-0.9c0-0.8,0.5-0.8,0.8-0.8c0.2,0,1,0,1.1,0c0.4,0,0.8-0.1,0.8-0.8v-3H117.2z M119.5,19.1
			c0.4,0.4,0.9,1.2,0.9,1.6c0,0.4-0.4,0.8-1,0.8c-0.4,0-0.5-0.1-0.8-0.7c-0.3-0.5-0.7-0.9-1-1.4c-0.1-0.1-0.2-0.3-0.2-0.5
			c0-0.6,0.6-0.7,0.8-0.8C118.7,18.1,118.8,18.3,119.5,19.1z"/>
		<path class="st0" d="M132.3,22.6c0,0.2,0,0.8-0.8,0.8c-0.6,0-0.8-0.3-0.8-0.8V10.4c0-1.2,0.5-1.6,1.6-1.6h3c1.1,0,1.6,0.4,1.6,1.6
			v2.7c0,1.2-0.5,1.6-1.6,1.6h-3V22.6z M135.4,11.1v-0.5c0-0.2-0.1-0.4-0.4-0.4h-2.2c-0.4,0-0.4,0.2-0.4,0.4v0.5H135.4z M132.3,12.3
			v1.1h2.7c0.3,0,0.4-0.2,0.4-0.4v-0.6H132.3z M141.3,20c0,1.2-0.5,1.6-1.6,1.6h-4.2c-1.1,0-1.6-0.4-1.6-1.6v-2.9
			c0-1.2,0.5-1.6,1.6-1.6h4.2c1.1,0,1.6,0.4,1.6,1.6V20z M135.4,17.9h4.4v-0.7c0-0.3-0.1-0.4-0.4-0.4h-3.5c-0.3,0-0.4,0.1-0.4,0.4
			V17.9z M135.4,19v0.8c0,0.3,0.2,0.4,0.4,0.4h3.5c0.3,0,0.4-0.2,0.4-0.4V19H135.4z M139.8,14.7c-1.1,0-1.6-0.4-1.6-1.6v-2.7
			c0-1.2,0.5-1.6,1.6-1.6h3c1.2,0,1.6,0.4,1.6,1.6v11c0,1.5-0.4,1.8-2.1,1.8c-1.6,0-1.7,0-1.8-0.1c-0.2-0.1-0.5-0.4-0.5-0.8
			c0-0.8,0.5-0.8,0.8-0.8c0.2,0,1.2,0,1.4,0c0.4,0,0.6,0,0.6-0.5v-6.3H139.8z M139.8,11.1h3.1v-0.5c0-0.3-0.1-0.4-0.4-0.4h-2.2
			c-0.3,0-0.4,0.2-0.4,0.4V11.1z M142.9,12.3h-3.1V13c0,0.3,0.1,0.4,0.4,0.4h2.7V12.3z"/>
	</g>
</g>
</svg>
