<?xml version="1.0" encoding="utf-8"?>
<!-- Generator: Adobe Illustrator 21.1.0, SVG Export Plug-In . SVG Version: 6.00 Build 0)  -->
<svg version="1.1" id="レイヤー_1" xmlns="http://www.w3.org/2000/svg" xmlns:xlink="http://www.w3.org/1999/xlink" x="0px"
	 y="0px" viewBox="0 0 114.3 23.6" style="enable-background:new 0 0 114.3 23.6;" xml:space="preserve">
<style type="text/css">
	.st0{fill:#333333;}
</style>
<g>
	<g>
		<path class="st0" d="M15.3,5.2c2,0,2.9,0.7,2.9,2.9v10.5c0,2.2-0.9,2.9-2.9,2.9H3.7c-2,0-2.9-0.7-2.9-2.9V8.1
			c0-2.2,0.9-2.9,2.9-2.9H15.3z M4.5,7.5c-0.8,0-1.1,0.4-1.1,1.1V18c0,0.9,0.4,1.1,1.1,1.1h10.1c0.7,0,1.1-0.3,1.1-1.1V8.6
			c0-0.7-0.4-1.1-1.1-1.1H4.5z"/>
		<path class="st0" d="M41.1,6.7c1.8,0,2.6,0.7,2.6,2.4c0,2.3-0.4,6.8-3.6,9.7c-2.2,2-4.9,3-7.3,3.5c-0.9,0.2-1.9,0.3-2.3,0.3
			c-1.3,0-1.4-0.9-1.4-1.3c0-0.9,0.7-1,1.6-1.1c7.3-1,10.4-4.7,10.4-10.5c0-0.7-0.2-0.8-1-0.8H30.1C29.3,9,29,9.3,29,10.1v3.3
			c0,0.5-0.1,1.2-1.2,1.2c-0.9,0-1.3-0.4-1.3-1.2V9.6c0-2,0.7-2.9,2.9-2.9h4.4v-2c0-0.5,0.1-1.2,1.3-1.2c1,0,1.3,0.5,1.3,1.2v2H41.1
			z"/>
		<path class="st0" d="M54.4,15.2c0,0.5-0.1,1.2-1.3,1.2c-0.9,0-1.3-0.4-1.3-1.2v-10c0-0.5,0.1-1.2,1.3-1.2c0.9,0,1.3,0.4,1.3,1.2
			V15.2z M65.8,13.5c0,2.1-0.2,6.6-6.6,8.5c-2.2,0.7-4.2,0.7-4.7,0.7c-0.2,0-1.4,0-1.4-1.3c0-1,0.6-1.1,2.2-1.2
			c3.7-0.4,5.5-1.1,6.7-2.7c1.1-1.4,1.2-2.7,1.2-4V5c0-0.5,0.1-1.2,1.3-1.2c0.9,0,1.3,0.4,1.3,1.2V13.5z"/>
		<path class="st0" d="M88,19.4c0.3,0,1.1,0,1.1,1.1c0,1.1-0.9,1.1-1.1,1.1H74.3c-0.3,0-1.1,0-1.1-1.1c0-1.1,0.7-1.1,1.1-1.1h8.3
			c0.4-2.3,0.9-6.9,0.9-7.9c0-0.6-0.2-0.7-0.8-0.7H76c-0.4,0-1.1-0.1-1.1-1.1c0-0.9,0.6-1.1,1.1-1.1h7.9c0.5,0,2,0,2,2
			c0,0.2-0.1,2.9-0.9,8.8H88z"/>
		<path class="st0" d="M111,6.7c1.8,0,2.6,0.7,2.6,2.4c0,2.3-0.4,6.8-3.6,9.7c-2.2,2-4.9,3-7.3,3.5c-0.9,0.2-1.9,0.3-2.3,0.3
			c-1.3,0-1.4-0.9-1.4-1.3c0-0.9,0.7-1,1.6-1.1c7.3-1,10.4-4.7,10.4-10.5c0-0.7-0.2-0.8-1-0.8H99.9c-0.7,0-1.1,0.4-1.1,1.1v3.3
			c0,0.5-0.1,1.2-1.2,1.2c-0.9,0-1.3-0.4-1.3-1.2V9.6c0-2,0.7-2.9,2.9-2.9h4.4v-2c0-0.5,0.1-1.2,1.3-1.2c1,0,1.3,0.5,1.3,1.2v2H111z
			"/>
	</g>
</g>
</svg>
