<?xml version="1.0" encoding="utf-8"?>
<!-- Generator: Adobe Illustrator 21.1.0, SVG Export Plug-In . SVG Version: 6.00 Build 0)  -->
<svg version="1.1" id="レイヤー_1" xmlns="http://www.w3.org/2000/svg" xmlns:xlink="http://www.w3.org/1999/xlink" x="0px"
	 y="0px" viewBox="0 0 15.5 15.2" style="enable-background:new 0 0 15.5 15.2;" xml:space="preserve">
<style type="text/css">
	.st0{fill:#DC5519;}
</style>
<g>
	<path class="st0" d="M13.4,6.9L9.6,7.8c0-0.2-0.1-0.4-0.1-0.6l3.8-0.9c1-1.1,1.3-2.5,0.6-3.4c-0.7-0.9-2.1-0.9-3.4-0.1L8.8,6.4
		C8.6,6.2,8.5,6.2,8.3,6.1L10,2.6C9.8,1.1,8.9,0,7.7,0c-1.1,0-2,1.1-2.2,2.6l1.7,3.5C7,6.2,6.8,6.2,6.7,6.4L5,2.8
		C3.7,2.1,2.3,2.1,1.6,3C0.9,3.8,1.2,5.3,2.2,6.3L6,7.2C5.9,7.4,5.9,7.6,5.9,7.8L2.1,6.9C0.7,7.4-0.2,8.6,0,9.7
		c0.2,1.1,1.5,1.7,3,1.6l3.1-2.4C6.2,9,6.3,9.1,6.5,9.3l-3.1,2.4C3,13.1,3.3,14.5,4.3,15c1,0.5,2.3-0.1,3.1-1.3V9.7
		c0.1,0,0.2,0,0.3,0s0.2,0,0.3,0v3.9c0.8,1.2,2.1,1.8,3.1,1.3c1-0.5,1.4-1.9,0.9-3.3L9,9.3C9.1,9.1,9.3,9,9.4,8.8l3.1,2.4
		c1.5,0.1,2.8-0.5,3-1.6C15.7,8.6,14.8,7.4,13.4,6.9z M7.7,9.3C7,9.3,6.3,8.7,6.3,7.9c0-0.8,0.6-1.4,1.4-1.4c0.8,0,1.4,0.6,1.4,1.4
		C9.1,8.7,8.5,9.3,7.7,9.3z"/>
</g>
</svg>
