<?xml version="1.0" encoding="utf-8"?>
<!-- Generator: Adobe Illustrator 16.0.3, SVG Export Plug-In . SVG Version: 6.00 Build 0)  -->
<!DOCTYPE svg PUBLIC "-//W3C//DTD SVG 1.1//EN" "http://www.w3.org/Graphics/SVG/1.1/DTD/svg11.dtd">
<svg version="1.1" id="レイヤー_1" xmlns="http://www.w3.org/2000/svg" xmlns:xlink="http://www.w3.org/1999/xlink" x="0px"
	 y="0px" width="53px" height="75px" viewBox="0 0 53 75" enable-background="new 0 0 53 75" xml:space="preserve">
<g>
	<g>
		<path fill="#FAC959" d="M1.5,27.186c0,13.887,11.022,21.592,24.619,21.592c13.601,0,24.625-7.705,24.625-21.592
			C50.744,13.301,39.72,1.5,26.119,1.5C12.522,1.5,1.5,13.301,1.5,27.186z"/>
		<path fill="#231815" d="M26.119,50.277C10.497,50.277,0,40.997,0,27.186C0,12.195,11.717,0,26.119,0
			c14.405,0,26.125,12.195,26.125,27.186C52.244,40.997,41.745,50.277,26.119,50.277z M26.119,3C13.587,3,3,14.075,3,27.186
			c0,13.879,11.611,20.092,23.119,20.092c11.511,0,23.125-6.213,23.125-20.092C49.244,14.075,38.654,3,26.119,3z"/>
	</g>
	<g>
		<path fill="#FFFFFF" d="M2.332,73.496c0,0,0.001-12.875,3.129-18.742c4.791-8.996,16.213-10.959,16.213-10.959h8.888
			c0,0,11.423,1.963,16.215,10.959c3.126,5.867,3.129,18.742,3.129,18.742"/>
		<path fill="#231815" d="M2.332,74.996L2.332,74.996c-0.829,0-1.5-0.672-1.5-1.5c0-0.541,0.039-13.32,3.305-19.448
			c5.078-9.534,16.787-11.646,17.283-11.731c0.084-0.015,0.169-0.021,0.254-0.021h8.888c0.086,0,0.17,0.007,0.254,0.021
			c0.496,0.085,12.205,2.197,17.284,11.732c3.265,6.127,3.306,18.906,3.306,19.447c0,0.828-0.672,1.5-1.5,1.5l0,0
			c-0.828,0-1.5-0.671-1.5-1.499c0-0.126-0.04-12.571-2.953-18.038c-4.133-7.761-13.867-9.93-15.032-10.164h-8.605
			c-1.158,0.232-10.896,2.4-15.031,10.164c-2.917,5.474-2.953,17.912-2.953,18.037C3.832,74.324,3.16,74.996,2.332,74.996z"/>
	</g>
	<g>
		<path fill="#4593D0" d="M11.009,73.496l-0.325-24.844c0,0,2.975-2.758,9.671-4.576l5.761,13.633l5.714-13.648
			c6.343,1.639,9.722,4.592,9.722,4.592l-0.324,24.844"/>
		<path fill="#231815" d="M41.228,74.996c-0.006,0-0.013,0-0.02,0c-0.828-0.011-1.491-0.691-1.48-1.52l0.314-24.097
			c-1.022-0.74-3.527-2.352-7.341-3.516L27.5,58.288c-0.233,0.557-0.777,0.92-1.381,0.921c-0.001,0-0.001,0-0.002,0
			c-0.603,0-1.147-0.36-1.382-0.916L19.493,45.89c-3.97,1.237-6.341,2.769-7.3,3.476l0.316,24.111
			c0.011,0.828-0.652,1.509-1.48,1.52c-0.006,0-0.013,0-0.02,0c-0.819,0-1.489-0.658-1.5-1.48L9.184,48.672
			c-0.005-0.424,0.169-0.831,0.48-1.119c0.132-0.123,3.326-3.031,10.298-4.924c0.721-0.201,1.482,0.171,1.775,0.863L26.11,53.84
			l4.336-10.358c0.289-0.688,1.039-1.058,1.759-0.873c6.61,1.708,10.185,4.784,10.333,4.914c0.332,0.29,0.52,0.71,0.514,1.149
			l-0.324,24.844C42.717,74.337,42.048,74.996,41.228,74.996z"/>
	</g>
	<g>
		<path fill="#FFFFFF" d="M8.446,26.701c0,10.172,7.914,18.414,17.674,18.414c9.766,0,17.681-8.242,17.681-18.414
			S35.886,8.287,26.12,8.287C16.36,8.287,8.446,16.529,8.446,26.701z"/>
		<path fill="#231815" d="M26.12,46.615c-10.573,0-19.174-8.934-19.174-19.914S15.547,6.787,26.12,6.787
			c10.576,0,19.181,8.934,19.181,19.914S36.696,46.615,26.12,46.615z M26.12,9.787c-8.918,0-16.174,7.588-16.174,16.914
			s7.256,16.914,16.174,16.914c8.922,0,16.181-7.588,16.181-16.914S35.042,9.787,26.12,9.787z"/>
	</g>
	<g>
		<path fill="#231815" d="M26.053,36.781c-2.625,0-5.708-1.609-6.254-4.592c-0.099-0.543,0.261-1.064,0.804-1.163
			c0.542-0.104,1.064,0.261,1.164,0.804c0.351,1.917,2.47,2.951,4.286,2.951c2.023,0,4.055-1.374,4.437-3
			c0.127-0.538,0.664-0.868,1.202-0.745c0.538,0.127,0.871,0.665,0.745,1.202C31.839,34.786,29.034,36.781,26.053,36.781z"/>
	</g>
	<g>
		<path fill="#231815" d="M18.706,24.021c0,0.996,0.809,1.807,1.804,1.807c1.002,0,1.811-0.811,1.811-1.807
			c0-1.002-0.809-1.813-1.811-1.813C19.514,22.209,18.706,23.02,18.706,24.021z"/>
	</g>
	<g>
		<path fill="#231815" d="M33.542,24.021c0,0.996-0.809,1.807-1.805,1.807c-1.002,0-1.811-0.811-1.811-1.807
			c0-1.002,0.809-1.813,1.811-1.813C32.733,22.209,33.542,23.02,33.542,24.021z"/>
	</g>
	<g>
		<path fill="#FAC959" d="M26.12,8.287c-7.441,0-13.795,4.797-16.402,11.58c3.746-0.061,17.188-1.746,23.729-9.91
			C31.212,8.895,28.737,8.287,26.12,8.287z"/>
		<path fill="#231815" d="M9.718,21.367c-0.489,0-0.949-0.239-1.229-0.641c-0.286-0.408-0.35-0.933-0.171-1.397
			C11.246,11.71,18.234,6.787,26.12,6.787c2.756,0,5.438,0.61,7.971,1.815c0.414,0.196,0.716,0.572,0.818,1.019
			c0.103,0.447-0.005,0.916-0.291,1.274c-6.707,8.369-20.231,10.396-24.876,10.472C9.734,21.367,9.726,21.367,9.718,21.367z
			 M26.12,9.787c-5.84,0-11.102,3.229-13.97,8.402c4.87-0.556,13.462-2.526,18.735-7.645C29.341,10.042,27.745,9.787,26.12,9.787z"
			/>
	</g>
	<g>
		<path fill="#4593D0" d="M26.077,48.934c0,0-5.299-5.146-6.396-2.186c-0.541,1.457-0.209,5.27,1.144,5.506
			C22.676,52.576,26.077,48.934,26.077,48.934z"/>
		<path fill="#231815" d="M21.068,53.774L21.068,53.774c-0.172,0-0.339-0.015-0.5-0.043c-0.517-0.09-1.25-0.402-1.811-1.379
			c-0.942-1.641-1.033-4.641-0.481-6.126c0.446-1.205,1.417-1.896,2.665-1.896c2.366,0,5.33,2.7,6.183,3.527
			c0.586,0.569,0.608,1.503,0.051,2.1C26.337,50.853,23.427,53.774,21.068,53.774z M21.071,47.341
			c-0.267,0.923-0.093,2.719,0.217,3.396c0.567-0.165,1.583-0.861,2.581-1.746C22.819,48.151,21.686,47.438,21.071,47.341z"/>
	</g>
	<g>
		<path fill="#4593D0" d="M26.1,48.934c0,0,5.3-5.146,6.397-2.186c0.539,1.457,0.209,5.27-1.145,5.506
			C29.5,52.576,26.1,48.934,26.1,48.934z"/>
		<path fill="#231815" d="M31.109,53.774c-2.36,0-5.271-2.922-6.106-3.817c-0.557-0.597-0.534-1.53,0.052-2.1
			c0.852-0.827,3.817-3.527,6.183-3.527c1.248,0,2.219,0.691,2.666,1.896c0.551,1.487,0.459,4.487-0.482,6.127
			c-0.561,0.976-1.294,1.288-1.81,1.378C31.448,53.76,31.282,53.774,31.109,53.774z M31.109,50.774v1.5l0.003-1.5
			C31.11,50.774,31.11,50.774,31.109,50.774z M28.308,48.989c0.999,0.886,2.016,1.582,2.582,1.747
			c0.315-0.69,0.492-2.539,0.225-3.394C30.485,47.443,29.354,48.153,28.308,48.989z"/>
	</g>
	<g>
		<ellipse fill="#F6C7CE" cx="15.042" cy="28.971" rx="2.17" ry="1.447"/>
	</g>
	<g>
		<ellipse fill="#F6C7CE" cx="37.007" cy="28.971" rx="2.17" ry="1.447"/>
	</g>
</g>
</svg>
