<?xml version="1.0" encoding="utf-8"?>
<!-- Generator: Adobe Illustrator 16.0.3, SVG Export Plug-In . SVG Version: 6.00 Build 0)  -->
<!DOCTYPE svg PUBLIC "-//W3C//DTD SVG 1.1//EN" "http://www.w3.org/Graphics/SVG/1.1/DTD/svg11.dtd">
<svg version="1.1" id="レイヤー_1" xmlns="http://www.w3.org/2000/svg" xmlns:xlink="http://www.w3.org/1999/xlink" x="0px"
	 y="0px" width="70px" height="77px" viewBox="0 0 70 77" enable-background="new 0 0 70 77" xml:space="preserve">
<g>
	<g>
		<g>
			<rect x="1.5" y="1.5" fill="#FFFBDA" width="52.833" height="67.445"/>
			<path fill="#231815" d="M54.333,70.445H1.5c-0.829,0-1.5-0.672-1.5-1.5V1.5C0,0.672,0.671,0,1.5,0h52.833
				c0.829,0,1.5,0.672,1.5,1.5v67.445C55.833,69.773,55.162,70.445,54.333,70.445z M3,67.445h49.833V3H3V67.445z"/>
		</g>
		<g>
			<path fill="#231815" d="M40.962,16.184H14.715c-0.552,0-1-0.447-1-1s0.448-1,1-1h26.247c0.552,0,1,0.447,1,1
				S41.514,16.184,40.962,16.184z"/>
		</g>
		<g>
			<path fill="#231815" d="M40.962,26.211H14.715c-0.552,0-1-0.447-1-1s0.448-1,1-1h26.247c0.552,0,1,0.447,1,1
				S41.514,26.211,40.962,26.211z"/>
		</g>
		<g>
			<path fill="#231815" d="M40.962,36.24H14.715c-0.552,0-1-0.447-1-1s0.448-1,1-1h26.247c0.552,0,1,0.447,1,1
				S41.514,36.24,40.962,36.24z"/>
		</g>
		<g>
			<path fill="#231815" d="M40.962,46.268H14.715c-0.552,0-1-0.447-1-1s0.448-1,1-1h26.247c0.552,0,1,0.447,1,1
				S41.514,46.268,40.962,46.268z"/>
		</g>
		<g>
			<path fill="#231815" d="M40.962,56.297H14.715c-0.552,0-1-0.447-1-1s0.448-1,1-1h26.247c0.552,0,1,0.447,1,1
				S41.514,56.297,40.962,56.297z"/>
		</g>
	</g>
	<g>
		<g>
			<g>
				<path fill="#FAC959" d="M68.125,38.123c0.11,4.104,0.02,11.594-0.029,11.82c-0.036,0.158-0.147,0.385-0.271,0.611
					c-0.079,0.158-0.154,0.316-0.219,0.447c-0.628,1.283-10.559,21.543-10.559,21.543s-0.416,0.867-0.687,1.289
					c-0.367,0.584-0.879,0.84-1.43,1.068c-0.659,0.277-2.288,0.596-4.208,0.035c0,0-0.975-0.301-1.773-0.689
					c-0.793-0.391-1.585-0.961-1.585-0.961c-1.622-1.172-2.366-2.65-2.552-3.346c-0.152-0.576-0.266-1.139-0.031-1.783
					c0.17-0.475,0.605-1.336,0.605-1.336s9.963-20.314,10.592-21.596c0.156-0.32,0.416-0.828,0.6-1.049
					c0.174-0.215,6.137-4.895,9.412-7.301c1.561-1.143,1.668-1.146,1.824-1.068C67.988,35.891,68.074,36.199,68.125,38.123z"/>
				<path fill="#231815" d="M52.865,76.747c-0.86,0-1.723-0.124-2.563-0.37c-0.066-0.02-1.117-0.346-2.009-0.78
					c-0.9-0.444-1.769-1.065-1.805-1.092c-1.84-1.329-2.832-3.08-3.125-4.177c-0.143-0.538-0.408-1.537,0.009-2.683
					c0.192-0.539,0.627-1.403,0.676-1.5l10.583-21.58c0.418-0.853,0.652-1.176,0.791-1.344c0.408-0.504,7.539-5.98,9.681-7.554
					c1.44-1.055,1.928-1.388,2.609-1.388c0.27,0,0.522,0.062,0.774,0.188c1.055,0.497,1.084,1.604,1.138,3.615
					c0.085,3.152,0.062,11.599-0.062,12.174c-0.068,0.302-0.193,0.601-0.422,1.019l-0.188,0.385
					c-0.629,1.284-10.56,21.545-10.56,21.545c-0.04,0.085-0.459,0.953-0.771,1.439c-0.571,0.908-1.355,1.327-2.117,1.644
					C54.814,76.579,53.85,76.747,52.865,76.747z M57.703,45.182c-0.067,0.106-0.194,0.33-0.378,0.704L46.733,67.482
					c-0.16,0.317-0.438,0.9-0.54,1.182c-0.076,0.209-0.06,0.408,0.068,0.893c0.1,0.372,0.65,1.553,1.98,2.515
					c0.004,0.003,0.705,0.503,1.37,0.831c0.563,0.274,1.312,0.527,1.552,0.602c0.546,0.159,1.125,0.243,1.701,0.243
					c0.744,0,1.283-0.143,1.484-0.228c0.459-0.19,0.625-0.299,0.74-0.484c0.168-0.261,0.459-0.835,0.604-1.139
					c0.006-0.012,9.937-20.271,10.563-21.554l0.225-0.459c0.055-0.102,0.098-0.18,0.129-0.245c0.043-1.161,0.115-7.525,0.017-11.368
					C63.518,40.568,58.496,44.506,57.703,45.182z"/>
			</g>
			<g>
				<path fill="#4593D0" d="M67.605,51.002c0.064-0.131,0.14-0.289,0.219-0.447c0.098-0.188,0.185-0.363,0.234-0.512
					c0,0-2.822,0.426-6.602-1.438c-4.065-2.002-5-4.254-5-4.254c-0.163,0.254-0.354,0.623-0.479,0.875
					c-0.629,1.281-10.592,21.596-10.592,21.596s-0.436,0.861-0.605,1.336c-0.234,0.645-0.121,1.207,0.031,1.783
					c0.186,0.695,0.93,2.174,2.552,3.346c0,0,0.792,0.57,1.585,0.961c0.799,0.389,1.773,0.689,1.773,0.689
					c1.92,0.561,3.549,0.242,4.208-0.035c0.551-0.229,1.063-0.484,1.43-1.068c0.271-0.422,0.687-1.289,0.687-1.289
					S66.978,52.285,67.605,51.002z"/>
				<path fill="#231815" d="M52.865,76.747L52.865,76.747c-0.86,0-1.723-0.124-2.563-0.37c-0.066-0.02-1.117-0.346-2.009-0.78
					c-0.9-0.444-1.769-1.065-1.805-1.092c-1.84-1.329-2.832-3.08-3.125-4.177c-0.143-0.538-0.408-1.537,0.009-2.683
					c0.192-0.539,0.627-1.403,0.676-1.5l10.583-21.58c0.148-0.299,0.373-0.728,0.563-1.022c0.301-0.471,0.841-0.733,1.395-0.686
					c0.557,0.049,1.04,0.403,1.254,0.919l0,0c0.001,0,0.88,1.81,4.278,3.483c3.151,1.556,5.558,1.319,5.726,1.298
					c0.517-0.066,1.031,0.131,1.361,0.529s0.438,0.938,0.274,1.429c-0.07,0.213-0.188,0.467-0.328,0.734l-0.2,0.411
					c-0.629,1.283-10.56,21.544-10.56,21.544c-0.04,0.085-0.459,0.953-0.771,1.439c-0.571,0.908-1.355,1.327-2.117,1.644
					C54.814,76.579,53.85,76.747,52.865,76.747z M56.71,47.141l-9.977,20.342c-0.16,0.317-0.438,0.9-0.54,1.182
					c-0.076,0.209-0.06,0.408,0.068,0.893c0.1,0.372,0.65,1.553,1.98,2.515c0.004,0.003,0.705,0.503,1.37,0.831
					c0.674,0.328,1.544,0.6,1.554,0.603c0.544,0.158,1.123,0.242,1.699,0.242l0,0c0.744,0,1.283-0.143,1.484-0.228
					c0.459-0.19,0.625-0.299,0.74-0.484c0.176-0.271,0.482-0.883,0.604-1.139c0.005-0.011,7.786-15.886,10.009-20.421
					c-1.281-0.169-2.992-0.58-4.909-1.524C58.887,49.012,57.585,48.006,56.71,47.141z"/>
			</g>
			<g>
				<path fill="#231815" d="M68.17,41.377c-0.005-1.178-0.02-2.307-0.045-3.254c-0.051-1.924-0.137-2.232-0.311-2.314
					c-0.156-0.078-0.264-0.074-1.824,1.068c-0.818,0.602-1.799,1.348-2.82,2.123c0.346,0.896,1.05,1.652,2.014,2.125
					C66.168,41.609,67.235,41.688,68.17,41.377z"/>
				<path fill="#231815" d="M67.012,43.062L67.012,43.062c-0.844,0-1.704-0.204-2.49-0.591c-1.288-0.632-2.266-1.673-2.752-2.931
					c-0.24-0.623-0.039-1.331,0.493-1.734l0.155-0.119c0.973-0.737,1.902-1.443,2.685-2.019c1.44-1.055,1.928-1.388,2.609-1.388
					c0.27,0,0.522,0.062,0.774,0.188c1.055,0.497,1.084,1.604,1.138,3.615c0.026,0.956,0.041,2.097,0.046,3.287
					c0.004,0.648-0.411,1.226-1.027,1.431C68.121,42.974,67.572,43.062,67.012,43.062z M65.195,39.346
					c0.188,0.168,0.406,0.313,0.648,0.433c0.265,0.13,0.541,0.217,0.816,0.258c-0.008-0.629-0.018-1.226-0.032-1.766
					C66.186,38.598,65.703,38.962,65.195,39.346z"/>
			</g>
		</g>
		<g>
			<path fill="#231815" d="M47.072,73.957c-0.147,0-0.297-0.032-0.439-0.102c-0.495-0.243-0.701-0.842-0.457-1.338L58.59,47.162
				c0.242-0.496,0.842-0.701,1.338-0.459c0.496,0.243,0.701,0.842,0.458,1.338L47.971,73.396
				C47.798,73.751,47.442,73.957,47.072,73.957z"/>
		</g>
		<g>
			<path fill="#231815" d="M51.398,76.025c-0.147,0-0.297-0.032-0.438-0.102c-0.496-0.241-0.703-0.84-0.461-1.337l12.377-25.395
				c0.242-0.497,0.839-0.704,1.337-0.46c0.497,0.241,0.703,0.84,0.461,1.337L52.298,75.464
				C52.125,75.819,51.769,76.025,51.398,76.025z"/>
		</g>
	</g>
</g>
</svg>
