<?xml version="1.0" encoding="utf-8"?>
<!-- Generator: Adobe Illustrator 16.0.3, SVG Export Plug-In . SVG Version: 6.00 Build 0)  -->
<!DOCTYPE svg PUBLIC "-//W3C//DTD SVG 1.1//EN" "http://www.w3.org/Graphics/SVG/1.1/DTD/svg11.dtd">
<svg version="1.1" id="レイヤー_1" xmlns="http://www.w3.org/2000/svg" xmlns:xlink="http://www.w3.org/1999/xlink" x="0px"
	 y="0px" width="46px" height="71px" viewBox="0 0 46 71" enable-background="new 0 0 46 71" xml:space="preserve">
<g>
	<g>
		<path fill="#FAC959" d="M22.934,1.5C11.096,1.5,1.5,11.098,1.5,22.933c0,3.677,0.923,7.139,2.557,10.161
			c0.85,1.578,4.813,6.946,6.667,9.957c1.854,3.01,3.846,6.431,4.39,8.068h15.661c0.547-1.638,2.537-5.059,4.391-8.068
			c1.854-3.011,5.816-8.379,6.668-9.957c1.629-3.022,2.559-6.484,2.559-10.161c0-11.835-9.596-21.433-21.434-21.433"/>
		<path fill="#231815" d="M30.775,52.619H15.114c-0.646,0-1.22-0.414-1.423-1.027c-0.234-0.703-1.096-2.645-4.244-7.755
			c-0.896-1.454-2.344-3.542-3.622-5.384c-1.406-2.025-2.62-3.776-3.089-4.647C0.946,30.494,0,26.733,0,22.933
			C0,10.288,10.288,0,22.934,0c0.008,0,0.017,0,0.025,0c12.645,0,22.934,10.288,22.934,22.933c0,3.792-0.947,7.552-2.738,10.873
			c-0.471,0.871-1.684,2.62-3.088,4.645c-1.279,1.842-2.729,3.932-3.623,5.386c-3.146,5.109-4.01,7.052-4.244,7.756
			C31.996,52.205,31.422,52.619,30.775,52.619z M16.127,49.619h13.636c0.719-1.604,2.102-4.07,4.125-7.355
			c0.938-1.524,2.412-3.648,3.713-5.523c1.24-1.787,2.521-3.635,2.912-4.358c1.555-2.885,2.379-6.153,2.379-9.449
			C42.893,11.942,33.949,3,22.958,3c-0.008,0.001-0.017,0-0.025,0C11.942,3,3,11.942,3,22.933c0,3.304,0.822,6.571,2.376,9.448
			c0.39,0.725,1.673,2.574,2.914,4.362c1.3,1.874,2.773,3.997,3.711,5.521C14.025,45.549,15.408,48.015,16.127,49.619z"/>
	</g>
	<g>
		<path fill="#231815" d="M28.615,35.092c-0.186,0-0.373-0.051-0.541-0.159c-0.465-0.299-0.598-0.918-0.299-1.382
			c0.025-0.041,2.604-4.071,3.434-7.498c0.578-2.389,0.402-5.148-1.828-5.729c-0.465-0.121-0.91-0.113-1.334,0.023
			c0.9,1.466,1.129,3.28,0.77,4.807c-0.428,1.819-1.65,2.911-3.133,2.759c-0.949-0.092-1.706-0.682-2.074-1.618
			c-0.668-1.702-0.037-4.354,1.435-6.148c-0.164-0.094-0.34-0.178-0.529-0.25c-0.049-0.02-0.7-0.297-1.441-0.297h-0.235
			c-0.731,0.026-1.313,0.273-1.318,0.275c-0.224,0.086-0.43,0.187-0.621,0.301c1.455,1.793,2.075,4.426,1.41,6.118
			c-0.367,0.936-1.124,1.526-2.075,1.618c-1.476,0.147-2.679-0.926-3.102-2.72c-0.361-1.532-0.128-3.353,0.788-4.831
			c-0.438-0.15-0.899-0.164-1.381-0.039c-2.232,0.581-2.409,3.339-1.83,5.728c0.831,3.427,3.41,7.458,3.436,7.499
			c0.299,0.464,0.165,1.083-0.299,1.382c-0.465,0.298-1.083,0.165-1.382-0.299c-0.114-0.176-2.787-4.351-3.698-8.111
			c-1.009-4.162,0.275-7.355,3.27-8.134c1.156-0.301,2.284-0.148,3.293,0.426c0.416-0.314,0.89-0.58,1.423-0.784
			c0.041-0.021,0.893-0.389,2.052-0.429l0.27,0c1.156,0,2.102,0.403,2.205,0.449c0.504,0.193,0.955,0.445,1.354,0.742
			c0.996-0.556,2.111-0.7,3.252-0.403c2.994,0.779,4.275,3.972,3.268,8.134c-0.908,3.76-3.582,7.935-3.697,8.111
			C29.266,34.93,28.943,35.092,28.615,35.092z M19.51,21.649c-0.548,1.025-0.633,2.222-0.429,3.085
			c0.049,0.209,0.33,1.235,0.961,1.188c0.14-0.014,0.287-0.053,0.407-0.359C20.787,24.703,20.446,22.941,19.51,21.649z
			 M26.443,21.605c-0.961,1.296-1.314,3.088-0.973,3.959c0.121,0.306,0.268,0.345,0.406,0.358c0.68,0.052,0.963-1.095,0.992-1.228
			C27.074,23.828,26.988,22.625,26.443,21.605z"/>
	</g>
	<g>
		<path fill="#B4B4B5" d="M31.229,51.109c0,0,0.119,10.723-0.826,13.155c-0.947,2.433-4.596,5.05-6.891,5.05h-1.194
			c-2.451,0-5.944-2.617-6.891-5.05c-0.945-2.433-0.827-13.155-0.827-13.155H31.229z"/>
		<path fill="#231815" d="M23.511,70.814h-1.194c-3.003,0-7.108-2.975-8.289-6.006c-1-2.573-0.949-11.877-0.929-13.715
			c0.009-0.822,0.678-1.484,1.5-1.484h16.629c0.822,0,1.492,0.662,1.5,1.484c0.021,1.838,0.072,11.142-0.928,13.714
			C30.641,67.783,26.457,70.814,23.511,70.814z M16.092,52.609c0.004,4.074,0.19,9.717,0.732,11.112
			c0.729,1.873,3.707,4.093,5.493,4.093h1.194c1.575,0,4.739-2.157,5.495-4.094c0.541-1.395,0.727-7.037,0.73-11.111H16.092z"/>
	</g>
	<g>
		<path fill="#231815" d="M31.057,57.674H14.795c-0.552,0-1-0.447-1-1c0-0.552,0.448-1,1-1h16.262c0.553,0,1,0.448,1,1
			C32.057,57.227,31.609,57.674,31.057,57.674z"/>
	</g>
	<g>
		<path fill="#231815" d="M30.855,62.57H14.966c-0.552,0-1-0.447-1-1c0-0.552,0.448-1,1-1h15.889c0.553,0,1,0.448,1,1
			C31.855,62.123,31.408,62.57,30.855,62.57z"/>
	</g>
</g>
</svg>
