<?xml version="1.0" encoding="utf-8"?>
<!-- Generator: Adobe Illustrator 16.0.3, SVG Export Plug-In . SVG Version: 6.00 Build 0)  -->
<!DOCTYPE svg PUBLIC "-//W3C//DTD SVG 1.1//EN" "http://www.w3.org/Graphics/SVG/1.1/DTD/svg11.dtd">
<svg version="1.1" id="レイヤー_1" xmlns="http://www.w3.org/2000/svg" xmlns:xlink="http://www.w3.org/1999/xlink" x="0px"
	 y="0px" width="48px" height="72px" viewBox="0 0 48 72" enable-background="new 0 0 48 72" xml:space="preserve">
<g>
	<g>
		<path fill="#4593D0" d="M29.354,63.984c0,3.262-2.645,5.902-5.9,5.902c-3.262,0-5.905-2.641-5.905-5.902s2.644-5.902,5.905-5.902
			C26.71,58.082,29.354,60.723,29.354,63.984z"/>
		<path fill="#231815" d="M23.455,71.387c-4.083,0-7.405-3.32-7.405-7.402s3.322-7.402,7.405-7.402c4.081,0,7.4,3.32,7.4,7.402
			S27.535,71.387,23.455,71.387z M23.455,59.582c-2.429,0-4.405,1.975-4.405,4.402s1.977,4.402,4.405,4.402
			c2.426,0,4.4-1.975,4.4-4.402S25.881,59.582,23.455,59.582z"/>
	</g>
	<g>
		<path fill="#4593D0" d="M8.3,29.193c-2.333-0.014-4.168-1.082-5.578-3.152c0,0-2.637-4.391-0.167-11.063
			C5.247,7.74,13.825,0.689,26.206,1.576c11.691,0.836,17.789,9.379,19.312,15.123c1.231,4.65,1.03,12.631-5.435,18.211
			c-5.525,4.766-9.542,6.666-10.871,12.779c-0.779,3.582-3.336,4.951-5.816,4.875c-4.576-0.145-7.057-5.199-4.16-10.354
			c3.246-5.771,11.431-8.832,13.304-16.01c2.114-8.115-3.594-13.236-9.19-12.838c-5.429,0.387-8.392,5.088-8.624,10.029
			C14.541,27.311,12.029,29.215,8.3,29.193z"/>
		<path fill="#231815" d="M23.591,54.067l-0.241-0.004c-2.518-0.079-4.655-1.355-5.866-3.502c-1.463-2.592-1.296-5.988,0.444-9.085
			c1.497-2.661,3.899-4.748,6.223-6.766c3.071-2.668,5.972-5.188,6.938-8.889c0.812-3.116,0.369-5.983-1.245-8.073
			c-1.512-1.955-3.943-3.061-6.387-2.89c-4.732,0.337-7.042,4.564-7.232,8.604c-0.214,4.528-3.153,7.23-7.861,7.23
			c-2.88-0.017-5.171-1.298-6.88-3.808c-0.17-0.277-3.023-5.164-0.334-12.428C3.825,7.261,11.961,0,24.11,0
			c0.726,0,1.466,0.027,2.204,0.08c11.451,0.818,18.733,8.989,20.654,16.234c1.455,5.496,0.781,13.96-5.904,19.731
			c-1.163,1.003-2.279,1.896-3.265,2.685c-3.721,2.979-6.18,4.947-7.121,9.277C29.706,52.476,26.379,54.067,23.591,54.067z
			 M23.961,11.842c3.198,0,6.285,1.522,8.255,4.073c2.196,2.841,2.826,6.628,1.774,10.664c-1.2,4.601-4.593,7.547-7.874,10.396
			c-2.228,1.936-4.333,3.764-5.574,5.971c-1.223,2.175-1.39,4.471-0.447,6.141c0.693,1.229,1.883,1.932,3.347,1.979l0.148,0.002
			c1.007,0,3.429-0.36,4.155-3.697c1.168-5.369,4.262-7.846,8.178-10.981c1.013-0.811,2.059-1.647,3.18-2.614
			c5.638-4.866,6.197-12.033,4.964-16.691c-1.188-4.486-6.475-13.188-17.969-14.011C25.433,3.024,24.764,3,24.11,3
			C13.402,3,6.275,9.279,3.961,15.501c-2.193,5.926,0.024,9.73,0.047,9.768c1.106,1.621,2.488,2.414,4.301,2.425
			c3.145,0,4.781-1.471,4.919-4.372c0.244-5.19,3.482-10.989,10.016-11.454C23.483,11.85,23.722,11.842,23.961,11.842z"/>
	</g>
</g>
</svg>
