<svg viewBox="0 0 20 20" style="position: absolute; widht: 0; height: 0; overflow: hidden;">
<g id="icon-facebook">
	<path d="M11.809,19.998v-7.754H14.4l0.389-3.007h-2.98V7.308c0-0.873,0.234-1.47,1.486-1.47l1.6,0.002V3.139
		c-0.277-0.037-1.227-0.111-2.329-0.111c-2.304,0-3.881,1.398-3.881,3.981v2.229H6.067v3.007h2.616v7.754H11.809z"/>
</g>
<g id="icon-twitter">
	<path d="M7.754,15.213c5.029,0,7.781-4.172,7.781-7.781c0-0.118,0-0.235-0.006-0.353
		c0.533-0.384,0.998-0.87,1.365-1.419c-0.49,0.219-1.018,0.363-1.572,0.432c0.564-0.336,0.997-0.875,1.205-1.515
		c-0.528,0.315-1.115,0.539-1.738,0.662c-0.502-0.534-1.211-0.864-1.995-0.864c-1.509,0-2.736,1.227-2.736,2.736
		c0,0.213,0.027,0.421,0.069,0.623C7.855,7.623,5.839,6.53,4.49,4.876C4.255,5.282,4.122,5.751,4.122,6.252
		c0,0.949,0.485,1.787,1.216,2.277C4.89,8.514,4.469,8.391,4.101,8.188c0,0.011,0,0.021,0,0.037c0,1.323,0.944,2.433,2.192,2.683
		c-0.229,0.064-0.469,0.096-0.72,0.096c-0.176,0-0.346-0.016-0.512-0.047c0.347,1.088,1.36,1.877,2.555,1.898
		c-0.938,0.735-2.117,1.173-3.397,1.173c-0.219,0-0.438-0.011-0.65-0.037C4.772,14.759,6.212,15.213,7.754,15.213"/>
</g>
<g id="icon-instagram">
	<path d="M13.063,17.375H6.938c-2.378,0-4.313-1.935-4.313-4.313V6.938
		c0-2.378,1.935-4.313,4.313-4.313h6.125c2.379,0,4.313,1.935,4.313,4.313v6.125C17.375,15.44,15.441,17.375,13.063,17.375z
		 M6.938,4C5.318,4,4,5.318,4,6.938v6.125C4,14.682,5.318,16,6.938,16h6.125C14.682,16,16,14.682,16,13.063V6.938
		C16,5.318,14.682,4,13.063,4H6.938z"/>
	<circle cx="13.941" cy="6.066" r="0.92"/>
	<path d="M10,13.813c-2.102,0-3.813-1.711-3.813-3.813c0-2.102,1.71-3.813,3.813-3.813
		c2.102,0,3.813,1.71,3.813,3.813C13.813,12.102,12.102,13.813,10,13.813z M10,7.563c-1.344,0-2.438,1.093-2.438,2.438
		c0,1.344,1.093,2.438,2.438,2.438c1.344,0,2.438-1.094,2.438-2.438C12.438,8.656,11.344,7.563,10,7.563z"/>
</g>
</svg>
