<?xml version="1.0" encoding="utf-8"?>
<!-- Generator: Adobe Illustrator 16.0.3, SVG Export Plug-In . SVG Version: 6.00 Build 0)  -->
<!DOCTYPE svg PUBLIC "-//W3C//DTD SVG 1.1//EN" "http://www.w3.org/Graphics/SVG/1.1/DTD/svg11.dtd">
<svg version="1.1" id="レイヤー_1" xmlns="http://www.w3.org/2000/svg" xmlns:xlink="http://www.w3.org/1999/xlink" x="0px"
	 y="0px" width="91px" height="84px" viewBox="0 0 91 84" enable-background="new 0 0 91 84" xml:space="preserve">
<g>
	<g>
		<polygon fill="#FAC959" points="80.757,1.5 83.286,6.627 88.944,7.45 84.85,11.439 85.816,17.074 80.757,14.414 75.695,17.074 
			76.662,11.439 72.568,7.45 78.227,6.627 		"/>
		<path fill="#231815" d="M85.816,18.574c-0.239,0-0.479-0.057-0.698-0.172l-4.361-2.293l-4.363,2.293
			c-0.505,0.265-1.117,0.222-1.58-0.114c-0.462-0.335-0.693-0.904-0.597-1.467l0.834-4.857l-3.529-3.439
			c-0.409-0.398-0.556-0.995-0.38-1.538c0.177-0.543,0.646-0.939,1.211-1.021l4.878-0.71l2.182-4.42C79.664,0.324,80.186,0,80.757,0
			l0,0c0.571,0,1.093,0.324,1.345,0.836l2.181,4.42l4.878,0.709c0.565,0.082,1.034,0.478,1.211,1.021
			c0.176,0.543,0.029,1.139-0.38,1.538l-3.53,3.439l0.834,4.857c0.097,0.563-0.135,1.131-0.597,1.467
			C86.437,18.478,86.127,18.574,85.816,18.574z M75.792,8.497l1.917,1.868c0.354,0.345,0.515,0.841,0.432,1.328l-0.453,2.64
			l2.371-1.246c0.438-0.23,0.959-0.229,1.396,0l2.369,1.246l-0.453-2.639c-0.083-0.486,0.078-0.983,0.432-1.328l1.918-1.868
			l-2.65-0.386c-0.488-0.071-0.911-0.378-1.129-0.821L80.757,4.89l-1.186,2.401c-0.218,0.442-0.641,0.749-1.129,0.82L75.792,8.497z"
			/>
	</g>
	<g>
		<g>
			<rect x="8.79" y="31.342" fill="#FFFFFF" width="69.411" height="51"/>
			<path fill="#231815" d="M78.2,83.842H8.79c-0.829,0-1.5-0.672-1.5-1.5v-51c0-0.829,0.671-1.5,1.5-1.5H78.2
				c0.828,0,1.5,0.671,1.5,1.5v51C79.7,83.17,79.028,83.842,78.2,83.842z M10.29,80.842H76.7v-48H10.29V80.842z"/>
		</g>
		<g>
			<path fill="#231815" d="M59.896,69.172h-32.8c-0.829,0-1.5-0.672-1.5-1.5V43.865c0-0.828,0.671-1.5,1.5-1.5h32.8
				c0.828,0,1.5,0.672,1.5,1.5v23.807C61.396,68.5,60.724,69.172,59.896,69.172z M28.595,66.172h29.8V45.365h-29.8V66.172z"/>
		</g>
		<g>
			<rect x="31.541" y="48.141" fill="#888888" width="23.91" height="15.203"/>
			<path fill="#231815" d="M55.45,64.844h-23.91c-0.829,0-1.5-0.672-1.5-1.5V48.141c0-0.828,0.671-1.5,1.5-1.5h23.91
				c0.828,0,1.5,0.672,1.5,1.5v15.203C56.95,64.172,56.278,64.844,55.45,64.844z M33.041,61.844h20.91V49.641h-20.91V61.844z"/>
		</g>
		<g>
			<polygon fill="#4593D0" points="85.488,34.729 1.5,34.729 43.481,5.836 			"/>
			<path fill="#231815" d="M85.508,36.229c-0.005,0-0.012,0.001-0.02,0H1.5c-0.657,0-1.237-0.427-1.433-1.055
				c-0.195-0.627,0.041-1.309,0.582-1.681L42.63,4.6c0.512-0.353,1.188-0.353,1.701,0l41.867,28.796
				c0.481,0.25,0.81,0.752,0.81,1.332C87.008,35.557,86.337,36.229,85.508,36.229z M6.326,33.229H80.66L43.481,7.657L6.326,33.229z"
				/>
		</g>
		<g>
			<path fill="#231815" d="M43.513,64.236c-0.552,0-1-0.447-1-1V48.275c0-0.553,0.448-1,1-1s1,0.447,1,1v14.961
				C44.513,63.789,44.065,64.236,43.513,64.236z"/>
		</g>
		<g>
			<path fill="#231815" d="M55.345,56.768H31.681c-0.552,0-1-0.447-1-1s0.448-1,1-1h23.664c0.553,0,1,0.447,1,1
				S55.897,56.768,55.345,56.768z"/>
		</g>
	</g>
</g>
</svg>
