<?xml version="1.0" encoding="utf-8"?>
<!-- Generator: Adobe Illustrator 21.1.0, SVG Export Plug-In . SVG Version: 6.00 Build 0)  -->
<svg version="1.1" id="レイヤー_1" xmlns="http://www.w3.org/2000/svg" xmlns:xlink="http://www.w3.org/1999/xlink" x="0px"
	 y="0px" viewBox="0 0 23 37" style="enable-background:new 0 0 23 37;" xml:space="preserve">
<style type="text/css">
	.st0{fill:url(#SVGID_1_);}
	.st1{fill:#F39700;}
	.st2{fill:url(#SVGID_2_);}
	.st3{fill:#FFFFFF;}
	.st4{fill:#E51F1F;}
</style>
<g>
	<g>
		<g>
			<path d="M-222.6,101.6c-0.2,0.2-0.5,0.3-0.8,0.3s-0.5-0.1-0.8-0.3c-0.2-0.2-0.3-0.5-0.3-0.8v-5.5c0-0.2-0.1-0.2-0.2-0.2h-9
				c-0.1,0-0.2,0.1-0.2,0.2v3c0,0.3-0.1,0.5-0.3,0.7c-0.2,0.2-0.4,0.3-0.7,0.3c-0.3,0-0.5-0.1-0.7-0.3c-0.2-0.2-0.3-0.4-0.3-0.7
				v-3.1c0-0.5,0.2-0.9,0.5-1.2c0.3-0.3,0.7-0.5,1.2-0.5h9.5c0.1,0,0.2-0.1,0.2-0.2v-1.4c0-0.2-0.1-0.2-0.2-0.2h-8.6
				c-0.2,0-0.4-0.1-0.6-0.2c-0.2-0.2-0.3-0.4-0.3-0.6c0-0.2,0.1-0.4,0.3-0.6c0.2-0.2,0.4-0.2,0.6-0.2h20c0.2,0,0.4,0.1,0.6,0.2
				c0.2,0.2,0.3,0.4,0.3,0.6c0,0.2-0.1,0.4-0.3,0.6c-0.2,0.2-0.4,0.2-0.6,0.2h-8.8c-0.1,0-0.2,0.1-0.2,0.2v1.4
				c0,0.2,0.1,0.2,0.2,0.2h9.7c0.5,0,0.9,0.2,1.2,0.5c0.3,0.3,0.5,0.7,0.5,1.2v3c0,0.3-0.1,0.5-0.3,0.7c-0.2,0.2-0.4,0.3-0.7,0.3
				c-0.3,0-0.5-0.1-0.7-0.3c-0.2-0.2-0.3-0.4-0.3-0.7v-2.9c0-0.2-0.1-0.2-0.2-0.2h-9.1c-0.1,0-0.2,0.1-0.2,0.2v5.5
				C-222.3,101.2-222.4,101.4-222.6,101.6z M-220.2,114h6.7c0.7,0,1.2-0.2,1.5-0.5s0.4-1,0.5-2c0-0.2,0.1-0.4,0.4-0.5
				c0.2-0.1,0.4-0.1,0.7-0.1c0.3,0.1,0.5,0.3,0.7,0.5c0.1,0.2,0.2,0.4,0.2,0.6c0,0.1,0,0.1,0,0.2c-0.2,1.4-0.5,2.3-1.1,2.8
				c-0.5,0.5-1.4,0.7-2.7,0.7h-6.9c-1.7,0-2.8-0.2-3.4-0.6c-0.6-0.4-0.9-1.2-0.9-2.4V112c0-0.2-0.1-0.2-0.2-0.2h-6.2
				c-0.1,0-0.2,0.1-0.2,0.2v0.3c0,0.3-0.1,0.5-0.3,0.8c-0.2,0.2-0.5,0.3-0.8,0.3s-0.5-0.1-0.7-0.3c-0.2-0.2-0.3-0.5-0.3-0.8v-7.6
				c0-0.5,0.2-0.9,0.5-1.2c0.3-0.3,0.7-0.5,1.2-0.5h16.8c0.5,0,0.9,0.2,1.2,0.5c0.3,0.3,0.5,0.7,0.5,1.2v5.4c0,0.5-0.2,0.9-0.5,1.2
				c-0.3,0.3-0.7,0.5-1.2,0.5h-7.4c-0.1,0-0.2,0.1-0.2,0.2v0.7c0,0.5,0.1,0.8,0.4,1C-221.7,113.9-221.1,114-220.2,114z
				 M-232.2,101.2c-0.2,0-0.4-0.1-0.5-0.2c-0.1-0.1-0.2-0.3-0.2-0.5c0-0.2,0.1-0.4,0.2-0.5c0.1-0.1,0.3-0.2,0.5-0.2h5.5
				c0.2,0,0.4,0.1,0.5,0.2c0.1,0.1,0.2,0.3,0.2,0.5c0,0.2-0.1,0.4-0.2,0.5c-0.1,0.1-0.3,0.2-0.5,0.2H-232.2z M-226.7,96.7
				c0.2,0,0.4,0.1,0.5,0.2c0.1,0.1,0.2,0.3,0.2,0.5c0,0.2-0.1,0.4-0.2,0.5c-0.1,0.1-0.3,0.2-0.5,0.2h-5c-0.2,0-0.3-0.1-0.5-0.2
				c-0.1-0.1-0.2-0.3-0.2-0.5c0-0.2,0.1-0.4,0.2-0.5c0.1-0.1,0.3-0.2,0.5-0.2H-226.7z M-224.6,104.8c0-0.1-0.1-0.2-0.2-0.2h-6.2
				c-0.1,0-0.2,0.1-0.2,0.2v1.6c0,0.1,0.1,0.2,0.2,0.2h6.2c0.2,0,0.2-0.1,0.2-0.2V104.8z M-231.2,110c0,0.1,0.1,0.2,0.2,0.2h6.2
				c0.2,0,0.2-0.1,0.2-0.2v-1.6c0-0.1-0.1-0.2-0.2-0.2h-6.2c-0.1,0-0.2,0.1-0.2,0.2V110z M-215.5,106.6c0.1,0,0.2-0.1,0.2-0.2v-1.6
				c0-0.1-0.1-0.2-0.2-0.2h-6.7c-0.1,0-0.2,0.1-0.2,0.2v1.6c0,0.1,0.1,0.2,0.2,0.2H-215.5z M-222.4,110c0,0.1,0.1,0.2,0.2,0.2h6.7
				c0.1,0,0.2-0.1,0.2-0.2v-1.6c0-0.1-0.1-0.2-0.2-0.2h-6.7c-0.1,0-0.2,0.1-0.2,0.2V110z M-220.5,97.9c-0.1-0.1-0.2-0.3-0.2-0.5
				c0-0.2,0.1-0.4,0.2-0.5c0.1-0.1,0.3-0.2,0.5-0.2h5c0.2,0,0.3,0.1,0.5,0.2c0.1,0.1,0.2,0.3,0.2,0.5c0,0.2-0.1,0.4-0.2,0.5
				c-0.1,0.1-0.3,0.2-0.5,0.2h-5C-220.2,98.1-220.4,98-220.5,97.9z M-220,101.2c-0.2,0-0.4-0.1-0.5-0.2c-0.1-0.1-0.2-0.3-0.2-0.5
				c0-0.2,0.1-0.4,0.2-0.5c0.1-0.1,0.3-0.2,0.5-0.2h5.7c0.2,0,0.4,0.1,0.5,0.2c0.1,0.1,0.2,0.3,0.2,0.5c0,0.2-0.1,0.4-0.2,0.5
				c-0.1,0.1-0.3,0.2-0.5,0.2H-220z"/>
			<path d="M-190.1,94.3c0,0.1,0.1,0.2,0.2,0.2h10.5c0.5,0,0.9,0.2,1.2,0.5c0.3,0.3,0.4,0.7,0.4,1.1c0,3.7-0.3,7.9-1,12.8
				c-0.4,2.6-0.9,4.3-1.6,5.1c-0.6,0.7-1.4,1.1-2.5,1.2c-0.4,0-0.8,0-1.3,0c-0.6,0-1.4,0-2.3-0.1c-0.4,0-0.7-0.1-0.9-0.4
				c-0.3-0.2-0.4-0.5-0.6-0.9c-0.1-0.3,0-0.5,0.1-0.7c0.1-0.2,0.3-0.3,0.6-0.3c1.2,0.1,2.4,0.1,3.5,0.1c0.6,0,1.1-0.1,1.4-0.4
				c0.5-0.5,1-2,1.3-4.4c0.4-2.4,0.7-6.1,1-11.2c0-0.2-0.1-0.2-0.2-0.2h-9.8c-0.2,0-0.2,0.1-0.3,0.2c-0.1,1.3-0.2,2.5-0.4,3.6
				c-0.2,1.2-0.6,2.5-1.1,3.9s-1.2,2.7-2,3.9c-0.8,1.2-1.8,2.4-3.1,3.7c-1,1-2.1,1.9-3.4,2.7c-0.2,0.1-0.5,0.2-0.7,0.2
				c-0.1,0-0.2,0-0.3,0c-0.3-0.1-0.6-0.2-0.9-0.5c-0.2-0.2-0.3-0.4-0.3-0.7c0-0.3,0.1-0.6,0.4-0.7c1.5-1,2.8-2.1,3.9-3.2
				c1.4-1.4,2.5-2.9,3.2-4.4c0.7-1.5,1.3-3,1.6-4.4c0.3-1.3,0.6-2.7,0.7-4.2c0-0.1,0-0.2-0.2-0.2h-8.3c-0.3,0-0.6-0.1-0.8-0.3
				c-0.2-0.2-0.3-0.5-0.3-0.8c0-0.3,0.1-0.6,0.3-0.8c0.2-0.2,0.5-0.3,0.8-0.3h8.4c0.1,0,0.2-0.1,0.2-0.2v-1.1v-4
				c0-0.3,0.1-0.6,0.3-0.8c0.2-0.2,0.5-0.3,0.8-0.3s0.6,0.1,0.8,0.3c0.2,0.2,0.3,0.5,0.3,0.8v4V94.3z"/>
			<path d="M-167.2,110.1c0.1-0.3,0.3-0.5,0.6-0.6c0.3-0.2,0.5-0.2,0.8-0.1c0.3,0.1,0.5,0.2,0.6,0.5c0.1,0.3,0.2,0.5,0.1,0.8
				c-0.7,1.8-1.5,3.3-2.4,4.6c-0.2,0.2-0.4,0.4-0.7,0.4c-0.3,0-0.6,0-0.8-0.2c-0.3-0.2-0.4-0.5-0.4-0.8c0-0.2,0.1-0.4,0.2-0.6
				C-168.4,112.9-167.7,111.6-167.2,110.1z M-161.2,89.8c0.5,0,0.9,0.2,1.2,0.5c0.3,0.3,0.5,0.7,0.5,1.2v15.2c0,0.5-0.2,0.9-0.5,1.2
				c-0.3,0.3-0.7,0.5-1.2,0.5h-5.5c-0.5,0-0.9-0.2-1.2-0.5c-0.3-0.3-0.5-0.7-0.5-1.2V91.5c0-0.5,0.2-0.9,0.5-1.2
				c0.3-0.3,0.7-0.5,1.2-0.5H-161.2z M-161.7,95.4c0.2,0,0.2-0.1,0.2-0.2v-3.3c0-0.2-0.1-0.2-0.2-0.2h-4.5c-0.1,0-0.2,0.1-0.2,0.2
				v3.3c0,0.1,0.1,0.2,0.2,0.2H-161.7z M-161.7,101c0.2,0,0.2-0.1,0.2-0.2v-3.4c0-0.1-0.1-0.2-0.2-0.2h-4.5c-0.1,0-0.2,0.1-0.2,0.2
				v3.4c0,0.2,0.1,0.2,0.2,0.2H-161.7z M-161.7,106.7c0.2,0,0.2-0.1,0.2-0.2V103c0-0.2-0.1-0.2-0.2-0.2h-4.5c-0.1,0-0.2,0.1-0.2,0.2
				v3.5c0,0.1,0.1,0.2,0.2,0.2H-161.7z M-162.5,110.7c-0.1-0.1-0.1-0.3-0.1-0.4c0-0.1,0-0.2,0-0.3c0.1-0.2,0.2-0.4,0.4-0.5
				c0.3-0.1,0.5-0.1,0.8-0.1c0.3,0.1,0.5,0.2,0.6,0.5c0.5,0.7,0.9,1.4,1.2,2.1c0.1,0.3,0.2,0.5,0.1,0.8c-0.1,0.3-0.3,0.5-0.5,0.6
				c-0.2,0.1-0.5,0.1-0.7,0s-0.5-0.3-0.6-0.5C-161.6,112.2-162,111.5-162.5,110.7z M-145.6,97.7c0.6,0,1,0,1.3,0.1
				c0.2,0.1,0.3,0.2,0.5,0.3c0.1,0.2,0.2,0.3,0.1,0.5c-0.7,4.4-2.1,8.1-4.1,11.1c-0.1,0.1-0.1,0.2,0,0.4c1.3,1.5,2.9,2.7,4.6,3.6
				c0.3,0.1,0.4,0.3,0.4,0.6c0,0.1,0,0.1,0,0.2c0,0.2-0.1,0.4-0.2,0.6c-0.2,0.3-0.5,0.4-0.8,0.5c-0.1,0-0.2,0.1-0.3,0.1
				c-0.2,0-0.4,0-0.6-0.1c-1.7-1-3.2-2.2-4.5-3.7c-0.1-0.1-0.2-0.1-0.3,0c-1.3,1.5-2.9,2.7-4.6,3.6c-0.3,0.1-0.6,0.2-0.8,0.1
				s-0.5-0.3-0.7-0.5c-0.2-0.2-0.2-0.5-0.1-0.7s0.2-0.5,0.4-0.6c1.7-0.9,3.3-2.1,4.6-3.6c0.1-0.1,0.1-0.2,0-0.4c-1.7-2.6-3-6-3.9-10
				c0-0.1-0.1-0.1-0.1-0.1c-0.1,0-0.1,0-0.1,0.1v1.2c0,6.3-0.9,11-2.7,14.2c-0.1,0.2-0.3,0.4-0.6,0.4c-0.3,0-0.5,0-0.8-0.2
				c-0.2-0.2-0.4-0.4-0.4-0.6c0-0.1-0.1-0.2-0.1-0.3c0-0.2,0-0.4,0.1-0.5c0.5-0.9,0.9-1.9,1.3-3c0.3-1.1,0.6-2.3,0.7-3.5
				c0.1-1.2,0.2-2.3,0.3-3.3c0-1,0.1-2,0.1-3.2v-9.1c0-0.5,0.2-0.9,0.5-1.2c0.3-0.3,0.7-0.5,1.2-0.5h11.1c0.3,0,0.5,0.1,0.7,0.3
				c0.2,0.2,0.3,0.4,0.3,0.7c0,0.3-0.1,0.5-0.3,0.7c-0.2,0.2-0.4,0.3-0.7,0.3h-10.5c-0.1,0-0.2,0.1-0.2,0.2v5.1
				c0,0.1,0.1,0.2,0.2,0.2H-145.6z M-146,99.9c0-0.1,0-0.2-0.2-0.2h-6.3c-0.1,0-0.2,0.1-0.2,0.2c0.7,3.2,1.8,5.9,3.3,8.1
				c0,0.1,0.1,0.1,0.1,0.1c0,0,0.1,0,0.1-0.1C-147.7,105.8-146.7,103.1-146,99.9z"/>
			<path d="M-127.7,105.7c0-0.3,0.2-0.6,0.4-0.8c0.2-0.2,0.5-0.3,0.8-0.3c0.3,0,0.6,0.1,0.8,0.3c0.2,0.2,0.3,0.5,0.2,0.8
				c-0.2,1.4-0.4,2.5-0.7,3.5c-0.3,1-0.8,1.9-1.4,2.7c-0.6,0.9-1.4,1.6-2.4,2.2c-1,0.6-2.3,1.1-3.8,1.6c-0.1,0-0.2,0-0.4,0
				c-0.2,0-0.4,0-0.6-0.1c-0.3-0.1-0.5-0.4-0.7-0.6c-0.1-0.1-0.1-0.3-0.1-0.4c0-0.1,0-0.2,0.1-0.3c0.1-0.2,0.2-0.4,0.5-0.5
				c1.3-0.4,2.4-0.8,3.3-1.3c0.9-0.5,1.6-1.1,2.2-1.8c0.5-0.7,0.9-1.5,1.2-2.2C-128,107.8-127.9,106.8-127.7,105.7z M-123.9,96.6
				c0.1,0,0.2-0.1,0.2-0.2v-2.5c0-0.1-0.1-0.2-0.2-0.2h-10.5c-0.3,0-0.5-0.1-0.7-0.3c-0.2-0.2-0.3-0.4-0.3-0.7
				c0-0.3,0.1-0.5,0.3-0.7c0.2-0.2,0.4-0.3,0.7-0.3h10.5c0.1,0,0.2-0.1,0.2-0.2v-1.6c0-0.3,0.1-0.6,0.3-0.8c0.2-0.2,0.5-0.3,0.8-0.3
				c0.3,0,0.6,0.1,0.8,0.3c0.2,0.2,0.3,0.5,0.3,0.8v1.6c0,0.1,0.1,0.2,0.2,0.2h10.7c0.3,0,0.5,0.1,0.7,0.3c0.2,0.2,0.3,0.4,0.3,0.7
				c0,0.3-0.1,0.5-0.3,0.7c-0.2,0.2-0.4,0.3-0.7,0.3h-10.7c-0.1,0-0.2,0.1-0.2,0.2v2.5c0,0.1,0.1,0.2,0.2,0.2h8.1
				c0.3,0,0.5,0.1,0.7,0.3c0.2,0.2,0.3,0.4,0.3,0.7c0,0.3-0.1,0.5-0.3,0.7c-0.2,0.2-0.4,0.3-0.7,0.3h-18.5c-0.3,0-0.5-0.1-0.7-0.3
				c-0.2-0.2-0.3-0.4-0.3-0.7c0-0.3,0.1-0.5,0.3-0.7c0.2-0.2,0.4-0.3,0.7-0.3H-123.9z M-110.3,105.6c0,0.3-0.1,0.6-0.3,0.8
				c-0.2,0.2-0.5,0.3-0.8,0.3c-0.3,0-0.6-0.1-0.8-0.3c-0.2-0.2-0.3-0.5-0.3-0.8v-2.3c0-0.2-0.1-0.2-0.2-0.2h-19.5
				c-0.1,0-0.2,0.1-0.2,0.2v2.4c0,0.3-0.1,0.5-0.3,0.7c-0.2,0.2-0.5,0.3-0.8,0.3s-0.5-0.1-0.8-0.3c-0.2-0.2-0.3-0.5-0.3-0.7v-2.9
				c0-0.5,0.2-0.9,0.5-1.2c0.3-0.3,0.7-0.5,1.2-0.5h20.9c0.5,0,0.9,0.2,1.2,0.5c0.3,0.3,0.5,0.7,0.5,1.2V105.6z M-116.6,113.4h4
				c0.5,0,0.8-0.2,1-0.5c0.2-0.3,0.3-1.1,0.4-2.2c0-0.3,0.1-0.4,0.3-0.6c0.2-0.1,0.5-0.1,0.7,0c0.3,0.1,0.5,0.3,0.7,0.6
				c0.2,0.2,0.2,0.5,0.2,0.7c0,1.4-0.3,2.5-0.9,3.3c-0.4,0.5-1.2,0.8-2.2,0.8h-4.4c-1.3,0-2.3-0.2-2.7-0.6c-0.5-0.4-0.7-1.2-0.7-2.4
				v-6.8c0-0.3,0.1-0.6,0.3-0.8c0.2-0.2,0.5-0.3,0.8-0.3c0.3,0,0.6,0.1,0.8,0.3c0.2,0.2,0.3,0.5,0.3,0.8v6.8c0,0.4,0.1,0.7,0.2,0.8
				C-117.6,113.4-117.2,113.4-116.6,113.4z"/>
		</g>
	</g>
	<g>
		<g>
			<path d="M-222,68.8C-222,68.8-222,68.8-222,68.8C-222,68.9-222,68.9-222,68.8l0.3,0.3c0.2,0.1,0.3,0.3,0.3,0.5
				c0,0.2-0.1,0.4-0.3,0.5c-0.7,0.5-1.6,1-2.5,1.4c0,0,0,0,0,0.1c0,0,0,0,0,0.1c1,0.7,2.1,1.1,3.3,1.5c0.2,0,0.3,0.1,0.3,0.3
				c0.1,0.2,0,0.3-0.1,0.5c-0.1,0.2-0.3,0.4-0.5,0.5c-0.1,0.1-0.3,0.1-0.4,0.1c-0.1,0-0.2,0-0.3,0c-1.4-0.4-2.6-1-3.7-1.9
				c-1.2-0.9-2.1-2.2-2.8-3.7c0-0.1-0.1-0.1-0.2-0.1h-1.8c-0.1,0-0.1,0-0.1,0.1v3.6c0,0.1,0,0.1,0.1,0.1l3.1-0.5c0,0,0.1,0,0.1,0
				c0.1,0,0.3,0,0.4,0.1c0.2,0.1,0.2,0.3,0.2,0.5c0,0.2-0.1,0.3-0.2,0.4c-0.1,0.1-0.3,0.2-0.4,0.3c-1.9,0.3-3.8,0.7-5.8,1
				c-0.1,0-0.1,0-0.1,0c-0.1,0-0.3,0-0.4-0.1c-0.2-0.1-0.3-0.3-0.3-0.5c0-0.1,0-0.1,0-0.2c0-0.1,0-0.2,0.1-0.3
				c0.1-0.2,0.3-0.3,0.4-0.3c0.3,0,0.7-0.1,1.2-0.2c0.1,0,0.1-0.1,0.1-0.1v-3.8c0-0.1,0-0.1-0.1-0.1h-2c-0.2,0-0.3-0.1-0.5-0.2
				c-0.1-0.1-0.2-0.3-0.2-0.5c0-0.2,0.1-0.3,0.2-0.5c0.1-0.1,0.3-0.2,0.5-0.2h2c0.1,0,0.1,0,0.1-0.1v-5.9c0-0.3,0.1-0.5,0.3-0.6
				c0.2-0.2,0.4-0.3,0.6-0.3h8.3c0.2,0,0.3,0.1,0.4,0.2c0.1,0.1,0.2,0.3,0.2,0.4c0,0.2-0.1,0.3-0.2,0.4c-0.1,0.1-0.3,0.2-0.4,0.2
				h-7.6c-0.1,0-0.1,0-0.1,0.1v0.8c0,0.1,0,0.1,0.1,0.1h7.2c0.2,0,0.3,0.1,0.4,0.2c0.1,0.1,0.2,0.3,0.2,0.4c0,0.2-0.1,0.3-0.2,0.4
				c-0.1,0.1-0.3,0.2-0.4,0.2h-7.2c-0.1,0-0.1,0-0.1,0.1v0.9c0,0.1,0,0.1,0.1,0.1h7.2c0.2,0,0.3,0.1,0.4,0.2
				c0.1,0.1,0.2,0.3,0.2,0.4c0,0.2-0.1,0.3-0.2,0.4c-0.1,0.1-0.3,0.2-0.4,0.2h-7.2c-0.1,0-0.1,0-0.1,0.1v0.9c0,0.1,0,0.1,0.1,0.1
				h9.2c0.2,0,0.3,0.1,0.5,0.2c0.1,0.1,0.2,0.3,0.2,0.5c0,0.2-0.1,0.3-0.2,0.5c-0.1,0.1-0.3,0.2-0.5,0.2H-222z M-222.2,68.9
				C-222.2,68.9-222.2,68.9-222.2,68.9C-222.2,68.8-222.2,68.8-222.2,68.9l-4.3-0.1c0,0,0,0-0.1,0c0,0,0,0,0,0.1
				c0.4,0.7,0.8,1.3,1.3,1.8c0.1,0.1,0.1,0.1,0.2,0C-223.9,70.1-222.9,69.5-222.2,68.9z"/>
			<path d="M-212.1,70.6c-0.1,0-0.1,0-0.1,0.1v1.7c0,0.1,0,0.1,0.1,0.1c1.2-0.1,2-0.2,2.4-0.3c0.2,0,0.3,0,0.5,0.1
				c0.1,0.1,0.2,0.3,0.2,0.5c0,0.2-0.1,0.3-0.2,0.5c-0.1,0.1-0.3,0.2-0.5,0.3c-0.5,0.1-2.6,0.4-6.3,0.9c0,0-0.1,0-0.1,0
				c-0.2,0-0.3-0.1-0.4-0.2c-0.2-0.1-0.2-0.3-0.3-0.5c0,0,0,0,0-0.1c0-0.2,0.1-0.3,0.2-0.5c0.1-0.2,0.3-0.2,0.5-0.3
				c0.8-0.1,1.6-0.2,2.4-0.3c0.1,0,0.1-0.1,0.1-0.1v-1.8c0-0.1,0-0.1-0.1-0.1h-1.9c-0.2,0-0.3-0.1-0.5-0.2c-0.1-0.1-0.2-0.3-0.2-0.5
				s0.1-0.3,0.2-0.5c0.1-0.1,0.3-0.2,0.5-0.2h1.9c0.1,0,0.1,0,0.1-0.1v-1.4c0-0.1,0-0.1-0.1-0.1h-1.7c-0.3,0-0.5-0.1-0.7-0.3
				c-0.2-0.2-0.3-0.4-0.3-0.6V62c0-0.3,0.1-0.5,0.3-0.6c0.2-0.2,0.4-0.3,0.7-0.3h5.1c0.3,0,0.5,0.1,0.7,0.3c0.2,0.2,0.3,0.4,0.3,0.6
				v4.7c0,0.3-0.1,0.5-0.3,0.6c-0.2,0.2-0.4,0.3-0.7,0.3h-1.7c-0.1,0-0.1,0-0.1,0.1v1.4c0,0.1,0,0.1,0.1,0.1h2
				c0.2,0,0.3,0.1,0.5,0.2c0.1,0.1,0.2,0.3,0.2,0.5s-0.1,0.3-0.2,0.5c-0.1,0.1-0.3,0.2-0.5,0.2H-212.1z M-215,62.3
				c-0.1,0-0.1,0-0.1,0.1v1.3c0,0.1,0,0.1,0.1,0.1h1.4c0.1,0,0.1,0,0.1-0.1v-1.3c0-0.1,0-0.1-0.1-0.1H-215z M-215,64.9
				c-0.1,0-0.1,0-0.1,0.1v1.3c0,0.1,0,0.1,0.1,0.1h1.4c0.1,0,0.1,0,0.1-0.1V65c0-0.1,0-0.1-0.1-0.1H-215z M-210.8,63.8
				c0.1,0,0.1,0,0.1-0.1v-1.3c0-0.1,0-0.1-0.1-0.1h-1.4c-0.1,0-0.1,0-0.1,0.1v1.3c0,0.1,0,0.1,0.1,0.1H-210.8z M-210.8,66.4
				c0.1,0,0.1,0,0.1-0.1V65c0-0.1,0-0.1-0.1-0.1h-1.4c-0.1,0-0.1,0-0.1,0.1v1.3c0,0.1,0,0.1,0.1,0.1H-210.8z M-203.2,66.2
				c0.1,0,0.3,0,0.4,0l0.3,0.1c0.1,0,0.2,0.1,0.3,0.2c0.1,0.1,0.1,0.2,0.1,0.3c0,0.1,0,0.1,0,0.1c-0.3,1.2-0.6,2.1-0.9,2.8
				c-0.1,0.2-0.2,0.3-0.3,0.4c-0.1,0.1-0.2,0.1-0.3,0.1c-0.1,0-0.1,0-0.2,0c-0.2,0-0.3-0.1-0.4-0.3c-0.1-0.1-0.1-0.3,0-0.5
				c0.1-0.4,0.3-1,0.5-1.7c0,0,0-0.1,0-0.1c0,0,0,0-0.1,0h-1.3c-0.1,0-0.1,0-0.1,0.1v5.5c0,0.4,0,0.7-0.1,0.9
				c-0.1,0.2-0.3,0.4-0.5,0.5c-0.3,0.2-0.9,0.3-1.8,0.3h0c-0.2,0-0.4-0.1-0.6-0.2c-0.2-0.1-0.3-0.3-0.4-0.5c0-0.1,0-0.1,0-0.2
				c0-0.1,0-0.2,0.1-0.3c0.1-0.1,0.2-0.2,0.4-0.2c0.2,0,0.4,0,0.6,0c0.2,0,0.4,0,0.5,0c0.1,0,0.2,0,0.2-0.1c0,0,0.1-0.1,0.1-0.2
				v-5.5c0-0.1,0-0.1-0.1-0.1h-1.5c-0.2,0-0.4-0.1-0.5-0.2c-0.1-0.1-0.2-0.3-0.2-0.5c0-0.2,0.1-0.4,0.2-0.5c0.1-0.1,0.3-0.2,0.5-0.2
				h3c0,0,0,0,0,0c0,0,0,0,0,0c-0.8-0.6-1.6-1.2-2.5-1.7c-0.1-0.1-0.2-0.2-0.2-0.4c0-0.2,0-0.3,0.1-0.4c0.1-0.1,0.3-0.2,0.5-0.3
				c0.1,0,0.1,0,0.1,0c0.1,0,0.3,0,0.4,0.1c0.3,0.2,0.6,0.3,0.8,0.5c0.1,0,0.1,0,0.2,0c0.4-0.4,0.9-0.9,1.3-1.5c0,0,0,0,0-0.1
				c0,0,0,0,0,0h-3.5c-0.2,0-0.3-0.1-0.5-0.2c-0.1-0.1-0.2-0.3-0.2-0.5c0-0.2,0.1-0.3,0.2-0.5c0.1-0.1,0.3-0.2,0.5-0.2h4.7
				c0,0,0,0,0.1,0c0.1,0,0.1,0,0.2,0c0.1,0,0.2,0,0.3,0.1l0.3,0.2c0.1,0.1,0.2,0.2,0.3,0.4s0,0.3-0.1,0.4c-0.7,0.9-1.4,1.8-2.2,2.5
				c-0.1,0.1-0.1,0.1,0,0.1c0.3,0.2,0.6,0.5,0.9,0.7c0.1,0.1,0.1,0.2,0.1,0.3c0,0.1,0,0.2-0.1,0.3c0,0,0,0,0,0c0,0,0,0,0,0
				L-203.2,66.2C-203.3,66.3-203.3,66.2-203.2,66.2z"/>
			<path d="M-191.9,61.6c0.1-0.2,0.2-0.3,0.4-0.4c0.1-0.1,0.2-0.1,0.3-0.1c0.1,0,0.1,0,0.2,0c0.2,0.1,0.3,0.2,0.4,0.3
				c0,0.1,0.1,0.2,0.1,0.3c0,0.1,0,0.2-0.1,0.3c-0.5,1.1-1.1,2.1-1.7,3c0,0,0,0,0,0.1c0,0,0,0,0,0h0.9c0.2,0,0.3,0.1,0.5,0.2
				s0.2,0.3,0.2,0.5c0,0.2-0.1,0.3-0.2,0.5s-0.3,0.2-0.5,0.2h-1.9c-0.1,0-0.2,0-0.2,0.1c-0.3,0.4-0.7,0.8-1.1,1.2c0,0,0,0,0,0
				c0,0,0,0,0,0h2.3c0.3,0,0.5,0.1,0.7,0.3c0.2,0.2,0.3,0.4,0.3,0.6V74c0,0.2-0.1,0.4-0.2,0.5c-0.1,0.1-0.3,0.2-0.5,0.2h-0.1
				c-0.2,0-0.3-0.1-0.4-0.2c-0.1-0.1-0.2-0.2-0.2-0.4c0-0.1,0-0.1-0.1-0.1h-3c-0.1,0-0.1,0-0.1,0.1v0.1c0,0.2-0.1,0.3-0.2,0.5
				c-0.1,0.1-0.3,0.2-0.5,0.2c-0.2,0-0.3-0.1-0.5-0.2c-0.1-0.1-0.2-0.3-0.2-0.5v-4.4c0,0,0-0.1,0-0.1c0,0,0,0-0.1,0
				c0,0-0.1,0.1-0.3,0.2c-0.1,0.1-0.2,0.1-0.4,0.1c-0.1,0-0.1,0-0.2,0c-0.2-0.1-0.4-0.2-0.5-0.3c-0.1-0.1-0.1-0.2-0.1-0.4
				c0-0.1,0-0.1,0-0.1c0-0.2,0.1-0.3,0.3-0.4c1.2-0.7,2.3-1.5,3.2-2.4c0,0,0,0,0,0c0,0,0,0,0,0h-2.8c-0.2,0-0.3-0.1-0.5-0.2
				s-0.2-0.3-0.2-0.5c0-0.2,0.1-0.3,0.2-0.5s0.3-0.2,0.5-0.2h2.2c0.1,0,0.1,0,0.1-0.1v-1.4c0-0.1,0-0.1-0.1-0.1h-1.5
				c-0.2,0-0.3-0.1-0.5-0.2s-0.2-0.3-0.2-0.4s0.1-0.3,0.2-0.4s0.3-0.2,0.5-0.2h1.5c0.1,0,0.1,0,0.1-0.1v-0.8c0-0.2,0.1-0.3,0.2-0.5
				c0.1-0.1,0.3-0.2,0.5-0.2c0.2,0,0.4,0.1,0.5,0.2c0.1,0.1,0.2,0.3,0.2,0.5V62c0,0.1,0,0.1,0.1,0.1h1c0.2,0,0.4,0.1,0.5,0.2
				s0.2,0.3,0.2,0.5c0,0,0,0,0,0C-192.3,62.4-192.1,62-191.9,61.6z M-192.9,70.3c0.1,0,0.1,0,0.1-0.1V69c0-0.1,0-0.1-0.1-0.1h-2.9
				c-0.1,0-0.1,0-0.1,0.1v1.1c0,0.1,0,0.1,0.1,0.1H-192.9z M-195.9,72.7c0,0.1,0,0.1,0.1,0.1h2.9c0.1,0,0.1,0,0.1-0.1v-1.2
				c0-0.1,0-0.1-0.1-0.1h-2.9c-0.1,0-0.1,0-0.1,0.1V72.7z M-194.5,64.9c0,0.1,0,0.1,0.1,0.1h0.2c0.1,0,0.1,0,0.2-0.1
				c0.3-0.4,0.7-0.9,1-1.5c0,0,0,0,0-0.1c0,0,0,0,0,0h-1.3c-0.1,0-0.1,0-0.1,0.1V64.9z M-185.4,61.2c0,0,0.1,0,0.1,0
				c0.1,0,0.2,0,0.3,0.1l0.4,0.2c0.2,0.1,0.3,0.2,0.3,0.4c0,0.1,0,0.1,0,0.2c0,0.1,0,0.2-0.1,0.3c-0.7,1.6-1.3,3-1.8,4.1
				c0,0.1,0,0.1,0,0.2c1.2,1.1,1.8,2.4,1.8,3.7c0,0,0,0.1,0,0.1c0,1.1-0.3,1.8-0.8,2.1c-0.3,0.2-0.6,0.3-1.1,0.4c-0.2,0-0.5,0-0.7,0
				c-0.2,0-0.4-0.1-0.5-0.2c-0.2-0.1-0.3-0.3-0.3-0.5c-0.1-0.2,0-0.3,0.1-0.4c0.1-0.1,0.2-0.2,0.4-0.2c0.2,0,0.3,0,0.5,0
				c0.3,0,0.5-0.1,0.7-0.2c0.3-0.2,0.5-0.6,0.5-1.2c0-0.9-0.4-1.9-1.3-2.8c-0.2-0.2-0.3-0.4-0.4-0.7c0-0.1,0-0.2,0-0.3
				c0-0.2,0-0.3,0.1-0.5c0.4-1,0.9-2.1,1.3-3.2c0,0,0,0,0-0.1c0,0,0,0-0.1,0h-2.3c-0.1,0-0.1,0-0.1,0.1v11.5c0,0.2-0.1,0.4-0.2,0.5
				s-0.3,0.2-0.5,0.2c-0.2,0-0.4-0.1-0.5-0.2c-0.1-0.1-0.2-0.3-0.2-0.5V62.1c0-0.3,0.1-0.5,0.3-0.6c0.2-0.2,0.4-0.3,0.6-0.3H-185.4
				C-185.5,61.2-185.5,61.2-185.4,61.2z"/>
			<path d="M-166.7,62.6c0.1,0.1,0.2,0.2,0.2,0.2s0,0.1,0,0.3c0,0.2-0.1,0.4-0.2,0.5s-0.3,0.2-0.5,0.2h-5.6c-0.1,0-0.1,0-0.1,0.1
				v1.7c0,0.1,0,0.1,0.1,0.1h4c0.3,0,0.5,0.1,0.6,0.3c0.2,0.2,0.3,0.4,0.3,0.6v4.6c0,0.4-0.1,0.7-0.2,0.9c-0.1,0.2-0.3,0.4-0.6,0.5
				c-0.4,0.1-1.1,0.2-2,0.3h0c-0.2,0-0.4-0.1-0.6-0.2c-0.2-0.1-0.3-0.3-0.4-0.5c-0.1-0.2,0-0.3,0.1-0.5c0.1-0.1,0.2-0.2,0.4-0.2
				c0.3,0,0.6,0,0.9,0c0.2,0,0.4,0,0.5,0c0.1,0,0.2,0,0.3-0.1c0,0,0.1-0.1,0.1-0.2v-3.9c0-0.1,0-0.1-0.1-0.1h-3.3
				c-0.1,0-0.1,0-0.1,0.1v6.9c0,0.2-0.1,0.4-0.2,0.5c-0.2,0.2-0.3,0.2-0.5,0.2c-0.2,0-0.4-0.1-0.5-0.2c-0.2-0.2-0.2-0.3-0.2-0.5
				v-6.9c0-0.1,0-0.1-0.1-0.1h-3c-0.1,0-0.1,0-0.1,0.1v4.9c0,0.2-0.1,0.4-0.2,0.5c-0.1,0.1-0.3,0.2-0.5,0.2s-0.4-0.1-0.5-0.2
				c-0.1-0.1-0.2-0.3-0.2-0.5v-5.6c0-0.3,0.1-0.5,0.3-0.6c0.2-0.2,0.4-0.3,0.7-0.3h3.7c0.1,0,0.1,0,0.1-0.1V64c0-0.1,0-0.1-0.1-0.1
				h-5.5c-0.2,0-0.4-0.1-0.5-0.2s-0.2-0.3-0.2-0.5c0-0.2,0.1-0.4,0.2-0.5s0.3-0.2,0.5-0.2h5.5c0.1,0,0.1,0,0.1-0.1V61
				c0-0.2,0.1-0.4,0.2-0.6c0.2-0.2,0.3-0.2,0.6-0.2s0.4,0.1,0.6,0.2c0.2,0.2,0.2,0.3,0.2,0.6v1.3c0,0.1,0,0.1,0.1,0.1h5.6
				C-167,62.4-166.8,62.5-166.7,62.6z"/>
			<path d="M-155.9,64c0,0.1,0,0.1,0.1,0.1h3.3c0.2,0,0.3,0,0.5,0c0.1,0,0.2,0,0.2,0c0.3,0,0.7,0.1,0.9,0.2c0.2,0.1,0.3,0.2,0.4,0.4
				c0.1,0.1,0.1,0.3,0.1,0.4c0,0,0,0.1,0,0.1c0,0.1,0,0.1,0,0.2c0,0.8-0.1,1.6-0.1,2.4c-0.1,0.8-0.2,1.8-0.3,2.9
				c-0.2,1.1-0.3,1.9-0.5,2.4c-0.2,0.4-0.4,0.7-0.7,0.8c-0.3,0.2-0.7,0.3-1.2,0.3c-0.5,0-1,0-1.8-0.1c-0.2,0-0.5-0.1-0.6-0.3
				c-0.2-0.2-0.3-0.4-0.3-0.6c0,0,0-0.1,0-0.1c0-0.2,0.1-0.3,0.2-0.5c0.1-0.1,0.3-0.2,0.5-0.2c0,0,0.1,0,0.1,0
				c0.6,0.1,1.1,0.1,1.5,0.1c0.2,0,0.4,0,0.6-0.1s0.3-0.2,0.3-0.4c0.2-0.5,0.4-1.4,0.6-2.7c0.1-1.3,0.2-2.5,0.2-3.6
				c0-0.1,0-0.1-0.1-0.1h-3.9c-0.1,0-0.1,0-0.1,0.1c-0.3,1.9-0.7,3.5-1.4,4.8s-1.6,2.4-2.8,3.3c-0.2,0.2-0.4,0.2-0.7,0.2
				c0,0,0,0,0,0c-0.3,0-0.5-0.1-0.7-0.3l0,0c-0.2-0.1-0.2-0.3-0.2-0.5c0-0.3,0.1-0.4,0.3-0.6c0.4-0.3,0.8-0.6,1.1-0.9
				c0.8-0.7,1.4-1.6,1.9-2.6c0.5-1,0.8-2.2,1-3.6c0-0.1,0-0.1-0.1-0.1h-2.3c-0.4,0-0.8,0-1.1,0c0,0,0,0,0,0c-0.2,0-0.4-0.1-0.6-0.2
				c-0.2-0.2-0.3-0.3-0.3-0.6c0-0.2,0.1-0.4,0.3-0.6c0.2-0.1,0.3-0.2,0.5-0.2c0,0,0,0,0.1,0c0.4,0,0.8,0,1.1,0h2.5
				c0.1,0,0.1,0,0.1-0.1c0-0.4,0-0.9,0-1.4l0-0.5c0-0.2,0.1-0.4,0.2-0.6c0.2-0.2,0.4-0.3,0.6-0.3h0c0.3,0,0.5,0.1,0.6,0.3
				c0.2,0.2,0.2,0.4,0.2,0.6l0,0.5C-155.9,63-155.9,63.4-155.9,64z M-150.6,62.8c0.1,0.1,0.1,0.3,0,0.4c-0.1,0.1-0.2,0.3-0.3,0.3
				c-0.1,0.1-0.3,0.1-0.4,0c-0.2-0.1-0.3-0.2-0.3-0.3c-0.2-0.5-0.5-0.9-0.7-1.2c-0.1-0.1-0.1-0.3-0.1-0.4c0-0.1,0.1-0.2,0.3-0.3
				c0.1-0.1,0.3-0.1,0.5,0c0.2,0,0.3,0.1,0.4,0.3C-151,61.9-150.8,62.3-150.6,62.8z M-150.5,61.3c-0.1-0.1-0.1-0.2-0.1-0.3
				c0,0,0-0.1,0-0.1c0-0.1,0.1-0.2,0.3-0.3c0.1,0,0.2-0.1,0.3-0.1c0.1,0,0.1,0,0.2,0c0.2,0,0.3,0.1,0.4,0.3c0.2,0.4,0.5,0.8,0.7,1.2
				c0.1,0.1,0.1,0.2,0.1,0.3c0,0.1,0,0.1,0,0.2c-0.1,0.1-0.1,0.3-0.3,0.3c-0.1,0-0.2,0-0.3,0c-0.1,0-0.1,0-0.2,0
				c-0.1-0.1-0.3-0.2-0.3-0.3C-150,62.1-150.3,61.6-150.5,61.3z"/>
			<path d="M-134.5,62.3c0.1,0,0.2,0,0.3,0c0.4,0,0.7,0.1,0.9,0.3c0.1,0.1,0.2,0.3,0.3,0.4c0,0.1,0,0.1,0,0.1c0,0.1,0,0.2-0.1,0.4
				c-0.1,0.1-0.1,0.2-0.1,0.3c-0.7,1.7-1.6,3.2-2.5,4.5c-0.1,0.1,0,0.1,0,0.2c1.3,1.1,2.6,2.4,3.9,3.9c0.1,0.2,0.2,0.4,0.2,0.6
				c0,0,0,0.1,0,0.1c0,0.3-0.1,0.5-0.3,0.6l0,0c-0.2,0.1-0.3,0.2-0.5,0.2c0,0-0.1,0-0.1,0c-0.2,0-0.4-0.1-0.6-0.3
				c-1-1.3-2.2-2.6-3.6-3.9c-0.1-0.1-0.1-0.1-0.2,0c-1.7,1.8-3.4,3.1-5.3,4.1c-0.2,0.1-0.4,0.1-0.5,0.1c-0.1,0-0.1,0-0.2,0
				c-0.3-0.1-0.5-0.2-0.7-0.4l0,0c-0.1-0.1-0.2-0.3-0.2-0.4c0,0,0-0.1,0-0.1c0-0.2,0.2-0.4,0.4-0.5c1.1-0.5,2.1-1.1,3.1-1.9
				c1-0.8,1.9-1.6,2.6-2.4c0.5-0.6,1-1.3,1.5-2s0.8-1.5,1-2.1c0,0,0,0,0-0.1c0,0,0,0-0.1,0h-5.8c-0.2,0-0.5,0-0.8,0c0,0,0,0-0.1,0
				c-0.2,0-0.4-0.1-0.6-0.2c-0.2-0.2-0.3-0.4-0.3-0.6c0-0.2,0.1-0.4,0.3-0.6c0.2-0.1,0.3-0.2,0.6-0.2c0,0,0,0,0.1,0
				c0.3,0,0.6,0,0.8,0h5.9C-134.9,62.4-134.7,62.4-134.5,62.3z"/>
			<path d="M-118.4,74.1c-0.1,0-0.2,0-0.3,0c-0.2,0-0.3,0-0.5-0.1c-0.2-0.1-0.4-0.3-0.6-0.5c-0.1-0.1-0.1-0.2-0.1-0.3
				c0-0.1,0-0.2,0.1-0.3c0.1-0.2,0.2-0.3,0.4-0.3c0.2,0,0.4-0.1,0.5-0.1c0.5-0.1,1-0.3,1.5-0.5c0.4-0.2,0.9-0.5,1.2-0.9
				c0.4-0.4,0.6-0.8,0.9-1.3c0.2-0.5,0.3-1.1,0.3-1.7c0-1.2-0.3-2.1-1-2.9c-0.7-0.8-1.6-1.3-2.7-1.5c-0.1,0-0.1,0-0.1,0.1
				c-0.3,1.7-0.6,3.1-0.9,4.3c-0.5,1.6-1,2.9-1.7,3.7c-0.7,0.9-1.4,1.3-2.2,1.3c-0.8,0-1.5-0.4-2.1-1.2c-0.6-0.8-0.9-1.9-0.9-3.2
				c0-0.9,0.2-1.7,0.6-2.5c0.4-0.8,0.9-1.5,1.5-2.1c0.6-0.6,1.4-1.1,2.3-1.4c0.9-0.4,1.8-0.5,2.8-0.5c0.9,0,1.8,0.2,2.6,0.5
				c0.8,0.3,1.4,0.7,2,1.3c0.5,0.5,0.9,1.2,1.2,1.9c0.3,0.7,0.4,1.5,0.4,2.3c0,1.5-0.4,2.8-1.3,3.9C-115.5,73-116.8,73.8-118.4,74.1
				z M-123.5,71.2c0.8,0,1.5-1.2,2.2-3.5c0.4-1.2,0.7-2.6,0.8-4c0,0,0,0,0-0.1c0,0,0,0-0.1,0c-0.7,0.1-1.3,0.4-1.9,0.7
				c-0.6,0.3-1,0.7-1.4,1.2c-0.4,0.5-0.6,0.9-0.9,1.5s-0.3,1-0.3,1.5c0,0.8,0.2,1.5,0.5,2C-124.3,71-123.9,71.2-123.5,71.2z"/>
		</g>
	</g>
	<g>
		<linearGradient id="SVGID_1_" gradientUnits="userSpaceOnUse" x1="-169.8757" y1="18.8083" x2="-169.8757" y2="49.2249">
			<stop  offset="0" style="stop-color:#F2D500"/>
			<stop  offset="1.000000e-02" style="stop-color:#F2D500"/>
			<stop  offset="0.25" style="stop-color:#F2D500"/>
			<stop  offset="0.5" style="stop-color:#F39700"/>
			<stop  offset="0.99" style="stop-color:#F39700"/>
			<stop  offset="1" style="stop-color:#F39700"/>
		</linearGradient>
		<path class="st0" d="M-164.1,17.3c0.1-0.4,0-0.4-0.2-0.1l-15.5,19.1c-0.2,0.3-0.1,0.6,0.3,0.6h6.6c0.4,0,0.6,0.3,0.5,0.7
			l-2.8,11.5c-0.1,0.4,0,0.4,0.2,0.1l15.1-19c0.3-0.3,0.1-0.6-0.3-0.6h-5.6c-0.4,0-0.6-0.3-0.5-0.7L-164.1,17.3z"/>
	</g>
</g>
<polygon class="st1" points="-38.5,28.8 -39.4,27.9 -42.9,24.4 -42.9,26.2 -40.3,28.8 -42.9,31.4 -42.9,33.2 -39.4,29.7 "/>
<g>
	<linearGradient id="SVGID_2_" gradientUnits="userSpaceOnUse" x1="11.4985" y1="2.2702" x2="11.4985" y2="39.9042">
		<stop  offset="0" style="stop-color:#F2D500"/>
		<stop  offset="1.000000e-02" style="stop-color:#F2D500"/>
		<stop  offset="0.25" style="stop-color:#F2D500"/>
		<stop  offset="0.5" style="stop-color:#F39700"/>
		<stop  offset="0.99" style="stop-color:#F39700"/>
		<stop  offset="1" style="stop-color:#F39700"/>
	</linearGradient>
	<path class="st2" d="M18,0.4c0.1-0.4,0-0.5-0.3-0.1L0.1,22.1c-0.3,0.4-0.1,0.7,0.3,0.7H8c0.5,0,0.7,0.4,0.6,0.8L5.4,36.6
		c-0.2,0.4,0,0.5,0.3,0.1L22.8,15c0.3-0.4,0.1-0.7-0.3-0.7h-6.4c-0.5,0-0.7-0.4-0.6-0.8L18,0.4z"/>
</g>
<polygon points="77.4,4.4 76.5,3.5 73,0 73,1.8 75.6,4.4 73,7 73,8.8 76.5,5.3 "/>
<g>
	
		<text transform="matrix(1 0 0 1 183.2844 4054.999)" style="font-family:'GenJyuuGothic-Regular'; font-size:14px; letter-spacing:1;">内部リンク</text>
</g>
<polygon points="176.9,4049 176,4048.1 172.6,4044.6 172.6,4046.4 175.1,4049 172.6,4051.6 172.6,4053.4 176,4049.9 "/>
<g>
	<g>
		
			<text transform="matrix(1 0 0 1 308.1809 4054)" style="font-family:'GenJyuuGothic-Regular'; font-size:14px; letter-spacing:1;">外部リンク</text>
	</g>
	<g>
		<g>
			<path d="M300.6,4047.2v4.7h-6.9v-4.7H300.6 M301.6,4046.2h-8.9v6.7h8.9V4046.2L301.6,4046.2z"/>
		</g>
		<g>
			<rect x="290.7" y="4044" class="st3" width="7.9" height="5.7"/>
			<path d="M298.1,4044.5v4.7h-6.9v-4.7H298.1 M299.1,4043.5h-8.9v6.7h8.9V4043.5L299.1,4043.5z"/>
		</g>
	</g>
</g>
<g>
	<g>
		
			<text transform="matrix(1 0 0 1 436.3465 4052)" style="font-family:'GenJyuuGothic-Regular'; font-size:14px; letter-spacing:1;">PDFリンク</text>
	</g>
	<g>
		<path class="st4" d="M427.6,4054c0,2.2-1.8,4-4,4h-14.9c-2.2,0-4-1.8-4-4v-14c0-2.2,1.8-4,4-4h14.9c2.2,0,4,1.8,4,4V4054z"/>
	</g>
	<text transform="matrix(1 0 0 1 407.5508 4049.8325)" class="st3" style="font-family:'GenJyuuGothic-Bold'; font-size:9px;">PDF</text>
</g>
<g>
	<g>
		<rect x="130.4" y="3.2" class="st3" width="7.9" height="5.7"/>
		<path d="M137.8,3.7v4.7h-6.9V3.7H137.8 M138.8,2.7h-8.9v6.7h8.9V2.7L138.8,2.7z"/>
	</g>
	<g>
		<rect x="127.9" y="0.5" class="st3" width="7.9" height="5.7"/>
		<path d="M135.3,1v4.7h-6.9V1H135.3 M136.3,0h-8.9v6.7h8.9V0L136.3,0z"/>
	</g>
</g>
<g>
	<path class="st4" d="M223.3,18c0,2.2-1.8,4-4,4h-14.9c-2.2,0-4-1.8-4-4V4c0-2.2,1.8-4,4-4h14.9c2.2,0,4,1.8,4,4V18z"/>
</g>
<text transform="matrix(1 0 0 1 203.3068 13.8336)" class="st3" style="font-family:'GenJyuuGothic-Bold'; font-size:9px;">PDF</text>
</svg>
