<?xml version="1.0" encoding="utf-8"?>
<!-- Generator: Adobe Illustrator 16.0.3, SVG Export Plug-In . SVG Version: 6.00 Build 0)  -->
<!DOCTYPE svg PUBLIC "-//W3C//DTD SVG 1.1//EN" "http://www.w3.org/Graphics/SVG/1.1/DTD/svg11.dtd">
<svg version="1.1" id="レイヤー_1" xmlns="http://www.w3.org/2000/svg" xmlns:xlink="http://www.w3.org/1999/xlink" x="0px"
	 y="0px" width="66px" height="67px" viewBox="0 0 66 67" enable-background="new 0 0 66 67" xml:space="preserve">
<g>
	<g>
		<g>
			<path fill="#FAC959" d="M1.5,11.662v28.162c0,5.306,8.801,9.609,19.662,9.609c10.859,0,19.663-4.304,19.663-9.609l0.048-28.363"
				/>
			<path fill="#231815" d="M21.162,50.934C9.296,50.934,0,46.054,0,39.824V11.662c0-0.829,0.672-1.5,1.5-1.5s1.5,0.671,1.5,1.5
				v28.162c0,3.836,7.459,8.109,18.162,8.109c10.704,0,18.163-4.273,18.163-8.109l0.048-28.365c0.001-0.828,0.673-1.498,1.5-1.498
				c0.001,0,0.002,0,0.003,0c0.828,0.001,1.498,0.674,1.497,1.502l-0.048,28.363C42.325,46.054,33.029,50.934,21.162,50.934z"/>
		</g>
		<g>
			<path fill="#231815" d="M21.162,41.798C9.296,41.798,0,36.919,0,30.69c0-0.829,0.672-1.5,1.5-1.5S3,29.862,3,30.69
				c0,3.835,7.459,8.107,18.162,8.107c10.704,0,18.163-4.272,18.163-8.107c0-0.829,0.672-1.5,1.5-1.5s1.5,0.671,1.5,1.5
				C42.325,36.919,33.029,41.798,21.162,41.798z"/>
		</g>
		<g>
			<path fill="#231815" d="M21.162,32.663C9.296,32.663,0,27.785,0,21.557c0-0.829,0.672-1.5,1.5-1.5s1.5,0.671,1.5,1.5
				c0,3.834,7.459,8.106,18.162,8.106c10.704,0,18.163-4.272,18.163-8.106c0-0.829,0.672-1.5,1.5-1.5s1.5,0.671,1.5,1.5
				C42.325,27.785,33.029,32.663,21.162,32.663z"/>
		</g>
		<g>
			<path fill="#FAC959" d="M40.825,11.563c0,5.412-8.804,9.798-19.663,9.798c-10.861,0-19.662-4.387-19.662-9.798
				C1.5,6.151,9.277,1.5,21.162,1.5C33.078,1.5,40.825,6.151,40.825,11.563z"/>
			<path fill="#231815" d="M21.162,22.862C9.296,22.862,0,17.899,0,11.563C0,4.863,8.9,0,21.162,0
				c12.263,0,21.163,4.863,21.163,11.563C42.325,17.899,33.029,22.862,21.162,22.862z M21.162,3C9.794,3,3,7.354,3,11.563
				c0,4.007,7.298,8.298,18.162,8.298s18.163-4.291,18.163-8.298C39.325,7.354,32.531,3,21.162,3z"/>
		</g>
		<g>
			<path fill="#231815" d="M21.162,17.989c-7.627,0-15.322-2.23-15.322-7.213c0-4.977,9.129-6.784,15.266-6.784
				c5.911,0,15.313,1.838,15.377,6.771c0.017,1.246-0.477,2.387-1.467,3.39C32.646,16.555,27.467,17.989,21.162,17.989z
				 M21.105,5.992c-7.066,0-13.266,2.235-13.266,4.784c0,3.021,5.603,5.213,13.322,5.213c5.608,0,10.487-1.272,12.43-3.241
				c0.608-0.617,0.9-1.258,0.891-1.959C34.447,8.043,27.391,5.992,21.105,5.992z"/>
		</g>
		<g>
			<path fill="#231815" d="M6.029,46.783c-0.553,0-1-0.447-1-1V17.787c0-0.552,0.447-1,1-1s1,0.448,1,1v27.996
				C7.029,46.336,6.582,46.783,6.029,46.783z"/>
		</g>
		<g>
			<path fill="#231815" d="M10.834,48.855c-0.553,0-1-0.447-1-1V19.857c0-0.552,0.447-1,1-1s1,0.448,1,1v27.999
				C11.834,48.408,11.387,48.855,10.834,48.855z"/>
		</g>
		<g>
			<path fill="#231815" d="M15.637,49.889c-0.553,0-1-0.447-1-1V20.892c0-0.552,0.447-1,1-1s1,0.448,1,1v27.997
				C16.637,49.441,16.189,49.889,15.637,49.889z"/>
		</g>
		<g>
			<path fill="#231815" d="M20.441,50.294c-0.553,0-1-0.448-1-1V21.297c0-0.552,0.447-1,1-1s1,0.448,1,1v27.997
				C21.441,49.846,20.994,50.294,20.441,50.294z"/>
		</g>
	</g>
	<g>
		<g>
			<circle fill="#FAC959" cx="43.403" cy="44.096" r="20.974"/>
			<path fill="#231815" d="M43.402,66.572c-12.392,0-22.473-10.082-22.473-22.477c0-12.391,10.081-22.472,22.473-22.472
				c12.393,0,22.475,10.081,22.475,22.472C65.877,56.49,55.795,66.572,43.402,66.572z M43.402,24.624
				c-10.737,0-19.473,8.735-19.473,19.472c0,10.74,8.735,19.477,19.473,19.477c10.738,0,19.475-8.736,19.475-19.477
				C62.877,33.359,54.141,24.624,43.402,24.624z"/>
		</g>
		<g>
			<path fill="#231815" d="M43.402,61.918c-9.826,0-17.82-7.994-17.82-17.822c0-9.824,7.994-17.818,17.82-17.818
				s17.82,7.994,17.82,17.818C61.223,53.924,53.229,61.918,43.402,61.918z M43.402,28.277c-8.724,0-15.82,7.096-15.82,15.818
				c0,8.725,7.097,15.822,15.82,15.822s15.82-7.098,15.82-15.822C59.223,35.373,52.126,28.277,43.402,28.277z"/>
		</g>
		<g>
			<g>
				<path fill="#231815" d="M52.234,47.342c0.017,0.523-0.126,0.98-0.425,1.366c-0.302,0.386-0.728,0.58-1.278,0.58H45.09v4.599
					c0,0.575-0.176,1.041-0.522,1.393c-0.349,0.352-0.741,0.527-1.183,0.527c-0.473,0-0.869-0.158-1.184-0.475
					c-0.363-0.352-0.545-0.832-0.545-1.445v-4.599h-5.369c-0.523,0-0.939-0.184-1.256-0.553c-0.299-0.369-0.449-0.813-0.449-1.341
					c-0.017-0.526,0.124-0.981,0.425-1.368c0.316-0.386,0.741-0.577,1.28-0.577h4.731l-1.278-1.895h-3.573
					c-0.536,0-0.948-0.186-1.23-0.555c-0.299-0.367-0.45-0.804-0.45-1.313c-0.033-0.508,0.104-0.955,0.402-1.342
					c0.301-0.402,0.725-0.605,1.278-0.605h0.947l-1.989-2.917c-0.252-0.353-0.377-0.727-0.377-1.131
					c0-0.524,0.197-0.962,0.591-1.315c0.396-0.366,0.835-0.55,1.325-0.55c0.488,0,0.914,0.262,1.278,0.789l5.419,8.358l5.395-8.358
					c0.364-0.527,0.788-0.789,1.277-0.789c0.49,0,0.932,0.184,1.324,0.55c0.398,0.354,0.593,0.791,0.593,1.315
					c0,0.404-0.126,0.778-0.378,1.131l-1.988,2.917h0.828c0.521,0,0.939,0.184,1.254,0.553c0.302,0.369,0.449,0.809,0.449,1.314
					c0.016,0.527-0.125,0.983-0.426,1.367c-0.314,0.387-0.741,0.58-1.277,0.58h-3.455l-1.277,1.895h4.852
					c0.535,0,0.953,0.184,1.254,0.55C52.084,46.368,52.234,46.815,52.234,47.342z"/>
			</g>
		</g>
	</g>
</g>
</svg>
