<?xml version="1.0" encoding="utf-8"?>
<!-- Generator: Adobe Illustrator 16.0.3, SVG Export Plug-In . SVG Version: 6.00 Build 0)  -->
<!DOCTYPE svg PUBLIC "-//W3C//DTD SVG 1.1//EN" "http://www.w3.org/Graphics/SVG/1.1/DTD/svg11.dtd">
<svg version="1.1" id="レイヤー_1" xmlns="http://www.w3.org/2000/svg" xmlns:xlink="http://www.w3.org/1999/xlink" x="0px"
	 y="0px" width="67px" height="84px" viewBox="0 0 67 84" enable-background="new 0 0 67 84" xml:space="preserve">
<g>
	<g>
		<path fill="#231815" d="M57.338,10.918c-0.398,0-0.797-0.158-1.092-0.472c-0.568-0.603-0.54-1.552,0.063-2.12l3.65-3.44
			c0.602-0.566,1.552-0.541,2.12,0.063c0.568,0.603,0.54,1.552-0.063,2.12l-3.65,3.44C58.077,10.783,57.707,10.918,57.338,10.918z"
			/>
	</g>
	<g>
		<path fill="#231815" d="M60.29,15.474c-0.651,0-1.251-0.427-1.44-1.084c-0.229-0.796,0.229-1.628,1.025-1.857l4.818-1.391
			c0.793-0.229,1.628,0.229,1.857,1.025s-0.229,1.628-1.025,1.857l-4.818,1.391C60.568,15.456,60.428,15.474,60.29,15.474z"/>
	</g>
	<g>
		<path fill="#231815" d="M52.922,7.727c-0.167,0-0.336-0.027-0.502-0.087c-0.781-0.277-1.188-1.135-0.911-1.915L53.188,1
			c0.276-0.782,1.135-1.191,1.915-0.911c0.781,0.277,1.188,1.135,0.911,1.915l-1.68,4.726C54.117,7.344,53.539,7.727,52.922,7.727z"
			/>
	</g>
	<g>
		<path fill="#FFFBDA" d="M1.5,65.546c0,0,4.865-4.825,5.234-8.288c0.336-3.141,0.041-6.579,0.887-12.008
			c1.16-7.445,0.686-14.874,0.271-18.738c-0.721-6.712,0.735-7.771,2.864-8.261c2.578-0.593,5.685,1.072,6.709,4.296
			c1.378,4.336,0.395,11.311,2.205,12.555c1.549,1.063,3.263,0.421,5.345-1.442c1.838-1.645,4.14-3.985,4.14-3.985
			c2.031-1.934,5.121-4.896,8.025-7.639c5.221-4.932,8.45-7.624,9.766-8.547c3.605-2.531,6.629,0.175,6.926,2.309
			c0.168,1.205-0.109,2.679-2.666,5.307c-2.763,2.841-7.16,7.506-9.385,9.537c-1.969,1.799-6.672,6.574-6.672,6.574
			s2.635-2.41,4.398-3.572c1.709-1.125,3.058-1.174,4.5-0.791c2.449,0.65,3.75,3.322,3.302,5.416
			c-0.679,3.17-5.096,6.458-5.096,6.458s2.409-2.2,4.437-3.075c2.24-0.967,4.121,0.086,5.008,1.01c1.25,1.3,1.504,2.933,1.086,4.535
			c-0.643,2.457-4.236,5.239-4.236,5.239s2.082-1.965,4.168-2.352c1.523-0.282,2.666,0.391,3.457,1.227
			c0.911,0.963,1.246,2.795,0.871,4.01c-0.463,1.497-1.28,2.332-2.996,3.99c-1.582,1.531-10.208,10.458-16.385,13.006
			c-5.305,2.188-9.87,2.941-11.486,4.077c-1.898,1.335-5.929,5.807-5.929,5.807"/>
		<path fill="#231815" d="M20.247,83.699c-0.358,0-0.718-0.127-1.004-0.386c-0.615-0.555-0.665-1.503-0.11-2.118
			c0.424-0.471,4.2-4.638,6.18-6.029c1.025-0.721,2.663-1.214,4.93-1.896c1.927-0.579,4.325-1.301,6.848-2.342
			c5.325-2.196,12.817-9.629,15.279-12.071c0.27-0.267,0.483-0.479,0.635-0.626c1.69-1.634,2.266-2.254,2.606-3.355
			c0.231-0.752-0.029-2.009-0.528-2.535c-0.844-0.895-1.601-0.875-2.094-0.783c-0.932,0.173-1.978,0.833-2.695,1.375
			c-0.415,0.364-0.725,0.607-0.828,0.688c-0.634,0.489-1.538,0.396-2.058-0.212c-0.521-0.607-0.472-1.517,0.11-2.065
			c0.085-0.081,0.409-0.38,0.897-0.755c1.188-1.063,2.616-2.624,2.917-3.773c0.323-1.236,0.082-2.285-0.717-3.116
			c-0.238-0.249-1.523-1.452-3.331-0.672c-0.858,0.37-1.875,1.074-2.696,1.707c-0.716,0.646-1.279,1.075-1.439,1.194
			c-0.642,0.479-1.543,0.369-2.053-0.248c-0.509-0.616-0.444-1.523,0.146-2.063c0.048-0.044,0.594-0.539,1.384-1.157
			c1.298-1.186,2.928-2.969,3.257-4.508c0.293-1.367-0.595-3.22-2.22-3.651c-1.051-0.278-1.968-0.276-3.29,0.594
			c-1.646,1.084-4.186,3.402-4.211,3.426c-0.602,0.55-1.528,0.52-2.093-0.065c-0.564-0.586-0.56-1.515,0.012-2.094
			c0.192-0.196,4.753-4.824,6.729-6.629c1.634-1.491,4.484-4.455,7-7.07c0.836-0.869,1.63-1.694,2.321-2.405
			c2.467-2.536,2.324-3.562,2.256-4.054c-0.084-0.6-0.653-1.446-1.544-1.833c-0.914-0.398-1.961-0.208-3.034,0.545
			c-1.307,0.916-4.513,3.606-9.598,8.41c-2.031,1.917-4.152,3.942-5.939,5.647l-2.082,1.987c-0.06,0.062-2.321,2.358-4.174,4.017
			c-1.017,0.909-4.111,3.678-7.193,1.561c-1.609-1.105-1.765-3.74-1.962-7.076c-0.125-2.112-0.267-4.508-0.824-6.261
			c-0.81-2.548-3.202-3.691-4.943-3.288c-1.162,0.267-2.363,0.543-1.709,6.639c0.412,3.832,0.923,11.413-0.279,19.128
			c-0.517,3.315-0.596,5.859-0.666,8.104c-0.041,1.341-0.08,2.607-0.212,3.833c-0.413,3.881-5.133,8.661-5.669,9.194
			c-0.589,0.583-1.536,0.578-2.121-0.009c-0.583-0.588-0.58-1.537,0.008-2.121c1.735-1.725,4.572-5.253,4.8-7.383
			c0.119-1.113,0.154-2.27,0.196-3.607c0.072-2.331,0.154-4.974,0.699-8.472C7.288,37.642,6.796,30.358,6.4,26.672
			c-0.685-6.374,0.405-9.052,4.02-9.883c3.543-0.814,7.27,1.514,8.475,5.304c0.671,2.11,0.824,4.704,0.959,6.992
			c0.102,1.719,0.255,4.315,0.703,4.811c0.333,0.223,1.104,0.752,3.458-1.354c1.781-1.594,4.048-3.896,4.07-3.919l2.114-2.019
			c1.79-1.708,3.916-3.737,5.951-5.659c6.546-6.184,9.258-8.21,9.934-8.684c1.943-1.365,4.058-1.666,5.954-0.842
			c1.743,0.759,3.077,2.435,3.318,4.171c0.291,2.083-0.63,4.045-3.076,6.56c-0.688,0.707-1.478,1.528-2.311,2.394
			c-2.272,2.363-4.816,5.008-6.549,6.655c0.329,0.044,0.666,0.112,1.011,0.203c3.352,0.891,4.973,4.432,4.384,7.181
			c-0.086,0.399-0.216,0.796-0.379,1.186c0.012,0,0.023,0,0.036,0c1.821,0,3.369,0.877,4.307,1.854
			c1.525,1.587,2.043,3.702,1.455,5.953c-0.085,0.324-0.206,0.648-0.355,0.969c1.248,0.121,2.416,0.714,3.383,1.735
			c1.249,1.321,1.771,3.679,1.215,5.483c-0.57,1.844-1.554,2.854-3.388,4.626c-0.144,0.14-0.349,0.344-0.607,0.6
			c-2.565,2.546-10.375,10.292-16.247,12.715c-2.66,1.098-5.138,1.843-7.128,2.441c-1.846,0.556-3.439,1.035-4.068,1.477
			c-1.442,1.014-4.587,4.374-5.677,5.583C21.065,83.532,20.656,83.699,20.247,83.699z"/>
	</g>
</g>
</svg>
