<?xml version="1.0" encoding="utf-8"?>
<!-- Generator: Adobe Illustrator 21.1.0, SVG Export Plug-In . SVG Version: 6.00 Build 0)  -->
<svg version="1.1" id="レイヤー_1" xmlns="http://www.w3.org/2000/svg" xmlns:xlink="http://www.w3.org/1999/xlink" x="0px"
	 y="0px" viewBox="0 0 1800 820" style="enable-background:new 0 0 1800 820;" xml:space="preserve">
<style type="text/css">
	.st0{fill:#FFFFFF;}
</style>
<g>
	<path class="st0" d="M555.1,111.6h-18.8c0-3.7-3-6.7-6.7-6.7h-37.7c-3.7,0-6.7,3-6.7,6.7s3,6.7,6.7,6.7h18.8c0,3.7,3,6.7,6.7,6.7
		h37.7c3.7,0,6.7-3,6.7-6.7S558.8,111.6,555.1,111.6z"/>
	<path class="st0" d="M931.1,302.6h-18.8c0-3.7-3-6.7-6.7-6.7h-37.7c-3.7,0-6.7,3-6.7,6.7s3,6.7,6.7,6.7h18.8c0,3.7,3,6.7,6.7,6.7
		h37.7c3.7,0,6.7-3,6.7-6.7S934.8,302.6,931.1,302.6z"/>
	<path class="st0" d="M481.1,479.6h-18.8c0-3.7-3-6.7-6.7-6.7h-37.7c-3.7,0-6.7,3-6.7,6.7s3,6.7,6.7,6.7h18.8c0,3.7,3,6.7,6.7,6.7
		h37.7c3.7,0,6.7-3,6.7-6.7S484.8,479.6,481.1,479.6z"/>
	<path class="st0" d="M225.1,662.6h-18.8c0-3.7-3-6.7-6.7-6.7h-37.7c-3.7,0-6.7,3-6.7,6.7s3,6.7,6.7,6.7h18.8c0,3.7,3,6.7,6.7,6.7
		h37.7c3.7,0,6.7-3,6.7-6.7S228.8,662.6,225.1,662.6z"/>
	<path class="st0" d="M251,162.8h-18.8c0-3.7-3-6.7-6.7-6.7h-37.7c-3.7,0-6.7,3-6.7,6.7s3,6.7,6.7,6.7h18.8c0,3.7,3,6.7,6.7,6.7H251
		c3.7,0,6.7-3,6.7-6.7S254.7,162.8,251,162.8z"/>
	<path class="st0" d="M1313,652.8h-18.8c0-3.7-3-6.7-6.7-6.7h-37.7c-3.7,0-6.7,3-6.7,6.7s3,6.7,6.7,6.7h18.8c0,3.7,3,6.7,6.7,6.7
		h37.7c3.7,0,6.7-3,6.7-6.7S1316.7,652.8,1313,652.8z"/>
	<path class="st0" d="M711,761.8h-18.8c0-3.7-3-6.7-6.7-6.7h-37.7c-3.7,0-6.7,3-6.7,6.7s3,6.7,6.7,6.7h18.8c0,3.7,3,6.7,6.7,6.7H711
		c3.7,0,6.7-3,6.7-6.7S714.7,761.8,711,761.8z"/>
	<path class="st0" d="M1331.7,52.9h-18.8c0-3.7-3-6.7-6.7-6.7h-37.7c-3.7,0-6.7,3-6.7,6.7s3,6.7,6.7,6.7h18.8c0,3.7,3,6.7,6.7,6.7
		h37.7c3.7,0,6.7-3,6.7-6.7v0C1338.3,55.9,1335.3,52.9,1331.7,52.9z"/>
	<path class="st0" d="M1675.7,408.9h-18.8c0-3.7-3-6.7-6.7-6.7h-37.7c-3.7,0-6.7,3-6.7,6.7s3,6.7,6.7,6.7h18.8c0,3.7,3,6.7,6.7,6.7
		h37.7c3.7,0,6.7-3,6.7-6.7v0C1682.3,411.9,1679.3,408.9,1675.7,408.9z"/>
	<path class="st0" d="M1618.8,159.5c0-3.7-3-6.7-6.7-6.7h-18.8v0c0-3.7-3-6.7-6.7-6.7H1549c-3.7,0-6.7,3-6.7,6.7v0
		c0,3.7,3,6.7,6.7,6.7h18.8c0,3.7,3,6.7,6.7,6.7h37.7C1615.8,166.2,1618.8,163.2,1618.8,159.5z"/>
</g>
</svg>
