<?xml version="1.0" encoding="utf-8"?>
<!-- Generator: Adobe Illustrator 16.0.3, SVG Export Plug-In . SVG Version: 6.00 Build 0)  -->
<!DOCTYPE svg PUBLIC "-//W3C//DTD SVG 1.1//EN" "http://www.w3.org/Graphics/SVG/1.1/DTD/svg11.dtd">
<svg version="1.1" id="レイヤー_1" xmlns="http://www.w3.org/2000/svg" xmlns:xlink="http://www.w3.org/1999/xlink" x="0px"
	 y="0px" width="47px" height="15px" viewBox="0 28.5 47 15" enable-background="new 0 28.5 47 15" xml:space="preserve">
<g>
	<g>
		<g>
			<path d="M16.401,39.478c-0.053,0.053-0.133,0.079-0.212,0.079s-0.132-0.026-0.212-0.079c-0.053-0.053-0.08-0.133-0.08-0.213
				v-1.458c0-0.054-0.026-0.054-0.053-0.054h-2.386c-0.026,0-0.053,0.027-0.053,0.054v0.796c0,0.079-0.026,0.133-0.08,0.186
				c-0.053,0.053-0.106,0.079-0.186,0.079s-0.132-0.026-0.186-0.079c-0.053-0.053-0.08-0.133-0.08-0.186V37.78
				c0-0.133,0.053-0.238,0.133-0.318s0.186-0.133,0.318-0.133h2.519c0.027,0,0.053-0.026,0.053-0.053v-0.371
				c0-0.053-0.026-0.053-0.053-0.053h-2.28c-0.053,0-0.106-0.027-0.159-0.053c-0.053-0.054-0.08-0.107-0.08-0.16
				s0.027-0.105,0.08-0.158c0.053-0.054,0.106-0.054,0.159-0.054h5.303c0.053,0,0.106,0.026,0.159,0.054
				c0.053,0.053,0.08,0.105,0.08,0.158s-0.027,0.106-0.08,0.16c-0.053,0.053-0.106,0.053-0.159,0.053h-2.333
				c-0.026,0-0.053,0.025-0.053,0.053v0.371c0,0.053,0.026,0.053,0.053,0.053h2.572c0.132,0,0.238,0.053,0.318,0.133
				s0.133,0.186,0.133,0.318v0.795c0,0.08-0.027,0.133-0.08,0.186c-0.053,0.054-0.106,0.08-0.186,0.08s-0.133-0.026-0.186-0.08
				c-0.053-0.053-0.08-0.105-0.08-0.186v-0.769c0-0.054-0.027-0.054-0.053-0.054H16.56c-0.026,0-0.053,0.027-0.053,0.054v1.458
				C16.481,39.345,16.454,39.425,16.401,39.478z M17.038,42.765h1.776c0.186,0,0.318-0.053,0.398-0.133
				c0.08-0.079,0.106-0.265,0.132-0.529c0-0.053,0.027-0.106,0.106-0.133c0.053-0.027,0.106-0.027,0.186-0.027
				c0.08,0.027,0.132,0.08,0.186,0.133c0.026,0.053,0.053,0.106,0.053,0.16c0,0.025,0,0.025,0,0.053
				c-0.053,0.371-0.132,0.609-0.292,0.742c-0.133,0.133-0.371,0.186-0.716,0.186h-1.83c-0.451,0-0.743-0.053-0.901-0.159
				c-0.159-0.106-0.239-0.318-0.239-0.636v-0.186c0-0.054-0.026-0.054-0.053-0.054h-1.697c-0.026,0-0.053,0.026-0.053,0.054v0.079
				c0,0.079-0.026,0.132-0.08,0.212c-0.053,0.053-0.132,0.08-0.212,0.08s-0.133-0.027-0.186-0.106
				c-0.053-0.054-0.08-0.133-0.08-0.212v-2.016c0-0.133,0.053-0.238,0.132-0.318c0.08-0.079,0.186-0.133,0.318-0.133h4.455
				c0.132,0,0.239,0.054,0.318,0.133c0.08,0.08,0.132,0.186,0.132,0.318v1.459c0,0.132-0.053,0.238-0.132,0.318
				c-0.08,0.078-0.186,0.132-0.318,0.132h-1.962c-0.027,0-0.053,0.026-0.053,0.054v0.186c0,0.132,0.026,0.211,0.106,0.265
				C16.613,42.738,16.772,42.765,17.038,42.765z M13.856,39.345c-0.053,0-0.106-0.027-0.133-0.053
				c-0.053-0.027-0.053-0.08-0.053-0.133s0-0.08,0.053-0.133c0.026-0.026,0.08-0.053,0.133-0.053h1.458
				c0.053,0,0.106,0.026,0.133,0.053c0.026,0.026,0.053,0.08,0.053,0.133s-0.026,0.105-0.053,0.133
				c-0.053,0.053-0.08,0.053-0.133,0.053H13.856z M15.314,38.178c0.053,0,0.106,0.026,0.133,0.054
				c0.026,0.025,0.053,0.079,0.053,0.132c0,0.054-0.026,0.106-0.053,0.133c-0.027,0.026-0.08,0.054-0.133,0.054h-1.326
				c-0.053,0-0.08-0.027-0.132-0.054c-0.027-0.026-0.053-0.079-0.053-0.133c0-0.053,0.026-0.106,0.053-0.132
				c0.026-0.027,0.079-0.054,0.132-0.054H15.314z M15.871,40.325c0-0.025-0.027-0.053-0.053-0.053h-1.644
				c-0.026,0-0.053,0.027-0.053,0.053v0.425c0,0.026,0.026,0.053,0.053,0.053h1.644c0.053,0,0.053-0.026,0.053-0.053V40.325z
				 M14.121,41.704c0,0.027,0.026,0.053,0.053,0.053h1.644c0.053,0,0.053-0.025,0.053-0.053V41.28c0-0.027-0.027-0.053-0.053-0.053
				h-1.644c-0.026,0-0.053,0.025-0.053,0.053V41.704z M18.284,40.803c0.026,0,0.053-0.026,0.053-0.053v-0.425
				c0-0.025-0.027-0.053-0.053-0.053h-1.776c-0.026,0-0.053,0.027-0.053,0.053v0.425c0,0.026,0.027,0.053,0.053,0.053H18.284z
				 M16.454,41.704c0,0.027,0.027,0.053,0.053,0.053h1.776c0.026,0,0.053-0.025,0.053-0.053V41.28c0-0.027-0.027-0.053-0.053-0.053
				h-1.776c-0.026,0-0.053,0.025-0.053,0.053V41.704z M16.958,38.496c-0.026-0.026-0.053-0.079-0.053-0.133
				c0-0.053,0.027-0.106,0.053-0.132c0.026-0.027,0.08-0.054,0.133-0.054h1.326c0.053,0,0.08,0.026,0.132,0.054
				c0.026,0.025,0.053,0.079,0.053,0.132c0,0.054-0.027,0.106-0.053,0.133s-0.08,0.054-0.132,0.054h-1.326
				C17.038,38.55,16.984,38.522,16.958,38.496z M17.091,39.345c-0.053,0-0.106-0.027-0.133-0.053
				c-0.026-0.027-0.053-0.08-0.053-0.133s0.027-0.106,0.053-0.133s0.08-0.053,0.133-0.053h1.511c0.053,0,0.106,0.026,0.132,0.053
				c0.027,0.026,0.053,0.08,0.053,0.133s-0.026,0.105-0.053,0.133c-0.026,0.053-0.08,0.053-0.132,0.053H17.091z"/>
			<path d="M25.019,37.542c0,0.025,0.026,0.053,0.053,0.053h2.784c0.132,0,0.238,0.053,0.318,0.133
				c0.08,0.079,0.106,0.186,0.106,0.291c0,0.981-0.08,2.095-0.265,3.395c-0.106,0.689-0.238,1.14-0.424,1.352
				c-0.159,0.186-0.372,0.292-0.663,0.318c-0.106,0-0.212,0-0.345,0c-0.159,0-0.371,0-0.61-0.026c-0.106,0-0.186-0.026-0.239-0.106
				c-0.08-0.053-0.106-0.133-0.159-0.238c-0.026-0.08,0-0.133,0.027-0.186c0.026-0.053,0.08-0.08,0.159-0.08
				c0.318,0.027,0.636,0.027,0.928,0.027c0.159,0,0.292-0.027,0.371-0.106c0.133-0.132,0.265-0.53,0.345-1.167
				c0.106-0.636,0.186-1.617,0.265-2.969c0-0.054-0.026-0.054-0.053-0.054h-2.599c-0.053,0-0.053,0.026-0.08,0.054
				c-0.026,0.344-0.053,0.662-0.106,0.954c-0.053,0.317-0.159,0.663-0.292,1.034c-0.133,0.371-0.318,0.716-0.53,1.033
				c-0.212,0.318-0.478,0.637-0.822,0.982c-0.265,0.265-0.557,0.503-0.901,0.715c-0.053,0.027-0.133,0.053-0.186,0.053
				c-0.027,0-0.053,0-0.08,0c-0.08-0.025-0.159-0.053-0.239-0.132c-0.053-0.054-0.08-0.106-0.08-0.186s0.027-0.159,0.106-0.186
				c0.398-0.265,0.743-0.558,1.034-0.849c0.372-0.371,0.663-0.77,0.849-1.166c0.186-0.398,0.345-0.796,0.424-1.168
				c0.08-0.344,0.159-0.715,0.186-1.113c0-0.026,0-0.053-0.053-0.053h-2.201c-0.08,0-0.159-0.026-0.212-0.08
				c-0.053-0.053-0.08-0.132-0.08-0.211c0-0.08,0.026-0.16,0.08-0.213c0.053-0.053,0.132-0.08,0.212-0.08h2.228
				c0.026,0,0.053-0.025,0.053-0.053v-0.291v-1.061c0-0.08,0.027-0.16,0.08-0.213c0.053-0.053,0.133-0.079,0.212-0.079
				c0.079,0,0.159,0.026,0.212,0.079s0.08,0.133,0.08,0.213v1.061v0.318H25.019z"/>
			<path d="M31.091,41.731c0.026-0.08,0.079-0.133,0.158-0.16c0.08-0.053,0.133-0.053,0.213-0.025
				c0.08,0.025,0.133,0.053,0.159,0.132s0.053,0.133,0.026,0.212c-0.186,0.478-0.398,0.875-0.637,1.221
				c-0.053,0.053-0.105,0.105-0.186,0.105c-0.079,0-0.158,0-0.212-0.053c-0.079-0.053-0.105-0.133-0.105-0.213
				c0-0.053,0.026-0.105,0.053-0.158C30.772,42.474,30.932,42.128,31.091,41.731z M32.682,36.349c0.132,0,0.238,0.053,0.317,0.133
				c0.08,0.079,0.133,0.186,0.133,0.318v4.029c0,0.133-0.053,0.238-0.133,0.318c-0.079,0.08-0.186,0.133-0.317,0.133h-1.458
				c-0.133,0-0.239-0.053-0.318-0.133c-0.08-0.08-0.133-0.186-0.133-0.318V36.8c0-0.133,0.053-0.239,0.133-0.318
				c0.079-0.08,0.186-0.133,0.318-0.133H32.682z M32.549,37.833c0.054,0,0.054-0.026,0.054-0.053v-0.875
				c0-0.053-0.027-0.053-0.054-0.053h-1.192c-0.027,0-0.054,0.025-0.054,0.053v0.875c0,0.026,0.026,0.053,0.054,0.053H32.549z
				 M32.549,39.317c0.054,0,0.054-0.025,0.054-0.053v-0.901c0-0.026-0.027-0.053-0.054-0.053h-1.192
				c-0.027,0-0.054,0.026-0.054,0.053v0.901c0,0.053,0.026,0.053,0.054,0.053H32.549z M32.549,40.829
				c0.054,0,0.054-0.026,0.054-0.053v-0.928c0-0.053-0.027-0.053-0.054-0.053h-1.192c-0.027,0-0.054,0.025-0.054,0.053v0.928
				c0,0.026,0.026,0.053,0.054,0.053H32.549z M32.337,41.89c-0.027-0.026-0.027-0.079-0.027-0.105c0-0.027,0-0.053,0-0.08
				c0.027-0.053,0.054-0.105,0.107-0.133c0.079-0.025,0.132-0.025,0.211-0.025c0.08,0.025,0.133,0.053,0.16,0.132
				c0.132,0.186,0.238,0.372,0.318,0.558c0.025,0.079,0.053,0.132,0.025,0.211c-0.025,0.08-0.079,0.133-0.133,0.16
				c-0.053,0.025-0.132,0.025-0.186,0c-0.053-0.027-0.132-0.08-0.158-0.133C32.575,42.288,32.47,42.075,32.337,41.89z
				 M36.817,38.442c0.16,0,0.266,0,0.346,0.027c0.053,0.026,0.079,0.053,0.132,0.08c0.026,0.053,0.054,0.078,0.026,0.132
				c-0.186,1.167-0.557,2.147-1.087,2.943c-0.026,0.053-0.026,0.106-0.026,0.132c0.345,0.398,0.77,0.717,1.22,0.955
				c0.079,0.026,0.106,0.08,0.106,0.159c0,0.026,0,0.026,0,0.054c0,0.053-0.027,0.105-0.053,0.158
				c-0.054,0.08-0.133,0.106-0.213,0.133c-0.026,0-0.053,0.026-0.08,0.026c-0.053,0-0.105,0-0.158-0.026
				c-0.451-0.266-0.849-0.584-1.193-0.98c-0.027-0.027-0.053-0.027-0.08,0c-0.344,0.396-0.769,0.715-1.219,0.954
				c-0.08,0.026-0.16,0.053-0.213,0.026s-0.133-0.08-0.186-0.133s-0.053-0.133-0.026-0.186s0.054-0.133,0.106-0.159
				c0.45-0.238,0.875-0.557,1.219-0.954c0.027-0.027,0.027-0.053,0-0.106c-0.45-0.689-0.795-1.591-1.033-2.651
				C34.405,39,34.378,39,34.378,39c-0.025,0-0.025,0-0.025,0.026v0.318c0,1.67-0.239,2.916-0.717,3.766
				c-0.026,0.053-0.079,0.105-0.158,0.105c-0.08,0-0.133,0-0.213-0.053c-0.053-0.053-0.105-0.106-0.105-0.16
				c0-0.025-0.027-0.053-0.027-0.078c0-0.054,0-0.107,0.027-0.133c0.133-0.239,0.238-0.504,0.344-0.796
				c0.08-0.292,0.16-0.61,0.186-0.929c0.027-0.317,0.054-0.609,0.08-0.875c0-0.265,0.026-0.529,0.026-0.848v-2.413
				c0-0.132,0.054-0.239,0.133-0.318s0.186-0.132,0.318-0.132h2.942c0.08,0,0.133,0.025,0.186,0.079
				c0.054,0.053,0.08,0.106,0.08,0.186s-0.026,0.132-0.08,0.186c-0.053,0.054-0.105,0.079-0.186,0.079h-2.783
				c-0.027,0-0.053,0.027-0.053,0.054v1.353c0,0.025,0.025,0.053,0.053,0.053h2.412V38.442z M36.712,39.026
				c0-0.026,0-0.053-0.053-0.053h-1.671c-0.026,0-0.054,0.026-0.054,0.053c0.187,0.849,0.479,1.564,0.875,2.148
				c0,0.025,0.027,0.025,0.027,0.025s0.026,0,0.026-0.025C36.261,40.591,36.526,39.849,36.712,39.026z"/>
			<path d="M41.563,40.564c0-0.079,0.054-0.159,0.106-0.212c0.054-0.053,0.133-0.08,0.212-0.08c0.08,0,0.16,0.027,0.213,0.08
				s0.079,0.133,0.053,0.212c-0.053,0.371-0.105,0.663-0.186,0.928s-0.213,0.504-0.371,0.716c-0.159,0.238-0.371,0.424-0.637,0.584
				c-0.266,0.158-0.609,0.291-1.008,0.424c-0.026,0-0.053,0-0.105,0s-0.106,0-0.159-0.026c-0.079-0.026-0.133-0.106-0.186-0.159
				c-0.026-0.027-0.026-0.08-0.026-0.105c0-0.027,0-0.054,0.026-0.08c0.026-0.053,0.053-0.106,0.132-0.133
				c0.346-0.105,0.637-0.212,0.875-0.345c0.239-0.132,0.425-0.292,0.584-0.478c0.133-0.186,0.238-0.397,0.318-0.583
				C41.458,41.121,41.511,40.856,41.563,40.564z M42.545,38.151c0.026,0,0.054-0.026,0.054-0.053v-0.663
				c0-0.026-0.027-0.054-0.054-0.054h-2.784c-0.079,0-0.133-0.025-0.186-0.079c-0.053-0.053-0.079-0.106-0.079-0.186
				s0.026-0.132,0.079-0.186s0.106-0.079,0.186-0.079h2.784c0.026,0,0.054-0.027,0.054-0.053v-0.425
				c0-0.079,0.025-0.159,0.079-0.212s0.132-0.08,0.212-0.08s0.159,0.027,0.213,0.08c0.053,0.053,0.079,0.133,0.079,0.212V36.8
				c0,0.025,0.026,0.053,0.053,0.053h2.837c0.08,0,0.133,0.025,0.186,0.079s0.08,0.106,0.08,0.186s-0.027,0.133-0.08,0.186
				c-0.053,0.054-0.105,0.079-0.186,0.079h-2.837c-0.026,0-0.053,0.027-0.053,0.054v0.663c0,0.026,0.026,0.053,0.053,0.053h2.147
				c0.08,0,0.133,0.026,0.186,0.08c0.054,0.053,0.08,0.105,0.08,0.186c0,0.079-0.026,0.133-0.08,0.186
				c-0.053,0.053-0.105,0.079-0.186,0.079h-4.904c-0.08,0-0.133-0.026-0.186-0.079c-0.054-0.053-0.08-0.106-0.08-0.186
				c0-0.08,0.026-0.133,0.08-0.186c0.053-0.054,0.105-0.08,0.186-0.08H42.545z M46.178,40.538c0,0.079-0.026,0.158-0.079,0.212
				c-0.054,0.053-0.133,0.079-0.213,0.079c-0.079,0-0.158-0.026-0.212-0.079c-0.053-0.054-0.079-0.133-0.079-0.212v-0.61
				c0-0.053-0.027-0.053-0.053-0.053h-5.171c-0.026,0-0.054,0.026-0.054,0.053v0.637c0,0.079-0.025,0.132-0.079,0.186
				c-0.054,0.053-0.132,0.079-0.212,0.079s-0.133-0.026-0.213-0.079c-0.053-0.054-0.079-0.133-0.079-0.186v-0.769
				c0-0.133,0.054-0.239,0.133-0.318c0.079-0.08,0.186-0.133,0.317-0.133h5.543c0.132,0,0.238,0.053,0.317,0.133
				c0.079,0.079,0.133,0.186,0.133,0.318V40.538L46.178,40.538z M44.481,42.606h1.061c0.132,0,0.211-0.054,0.265-0.133
				c0.053-0.08,0.079-0.292,0.106-0.584c0-0.079,0.025-0.105,0.079-0.158c0.053-0.027,0.132-0.027,0.186,0
				c0.079,0.025,0.132,0.079,0.186,0.158c0.054,0.053,0.054,0.133,0.054,0.186c0,0.371-0.08,0.663-0.239,0.875
				c-0.106,0.133-0.318,0.213-0.583,0.213h-1.167c-0.345,0-0.61-0.053-0.716-0.16c-0.133-0.105-0.186-0.317-0.186-0.636v-1.803
				c0-0.079,0.026-0.159,0.08-0.212c0.053-0.053,0.132-0.08,0.211-0.08c0.08,0,0.16,0.027,0.213,0.08s0.079,0.133,0.079,0.212v1.803
				c0,0.106,0.026,0.186,0.054,0.212C44.242,42.606,44.349,42.606,44.481,42.606z"/>
		</g>
	</g>
	<g>
		<g>
			<path d="M16.56,30.78L16.56,30.78C16.56,30.807,16.56,30.807,16.56,30.78l0.08,0.08c0.053,0.025,0.08,0.079,0.08,0.132
				c0,0.054-0.026,0.106-0.08,0.133c-0.186,0.132-0.424,0.265-0.663,0.371c0,0,0,0,0,0.026c0,0,0,0,0,0.027
				c0.265,0.186,0.557,0.291,0.875,0.396c0.053,0,0.08,0.027,0.08,0.08c0.026,0.053,0,0.08-0.027,0.133
				c-0.026,0.053-0.08,0.105-0.132,0.133c-0.026,0.025-0.08,0.025-0.106,0.025c-0.027,0-0.053,0-0.08,0
				c-0.371-0.105-0.689-0.265-0.981-0.503c-0.318-0.239-0.557-0.583-0.743-0.981c0-0.026-0.026-0.026-0.053-0.026h-0.424
				c-0.027,0-0.027,0-0.027,0.026v0.955c0,0.026,0,0.026,0.027,0.026l0.822-0.133h0.026c0.027,0,0.08,0,0.106,0.026
				c0.053,0.027,0.053,0.08,0.053,0.133s-0.026,0.08-0.053,0.105c-0.027,0.027-0.08,0.054-0.106,0.08
				c-0.503,0.08-1.034,0.159-1.538,0.238c-0.027,0-0.027,0-0.027,0c-0.026,0-0.079,0-0.106-0.026
				c-0.053-0.026-0.08-0.079-0.08-0.132c0-0.027,0-0.027,0-0.054s0-0.053,0.027-0.079c0-0.027,0.053-0.053,0.106-0.053
				c0.08,0,0.186-0.027,0.318-0.054c0.027,0,0.027-0.026,0.027-0.026v-1.008c0-0.026,0-0.026-0.027-0.026h-0.53
				c-0.053,0-0.08-0.026-0.132-0.053c-0.026-0.026-0.053-0.079-0.053-0.133c0-0.053,0.027-0.079,0.053-0.133
				c0.026-0.026,0.08-0.053,0.132-0.053h0.53c0.027,0,0.027,0,0.027-0.026v-1.564c0-0.079,0.026-0.133,0.08-0.159
				c0.053-0.053,0.106-0.079,0.159-0.079h2.201c0.053,0,0.08,0.026,0.106,0.053s0.053,0.079,0.053,0.106
				c0,0.053-0.026,0.079-0.053,0.105s-0.08,0.054-0.106,0.054h-2.015c-0.027,0-0.027,0-0.027,0.026v0.212
				c0,0.026,0,0.026,0.027,0.026h1.909c0.053,0,0.08,0.026,0.106,0.053c0.026,0.027,0.053,0.08,0.053,0.106
				c0,0.053-0.026,0.079-0.053,0.106c-0.027,0.026-0.08,0.053-0.106,0.053h-1.909c-0.027,0-0.027,0-0.027,0.026V29.8
				c0,0.026,0,0.026,0.027,0.026h1.909c0.053,0,0.08,0.026,0.106,0.053c0.026,0.026,0.053,0.079,0.053,0.106
				c0,0.053-0.026,0.079-0.053,0.105c-0.027,0.026-0.08,0.054-0.106,0.054h-1.909c-0.027,0-0.027,0-0.027,0.026v0.238
				c0,0.026,0,0.026,0.027,0.026h2.439c0.053,0,0.08,0.026,0.133,0.053c0.026,0.027,0.053,0.08,0.053,0.133
				c0,0.054-0.027,0.08-0.053,0.133c-0.026,0.026-0.08,0.053-0.133,0.053H16.56V30.78z M16.481,30.807
				C16.507,30.807,16.507,30.807,16.481,30.807C16.507,30.78,16.481,30.78,16.481,30.807l-1.14-0.026c0,0,0,0-0.027,0
				c0,0,0,0,0,0.026c0.106,0.186,0.212,0.345,0.345,0.478c0.026,0.026,0.026,0.026,0.053,0
				C16.057,31.125,16.322,30.966,16.481,30.807z"/>
			<path d="M19.185,31.257c-0.026,0-0.026,0-0.026,0.027v0.451c0,0.025,0,0.025,0.026,0.025c0.318-0.025,0.531-0.053,0.637-0.079
				c0.053,0,0.08,0,0.132,0.026c0.027,0.027,0.053,0.08,0.053,0.133s-0.026,0.08-0.053,0.133c-0.026,0.026-0.08,0.053-0.132,0.079
				c-0.133,0.026-0.689,0.106-1.67,0.239h-0.027c-0.053,0-0.08-0.027-0.106-0.054c-0.053-0.026-0.053-0.079-0.08-0.132
				c0,0,0,0,0-0.027c0-0.053,0.027-0.079,0.053-0.133c0.026-0.053,0.08-0.053,0.132-0.079c0.212-0.026,0.424-0.053,0.637-0.079
				c0.026,0,0.026-0.027,0.026-0.027v-0.477c0-0.027,0-0.027-0.026-0.027h-0.504c-0.053,0-0.08-0.025-0.133-0.053
				c-0.026-0.026-0.053-0.079-0.053-0.133c0-0.053,0.026-0.079,0.053-0.132c0.027-0.026,0.08-0.054,0.133-0.054h0.504
				c0.026,0,0.026,0,0.026-0.025v-0.372c0-0.026,0-0.026-0.026-0.026H18.31c-0.079,0-0.132-0.026-0.186-0.079
				c-0.053-0.053-0.08-0.106-0.08-0.159v-1.246c0-0.08,0.027-0.133,0.08-0.159c0.053-0.053,0.106-0.08,0.186-0.08h1.353
				c0.08,0,0.132,0.027,0.186,0.08s0.08,0.106,0.08,0.159v1.246c0,0.079-0.026,0.133-0.08,0.159
				c-0.053,0.053-0.106,0.079-0.186,0.079h-0.451c-0.027,0-0.027,0-0.027,0.026v0.372c0,0.025,0,0.025,0.027,0.025h0.53
				c0.053,0,0.08,0.027,0.132,0.054c0.027,0.026,0.053,0.079,0.053,0.132c0,0.054-0.026,0.08-0.053,0.133
				c-0.026,0.027-0.08,0.053-0.132,0.053H19.185z M18.417,29.057c-0.027,0-0.027,0-0.027,0.026v0.345c0,0.027,0,0.027,0.027,0.027
				h0.371c0.026,0,0.026,0,0.026-0.027v-0.345c0-0.026,0-0.026-0.026-0.026H18.417z M18.417,29.746c-0.027,0-0.027,0-0.027,0.026
				v0.345c0,0.027,0,0.027,0.027,0.027h0.371c0.026,0,0.026,0,0.026-0.027v-0.345c0-0.026,0-0.026-0.026-0.026H18.417z
				 M19.53,29.455c0.027,0,0.027,0,0.027-0.027v-0.345c0-0.026,0-0.026-0.027-0.026h-0.371c-0.026,0-0.026,0-0.026,0.026v0.345
				c0,0.027,0,0.027,0.026,0.027H19.53z M19.53,30.145c0.027,0,0.027,0,0.027-0.027v-0.345c0-0.026,0-0.026-0.027-0.026h-0.371
				c-0.026,0-0.026,0-0.026,0.026v0.345c0,0.027,0,0.027,0.026,0.027H19.53z M21.519,30.091c0.026,0,0.08,0,0.106,0l0.08,0.026
				c0.027,0,0.053,0.027,0.08,0.054s0.026,0.053,0.026,0.079s0,0.026,0,0.026c-0.079,0.318-0.159,0.557-0.238,0.742
				c-0.027,0.053-0.053,0.08-0.08,0.106s-0.053,0.026-0.08,0.026s-0.026,0-0.053,0c-0.053,0-0.08-0.026-0.106-0.08
				c-0.026-0.025-0.026-0.079,0-0.132c0.026-0.106,0.08-0.265,0.133-0.451v-0.026c0,0,0,0-0.027,0h-0.345
				c-0.026,0-0.026,0-0.026,0.026v1.458c0,0.106,0,0.186-0.026,0.239c-0.027,0.053-0.08,0.106-0.133,0.132
				c-0.08,0.054-0.238,0.08-0.477,0.08l0,0c-0.053,0-0.106-0.026-0.159-0.053c-0.053-0.027-0.08-0.08-0.106-0.133
				c0-0.026,0-0.026,0-0.053c0-0.027,0-0.053,0.026-0.08c0.026-0.026,0.053-0.053,0.106-0.053c0.053,0,0.106,0,0.159,0
				s0.106,0,0.133,0c0.026,0,0.053,0,0.053-0.026c0,0,0.027-0.026,0.027-0.054v-1.458c0-0.026,0-0.026-0.027-0.026h-0.397
				c-0.053,0-0.106-0.026-0.133-0.053s-0.053-0.079-0.053-0.133c0-0.053,0.026-0.105,0.053-0.132
				c0.026-0.027,0.08-0.054,0.133-0.054h0.795l0,0l0,0c-0.212-0.159-0.424-0.318-0.663-0.45c-0.026-0.027-0.053-0.054-0.053-0.106
				s0-0.079,0.026-0.106c0.026-0.026,0.08-0.053,0.132-0.079c0.027,0,0.027,0,0.027,0c0.026,0,0.08,0,0.106,0.026
				c0.08,0.053,0.159,0.08,0.212,0.133c0.027,0,0.027,0,0.053,0c0.106-0.106,0.239-0.238,0.345-0.397c0,0,0,0,0-0.027l0,0h-0.928
				c-0.053,0-0.08-0.026-0.132-0.053c-0.027-0.026-0.053-0.053-0.053-0.105c0-0.054,0.026-0.08,0.053-0.133
				c0.026-0.026,0.08-0.054,0.132-0.054h1.247c0,0,0,0,0.026,0s0.026,0,0.053,0c0.027,0,0.053,0,0.08,0.027l0.08,0.053
				c0.027,0.026,0.053,0.053,0.08,0.106c0.026,0.053,0,0.079-0.026,0.105c-0.186,0.239-0.371,0.478-0.583,0.663
				c-0.026,0.026-0.026,0.026,0,0.026c0.08,0.053,0.159,0.133,0.239,0.186c0.026,0.026,0.026,0.053,0.026,0.08
				c0,0.026,0,0.053-0.026,0.079l0,0l0,0L21.519,30.091L21.519,30.091z"/>
			<path d="M24.515,28.871c0.027-0.053,0.053-0.079,0.106-0.105c0.026-0.027,0.053-0.027,0.079-0.027c0.027,0,0.027,0,0.053,0
				c0.053,0.027,0.08,0.054,0.106,0.08c0,0.026,0.027,0.053,0.027,0.079c0,0.027,0,0.054-0.027,0.08
				c-0.132,0.292-0.292,0.557-0.451,0.795c0,0,0,0,0,0.027l0,0h0.239c0.053,0,0.08,0.026,0.132,0.053
				c0.053,0.026,0.053,0.079,0.053,0.133c0,0.053-0.026,0.079-0.053,0.132c-0.026,0.054-0.08,0.054-0.132,0.054h-0.504
				c-0.026,0-0.053,0-0.053,0.026c-0.08,0.105-0.186,0.212-0.292,0.318l0,0l0,0h0.61c0.08,0,0.133,0.026,0.186,0.079
				c0.053,0.053,0.08,0.106,0.08,0.159v1.432c0,0.053-0.026,0.106-0.053,0.132c-0.027,0.027-0.08,0.054-0.133,0.054h-0.026
				c-0.053,0-0.08-0.026-0.106-0.054c-0.027-0.025-0.053-0.053-0.053-0.105c0-0.026,0-0.026-0.026-0.026h-0.795c0,0,0,0,0,0.026
				v0.026c0,0.054-0.027,0.079-0.053,0.133c-0.026,0.026-0.08,0.054-0.133,0.054c-0.053,0-0.079-0.027-0.132-0.054
				c-0.026-0.026-0.053-0.079-0.053-0.133v-1.167v-0.025c0,0,0,0-0.026,0c0,0-0.026,0.025-0.08,0.053
				c-0.026,0.026-0.08,0.026-0.106,0.026s-0.026,0-0.053,0c-0.053-0.026-0.106-0.054-0.132-0.079
				c-0.027-0.054-0.027-0.08-0.027-0.106s0-0.026,0-0.026c0-0.053,0.027-0.08,0.08-0.106c0.318-0.186,0.61-0.397,0.849-0.636l0,0
				l0,0h-0.742c-0.053,0-0.08-0.026-0.133-0.054c-0.053-0.026-0.053-0.079-0.053-0.132c0-0.054,0.027-0.08,0.053-0.133
				s0.08-0.053,0.133-0.053h0.583c0.027,0,0.027,0,0.027-0.027v-0.371c0-0.026,0-0.026-0.027-0.026h-0.397
				c-0.053,0-0.08-0.026-0.133-0.053c-0.053-0.026-0.053-0.08-0.053-0.106s0.026-0.079,0.053-0.105
				c0.026-0.027,0.08-0.054,0.133-0.054h0.397c0.027,0,0.027,0,0.027-0.026v-0.292c0-0.053,0.026-0.079,0.053-0.132
				c0.026-0.026,0.08-0.054,0.133-0.054c0.053,0,0.106,0.027,0.132,0.054s0.053,0.079,0.053,0.132v0.213
				c0,0.026,0,0.026,0.026,0.026h0.265c0.053,0,0.106,0.026,0.133,0.053c0.026,0.026,0.053,0.08,0.053,0.133l0,0
				C24.409,29.083,24.462,28.978,24.515,28.871z M24.276,31.151c0.026,0,0.026,0,0.026-0.026v-0.292c0-0.026,0-0.026-0.026-0.026
				h-0.769c-0.026,0-0.026,0-0.026,0.026v0.292c0,0.026,0,0.026,0.026,0.026H24.276z M23.481,31.814c0,0.026,0,0.026,0.026,0.026
				h0.769c0.026,0,0.026,0,0.026-0.026v-0.318c0-0.026,0-0.026-0.026-0.026h-0.769c-0.026,0-0.026,0-0.026,0.026V31.814z
				 M23.852,29.746c0,0.026,0,0.026,0.026,0.026h0.053c0.026,0,0.026,0,0.053-0.026c0.08-0.105,0.186-0.238,0.265-0.397
				c0,0,0,0,0-0.026l0,0h-0.345c-0.026,0-0.026,0-0.026,0.026v0.397H23.852z M26.238,28.766h0.026c0.027,0,0.053,0,0.08,0.026
				l0.106,0.053c0.053,0.026,0.08,0.053,0.08,0.106c0,0.026,0,0.026,0,0.053s0,0.053-0.026,0.079
				c-0.186,0.425-0.345,0.796-0.477,1.088c0,0.026,0,0.026,0,0.053c0.318,0.292,0.477,0.637,0.477,0.98v0.027
				c0,0.291-0.08,0.477-0.212,0.557c-0.08,0.053-0.159,0.079-0.292,0.105c-0.053,0-0.132,0-0.186,0
				c-0.053,0-0.106-0.026-0.132-0.053c-0.053-0.026-0.08-0.08-0.08-0.133c-0.027-0.053,0-0.08,0.026-0.105
				c0.026-0.027,0.053-0.053,0.106-0.053c0.053,0,0.08,0,0.133,0c0.08,0,0.132-0.027,0.186-0.054
				c0.08-0.054,0.132-0.159,0.132-0.318c0-0.238-0.106-0.503-0.344-0.742c-0.053-0.053-0.08-0.105-0.106-0.186
				c0-0.026,0-0.053,0-0.079c0-0.054,0-0.08,0.027-0.133c0.106-0.266,0.238-0.557,0.345-0.849c0,0,0,0,0-0.026c0,0,0,0-0.027,0
				h-0.61c-0.026,0-0.026,0-0.026,0.026v3.049c0,0.054-0.026,0.106-0.053,0.133c-0.026,0.026-0.08,0.054-0.132,0.054
				c-0.053,0-0.106-0.027-0.133-0.054c-0.026-0.026-0.053-0.079-0.053-0.133v-3.234c0-0.079,0.026-0.133,0.08-0.159
				c0.053-0.053,0.106-0.079,0.159-0.079H26.238L26.238,28.766z"/>
			<path d="M31.224,29.137c0.025,0.026,0.053,0.053,0.053,0.053s0,0.026,0,0.08c0,0.053-0.027,0.105-0.053,0.132
				c-0.027,0.026-0.08,0.054-0.133,0.054h-1.485c-0.027,0-0.027,0-0.027,0.026v0.45c0,0.026,0,0.026,0.027,0.026h1.061
				c0.079,0,0.132,0.027,0.158,0.08c0.053,0.053,0.08,0.106,0.08,0.159v1.22c0,0.105-0.027,0.186-0.053,0.238
				c-0.027,0.053-0.08,0.105-0.16,0.133c-0.105,0.026-0.291,0.053-0.529,0.079l0,0c-0.054,0-0.106-0.026-0.159-0.053
				c-0.054-0.026-0.08-0.079-0.106-0.133s0-0.079,0.026-0.132c0.026-0.027,0.053-0.054,0.106-0.054c0.079,0,0.159,0,0.238,0
				c0.054,0,0.106,0,0.133,0s0.053,0,0.08-0.026c0,0,0.026-0.027,0.026-0.053v-1.034c0-0.026,0-0.026-0.026-0.026h-0.875
				c-0.027,0-0.027,0-0.027,0.026v1.829c0,0.053-0.026,0.105-0.053,0.133c-0.053,0.053-0.08,0.053-0.133,0.053
				c-0.053,0-0.106-0.026-0.132-0.053c-0.053-0.053-0.053-0.08-0.053-0.133v-1.829c0-0.026,0-0.026-0.026-0.026h-0.795
				c-0.027,0-0.027,0-0.027,0.026v1.299c0,0.054-0.026,0.106-0.053,0.133c-0.027,0.026-0.08,0.053-0.133,0.053
				c-0.053,0-0.106-0.026-0.132-0.053c-0.027-0.026-0.053-0.079-0.053-0.133v-1.484c0-0.08,0.026-0.133,0.08-0.159
				c0.053-0.053,0.106-0.08,0.186-0.08h0.981c0.027,0,0.027,0,0.027-0.026v-0.45c0-0.026,0-0.026-0.027-0.026h-1.458
				c-0.053,0-0.106-0.027-0.133-0.054s-0.186-0.079-0.186-0.132c0-0.054,0.026-0.106,0.053-0.133
				c0.026-0.026,0.08-0.054,0.132-0.054h1.458c0.026,0,0.026,0,0.026-0.026v-0.345c0-0.053,0.026-0.105,0.053-0.159
				c0.053-0.053,0.08-0.053,0.159-0.053c0.053,0,0.106,0.026,0.159,0.053c0.053,0.054,0.053,0.08,0.053,0.159v0.345
				c0,0.026,0,0.026,0.026,0.026h1.484C31.144,29.083,31.196,29.11,31.224,29.137z"/>
			<path d="M34.087,29.508c0,0.026,0,0.026,0.026,0.026h0.875c0.054,0,0.079,0,0.133,0c0.026,0,0.053,0,0.053,0
				c0.079,0,0.186,0.026,0.239,0.053c0.053,0.026,0.079,0.054,0.105,0.106c0.026,0.026,0.026,0.079,0.026,0.106v0.026
				c0,0.026,0,0.026,0,0.053c0,0.212-0.026,0.424-0.026,0.637c-0.026,0.212-0.053,0.477-0.08,0.769
				c-0.053,0.291-0.079,0.504-0.132,0.637c-0.054,0.105-0.106,0.186-0.186,0.211c-0.079,0.054-0.187,0.08-0.318,0.08
				c-0.133,0-0.265,0-0.478-0.026c-0.053,0-0.133-0.026-0.158-0.079c-0.054-0.054-0.08-0.106-0.08-0.16v-0.025
				c0-0.054,0.026-0.08,0.053-0.133c0.027-0.027,0.08-0.053,0.133-0.053h0.026c0.159,0.025,0.292,0.025,0.397,0.025
				c0.053,0,0.106,0,0.16-0.025c0.053-0.027,0.078-0.054,0.078-0.107c0.054-0.132,0.107-0.371,0.16-0.715
				c0.026-0.345,0.053-0.663,0.053-0.955c0-0.026,0-0.026-0.026-0.026h-1.034c-0.027,0-0.027,0-0.027,0.026
				c-0.078,0.504-0.186,0.928-0.371,1.273c-0.186,0.344-0.424,0.636-0.742,0.875c-0.053,0.053-0.105,0.053-0.186,0.053l0,0
				c-0.079,0-0.133-0.027-0.186-0.08l0,0c-0.053-0.026-0.053-0.079-0.053-0.133c0-0.079,0.026-0.105,0.08-0.158
				c0.105-0.08,0.211-0.16,0.291-0.238c0.213-0.187,0.371-0.425,0.504-0.689c0.133-0.266,0.212-0.584,0.266-0.955
				c0-0.026,0-0.026-0.027-0.026h-0.609c-0.106,0-0.213,0-0.292,0l0,0c-0.053,0-0.106-0.026-0.159-0.053
				c-0.053-0.054-0.079-0.08-0.079-0.159c0-0.054,0.026-0.106,0.079-0.159c0.053-0.026,0.08-0.053,0.133-0.053c0,0,0,0,0.026,0
				c0.106,0,0.212,0,0.292,0h0.662c0.027,0,0.027,0,0.027-0.027c0-0.105,0-0.238,0-0.371v-0.132c0-0.054,0.026-0.106,0.053-0.159
				c0.053-0.054,0.105-0.08,0.159-0.08l0,0c0.079,0,0.132,0.026,0.159,0.08c0,0.132,0,0.186,0,0.238v0.133
				C34.087,29.242,34.087,29.349,34.087,29.508z M35.492,29.189c0.026,0.026,0.026,0.08,0,0.106s-0.054,0.079-0.079,0.079
				c-0.027,0.026-0.08,0.026-0.106,0c-0.054-0.026-0.079-0.053-0.079-0.079c-0.054-0.133-0.133-0.239-0.186-0.318
				c-0.027-0.026-0.027-0.08-0.027-0.106s0.027-0.053,0.08-0.079c0.026-0.026,0.079-0.026,0.133,0c0.053,0,0.079,0.026,0.105,0.079
				C35.359,28.951,35.438,29.057,35.492,29.189z M35.519,28.792c-0.026-0.026-0.026-0.054-0.026-0.08v-0.026
				c0-0.026,0.026-0.053,0.079-0.079c0.027,0,0.053-0.026,0.08-0.026c0.026,0,0.026,0,0.053,0c0.053,0,0.08,0.026,0.105,0.079
				c0.054,0.106,0.133,0.212,0.187,0.318c0.026,0.026,0.026,0.053,0.026,0.079s0,0.026,0,0.054c-0.026,0.026-0.026,0.079-0.08,0.079
				c-0.025,0-0.053,0-0.079,0s-0.026,0-0.054,0c-0.025-0.026-0.078-0.053-0.078-0.079C35.651,29.004,35.571,28.871,35.519,28.792z"
				/>
			<path d="M39.761,29.057c0.027,0,0.053,0,0.08,0c0.105,0,0.186,0.026,0.238,0.08c0.027,0.026,0.053,0.079,0.08,0.105
				c0,0.027,0,0.027,0,0.027c0,0.026,0,0.053-0.027,0.105c-0.025,0.026-0.025,0.053-0.025,0.08c-0.187,0.45-0.425,0.848-0.664,1.192
				c-0.025,0.027,0,0.027,0,0.054c0.346,0.291,0.689,0.636,1.035,1.034c0.025,0.053,0.053,0.105,0.053,0.158v0.027
				c0,0.079-0.027,0.132-0.08,0.158l0,0c-0.053,0.027-0.079,0.053-0.133,0.053h-0.025c-0.054,0-0.107-0.025-0.16-0.079
				c-0.265-0.345-0.583-0.689-0.954-1.034c-0.026-0.026-0.026-0.026-0.054,0c-0.45,0.478-0.9,0.822-1.404,1.088
				c-0.053,0.025-0.106,0.025-0.133,0.025c-0.027,0-0.027,0-0.053,0c-0.08-0.025-0.133-0.053-0.186-0.105l0,0
				c-0.08-0.026-0.08-0.053-0.08-0.105v-0.027c0-0.053,0.053-0.105,0.105-0.133c0.293-0.133,0.558-0.291,0.822-0.504
				c0.266-0.211,0.504-0.424,0.689-0.636c0.133-0.159,0.266-0.345,0.398-0.53s0.212-0.397,0.265-0.557c0,0,0,0,0-0.026
				c0,0,0,0-0.026,0h-1.538c-0.053,0-0.132,0-0.212,0c0,0,0,0-0.026,0c-0.054,0-0.106-0.026-0.159-0.053
				c-0.053-0.054-0.08-0.106-0.08-0.159c0-0.054,0.027-0.106,0.08-0.159c0.053-0.026,0.08-0.054,0.159-0.054c0,0,0,0,0.026,0
				c0.08,0,0.159,0,0.212,0h1.564C39.628,29.083,39.708,29.083,39.761,29.057z"/>
			<path d="M44.03,32.186c-0.027,0-0.053,0-0.08,0c-0.053,0-0.079,0-0.133-0.026c-0.053-0.027-0.105-0.08-0.158-0.133
				c-0.027-0.026-0.027-0.053-0.027-0.08c0-0.025,0-0.053,0.027-0.079c0.025-0.053,0.053-0.079,0.105-0.079s0.106-0.027,0.133-0.027
				c0.133-0.025,0.266-0.079,0.397-0.133c0.106-0.053,0.239-0.132,0.318-0.238c0.106-0.105,0.159-0.212,0.239-0.344
				c0.053-0.133,0.079-0.292,0.079-0.451c0-0.318-0.079-0.557-0.265-0.769c-0.186-0.213-0.425-0.345-0.717-0.398
				c-0.026,0-0.026,0-0.026,0.027c-0.079,0.45-0.159,0.821-0.239,1.14c-0.132,0.424-0.265,0.769-0.45,0.98
				c-0.186,0.239-0.371,0.346-0.583,0.346c-0.213,0-0.398-0.106-0.557-0.318c-0.16-0.213-0.238-0.504-0.238-0.849
				c0-0.238,0.053-0.451,0.158-0.663c0.106-0.212,0.238-0.397,0.398-0.557c0.158-0.159,0.371-0.292,0.609-0.371
				c0.238-0.106,0.477-0.133,0.742-0.133c0.238,0,0.478,0.053,0.689,0.133c0.213,0.079,0.371,0.186,0.53,0.345
				c0.133,0.133,0.239,0.318,0.318,0.504s0.106,0.397,0.106,0.609c0,0.397-0.106,0.742-0.346,1.034
				C44.799,31.894,44.454,32.079,44.03,32.186z M42.651,31.417c0.212,0,0.397-0.318,0.583-0.929
				c0.106-0.317,0.186-0.688,0.212-1.061c0,0,0,0,0-0.026c0,0,0,0-0.026,0c-0.186,0.026-0.345,0.106-0.503,0.186
				c-0.16,0.08-0.266,0.186-0.372,0.318s-0.159,0.239-0.238,0.397c-0.079,0.159-0.079,0.266-0.079,0.398
				c0,0.212,0.053,0.397,0.132,0.53C42.466,31.363,42.571,31.417,42.651,31.417z"/>
		</g>
	</g>
</g>
<g>
	
		<linearGradient id="SVGID_1_" gradientUnits="userSpaceOnUse" x1="823.4209" y1="-1149.7915" x2="823.4209" y2="-1201.9442" gradientTransform="matrix(0.2652 0 0 -0.2652 -213.729 -275.5433)">
		<stop  offset="0" style="stop-color:#F2D500"/>
		<stop  offset="0.01" style="stop-color:#F2D500"/>
		<stop  offset="0.25" style="stop-color:#F2D500"/>
		<stop  offset="0.5" style="stop-color:#F39700"/>
		<stop  offset="0.99" style="stop-color:#F39700"/>
		<stop  offset="1" style="stop-color:#F39700"/>
	</linearGradient>
	<path fill="url(#SVGID_1_)" d="M7.183,28.643c0.047-0.181,0-0.181-0.09-0.047l-7.047,8.684C-0.046,37.417,0,37.554,0.182,37.554h3
		c0.182,0,0.273,0.136,0.227,0.318L2.137,43.1c-0.045,0.182,0,0.182,0.091,0.046l6.911-8.683c0.137-0.138,0.045-0.274-0.137-0.274
		H6.41c-0.181,0-0.271-0.136-0.226-0.318L7.183,28.643z"/>
</g>
<g>
	<text transform="matrix(1 0 0 1 206.4336 1071.4492)" font-family="'GenJyuuGothic-Regular'" font-size="3.7121">内部リンク</text>
</g>
<polygon points="204.746,1069.859 204.508,1069.621 203.58,1068.693 203.58,1069.17 204.27,1069.859 203.58,1070.549 
	203.58,1071.027 204.508,1070.098 "/>
<g>
	<g>
		<text transform="matrix(1 0 0 1 239.5498 1071.1836)" font-family="'GenJyuuGothic-Regular'" font-size="3.7121">外部リンク</text>
	</g>
	<g>
		<g>
			<path d="M237.545,1069.383v1.246h-1.829v-1.246H237.545 M237.811,1069.117h-2.359v1.777h2.359V1069.117L237.811,1069.117z"/>
		</g>
		<g>
			<rect x="234.92" y="1068.533" fill="#FFFFFF" width="2.096" height="1.512"/>
			<path d="M236.883,1068.666v1.246h-1.83v-1.246H236.883 M237.148,1068.402h-2.36v1.775h2.36V1068.402L237.148,1068.402z"/>
		</g>
	</g>
</g>
<g>
	<g>
		<text transform="matrix(1 0 0 1 273.5332 1070.6523)" font-family="'GenJyuuGothic-Regular'" font-size="3.7121">PDFリンク</text>
	</g>
	<g>
		<path fill="#E51F1F" d="M271.22,1071.186c0,0.584-0.478,1.061-1.061,1.061h-3.95c-0.584,0-1.061-0.477-1.061-1.061v-3.713
			c0-0.582,0.477-1.061,1.061-1.061h3.95c0.583,0,1.061,0.479,1.061,1.061V1071.186z"/>
	</g>
	<text transform="matrix(1 0 0 1 265.8984 1070.0781)" fill="#FFFFFF" font-family="'GenJyuuGothic-Bold'" font-size="2.3864">PDF</text>
</g>
</svg>
