<?xml version="1.0" encoding="utf-8"?>
<!-- Generator: Adobe Illustrator 21.1.0, SVG Export Plug-In . SVG Version: 6.00 Build 0)  -->
<svg version="1.1" id="レイヤー_1" xmlns="http://www.w3.org/2000/svg" xmlns:xlink="http://www.w3.org/1999/xlink" x="0px"
	 y="0px" viewBox="0 0 214 76" style="enable-background:new 0 0 214 76;" xml:space="preserve">
<style type="text/css">
	.st0{fill:url(#SVGID_1_);}
	.st1{fill:#F39700;}
	.st2{fill:url(#SVGID_2_);}
	.st3{fill:#FFFFFF;}
	.st4{fill:#E51F1F;}
	.st5{fill:url(#SVGID_3_);}
</style>
<g>
	<g>
		<g>
			<path d="M-497,101.6c-0.2,0.2-0.5,0.3-0.8,0.3s-0.5-0.1-0.8-0.3c-0.2-0.2-0.3-0.5-0.3-0.8v-5.5c0-0.2-0.1-0.2-0.2-0.2h-9
				c-0.1,0-0.2,0.1-0.2,0.2v3c0,0.3-0.1,0.5-0.3,0.7c-0.2,0.2-0.4,0.3-0.7,0.3c-0.3,0-0.5-0.1-0.7-0.3c-0.2-0.2-0.3-0.4-0.3-0.7
				v-3.1c0-0.5,0.2-0.9,0.5-1.2c0.3-0.3,0.7-0.5,1.2-0.5h9.5c0.1,0,0.2-0.1,0.2-0.2v-1.4c0-0.2-0.1-0.2-0.2-0.2h-8.6
				c-0.2,0-0.4-0.1-0.6-0.2c-0.2-0.2-0.3-0.4-0.3-0.6c0-0.2,0.1-0.4,0.3-0.6c0.2-0.2,0.4-0.2,0.6-0.2h20c0.2,0,0.4,0.1,0.6,0.2
				c0.2,0.2,0.3,0.4,0.3,0.6c0,0.2-0.1,0.4-0.3,0.6c-0.2,0.2-0.4,0.2-0.6,0.2h-8.8c-0.1,0-0.2,0.1-0.2,0.2v1.4
				c0,0.2,0.1,0.2,0.2,0.2h9.7c0.5,0,0.9,0.2,1.2,0.5c0.3,0.3,0.5,0.7,0.5,1.2v3c0,0.3-0.1,0.5-0.3,0.7c-0.2,0.2-0.4,0.3-0.7,0.3
				c-0.3,0-0.5-0.1-0.7-0.3c-0.2-0.2-0.3-0.4-0.3-0.7v-2.9c0-0.2-0.1-0.2-0.2-0.2h-9.1c-0.1,0-0.2,0.1-0.2,0.2v5.5
				C-496.7,101.2-496.8,101.4-497,101.6z M-494.6,114h6.7c0.7,0,1.2-0.2,1.5-0.5s0.4-1,0.5-2c0-0.2,0.1-0.4,0.4-0.5
				c0.2-0.1,0.4-0.1,0.7-0.1c0.3,0.1,0.5,0.3,0.7,0.5c0.1,0.2,0.2,0.4,0.2,0.6c0,0.1,0,0.1,0,0.2c-0.2,1.4-0.5,2.3-1.1,2.8
				c-0.5,0.5-1.4,0.7-2.7,0.7h-6.9c-1.7,0-2.8-0.2-3.4-0.6c-0.6-0.4-0.9-1.2-0.9-2.4V112c0-0.2-0.1-0.2-0.2-0.2h-6.2
				c-0.1,0-0.2,0.1-0.2,0.2v0.3c0,0.3-0.1,0.5-0.3,0.8c-0.2,0.2-0.5,0.3-0.8,0.3s-0.5-0.1-0.7-0.3c-0.2-0.2-0.3-0.5-0.3-0.8v-7.6
				c0-0.5,0.2-0.9,0.5-1.2c0.3-0.3,0.7-0.5,1.2-0.5h16.8c0.5,0,0.9,0.2,1.2,0.5c0.3,0.3,0.5,0.7,0.5,1.2v5.4c0,0.5-0.2,0.9-0.5,1.2
				c-0.3,0.3-0.7,0.5-1.2,0.5h-7.4c-0.1,0-0.2,0.1-0.2,0.2v0.7c0,0.5,0.1,0.8,0.4,1C-496.1,113.9-495.5,114-494.6,114z
				 M-506.6,101.2c-0.2,0-0.4-0.1-0.5-0.2c-0.1-0.1-0.2-0.3-0.2-0.5c0-0.2,0.1-0.4,0.2-0.5c0.1-0.1,0.3-0.2,0.5-0.2h5.5
				c0.2,0,0.4,0.1,0.5,0.2c0.1,0.1,0.2,0.3,0.2,0.5c0,0.2-0.1,0.4-0.2,0.5c-0.1,0.1-0.3,0.2-0.5,0.2H-506.6z M-501.1,96.7
				c0.2,0,0.4,0.1,0.5,0.2c0.1,0.1,0.2,0.3,0.2,0.5c0,0.2-0.1,0.4-0.2,0.5c-0.1,0.1-0.3,0.2-0.5,0.2h-5c-0.2,0-0.3-0.1-0.5-0.2
				c-0.1-0.1-0.2-0.3-0.2-0.5c0-0.2,0.1-0.4,0.2-0.5c0.1-0.1,0.3-0.2,0.5-0.2H-501.1z M-498.9,104.8c0-0.1-0.1-0.2-0.2-0.2h-6.2
				c-0.1,0-0.2,0.1-0.2,0.2v1.6c0,0.1,0.1,0.2,0.2,0.2h6.2c0.2,0,0.2-0.1,0.2-0.2V104.8z M-505.6,110c0,0.1,0.1,0.2,0.2,0.2h6.2
				c0.2,0,0.2-0.1,0.2-0.2v-1.6c0-0.1-0.1-0.2-0.2-0.2h-6.2c-0.1,0-0.2,0.1-0.2,0.2V110z M-489.9,106.6c0.1,0,0.2-0.1,0.2-0.2v-1.6
				c0-0.1-0.1-0.2-0.2-0.2h-6.7c-0.1,0-0.2,0.1-0.2,0.2v1.6c0,0.1,0.1,0.2,0.2,0.2H-489.9z M-496.8,110c0,0.1,0.1,0.2,0.2,0.2h6.7
				c0.1,0,0.2-0.1,0.2-0.2v-1.6c0-0.1-0.1-0.2-0.2-0.2h-6.7c-0.1,0-0.2,0.1-0.2,0.2V110z M-494.9,97.9c-0.1-0.1-0.2-0.3-0.2-0.5
				c0-0.2,0.1-0.4,0.2-0.5c0.1-0.1,0.3-0.2,0.5-0.2h5c0.2,0,0.3,0.1,0.5,0.2c0.1,0.1,0.2,0.3,0.2,0.5c0,0.2-0.1,0.4-0.2,0.5
				c-0.1,0.1-0.3,0.2-0.5,0.2h-5C-494.6,98.1-494.8,98-494.9,97.9z M-494.4,101.2c-0.2,0-0.4-0.1-0.5-0.2c-0.1-0.1-0.2-0.3-0.2-0.5
				c0-0.2,0.1-0.4,0.2-0.5c0.1-0.1,0.3-0.2,0.5-0.2h5.7c0.2,0,0.4,0.1,0.5,0.2c0.1,0.1,0.2,0.3,0.2,0.5c0,0.2-0.1,0.4-0.2,0.5
				c-0.1,0.1-0.3,0.2-0.5,0.2H-494.4z"/>
			<path d="M-464.4,94.3c0,0.1,0.1,0.2,0.2,0.2h10.5c0.5,0,0.9,0.2,1.2,0.5c0.3,0.3,0.4,0.7,0.4,1.1c0,3.7-0.3,7.9-1,12.8
				c-0.4,2.6-0.9,4.3-1.6,5.1c-0.6,0.7-1.4,1.1-2.5,1.2c-0.4,0-0.8,0-1.3,0c-0.6,0-1.4,0-2.3-0.1c-0.4,0-0.7-0.1-0.9-0.4
				c-0.3-0.2-0.4-0.5-0.6-0.9c-0.1-0.3,0-0.5,0.1-0.7c0.1-0.2,0.3-0.3,0.6-0.3c1.2,0.1,2.4,0.1,3.5,0.1c0.6,0,1.1-0.1,1.4-0.4
				c0.5-0.5,1-2,1.3-4.4c0.4-2.4,0.7-6.1,1-11.2c0-0.2-0.1-0.2-0.2-0.2h-9.8c-0.2,0-0.2,0.1-0.3,0.2c-0.1,1.3-0.2,2.5-0.4,3.6
				c-0.2,1.2-0.6,2.5-1.1,3.9s-1.2,2.7-2,3.9c-0.8,1.2-1.8,2.4-3.1,3.7c-1,1-2.1,1.9-3.4,2.7c-0.2,0.1-0.5,0.2-0.7,0.2
				c-0.1,0-0.2,0-0.3,0c-0.3-0.1-0.6-0.2-0.9-0.5c-0.2-0.2-0.3-0.4-0.3-0.7c0-0.3,0.1-0.6,0.4-0.7c1.5-1,2.8-2.1,3.9-3.2
				c1.4-1.4,2.5-2.9,3.2-4.4c0.7-1.5,1.3-3,1.6-4.4c0.3-1.3,0.6-2.7,0.7-4.2c0-0.1,0-0.2-0.2-0.2h-8.3c-0.3,0-0.6-0.1-0.8-0.3
				c-0.2-0.2-0.3-0.5-0.3-0.8c0-0.3,0.1-0.6,0.3-0.8c0.2-0.2,0.5-0.3,0.8-0.3h8.4c0.1,0,0.2-0.1,0.2-0.2v-1.1v-4
				c0-0.3,0.1-0.6,0.3-0.8c0.2-0.2,0.5-0.3,0.8-0.3s0.6,0.1,0.8,0.3c0.2,0.2,0.3,0.5,0.3,0.8v4V94.3z"/>
			<path d="M-441.6,110.1c0.1-0.3,0.3-0.5,0.6-0.6c0.3-0.2,0.5-0.2,0.8-0.1c0.3,0.1,0.5,0.2,0.6,0.5c0.1,0.3,0.2,0.5,0.1,0.8
				c-0.7,1.8-1.5,3.3-2.4,4.6c-0.2,0.2-0.4,0.4-0.7,0.4c-0.3,0-0.6,0-0.8-0.2c-0.3-0.2-0.4-0.5-0.4-0.8c0-0.2,0.1-0.4,0.2-0.6
				C-442.8,112.9-442.1,111.6-441.6,110.1z M-435.6,89.8c0.5,0,0.9,0.2,1.2,0.5c0.3,0.3,0.5,0.7,0.5,1.2v15.2c0,0.5-0.2,0.9-0.5,1.2
				c-0.3,0.3-0.7,0.5-1.2,0.5h-5.5c-0.5,0-0.9-0.2-1.2-0.5c-0.3-0.3-0.5-0.7-0.5-1.2V91.5c0-0.5,0.2-0.9,0.5-1.2
				c0.3-0.3,0.7-0.5,1.2-0.5H-435.6z M-436.1,95.4c0.2,0,0.2-0.1,0.2-0.2v-3.3c0-0.2-0.1-0.2-0.2-0.2h-4.5c-0.1,0-0.2,0.1-0.2,0.2
				v3.3c0,0.1,0.1,0.2,0.2,0.2H-436.1z M-436.1,101c0.2,0,0.2-0.1,0.2-0.2v-3.4c0-0.1-0.1-0.2-0.2-0.2h-4.5c-0.1,0-0.2,0.1-0.2,0.2
				v3.4c0,0.2,0.1,0.2,0.2,0.2H-436.1z M-436.1,106.7c0.2,0,0.2-0.1,0.2-0.2V103c0-0.2-0.1-0.2-0.2-0.2h-4.5c-0.1,0-0.2,0.1-0.2,0.2
				v3.5c0,0.1,0.1,0.2,0.2,0.2H-436.1z M-436.9,110.7c-0.1-0.1-0.1-0.3-0.1-0.4c0-0.1,0-0.2,0-0.3c0.1-0.2,0.2-0.4,0.4-0.5
				c0.3-0.1,0.5-0.1,0.8-0.1c0.3,0.1,0.5,0.2,0.6,0.5c0.5,0.7,0.9,1.4,1.2,2.1c0.1,0.3,0.2,0.5,0.1,0.8c-0.1,0.3-0.3,0.5-0.5,0.6
				c-0.2,0.1-0.5,0.1-0.7,0s-0.5-0.3-0.6-0.5C-436,112.2-436.4,111.5-436.9,110.7z M-420,97.7c0.6,0,1,0,1.3,0.1
				c0.2,0.1,0.3,0.2,0.5,0.3c0.1,0.2,0.2,0.3,0.1,0.5c-0.7,4.4-2.1,8.1-4.1,11.1c-0.1,0.1-0.1,0.2,0,0.4c1.3,1.5,2.9,2.7,4.6,3.6
				c0.3,0.1,0.4,0.3,0.4,0.6c0,0.1,0,0.1,0,0.2c0,0.2-0.1,0.4-0.2,0.6c-0.2,0.3-0.5,0.4-0.8,0.5c-0.1,0-0.2,0.1-0.3,0.1
				c-0.2,0-0.4,0-0.6-0.1c-1.7-1-3.2-2.2-4.5-3.7c-0.1-0.1-0.2-0.1-0.3,0c-1.3,1.5-2.9,2.7-4.6,3.6c-0.3,0.1-0.6,0.2-0.8,0.1
				s-0.5-0.3-0.7-0.5c-0.2-0.2-0.2-0.5-0.1-0.7s0.2-0.5,0.4-0.6c1.7-0.9,3.3-2.1,4.6-3.6c0.1-0.1,0.1-0.2,0-0.4c-1.7-2.6-3-6-3.9-10
				c0-0.1-0.1-0.1-0.1-0.1c-0.1,0-0.1,0-0.1,0.1v1.2c0,6.3-0.9,11-2.7,14.2c-0.1,0.2-0.3,0.4-0.6,0.4c-0.3,0-0.5,0-0.8-0.2
				c-0.2-0.2-0.4-0.4-0.4-0.6c0-0.1-0.1-0.2-0.1-0.3c0-0.2,0-0.4,0.1-0.5c0.5-0.9,0.9-1.9,1.3-3c0.3-1.1,0.6-2.3,0.7-3.5
				c0.1-1.2,0.2-2.3,0.3-3.3c0-1,0.1-2,0.1-3.2v-9.1c0-0.5,0.2-0.9,0.5-1.2c0.3-0.3,0.7-0.5,1.2-0.5h11.1c0.3,0,0.5,0.1,0.7,0.3
				c0.2,0.2,0.3,0.4,0.3,0.7c0,0.3-0.1,0.5-0.3,0.7c-0.2,0.2-0.4,0.3-0.7,0.3h-10.5c-0.1,0-0.2,0.1-0.2,0.2v5.1
				c0,0.1,0.1,0.2,0.2,0.2H-420z M-420.4,99.9c0-0.1,0-0.2-0.2-0.2h-6.3c-0.1,0-0.2,0.1-0.2,0.2c0.7,3.2,1.8,5.9,3.3,8.1
				c0,0.1,0.1,0.1,0.1,0.1c0,0,0.1,0,0.1-0.1C-422.1,105.8-421.1,103.1-420.4,99.9z"/>
			<path d="M-402.1,105.7c0-0.3,0.2-0.6,0.4-0.8c0.2-0.2,0.5-0.3,0.8-0.3c0.3,0,0.6,0.1,0.8,0.3c0.2,0.2,0.3,0.5,0.2,0.8
				c-0.2,1.4-0.4,2.5-0.7,3.5c-0.3,1-0.8,1.9-1.4,2.7c-0.6,0.9-1.4,1.6-2.4,2.2c-1,0.6-2.3,1.1-3.8,1.6c-0.1,0-0.2,0-0.4,0
				c-0.2,0-0.4,0-0.6-0.1c-0.3-0.1-0.5-0.4-0.7-0.6c-0.1-0.1-0.1-0.3-0.1-0.4c0-0.1,0-0.2,0.1-0.3c0.1-0.2,0.2-0.4,0.5-0.5
				c1.3-0.4,2.4-0.8,3.3-1.3c0.9-0.5,1.6-1.1,2.2-1.8c0.5-0.7,0.9-1.5,1.2-2.2C-402.4,107.8-402.2,106.8-402.1,105.7z M-398.3,96.6
				c0.1,0,0.2-0.1,0.2-0.2v-2.5c0-0.1-0.1-0.2-0.2-0.2h-10.5c-0.3,0-0.5-0.1-0.7-0.3c-0.2-0.2-0.3-0.4-0.3-0.7
				c0-0.3,0.1-0.5,0.3-0.7c0.2-0.2,0.4-0.3,0.7-0.3h10.5c0.1,0,0.2-0.1,0.2-0.2v-1.6c0-0.3,0.1-0.6,0.3-0.8c0.2-0.2,0.5-0.3,0.8-0.3
				c0.3,0,0.6,0.1,0.8,0.3c0.2,0.2,0.3,0.5,0.3,0.8v1.6c0,0.1,0.1,0.2,0.2,0.2h10.7c0.3,0,0.5,0.1,0.7,0.3c0.2,0.2,0.3,0.4,0.3,0.7
				c0,0.3-0.1,0.5-0.3,0.7c-0.2,0.2-0.4,0.3-0.7,0.3h-10.7c-0.1,0-0.2,0.1-0.2,0.2v2.5c0,0.1,0.1,0.2,0.2,0.2h8.1
				c0.3,0,0.5,0.1,0.7,0.3c0.2,0.2,0.3,0.4,0.3,0.7c0,0.3-0.1,0.5-0.3,0.7c-0.2,0.2-0.4,0.3-0.7,0.3h-18.5c-0.3,0-0.5-0.1-0.7-0.3
				c-0.2-0.2-0.3-0.4-0.3-0.7c0-0.3,0.1-0.5,0.3-0.7c0.2-0.2,0.4-0.3,0.7-0.3H-398.3z M-384.7,105.6c0,0.3-0.1,0.6-0.3,0.8
				c-0.2,0.2-0.5,0.3-0.8,0.3c-0.3,0-0.6-0.1-0.8-0.3c-0.2-0.2-0.3-0.5-0.3-0.8v-2.3c0-0.2-0.1-0.2-0.2-0.2h-19.5
				c-0.1,0-0.2,0.1-0.2,0.2v2.4c0,0.3-0.1,0.5-0.3,0.7c-0.2,0.2-0.5,0.3-0.8,0.3s-0.5-0.1-0.8-0.3c-0.2-0.2-0.3-0.5-0.3-0.7v-2.9
				c0-0.5,0.2-0.9,0.5-1.2c0.3-0.3,0.7-0.5,1.2-0.5h20.9c0.5,0,0.9,0.2,1.2,0.5c0.3,0.3,0.5,0.7,0.5,1.2V105.6z M-391,113.4h4
				c0.5,0,0.8-0.2,1-0.5c0.2-0.3,0.3-1.1,0.4-2.2c0-0.3,0.1-0.4,0.3-0.6c0.2-0.1,0.5-0.1,0.7,0c0.3,0.1,0.5,0.3,0.7,0.6
				c0.2,0.2,0.2,0.5,0.2,0.7c0,1.4-0.3,2.5-0.9,3.3c-0.4,0.5-1.2,0.8-2.2,0.8h-4.4c-1.3,0-2.3-0.2-2.7-0.6c-0.5-0.4-0.7-1.2-0.7-2.4
				v-6.8c0-0.3,0.1-0.6,0.3-0.8c0.2-0.2,0.5-0.3,0.8-0.3c0.3,0,0.6,0.1,0.8,0.3c0.2,0.2,0.3,0.5,0.3,0.8v6.8c0,0.4,0.1,0.7,0.2,0.8
				C-392,113.4-391.6,113.4-391,113.4z"/>
		</g>
	</g>
	<g>
		<g>
			<path d="M-496.4,68.8C-496.4,68.8-496.4,68.8-496.4,68.8C-496.4,68.9-496.4,68.9-496.4,68.8l0.3,0.3c0.2,0.1,0.3,0.3,0.3,0.5
				c0,0.2-0.1,0.4-0.3,0.5c-0.7,0.5-1.6,1-2.5,1.4c0,0,0,0,0,0.1c0,0,0,0,0,0.1c1,0.7,2.1,1.1,3.3,1.5c0.2,0,0.3,0.1,0.3,0.3
				c0.1,0.2,0,0.3-0.1,0.5c-0.1,0.2-0.3,0.4-0.5,0.5c-0.1,0.1-0.3,0.1-0.4,0.1c-0.1,0-0.2,0-0.3,0c-1.4-0.4-2.6-1-3.7-1.9
				c-1.2-0.9-2.1-2.2-2.8-3.7c0-0.1-0.1-0.1-0.2-0.1h-1.8c-0.1,0-0.1,0-0.1,0.1v3.6c0,0.1,0,0.1,0.1,0.1l3.1-0.5c0,0,0.1,0,0.1,0
				c0.1,0,0.3,0,0.4,0.1c0.2,0.1,0.2,0.3,0.2,0.5c0,0.2-0.1,0.3-0.2,0.4c-0.1,0.1-0.3,0.2-0.4,0.3c-1.9,0.3-3.8,0.7-5.8,1
				c-0.1,0-0.1,0-0.1,0c-0.1,0-0.3,0-0.4-0.1c-0.2-0.1-0.3-0.3-0.3-0.5c0-0.1,0-0.1,0-0.2c0-0.1,0-0.2,0.1-0.3
				c0.1-0.2,0.3-0.3,0.4-0.3c0.3,0,0.7-0.1,1.2-0.2c0.1,0,0.1-0.1,0.1-0.1v-3.8c0-0.1,0-0.1-0.1-0.1h-2c-0.2,0-0.3-0.1-0.5-0.2
				c-0.1-0.1-0.2-0.3-0.2-0.5c0-0.2,0.1-0.3,0.2-0.5c0.1-0.1,0.3-0.2,0.5-0.2h2c0.1,0,0.1,0,0.1-0.1v-5.9c0-0.3,0.1-0.5,0.3-0.6
				c0.2-0.2,0.4-0.3,0.6-0.3h8.3c0.2,0,0.3,0.1,0.4,0.2c0.1,0.1,0.2,0.3,0.2,0.4c0,0.2-0.1,0.3-0.2,0.4c-0.1,0.1-0.3,0.2-0.4,0.2
				h-7.6c-0.1,0-0.1,0-0.1,0.1v0.8c0,0.1,0,0.1,0.1,0.1h7.2c0.2,0,0.3,0.1,0.4,0.2c0.1,0.1,0.2,0.3,0.2,0.4c0,0.2-0.1,0.3-0.2,0.4
				c-0.1,0.1-0.3,0.2-0.4,0.2h-7.2c-0.1,0-0.1,0-0.1,0.1v0.9c0,0.1,0,0.1,0.1,0.1h7.2c0.2,0,0.3,0.1,0.4,0.2
				c0.1,0.1,0.2,0.3,0.2,0.4c0,0.2-0.1,0.3-0.2,0.4c-0.1,0.1-0.3,0.2-0.4,0.2h-7.2c-0.1,0-0.1,0-0.1,0.1v0.9c0,0.1,0,0.1,0.1,0.1
				h9.2c0.2,0,0.3,0.1,0.5,0.2c0.1,0.1,0.2,0.3,0.2,0.5c0,0.2-0.1,0.3-0.2,0.5c-0.1,0.1-0.3,0.2-0.5,0.2H-496.4z M-496.6,68.9
				C-496.6,68.9-496.6,68.9-496.6,68.9C-496.6,68.8-496.6,68.8-496.6,68.9l-4.3-0.1c0,0,0,0-0.1,0c0,0,0,0,0,0.1
				c0.4,0.7,0.8,1.3,1.3,1.8c0.1,0.1,0.1,0.1,0.2,0C-498.3,70.1-497.3,69.5-496.6,68.9z"/>
			<path d="M-486.4,70.6c-0.1,0-0.1,0-0.1,0.1v1.7c0,0.1,0,0.1,0.1,0.1c1.2-0.1,2-0.2,2.4-0.3c0.2,0,0.3,0,0.5,0.1
				c0.1,0.1,0.2,0.3,0.2,0.5c0,0.2-0.1,0.3-0.2,0.5c-0.1,0.1-0.3,0.2-0.5,0.3c-0.5,0.1-2.6,0.4-6.3,0.9c0,0-0.1,0-0.1,0
				c-0.2,0-0.3-0.1-0.4-0.2c-0.2-0.1-0.2-0.3-0.3-0.5c0,0,0,0,0-0.1c0-0.2,0.1-0.3,0.2-0.5c0.1-0.2,0.3-0.2,0.5-0.3
				c0.8-0.1,1.6-0.2,2.4-0.3c0.1,0,0.1-0.1,0.1-0.1v-1.8c0-0.1,0-0.1-0.1-0.1h-1.9c-0.2,0-0.3-0.1-0.5-0.2c-0.1-0.1-0.2-0.3-0.2-0.5
				s0.1-0.3,0.2-0.5c0.1-0.1,0.3-0.2,0.5-0.2h1.9c0.1,0,0.1,0,0.1-0.1v-1.4c0-0.1,0-0.1-0.1-0.1h-1.7c-0.3,0-0.5-0.1-0.7-0.3
				c-0.2-0.2-0.3-0.4-0.3-0.6V62c0-0.3,0.1-0.5,0.3-0.6c0.2-0.2,0.4-0.3,0.7-0.3h5.1c0.3,0,0.5,0.1,0.7,0.3c0.2,0.2,0.3,0.4,0.3,0.6
				v4.7c0,0.3-0.1,0.5-0.3,0.6c-0.2,0.2-0.4,0.3-0.7,0.3h-1.7c-0.1,0-0.1,0-0.1,0.1v1.4c0,0.1,0,0.1,0.1,0.1h2
				c0.2,0,0.3,0.1,0.5,0.2c0.1,0.1,0.2,0.3,0.2,0.5s-0.1,0.3-0.2,0.5c-0.1,0.1-0.3,0.2-0.5,0.2H-486.4z M-489.4,62.3
				c-0.1,0-0.1,0-0.1,0.1v1.3c0,0.1,0,0.1,0.1,0.1h1.4c0.1,0,0.1,0,0.1-0.1v-1.3c0-0.1,0-0.1-0.1-0.1H-489.4z M-489.4,64.9
				c-0.1,0-0.1,0-0.1,0.1v1.3c0,0.1,0,0.1,0.1,0.1h1.4c0.1,0,0.1,0,0.1-0.1V65c0-0.1,0-0.1-0.1-0.1H-489.4z M-485.2,63.8
				c0.1,0,0.1,0,0.1-0.1v-1.3c0-0.1,0-0.1-0.1-0.1h-1.4c-0.1,0-0.1,0-0.1,0.1v1.3c0,0.1,0,0.1,0.1,0.1H-485.2z M-485.2,66.4
				c0.1,0,0.1,0,0.1-0.1V65c0-0.1,0-0.1-0.1-0.1h-1.4c-0.1,0-0.1,0-0.1,0.1v1.3c0,0.1,0,0.1,0.1,0.1H-485.2z M-477.6,66.2
				c0.1,0,0.3,0,0.4,0l0.3,0.1c0.1,0,0.2,0.1,0.3,0.2c0.1,0.1,0.1,0.2,0.1,0.3c0,0.1,0,0.1,0,0.1c-0.3,1.2-0.6,2.1-0.9,2.8
				c-0.1,0.2-0.2,0.3-0.3,0.4c-0.1,0.1-0.2,0.1-0.3,0.1c-0.1,0-0.1,0-0.2,0c-0.2,0-0.3-0.1-0.4-0.3c-0.1-0.1-0.1-0.3,0-0.5
				c0.1-0.4,0.3-1,0.5-1.7c0,0,0-0.1,0-0.1c0,0,0,0-0.1,0h-1.3c-0.1,0-0.1,0-0.1,0.1v5.5c0,0.4,0,0.7-0.1,0.9
				c-0.1,0.2-0.3,0.4-0.5,0.5c-0.3,0.2-0.9,0.3-1.8,0.3h0c-0.2,0-0.4-0.1-0.6-0.2c-0.2-0.1-0.3-0.3-0.4-0.5c0-0.1,0-0.1,0-0.2
				c0-0.1,0-0.2,0.1-0.3c0.1-0.1,0.2-0.2,0.4-0.2c0.2,0,0.4,0,0.6,0c0.2,0,0.4,0,0.5,0c0.1,0,0.2,0,0.2-0.1c0,0,0.1-0.1,0.1-0.2
				v-5.5c0-0.1,0-0.1-0.1-0.1h-1.5c-0.2,0-0.4-0.1-0.5-0.2c-0.1-0.1-0.2-0.3-0.2-0.5c0-0.2,0.1-0.4,0.2-0.5c0.1-0.1,0.3-0.2,0.5-0.2
				h3c0,0,0,0,0,0c0,0,0,0,0,0c-0.8-0.6-1.6-1.2-2.5-1.7c-0.1-0.1-0.2-0.2-0.2-0.4c0-0.2,0-0.3,0.1-0.4c0.1-0.1,0.3-0.2,0.5-0.3
				c0.1,0,0.1,0,0.1,0c0.1,0,0.3,0,0.4,0.1c0.3,0.2,0.6,0.3,0.8,0.5c0.1,0,0.1,0,0.2,0c0.4-0.4,0.9-0.9,1.3-1.5c0,0,0,0,0-0.1
				c0,0,0,0,0,0h-3.5c-0.2,0-0.3-0.1-0.5-0.2c-0.1-0.1-0.2-0.3-0.2-0.5c0-0.2,0.1-0.3,0.2-0.5c0.1-0.1,0.3-0.2,0.5-0.2h4.7
				c0,0,0,0,0.1,0c0.1,0,0.1,0,0.2,0c0.1,0,0.2,0,0.3,0.1l0.3,0.2c0.1,0.1,0.2,0.2,0.3,0.4s0,0.3-0.1,0.4c-0.7,0.9-1.4,1.8-2.2,2.5
				c-0.1,0.1-0.1,0.1,0,0.1c0.3,0.2,0.6,0.5,0.9,0.7c0.1,0.1,0.1,0.2,0.1,0.3c0,0.1,0,0.2-0.1,0.3c0,0,0,0,0,0c0,0,0,0,0,0
				L-477.6,66.2C-477.7,66.3-477.6,66.2-477.6,66.2z"/>
			<path d="M-466.3,61.6c0.1-0.2,0.2-0.3,0.4-0.4c0.1-0.1,0.2-0.1,0.3-0.1c0.1,0,0.1,0,0.2,0c0.2,0.1,0.3,0.2,0.4,0.3
				c0,0.1,0.1,0.2,0.1,0.3c0,0.1,0,0.2-0.1,0.3c-0.5,1.1-1.1,2.1-1.7,3c0,0,0,0,0,0.1c0,0,0,0,0,0h0.9c0.2,0,0.3,0.1,0.5,0.2
				s0.2,0.3,0.2,0.5c0,0.2-0.1,0.3-0.2,0.5s-0.3,0.2-0.5,0.2h-1.9c-0.1,0-0.2,0-0.2,0.1c-0.3,0.4-0.7,0.8-1.1,1.2c0,0,0,0,0,0
				c0,0,0,0,0,0h2.3c0.3,0,0.5,0.1,0.7,0.3c0.2,0.2,0.3,0.4,0.3,0.6V74c0,0.2-0.1,0.4-0.2,0.5c-0.1,0.1-0.3,0.2-0.5,0.2h-0.1
				c-0.2,0-0.3-0.1-0.4-0.2c-0.1-0.1-0.2-0.2-0.2-0.4c0-0.1,0-0.1-0.1-0.1h-3c-0.1,0-0.1,0-0.1,0.1v0.1c0,0.2-0.1,0.3-0.2,0.5
				c-0.1,0.1-0.3,0.2-0.5,0.2c-0.2,0-0.3-0.1-0.5-0.2c-0.1-0.1-0.2-0.3-0.2-0.5v-4.4c0,0,0-0.1,0-0.1c0,0,0,0-0.1,0
				c0,0-0.1,0.1-0.3,0.2c-0.1,0.1-0.2,0.1-0.4,0.1c-0.1,0-0.1,0-0.2,0c-0.2-0.1-0.4-0.2-0.5-0.3c-0.1-0.1-0.1-0.2-0.1-0.4
				c0-0.1,0-0.1,0-0.1c0-0.2,0.1-0.3,0.3-0.4c1.2-0.7,2.3-1.5,3.2-2.4c0,0,0,0,0,0c0,0,0,0,0,0h-2.8c-0.2,0-0.3-0.1-0.5-0.2
				s-0.2-0.3-0.2-0.5c0-0.2,0.1-0.3,0.2-0.5s0.3-0.2,0.5-0.2h2.2c0.1,0,0.1,0,0.1-0.1v-1.4c0-0.1,0-0.1-0.1-0.1h-1.5
				c-0.2,0-0.3-0.1-0.5-0.2s-0.2-0.3-0.2-0.4s0.1-0.3,0.2-0.4s0.3-0.2,0.5-0.2h1.5c0.1,0,0.1,0,0.1-0.1v-0.8c0-0.2,0.1-0.3,0.2-0.5
				c0.1-0.1,0.3-0.2,0.5-0.2c0.2,0,0.4,0.1,0.5,0.2c0.1,0.1,0.2,0.3,0.2,0.5V62c0,0.1,0,0.1,0.1,0.1h1c0.2,0,0.4,0.1,0.5,0.2
				s0.2,0.3,0.2,0.5c0,0,0,0,0,0C-466.7,62.4-466.5,62-466.3,61.6z M-467.2,70.3c0.1,0,0.1,0,0.1-0.1V69c0-0.1,0-0.1-0.1-0.1h-2.9
				c-0.1,0-0.1,0-0.1,0.1v1.1c0,0.1,0,0.1,0.1,0.1H-467.2z M-470.3,72.7c0,0.1,0,0.1,0.1,0.1h2.9c0.1,0,0.1,0,0.1-0.1v-1.2
				c0-0.1,0-0.1-0.1-0.1h-2.9c-0.1,0-0.1,0-0.1,0.1V72.7z M-468.8,64.9c0,0.1,0,0.1,0.1,0.1h0.2c0.1,0,0.1,0,0.2-0.1
				c0.3-0.4,0.7-0.9,1-1.5c0,0,0,0,0-0.1c0,0,0,0,0,0h-1.3c-0.1,0-0.1,0-0.1,0.1V64.9z M-459.8,61.2c0,0,0.1,0,0.1,0
				c0.1,0,0.2,0,0.3,0.1l0.4,0.2c0.2,0.1,0.3,0.2,0.3,0.4c0,0.1,0,0.1,0,0.2c0,0.1,0,0.2-0.1,0.3c-0.7,1.6-1.3,3-1.8,4.1
				c0,0.1,0,0.1,0,0.2c1.2,1.1,1.8,2.4,1.8,3.7c0,0,0,0.1,0,0.1c0,1.1-0.3,1.8-0.8,2.1c-0.3,0.2-0.6,0.3-1.1,0.4c-0.2,0-0.5,0-0.7,0
				c-0.2,0-0.4-0.1-0.5-0.2c-0.2-0.1-0.3-0.3-0.3-0.5c-0.1-0.2,0-0.3,0.1-0.4c0.1-0.1,0.2-0.2,0.4-0.2c0.2,0,0.3,0,0.5,0
				c0.3,0,0.5-0.1,0.7-0.2c0.3-0.2,0.5-0.6,0.5-1.2c0-0.9-0.4-1.9-1.3-2.8c-0.2-0.2-0.3-0.4-0.4-0.7c0-0.1,0-0.2,0-0.3
				c0-0.2,0-0.3,0.1-0.5c0.4-1,0.9-2.1,1.3-3.2c0,0,0,0,0-0.1c0,0,0,0-0.1,0h-2.3c-0.1,0-0.1,0-0.1,0.1v11.5c0,0.2-0.1,0.4-0.2,0.5
				s-0.3,0.2-0.5,0.2c-0.2,0-0.4-0.1-0.5-0.2c-0.1-0.1-0.2-0.3-0.2-0.5V62.1c0-0.3,0.1-0.5,0.3-0.6c0.2-0.2,0.4-0.3,0.6-0.3H-459.8
				C-459.9,61.2-459.8,61.2-459.8,61.2z"/>
			<path d="M-441,62.6c0.1,0.1,0.2,0.2,0.2,0.2s0,0.1,0,0.3c0,0.2-0.1,0.4-0.2,0.5s-0.3,0.2-0.5,0.2h-5.6c-0.1,0-0.1,0-0.1,0.1v1.7
				c0,0.1,0,0.1,0.1,0.1h4c0.3,0,0.5,0.1,0.6,0.3c0.2,0.2,0.3,0.4,0.3,0.6v4.6c0,0.4-0.1,0.7-0.2,0.9c-0.1,0.2-0.3,0.4-0.6,0.5
				c-0.4,0.1-1.1,0.2-2,0.3h0c-0.2,0-0.4-0.1-0.6-0.2c-0.2-0.1-0.3-0.3-0.4-0.5c-0.1-0.2,0-0.3,0.1-0.5c0.1-0.1,0.2-0.2,0.4-0.2
				c0.3,0,0.6,0,0.9,0c0.2,0,0.4,0,0.5,0c0.1,0,0.2,0,0.3-0.1c0,0,0.1-0.1,0.1-0.2v-3.9c0-0.1,0-0.1-0.1-0.1h-3.3
				c-0.1,0-0.1,0-0.1,0.1v6.9c0,0.2-0.1,0.4-0.2,0.5c-0.2,0.2-0.3,0.2-0.5,0.2c-0.2,0-0.4-0.1-0.5-0.2c-0.2-0.2-0.2-0.3-0.2-0.5
				v-6.9c0-0.1,0-0.1-0.1-0.1h-3c-0.1,0-0.1,0-0.1,0.1v4.9c0,0.2-0.1,0.4-0.2,0.5c-0.1,0.1-0.3,0.2-0.5,0.2s-0.4-0.1-0.5-0.2
				c-0.1-0.1-0.2-0.3-0.2-0.5v-5.6c0-0.3,0.1-0.5,0.3-0.6c0.2-0.2,0.4-0.3,0.7-0.3h3.7c0.1,0,0.1,0,0.1-0.1V64c0-0.1,0-0.1-0.1-0.1
				h-5.5c-0.2,0-0.4-0.1-0.5-0.2s-0.2-0.3-0.2-0.5c0-0.2,0.1-0.4,0.2-0.5s0.3-0.2,0.5-0.2h5.5c0.1,0,0.1,0,0.1-0.1V61
				c0-0.2,0.1-0.4,0.2-0.6c0.2-0.2,0.3-0.2,0.6-0.2s0.4,0.1,0.6,0.2c0.2,0.2,0.2,0.3,0.2,0.6v1.3c0,0.1,0,0.1,0.1,0.1h5.6
				C-441.4,62.4-441.2,62.5-441,62.6z"/>
			<path d="M-430.3,64c0,0.1,0,0.1,0.1,0.1h3.3c0.2,0,0.3,0,0.5,0c0.1,0,0.2,0,0.2,0c0.3,0,0.7,0.1,0.9,0.2c0.2,0.1,0.3,0.2,0.4,0.4
				c0.1,0.1,0.1,0.3,0.1,0.4c0,0,0,0.1,0,0.1c0,0.1,0,0.1,0,0.2c0,0.8-0.1,1.6-0.1,2.4c-0.1,0.8-0.2,1.8-0.3,2.9
				c-0.2,1.1-0.3,1.9-0.5,2.4c-0.2,0.4-0.4,0.7-0.7,0.8c-0.3,0.2-0.7,0.3-1.2,0.3c-0.5,0-1,0-1.8-0.1c-0.2,0-0.5-0.1-0.6-0.3
				c-0.2-0.2-0.3-0.4-0.3-0.6c0,0,0-0.1,0-0.1c0-0.2,0.1-0.3,0.2-0.5c0.1-0.1,0.3-0.2,0.5-0.2c0,0,0.1,0,0.1,0
				c0.6,0.1,1.1,0.1,1.5,0.1c0.2,0,0.4,0,0.6-0.1s0.3-0.2,0.3-0.4c0.2-0.5,0.4-1.4,0.6-2.7c0.1-1.3,0.2-2.5,0.2-3.6
				c0-0.1,0-0.1-0.1-0.1h-3.9c-0.1,0-0.1,0-0.1,0.1c-0.3,1.9-0.7,3.5-1.4,4.8s-1.6,2.4-2.8,3.3c-0.2,0.2-0.4,0.2-0.7,0.2
				c0,0,0,0,0,0c-0.3,0-0.5-0.1-0.7-0.3l0,0c-0.2-0.1-0.2-0.3-0.2-0.5c0-0.3,0.1-0.4,0.3-0.6c0.4-0.3,0.8-0.6,1.1-0.9
				c0.8-0.7,1.4-1.6,1.9-2.6c0.5-1,0.8-2.2,1-3.6c0-0.1,0-0.1-0.1-0.1h-2.3c-0.4,0-0.8,0-1.1,0c0,0,0,0,0,0c-0.2,0-0.4-0.1-0.6-0.2
				c-0.2-0.2-0.3-0.3-0.3-0.6c0-0.2,0.1-0.4,0.3-0.6c0.2-0.1,0.3-0.2,0.5-0.2c0,0,0,0,0.1,0c0.4,0,0.8,0,1.1,0h2.5
				c0.1,0,0.1,0,0.1-0.1c0-0.4,0-0.9,0-1.4l0-0.5c0-0.2,0.1-0.4,0.2-0.6c0.2-0.2,0.4-0.3,0.6-0.3h0c0.3,0,0.5,0.1,0.6,0.3
				c0.2,0.2,0.2,0.4,0.2,0.6l0,0.5C-430.2,63-430.3,63.4-430.3,64z M-424.9,62.8c0.1,0.1,0.1,0.3,0,0.4c-0.1,0.1-0.2,0.3-0.3,0.3
				c-0.1,0.1-0.3,0.1-0.4,0c-0.2-0.1-0.3-0.2-0.3-0.3c-0.2-0.5-0.5-0.9-0.7-1.2c-0.1-0.1-0.1-0.3-0.1-0.4c0-0.1,0.1-0.2,0.3-0.3
				c0.1-0.1,0.3-0.1,0.5,0c0.2,0,0.3,0.1,0.4,0.3C-425.4,61.9-425.2,62.3-424.9,62.8z M-424.9,61.3c-0.1-0.1-0.1-0.2-0.1-0.3
				c0,0,0-0.1,0-0.1c0-0.1,0.1-0.2,0.3-0.3c0.1,0,0.2-0.1,0.3-0.1c0.1,0,0.1,0,0.2,0c0.2,0,0.3,0.1,0.4,0.3c0.2,0.4,0.5,0.8,0.7,1.2
				c0.1,0.1,0.1,0.2,0.1,0.3c0,0.1,0,0.1,0,0.2c-0.1,0.1-0.1,0.3-0.3,0.3c-0.1,0-0.2,0-0.3,0c-0.1,0-0.1,0-0.2,0
				c-0.1-0.1-0.3-0.2-0.3-0.3C-424.4,62.1-424.6,61.6-424.9,61.3z"/>
			<path d="M-408.8,62.3c0.1,0,0.2,0,0.3,0c0.4,0,0.7,0.1,0.9,0.3c0.1,0.1,0.2,0.3,0.3,0.4c0,0.1,0,0.1,0,0.1c0,0.1,0,0.2-0.1,0.4
				c-0.1,0.1-0.1,0.2-0.1,0.3c-0.7,1.7-1.6,3.2-2.5,4.5c-0.1,0.1,0,0.1,0,0.2c1.3,1.1,2.6,2.4,3.9,3.9c0.1,0.2,0.2,0.4,0.2,0.6
				c0,0,0,0.1,0,0.1c0,0.3-0.1,0.5-0.3,0.6l0,0c-0.2,0.1-0.3,0.2-0.5,0.2c0,0-0.1,0-0.1,0c-0.2,0-0.4-0.1-0.6-0.3
				c-1-1.3-2.2-2.6-3.6-3.9c-0.1-0.1-0.1-0.1-0.2,0c-1.7,1.8-3.4,3.1-5.3,4.1c-0.2,0.1-0.4,0.1-0.5,0.1c-0.1,0-0.1,0-0.2,0
				c-0.3-0.1-0.5-0.2-0.7-0.4l0,0c-0.1-0.1-0.2-0.3-0.2-0.4c0,0,0-0.1,0-0.1c0-0.2,0.2-0.4,0.4-0.5c1.1-0.5,2.1-1.1,3.1-1.9
				c1-0.8,1.9-1.6,2.6-2.4c0.5-0.6,1-1.3,1.5-2s0.8-1.5,1-2.1c0,0,0,0,0-0.1c0,0,0,0-0.1,0h-5.8c-0.2,0-0.5,0-0.8,0c0,0,0,0-0.1,0
				c-0.2,0-0.4-0.1-0.6-0.2c-0.2-0.2-0.3-0.4-0.3-0.6c0-0.2,0.1-0.4,0.3-0.6c0.2-0.1,0.3-0.2,0.6-0.2c0,0,0,0,0.1,0
				c0.3,0,0.6,0,0.8,0h5.9C-409.3,62.4-409.1,62.4-408.8,62.3z"/>
			<path d="M-392.8,74.1c-0.1,0-0.2,0-0.3,0c-0.2,0-0.3,0-0.5-0.1c-0.2-0.1-0.4-0.3-0.6-0.5c-0.1-0.1-0.1-0.2-0.1-0.3
				c0-0.1,0-0.2,0.1-0.3c0.1-0.2,0.2-0.3,0.4-0.3c0.2,0,0.4-0.1,0.5-0.1c0.5-0.1,1-0.3,1.5-0.5c0.4-0.2,0.9-0.5,1.2-0.9
				c0.4-0.4,0.6-0.8,0.9-1.3c0.2-0.5,0.3-1.1,0.3-1.7c0-1.2-0.3-2.1-1-2.9c-0.7-0.8-1.6-1.3-2.7-1.5c-0.1,0-0.1,0-0.1,0.1
				c-0.3,1.7-0.6,3.1-0.9,4.3c-0.5,1.6-1,2.9-1.7,3.7c-0.7,0.9-1.4,1.3-2.2,1.3c-0.8,0-1.5-0.4-2.1-1.2c-0.6-0.8-0.9-1.9-0.9-3.2
				c0-0.9,0.2-1.7,0.6-2.5c0.4-0.8,0.9-1.5,1.5-2.1c0.6-0.6,1.4-1.1,2.3-1.4c0.9-0.4,1.8-0.5,2.8-0.5c0.9,0,1.8,0.2,2.6,0.5
				c0.8,0.3,1.4,0.7,2,1.3c0.5,0.5,0.9,1.2,1.2,1.9c0.3,0.7,0.4,1.5,0.4,2.3c0,1.5-0.4,2.8-1.3,3.9C-389.9,73-391.2,73.8-392.8,74.1
				z M-397.9,71.2c0.8,0,1.5-1.2,2.2-3.5c0.4-1.2,0.7-2.6,0.8-4c0,0,0,0,0-0.1c0,0,0,0-0.1,0c-0.7,0.1-1.3,0.4-1.9,0.7
				c-0.6,0.3-1,0.7-1.4,1.2c-0.4,0.5-0.6,0.9-0.9,1.5s-0.3,1-0.3,1.5c0,0.8,0.2,1.5,0.5,2C-398.6,71-398.3,71.2-397.9,71.2z"/>
		</g>
	</g>
	<g>
		<linearGradient id="SVGID_1_" gradientUnits="userSpaceOnUse" x1="-444.2573" y1="18.8083" x2="-444.2573" y2="49.2249">
			<stop  offset="0" style="stop-color:#F2D500"/>
			<stop  offset="1.000000e-02" style="stop-color:#F2D500"/>
			<stop  offset="0.25" style="stop-color:#F2D500"/>
			<stop  offset="0.5" style="stop-color:#F39700"/>
			<stop  offset="0.99" style="stop-color:#F39700"/>
			<stop  offset="1" style="stop-color:#F39700"/>
		</linearGradient>
		<path class="st0" d="M-438.5,17.3c0.1-0.4,0-0.4-0.2-0.1l-15.5,19.1c-0.2,0.3-0.1,0.6,0.3,0.6h6.6c0.4,0,0.6,0.3,0.5,0.7
			l-2.8,11.5c-0.1,0.4,0,0.4,0.2,0.1l15.1-19c0.3-0.3,0.1-0.6-0.3-0.6h-5.6c-0.4,0-0.6-0.3-0.5-0.7L-438.5,17.3z"/>
	</g>
</g>
<polygon class="st1" points="-312.9,28.8 -313.8,27.9 -317.3,24.4 -317.3,26.2 -314.7,28.8 -317.3,31.4 -317.3,33.2 -313.8,29.7 "/>
<g>
	<linearGradient id="SVGID_2_" gradientUnits="userSpaceOnUse" x1="-262.8831" y1="2.2702" x2="-262.8831" y2="39.9042">
		<stop  offset="0" style="stop-color:#F2D500"/>
		<stop  offset="1.000000e-02" style="stop-color:#F2D500"/>
		<stop  offset="0.25" style="stop-color:#F2D500"/>
		<stop  offset="0.5" style="stop-color:#F39700"/>
		<stop  offset="0.99" style="stop-color:#F39700"/>
		<stop  offset="1" style="stop-color:#F39700"/>
	</linearGradient>
	<path class="st2" d="M-256.4,0.4c0.1-0.4,0-0.5-0.3-0.1l-17.6,21.8c-0.3,0.4-0.1,0.7,0.3,0.7h7.5c0.5,0,0.7,0.4,0.6,0.8l-3.1,13.1
		c-0.2,0.4,0,0.5,0.3,0.1l17.2-21.7c0.3-0.4,0.1-0.7-0.3-0.7h-6.4c-0.5,0-0.7-0.4-0.6-0.8L-256.4,0.4z"/>
</g>
<polygon points="-197,4.4 -197.9,3.5 -201.4,0 -201.4,1.8 -198.8,4.4 -201.4,7 -201.4,8.8 -197.9,5.3 "/>
<g>
	
		<text transform="matrix(1 0 0 1 -91.0971 4054.999)" style="font-family:'GenJyuuGothic-Regular'; font-size:14px; letter-spacing:1;">内部リンク</text>
</g>
<polygon points="-97.4,4049 -98.3,4048.1 -101.8,4044.6 -101.8,4046.4 -99.2,4049 -101.8,4051.6 -101.8,4053.4 -98.3,4049.9 "/>
<g>
	<g>
		<text transform="matrix(1 0 0 1 33.7993 4054)" style="font-family:'GenJyuuGothic-Regular'; font-size:14px; letter-spacing:1;">外部リンク</text>
	</g>
	<g>
		<g>
			<path d="M26.3,4047.2v4.7h-6.9v-4.7H26.3 M27.3,4046.2h-8.9v6.7h8.9V4046.2L27.3,4046.2z"/>
		</g>
		<g>
			<rect x="16.3" y="4044" class="st3" width="7.9" height="5.7"/>
			<path d="M23.7,4044.5v4.7h-6.9v-4.7H23.7 M24.7,4043.5h-8.9v6.7h8.9V4043.5L24.7,4043.5z"/>
		</g>
	</g>
</g>
<g>
	<g>
		
			<text transform="matrix(1 0 0 1 161.9649 4052)" style="font-family:'GenJyuuGothic-Regular'; font-size:14px; letter-spacing:1;">PDFリンク</text>
	</g>
	<g>
		<path class="st4" d="M153.2,4054c0,2.2-1.8,4-4,4h-14.9c-2.2,0-4-1.8-4-4v-14c0-2.2,1.8-4,4-4h14.9c2.2,0,4,1.8,4,4V4054z"/>
	</g>
	<text transform="matrix(1 0 0 1 133.1692 4049.8325)" class="st3" style="font-family:'GenJyuuGothic-Bold'; font-size:9px;">PDF</text>
</g>
<g>
	<g>
		<rect x="-143.9" y="3.2" class="st3" width="7.9" height="5.7"/>
		<path d="M-136.5,3.7v4.7h-6.9V3.7H-136.5 M-135.5,2.7h-8.9v6.7h8.9V2.7L-135.5,2.7z"/>
	</g>
	<g>
		<rect x="-146.5" y="0.5" class="st3" width="7.9" height="5.7"/>
		<path d="M-139.1,1v4.7h-6.9V1H-139.1 M-138.1,0h-8.9v6.7h8.9V0L-138.1,0z"/>
	</g>
</g>
<g>
	<path class="st4" d="M-51,18c0,2.2-1.8,4-4,4h-14.9c-2.2,0-4-1.8-4-4V4c0-2.2,1.8-4,4-4H-55c2.2,0,4,1.8,4,4V18z"/>
</g>
<text transform="matrix(1 0 0 1 -71.0748 13.8336)" class="st3" style="font-family:'GenJyuuGothic-Bold'; font-size:9px;">PDF</text>
<g>
	<path d="M15.5,48.5c0.1-0.4,0.4-0.6,0.8-0.8c0.2-0.1,0.4-0.2,0.7-0.2c0.1,0,0.3,0,0.4,0.1c0.4,0.1,0.6,0.3,0.8,0.7
		c0.1,0.2,0.1,0.3,0.1,0.5c0,0.2,0,0.3-0.1,0.5c-1,2.2-2.1,4.2-3.4,6c0,0,0,0.1,0,0.1c0,0,0.1,0.1,0.1,0.1h1.8
		c0.4,0,0.7,0.1,0.9,0.4s0.4,0.6,0.4,0.9c0,0.4-0.1,0.7-0.4,0.9S17.1,58,16.7,58h-3.8c-0.2,0-0.3,0.1-0.4,0.2
		c-0.7,0.8-1.4,1.6-2.3,2.4c0,0-0.1,0.1,0,0.1c0,0,0.1,0.1,0.1,0.1h4.6c0.5,0,1,0.2,1.3,0.5c0.4,0.4,0.5,0.8,0.5,1.3v10.7
		c0,0.4-0.1,0.7-0.4,1c-0.3,0.3-0.6,0.4-1,0.4h-0.3c-0.3,0-0.6-0.1-0.8-0.3c-0.2-0.2-0.3-0.5-0.3-0.8c0-0.1,0-0.2-0.1-0.2h-6
		c-0.1,0-0.2,0.1-0.2,0.2v0.2c0,0.4-0.1,0.7-0.4,1c-0.3,0.3-0.6,0.4-0.9,0.4c-0.4,0-0.7-0.1-1-0.4c-0.3-0.3-0.4-0.6-0.4-1v-8.8
		c0-0.1,0-0.1-0.1-0.1c0,0-0.1,0-0.1,0c0,0-0.3,0.1-0.7,0.4c-0.2,0.1-0.5,0.2-0.7,0.2c-0.1,0-0.3,0-0.4-0.1c-0.4-0.1-0.7-0.3-1-0.7
		c-0.2-0.2-0.3-0.5-0.3-0.8c0-0.1,0-0.2,0-0.3C1.8,63.4,2,63.1,2.3,63c2.4-1.3,4.6-2.9,6.5-4.8c0,0,0.1-0.1,0-0.1
		c0,0-0.1-0.1-0.1-0.1H3.1c-0.4,0-0.7-0.1-0.9-0.4s-0.4-0.6-0.4-0.9c0-0.4,0.1-0.7,0.4-0.9s0.6-0.4,0.9-0.4h4.4
		c0.2,0,0.3-0.1,0.3-0.3v-2.9c0-0.2-0.1-0.3-0.3-0.3H4.4c-0.4,0-0.7-0.1-0.9-0.4s-0.4-0.5-0.4-0.9s0.1-0.6,0.4-0.9s0.6-0.4,0.9-0.4
		h3.1c0.2,0,0.3-0.1,0.3-0.3v-1.7c0-0.4,0.1-0.7,0.4-1c0.3-0.3,0.6-0.4,1-0.4c0.4,0,0.7,0.1,1,0.4c0.3,0.3,0.4,0.6,0.4,1v1.7
		c0,0.2,0.1,0.3,0.2,0.3h2c0.4,0,0.8,0.1,1,0.4s0.4,0.6,0.4,1c0,0,0,0,0.1,0C14.7,50.2,15.1,49.3,15.5,48.5z M13.7,65.8
		c0.1,0,0.2-0.1,0.2-0.3v-2.2c0-0.1-0.1-0.2-0.2-0.2H7.8c-0.2,0-0.3,0.1-0.3,0.2v2.2c0,0.2,0.1,0.3,0.3,0.3H13.7z M7.6,70.8
		c0,0.2,0.1,0.3,0.3,0.3h5.9c0.1,0,0.2-0.1,0.2-0.3v-2.4c0-0.2-0.1-0.3-0.2-0.3H7.8c-0.2,0-0.3,0.1-0.3,0.3V70.8z M10.5,55.2
		c0,0.2,0.1,0.3,0.2,0.3h0.3c0.1,0,0.3-0.1,0.4-0.2c0.6-0.8,1.3-1.8,2.1-3c0,0,0-0.1,0-0.1c0-0.1-0.1-0.1-0.1-0.1h-2.7
		c-0.1,0-0.2,0.1-0.2,0.3V55.2z M28.5,47.7c0.1,0,0.2,0,0.3,0c0.2,0,0.3,0,0.5,0.1l0.7,0.5c0.3,0.2,0.5,0.5,0.7,0.8
		c0,0.1,0.1,0.3,0.1,0.4c0,0.2,0,0.4-0.1,0.6c-1.3,3.2-2.6,5.9-3.7,8.2c-0.1,0.1,0,0.2,0.1,0.3c2.4,2.3,3.6,4.8,3.6,7.4
		c0,0.1,0,0.1,0,0.2c0,2.1-0.6,3.5-1.7,4.3c-0.5,0.4-1.3,0.6-2.2,0.8c-0.4,0-0.9,0.1-1.4,0.1c-0.4,0-0.8-0.1-1.1-0.4
		c-0.3-0.3-0.5-0.7-0.6-1.1c-0.1-0.3-0.1-0.6,0.1-0.9c0.2-0.3,0.5-0.4,0.8-0.4c0.3,0,0.6,0,0.9,0c0.6,0,1.1-0.2,1.4-0.4
		c0.6-0.3,0.9-1.1,0.9-2.3c0-1.9-0.9-3.7-2.6-5.6c-0.4-0.4-0.6-0.9-0.7-1.4c0-0.2-0.1-0.4-0.1-0.5c0-0.4,0.1-0.7,0.2-1
		c0.9-2,1.8-4.2,2.6-6.5c0,0,0-0.1,0-0.1c0-0.1-0.1-0.1-0.1-0.1h-4.6c-0.2,0-0.3,0.1-0.3,0.3v23.1c0,0.4-0.1,0.8-0.4,1
		s-0.6,0.4-1,0.4c-0.4,0-0.7-0.1-1-0.4c-0.3-0.3-0.4-0.6-0.4-1V49.6c0-0.5,0.2-0.9,0.5-1.3c0.4-0.4,0.8-0.5,1.3-0.5h7.3
		C28.4,47.7,28.5,47.7,28.5,47.7z"/>
	<path d="M62.9,50.6c0.3,0.3,0.4,0.4,0.4,0.4s0,0.2,0,0.6c0,0.4-0.1,0.7-0.4,1s-0.6,0.4-1,0.4H50.6c-0.2,0-0.3,0.1-0.3,0.3v3.4
		c0,0.1,0.1,0.2,0.3,0.2h8.1c0.5,0,0.9,0.2,1.3,0.5c0.4,0.4,0.5,0.8,0.5,1.3V68c0,0.8-0.1,1.4-0.3,1.9c-0.2,0.4-0.6,0.8-1.2,1
		c-0.8,0.3-2.1,0.5-4.1,0.5h0c-0.4,0-0.8-0.1-1.2-0.4c-0.4-0.3-0.6-0.6-0.8-1.1c-0.1-0.4-0.1-0.7,0.1-1c0.2-0.3,0.5-0.4,0.8-0.4
		c0.7,0,1.3,0,1.8,0c0.4,0,0.8,0,1,0c0.3,0,0.5-0.1,0.5-0.2c0.1-0.1,0.1-0.2,0.1-0.5v-7.8c0-0.2-0.1-0.3-0.2-0.3h-6.6
		c-0.2,0-0.3,0.1-0.3,0.3v13.8c0,0.4-0.2,0.8-0.5,1.1c-0.3,0.3-0.7,0.5-1.1,0.5c-0.4,0-0.8-0.2-1.1-0.5c-0.3-0.3-0.5-0.7-0.5-1.1
		V60.1c0-0.2-0.1-0.3-0.3-0.3h-6.1c-0.1,0-0.2,0.1-0.2,0.3V70c0,0.4-0.1,0.8-0.4,1.1c-0.3,0.3-0.6,0.4-1,0.4s-0.8-0.1-1-0.4
		c-0.3-0.3-0.4-0.6-0.4-1.1V58.8c0-0.5,0.2-0.9,0.5-1.3c0.4-0.4,0.8-0.5,1.3-0.5H47c0.2,0,0.3-0.1,0.3-0.2v-3.4
		c0-0.2-0.1-0.3-0.3-0.3H36c-0.4,0-0.7-0.1-1-0.4s-0.4-0.6-0.4-1c0-0.4,0.1-0.7,0.4-1s0.6-0.4,1-0.4h11c0.2,0,0.3-0.1,0.3-0.2v-2.6
		c0-0.4,0.2-0.8,0.5-1.1c0.3-0.3,0.7-0.5,1.1-0.5s0.8,0.2,1.1,0.5c0.3,0.3,0.5,0.7,0.5,1.1V50c0,0.1,0.1,0.2,0.3,0.2h11.2
		C62.3,50.2,62.6,50.3,62.9,50.6z"/>
	<path d="M81.2,53.4c0,0.2,0.1,0.3,0.2,0.3h6.7c0.3,0,0.6,0,1-0.1c0.2,0,0.3,0,0.5,0c0.7,0,1.3,0.1,1.9,0.4c0.3,0.2,0.6,0.4,0.8,0.7
		c0.1,0.3,0.2,0.6,0.2,0.8c0,0.1,0,0.1,0,0.2c0,0.1,0,0.3,0,0.4c0,1.6-0.1,3.2-0.2,4.9c-0.1,1.7-0.3,3.6-0.6,5.9
		c-0.3,2.2-0.7,3.8-1.1,4.8c-0.4,0.8-0.8,1.3-1.4,1.7c-0.6,0.4-1.4,0.5-2.3,0.5c-0.9,0-2.1,0-3.5-0.1c-0.5,0-0.9-0.2-1.3-0.5
		c-0.4-0.3-0.6-0.8-0.6-1.2c0-0.1,0-0.1,0-0.2c0-0.4,0.1-0.7,0.4-0.9c0.3-0.3,0.6-0.4,0.9-0.4c0.1,0,0.1,0,0.2,0
		c1.2,0.1,2.2,0.2,3,0.2c0.5,0,0.9-0.1,1.1-0.2s0.5-0.4,0.7-0.8c0.5-1,0.8-2.8,1.1-5.4c0.3-2.6,0.4-5,0.4-7.3c0-0.1-0.1-0.2-0.3-0.2
		h-7.7c-0.2,0-0.3,0.1-0.3,0.2c-0.5,3.9-1.5,7.1-2.8,9.7s-3.2,4.8-5.5,6.7c-0.4,0.3-0.9,0.5-1.4,0.5c0,0,0,0-0.1,0
		c-0.5,0-1-0.2-1.5-0.5l-0.1-0.1c-0.3-0.3-0.5-0.6-0.5-1c0-0.5,0.2-0.9,0.6-1.2c0.8-0.5,1.5-1.1,2.1-1.7c1.6-1.5,2.8-3.2,3.8-5.2
		c1-2,1.6-4.4,2-7.2c0-0.1,0-0.2-0.2-0.2h-4.7c-0.8,0-1.5,0-2.2,0c0,0,0,0-0.1,0c-0.4,0-0.8-0.1-1.1-0.4c-0.3-0.3-0.5-0.7-0.5-1.2
		c0-0.4,0.2-0.8,0.5-1.1c0.3-0.3,0.7-0.4,1.1-0.4c0,0,0.1,0,0.1,0c0.8,0.1,1.6,0.1,2.2,0.1h4.9c0.1,0,0.2-0.1,0.3-0.3
		c0-0.9,0.1-1.8,0.1-2.8l0-1c0-0.4,0.1-0.8,0.4-1.2c0.3-0.4,0.7-0.6,1.2-0.6h0.1c0.5,0,0.9,0.2,1.3,0.6c0.3,0.3,0.5,0.7,0.5,1.2
		l0,0.9C81.3,51.2,81.2,52.2,81.2,53.4z M91.9,50.9c0.1,0.3,0.2,0.6,0.1,0.8c-0.1,0.3-0.3,0.5-0.6,0.6c-0.3,0.1-0.6,0.1-0.9,0
		c-0.3-0.1-0.5-0.3-0.7-0.6c-0.5-0.9-0.9-1.7-1.4-2.5c-0.2-0.3-0.2-0.5-0.1-0.8c0.1-0.3,0.3-0.5,0.5-0.6c0.3-0.1,0.6-0.1,0.9,0
		c0.3,0.1,0.6,0.3,0.7,0.5C90.9,49.2,91.4,50,91.9,50.9z M92.1,47.9c-0.1-0.2-0.2-0.3-0.2-0.5c0-0.1,0-0.2,0-0.3
		c0.1-0.3,0.3-0.5,0.5-0.6c0.2-0.1,0.4-0.1,0.5-0.1c0.1,0,0.3,0,0.4,0.1c0.3,0.1,0.6,0.3,0.7,0.5c0.5,0.8,1,1.6,1.5,2.4
		c0.1,0.2,0.2,0.3,0.2,0.5c0,0.1,0,0.2-0.1,0.3c-0.1,0.3-0.3,0.5-0.6,0.6c-0.2,0.1-0.3,0.1-0.5,0.1c-0.1,0-0.3,0-0.4-0.1
		c-0.3-0.1-0.5-0.3-0.7-0.6C93,49.4,92.5,48.6,92.1,47.9z"/>
	<path d="M119,50c0.2,0,0.4,0,0.5,0c0.7,0,1.3,0.2,1.8,0.5c0.3,0.2,0.5,0.5,0.5,0.9c0,0.1,0,0.2,0,0.3c0,0.3-0.1,0.5-0.2,0.7
		c-0.1,0.2-0.2,0.4-0.3,0.6c-1.5,3.4-3.2,6.4-5.1,8.9c-0.1,0.1-0.1,0.2,0,0.3c2.5,2.2,5.1,4.8,7.8,7.8c0.3,0.4,0.4,0.8,0.4,1.2
		c0,0.1,0,0.1,0,0.2c0,0.5-0.3,0.9-0.7,1.3l-0.1,0.1c-0.3,0.3-0.7,0.4-1.1,0.4c-0.1,0-0.1,0-0.2,0c-0.5,0-0.9-0.3-1.2-0.7
		c-2-2.6-4.4-5.2-7.2-7.7c-0.1-0.1-0.2-0.1-0.3,0c-3.3,3.5-6.8,6.2-10.5,8.2c-0.4,0.2-0.7,0.3-1.1,0.3c-0.1,0-0.3,0-0.4,0
		c-0.5-0.1-1-0.4-1.4-0.8l0,0c-0.2-0.3-0.3-0.5-0.3-0.8c0-0.1,0-0.2,0-0.3c0.1-0.4,0.3-0.7,0.7-0.9c2.2-1,4.2-2.3,6.2-3.8
		c2-1.5,3.7-3.2,5.2-4.8c1.1-1.2,2.1-2.5,3-4.1s1.6-2.9,2-4.2c0,0,0-0.1,0-0.1c0-0.1-0.1-0.1-0.1-0.1h-11.5c-0.4,0-1,0-1.7,0.1
		c0,0-0.1,0-0.1,0c-0.4,0-0.8-0.1-1.1-0.4c-0.4-0.3-0.6-0.7-0.6-1.2c0-0.5,0.2-0.9,0.6-1.2c0.3-0.3,0.7-0.4,1.1-0.4c0,0,0.1,0,0.1,0
		c0.7,0,1.3,0.1,1.7,0.1h11.9C118,50.1,118.5,50,119,50z"/>
	<path d="M130.2,54.6c-0.1,0-0.2,0-0.3,0c-0.4,0-0.7-0.1-1-0.3c-0.4-0.3-0.6-0.6-0.6-1.1c0-0.1,0-0.1,0-0.2c0-0.4,0.1-0.8,0.4-1.1
		c0.3-0.4,0.7-0.5,1.2-0.6c0.5,0,0.9-0.1,1.2-0.1c5-0.5,9.6-0.9,13.8-1.3c2.6-0.2,4.9-0.4,7.1-0.5c0,0,0.1,0,0.1,0
		c0.4,0,0.8,0.1,1.1,0.4c0.3,0.3,0.5,0.7,0.5,1.2c0,0.4-0.1,0.8-0.4,1.1c-0.3,0.3-0.7,0.5-1.2,0.5c-2,0-3.6,0.2-4.6,0.4
		c-2,0.6-3.7,1.9-5,3.8c-1.3,1.9-2,3.8-2,5.7c0,1.3,0.2,2.3,0.7,3.3c0.5,0.9,1.1,1.7,2,2.3s1.8,1.1,2.8,1.4c1,0.4,2.1,0.6,3.3,0.8
		c0.5,0.1,0.8,0.3,1.1,0.7c0.1,0.3,0.2,0.5,0.2,0.8c0,0.1,0,0.3-0.1,0.5c-0.2,0.5-0.5,0.9-0.9,1.2c-0.4,0.2-0.7,0.3-1.1,0.3
		c-0.1,0-0.2,0-0.3,0c-1.5-0.2-2.8-0.6-4.1-1.1c-1.3-0.5-2.4-1.2-3.5-2s-1.8-1.9-2.5-3.1c-0.6-1.3-0.9-2.6-0.9-4.2
		c0-2.2,0.5-4.2,1.5-6c1-1.8,2.2-3.2,3.6-4.2c0,0,0.1,0,0,0c0,0,0,0-0.1,0C136.6,53.7,132.6,54.2,130.2,54.6z M147.9,57.9
		c-0.1-0.2-0.2-0.5-0.1-0.7c0.1-0.3,0.2-0.4,0.5-0.5c0.3-0.1,0.6-0.1,0.8-0.1c0.3,0.1,0.5,0.3,0.7,0.5c0.6,0.9,1.1,1.7,1.5,2.6
		c0.1,0.3,0.2,0.5,0.1,0.8c-0.1,0.3-0.3,0.5-0.5,0.6c-0.3,0.1-0.6,0.1-0.8,0c-0.3-0.1-0.5-0.3-0.6-0.6
		C148.9,59.6,148.4,58.7,147.9,57.9z M151.4,56.5c-0.1-0.2-0.2-0.5-0.1-0.7c0.1-0.3,0.2-0.5,0.5-0.6c0.3-0.1,0.6-0.1,0.8-0.1
		c0.3,0.1,0.5,0.3,0.7,0.5c0.6,0.9,1.1,1.7,1.6,2.5c0.1,0.2,0.2,0.3,0.2,0.5c0,0.1,0,0.2-0.1,0.3c-0.1,0.3-0.3,0.5-0.5,0.6
		c-0.3,0.1-0.5,0.1-0.8,0s-0.5-0.3-0.6-0.5C152.5,58.2,152,57.3,151.4,56.5z"/>
	<path d="M168.9,49c0.2-0.5,0.6-0.8,1.1-1c0.3-0.1,0.5-0.2,0.7-0.2c0.2,0,0.5,0.1,0.7,0.2l0.1,0.1c0.4,0.2,0.7,0.5,0.9,0.9
		c0,0.2,0.1,0.3,0.1,0.5c0,0.3-0.1,0.6-0.3,0.8c-1.2,1.9-3.1,5.2-5.8,10c0,0,0,0,0,0.1c0,0,0,0,0.1,0c1.3-0.9,2.6-1.3,4-1.3
		c1.1,0,2,0.3,2.7,1c0.7,0.7,1,1.7,1.1,3c0,0.4,0,1.3,0,2.7c0,1.4,0,2.4,0.1,2.9c0,0.7,0.3,1.2,0.7,1.5c0.4,0.3,0.9,0.5,1.6,0.5
		c1.3,0,2.4-0.6,3.3-1.7c0.9-1.1,1.7-2.5,2.2-4.3c0.1-0.4,0.4-0.7,0.8-0.8c0.1,0,0.3-0.1,0.4-0.1c0.3,0,0.5,0.1,0.7,0.3
		c0.4,0.3,0.7,0.8,0.8,1.3c0.1,0.2,0.1,0.4,0.1,0.7c0,0.3-0.1,0.5-0.2,0.8c-1.9,4.8-4.7,7.2-8.6,7.2c-1.6,0-2.8-0.4-3.6-1.2
		c-0.8-0.8-1.2-1.8-1.3-2.9c0-0.6,0-1.6-0.1-3c0-1.4-0.1-2.4-0.1-2.9c0-0.6-0.2-1.1-0.6-1.5c-0.4-0.4-0.9-0.5-1.5-0.5
		c-1.1,0-2.2,0.5-3.2,1.4c-1,1-1.8,2.1-2.5,3.5c-0.6,1.3-1.3,3-2,5.4c-0.2,0.5-0.5,0.8-0.9,1.1c-0.3,0.1-0.5,0.2-0.8,0.2
		c-0.2,0-0.4,0-0.6-0.1c-0.5-0.2-0.8-0.5-1.1-0.9c-0.1-0.2-0.2-0.5-0.2-0.7c0-0.2,0-0.4,0.1-0.7c1.2-3,2.9-6.7,5.2-11.2
		c2.3-4.5,4-7.8,5.1-9.9C168.4,50,168.6,49.6,168.9,49z"/>
	<path d="M211.4,55.6c0.1,0,0.3-0.1,0.4-0.1c0.2,0,0.4,0.1,0.7,0.2c0.3,0.2,0.5,0.5,0.6,0.8c0,0.1,0,0.3,0,0.4
		c0,0.3-0.1,0.5-0.2,0.8c-0.2,0.4-0.5,0.6-0.9,0.7c-1,0.3-2.2,0.6-3.6,0.8c-0.1,0-0.2,0.1-0.1,0.3c1.1,2.3,1.8,3.8,2.1,4.3
		c0.2,0.3,0.3,0.6,0.3,0.9c0,0.4-0.1,0.8-0.4,1.2c-0.4,0.5-0.9,0.8-1.6,0.8c-0.1,0-0.3,0-0.4,0c-1.1-0.2-2.5-0.4-4.1-0.6
		c-0.4,0-0.6-0.2-0.8-0.5c-0.2-0.3-0.3-0.6-0.3-0.9c0-0.3,0.2-0.6,0.5-0.8c0.3-0.2,0.6-0.3,0.9-0.3c0.3,0,0.8,0.1,1.3,0.1
		c0.5,0.1,0.9,0.1,1,0.1c0.1,0,0.1,0,0.1-0.1c0,0,0-0.1,0-0.2c-1-2.1-1.5-3.3-1.6-3.6c-0.1-0.1-0.2-0.2-0.3-0.2
		c-2.3,0.3-4.9,0.4-7.7,0.4c-1.5,0-3,0-4.6-0.1c-0.4,0-0.8-0.2-1.1-0.5c-0.3-0.3-0.5-0.7-0.5-1.1c0-0.4,0.1-0.7,0.4-0.9
		c0.3-0.3,0.6-0.4,0.9-0.4c0,0,0.1,0,0.1,0c1.9,0.1,3.7,0.2,5.4,0.2c2.1,0,4.1-0.1,6-0.3c0.2,0,0.2-0.1,0.2-0.3l-0.8-1.8
		c-0.3-0.7-0.5-1.2-0.7-1.5c-0.1-0.1-0.2-0.2-0.3-0.2c-1.5,0.1-3,0.2-4.6,0.2c-1.5,0-3.1-0.1-4.8-0.2c-0.4,0-0.8-0.2-1.1-0.5
		c-0.3-0.3-0.5-0.7-0.5-1.2c0-0.3,0.1-0.6,0.4-0.9c0.3-0.2,0.5-0.3,0.8-0.3c0,0,0.1,0,0.1,0c2,0.2,3.8,0.3,5.6,0.3
		c1,0,1.9,0,2.8-0.1c0.1,0,0.1,0,0.1-0.1c0-0.1,0-0.1,0-0.1l-0.2-0.3c-0.1-0.3-0.3-0.6-0.4-0.9c-0.1-0.2-0.2-0.4-0.2-0.6
		c0-0.2,0-0.4,0.1-0.6c0.2-0.4,0.5-0.6,0.9-0.8c0.1,0,0.3,0,0.4,0c0.4,0,0.7,0.1,1,0.3c0.4,0.3,0.7,0.7,0.9,1.2
		c0.1,0.4,0.3,0.8,0.5,1.4c0.1,0.1,0.2,0.2,0.3,0.2c1.6-0.3,3.1-0.6,4.6-1c0.1,0,0.3-0.1,0.4-0.1c0.2,0,0.4,0.1,0.7,0.2
		c0.3,0.2,0.5,0.5,0.6,0.8c0,0.1,0,0.2,0,0.3c0,0.3-0.1,0.6-0.2,0.8c-0.2,0.4-0.5,0.6-0.9,0.7c-1.1,0.3-2.5,0.6-4.1,0.9
		c-0.1,0-0.2,0.1-0.1,0.3l0.5,1.1c0,0,0.1,0.3,0.4,0.8c0.2,0.5,0.4,0.9,0.6,1.3c0.1,0.1,0.2,0.2,0.3,0.2
		C208.7,56.4,210.1,56,211.4,55.6z M191.9,65.6c0.1-0.4,0.3-0.8,0.7-1.1c0.3-0.2,0.7-0.3,1.1-0.3c0.1,0,0.1,0,0.2,0
		c0.4,0,0.7,0.2,0.9,0.5c0.1,0.2,0.2,0.5,0.2,0.7c0,0.1,0,0.2-0.1,0.3c-0.2,0.7-0.3,1.3-0.3,1.7c0,2.5,2,3.7,6,3.7
		c2.4,0,4.5-0.1,6.5-0.4c0.1,0,0.1,0,0.2,0c0.3,0,0.6,0.1,0.8,0.3c0.3,0.3,0.5,0.6,0.5,1c0,0.5-0.2,0.9-0.5,1.3
		c-0.3,0.4-0.7,0.6-1.2,0.6c-2,0.3-4.1,0.4-6.3,0.4c-3,0-5.2-0.5-6.8-1.5c-1.6-1-2.4-2.6-2.4-4.6C191.6,67.4,191.7,66.6,191.9,65.6z
		"/>
</g>
<g>
	<path d="M35.9,18.1h-9.2v-0.8h8.2v-1h-8.2v-0.8h8.2v-1h-8.2v-0.8h8.6v-1l-10.2,0v5.5h-1.4v1h1.4v3.4c-0.3,0-0.6,0-0.9,0v1.2
		c2.8,0,4.7-0.3,5.8-0.5v-1.3c-0.8,0.2-1.8,0.4-3.3,0.5v-3.3h0.7c0.7,1,3.6,4.6,8.3,4.6v-1c-1.2-0.1-2.2-0.5-3.1-0.9
		c1.6-0.8,2.5-2.2,2.5-2.2h-1.8c0,0-0.7,0.8-1.8,1.5c-1.1-0.8-1.8-1.6-2.1-2h6.5V18.1z"/>
	<path d="M54.6,14.2h2.6v-1h-2.6v-0.8H53v0.8h-2.2v1H53V16h-2.3v1h1.7c-0.7,1.1-1.9,1.4-1.9,1.4v1.1c0,0,0.4-0.1,0.9-0.3v0h0l0,4.5
		H57v-5.5h-3.8c0.4-0.3,0.8-0.7,1.1-1.2h2.9v-1h-1c0.6-0.6,0.8-1.3,0.8-1.3h-1.3c-0.2,0.5-0.6,1-0.9,1.3h-0.2V14.2z M52.9,19.2h2.6
		v1.3h-2.6V19.2z M52.9,21.4h2.6v1.3h-2.6V21.4z"/>
	<path d="M62.3,14.9c0-1.3,0-2.3,0-2.3h-4.6V24h1.4V13.6h1.6c0,0,0,0.6,0,1.3c0,1.1-1.2,1.7-1.2,1.7l0,1.3c0,0,1.2,0.7,1.2,1.7v1.9
		c0,0.9-0.3,0.9-0.6,0.9h-0.6v1h0.6c0.4,0,2.1,0,2.1-1.9v-1.9c0-1.1-0.8-1.9-1.5-2.3C61.5,16.8,62.3,16.1,62.3,14.9z"/>
	<path d="M75.6,14.2v-1h-5.1v-0.8h-1.7v0.8h-5.1v1h5.1V16h-4.6l0,7.4h1.7v-6.4h2.9v7h1.7v-7h2.9v4.6c0,0.9-0.3,0.9-0.6,0.9h-1.1v1
		h1.1c0.4,0,2.3,0,2.3-1.9l0-5.5h-4.6v-1.8H75.6z"/>
	<path d="M87.3,14.5h-6.1c0-0.8,0-2.1,0-2.1h-1.8c0,0,0,1.2,0,2.1h-3v1h3c-0.1,5.9-3,7.2-3,7.2V24c0,0,4.4-1.4,4.8-8.6h4.3v5.7
		c0,1-0.3,1.5-1,1.5h-1.9v1.1h1.9c1.1,0,2.8-0.3,2.8-2.4L87.3,14.5z"/>
	<path d="M85.8,13.8v-1.5h-1v1.5H85.8z"/>
	<path d="M87.3,13.8v-1.5h-1v1.5H87.3z"/>
	<path d="M40.9,22.7v-1.4h2.4v-1h-2.4v-1.3h2.2v-6.5h-5.7v6.5h2.2v1.3h-2.2v1h2.2v1.4h-2.4v1h6.2v-1H40.9z M40.9,18.1v-1.8h1v1.8
		H40.9z M41.9,13.6v1.8h-1v-1.8H41.9z M39.7,13.6v1.8h-1v-1.8H39.7z M38.7,18.1v-1.8h1v1.8H38.7z"/>
	<path d="M49.1,12.6h-5.5v1h3.8c0,0,0,1.3-1.1,2.8c-0.5-1-1.1-1.8-1.1-1.8h-1.5c0.8,1,1.3,1.9,1.5,2.4h-1.7v1h1.4v4.2
		c0,0.9-0.3,0.9-0.6,0.9h-0.2v1h0.2c0.4,0,2,0,2-1.9v-4.2h1.2c0,0,0,1.5,0,2.2c0,1.1-0.7,1.7-0.7,1.7v1.3c0,0,2-1.2,2-3.1
		c0-1.3,0-3.2,0-3.2h-1.6C48.2,15.9,48.9,14.5,49.1,12.6z"/>
	<path d="M95.2,18.4c1-1.5,1.8-3.5,2.2-5.9h-9.2v1h7c0,0-0.8,6.2-7,9.1V24c0,0,3.3-1,5.9-4.1c2.1,1.8,3.4,3.8,3.4,3.8h1.6
		C99.1,23.7,97.9,21.1,95.2,18.4z"/>
	<path class="st1" d="M24.4,27.4h74.1v1H24.4V27.4z"/>
	
		<linearGradient id="SVGID_3_" gradientUnits="userSpaceOnUse" x1="-476.3355" y1="669.231" x2="-476.3355" y2="668.8279" gradientTransform="matrix(33.855 0 0 -70 16135.8379 46850.5195)">
		<stop  offset="0" style="stop-color:#7DCDF4"/>
		<stop  offset="1.000000e-02" style="stop-color:#7DCDF4"/>
		<stop  offset="0.25" style="stop-color:#00A0E9"/>
		<stop  offset="0.5" style="stop-color:#0068B7"/>
		<stop  offset="0.99" style="stop-color:#004098"/>
		<stop  offset="1" style="stop-color:#004098"/>
	</linearGradient>
	<path class="st5" d="M9.5,0.7C4.9,0.7,1.2,8.4,1.2,18c0,8.3,2.8,15.3,6.5,16.9c-1.3-1.3-2.2-4.1-2.2-7.4c0-4.5,1.8-8.2,3.9-8.2
		c2.2,0,3.9,3.7,3.9,8.2c0,3.2-0.9,6-2.2,7.4c3.7-1.7,6.5-8.6,6.5-16.9C17.8,8.4,14.1,0.7,9.5,0.7z"/>
</g>
</svg>
