<?xml version="1.0" encoding="utf-8"?>
<!-- Generator: Adobe Illustrator 21.1.0, SVG Export Plug-In . SVG Version: 6.00 Build 0)  -->
<svg version="1.1" id="レイヤー_1" xmlns="http://www.w3.org/2000/svg" xmlns:xlink="http://www.w3.org/1999/xlink" x="0px"
	 y="0px" viewBox="0 0 242.4 35.6" style="enable-background:new 0 0 242.4 35.6;" xml:space="preserve">
<style type="text/css">
	.st0{fill:#FFFFFF;}
	.st1{fill:#47A738;}
</style>
<g>
	<path class="st0" d="M242.4,25.6c0,5.5-4.5,10-10,10H10c-5.5,0-10-4.5-10-10V10C0,4.5,4.5,0,10,0h222.4c5.5,0,10,4.5,10,10V25.6z"
		/>
</g>
<g>
	<g>
		<path class="st1" d="M17.9,24.4c-1.4,0-2.3-1.1-2.3-2.4c0-0.8,0.3-1.5,0.5-1.8l6.2-10.2c0.8-1.3,1.8-1.6,2.7-1.6
			c1.7,0,2.3,1.2,2.3,2V21c0.8,0,2.2,0,2.2,1.7c0,1.7-1.2,1.7-2.2,1.7V27c0,0.8-0.2,1.9-1.9,1.9c-1.2,0-2.1-0.4-2.1-1.9v-2.6H17.9z
			 M23.3,21v-6.5c0-0.1,0-0.4-0.3-0.4c-0.1,0-0.3,0.1-0.3,0.2l-3.7,6c0,0.1-0.1,0.2-0.1,0.3c0,0.1,0,0.3,0.4,0.3H23.3z"/>
		<path class="st1" d="M38.8,22c-0.1,1.6-0.4,3-1.1,4.6c-0.8,1.8-1.4,1.9-2,1.9c-1,0-2-0.7-2-1.5c0-0.4,0.2-0.8,0.6-1.4
			c0.6-1,1.7-2.8,1.7-7.3v-6.3c0-2.2,1-2.8,2.8-2.8h9.5c1.7,0,2.8,0.5,2.8,2.8v13.5c0,2.9-1.5,2.9-4.5,2.9c-0.8,0-2,0-2.4-0.1
			c-0.9-0.3-1-1.1-1-1.6c0-1.6,1-1.6,1.6-1.6c0.3,0,1.4,0.1,1.9,0.1c0.7,0,1.1,0,1.1-0.7V22H38.8z M47.8,14.1v-1.2
			c0-0.4-0.2-0.7-0.7-0.7h-7.4c-0.5,0-0.7,0.3-0.7,0.7v1.2H47.8z M39.1,17.1V19h8.7v-1.9H39.1z"/>
		<path class="st1" d="M71.2,13.9c0.4,0,1.6,0,1.6,1.6c0,1.3-0.6,1.7-1.6,1.7h-6.1v7.4h7.1c0.4,0,1.6,0,1.6,1.6
			c0,1.4-0.8,1.6-1.6,1.6H55.4c-0.4,0-1.6,0-1.6-1.5c0-1.4,0.8-1.7,1.6-1.7h6.2V10c0-0.5,0-1.6,1.6-1.6c1.4,0,1.8,0.5,1.8,1.6v3.9
			H71.2z"/>
		<path class="st1" d="M82.1,25.5c-1.6,0-2.5-0.6-2.5-2.6v-6.1c-0.3,0.3-0.8,0.8-1.4,0.8c-0.8,0-1.8-0.8-1.8-1.9
			c0-0.6,0.1-0.7,1.7-2.3c1.7-1.6,2.3-2.8,3-3.9c0.4-0.8,0.8-1.2,1.7-1.2c0.9,0,2,0.6,2,1.4c0,0.2,0,0.4-0.1,0.5h8.2
			c1,0,2,0,2.7,0.9c0.4,0.6,0.5,1.2,0.5,2.5c0,0.6,0,4.9-0.2,8c-0.1,2.6-0.3,5.2-2.1,6.3c-0.8,0.5-1.5,0.5-4.1,0.5
			c-1.3,0-2.8,0-2.8-1.8c0-0.7,0.3-1,0.4-1.1H82.1z M90.4,22.9c0,0.8-0.1,1.6-0.9,2.2c1.7,0,2.2,0.1,2.5-0.8
			c0.5-1.3,0.6-7.4,0.6-9.3c0-1.4,0-1.5-0.8-1.5h-9.2c-0.3,0.5-0.5,0.7-1,1.3c0.3,0,0.4,0,0.5,0h5.8c1.6,0,2.5,0.5,2.5,2.5V22.9z
			 M87.3,18.8v-0.9c0-0.3-0.1-0.4-0.4-0.4h-3.8c-0.3,0-0.4,0.2-0.4,0.4v0.9H87.3z M87.3,21.2h-4.7v1c0,0.3,0.1,0.4,0.4,0.4h3.8
			c0.3,0,0.4-0.1,0.4-0.4V21.2z"/>
		<path class="st1" d="M128.8,18.1c0,7.1-4.4,10.4-9.6,10.4s-9.7-3.3-9.7-10.4c0-6.9,4.2-10.4,9.7-10.4
			C124.6,7.7,128.8,11.2,128.8,18.1z M113.8,18.1c0,5,2.6,6.7,5.3,6.7c2.5,0,5.3-1.5,5.3-6.7c0-5-2.6-6.7-5.3-6.7
			C116.6,11.4,113.8,12.9,113.8,18.1z"/>
		<path class="st1" d="M137.1,26.5c0,0.7-0.1,2-2.1,2c-1.5,0-2.2-0.6-2.2-2V11.7c0-2.6,1.1-3.4,3.4-3.4h4.6c2.9,0,3.9,0.6,4.3,0.8
			c1.5,0.9,3,2.6,3,5.5c0,2.7-1.3,4.6-2.8,5.6c-1.2,0.7-3,0.9-4.4,0.9h-3.8V26.5z M137.1,17.4h3.6c2.3,0,3.1-1.2,3.1-2.8
			c0-2-1.3-2.8-3.1-2.8h-2.8c-0.5,0-0.8,0.3-0.8,0.8V17.4z"/>
		<path class="st1" d="M163.8,16.1c1.7,0,1.8,1.1,1.8,1.7c0,0.8-0.2,1.7-1.8,1.7h-7.4v3.9c0,0.5,0.3,0.8,0.8,0.8h7.9
			c1.1,0,1.9,0.5,1.9,1.8c0,1.3-0.7,1.8-1.9,1.8h-9.5c-2.4,0-3.4-0.9-3.4-3.4V11.7c0-2.6,1.1-3.4,3.4-3.4h9c0.9,0,1.9,0.4,1.9,1.8
			c0,1-0.4,1.8-1.9,1.8h-7.4c-0.5,0-0.8,0.3-0.8,0.8v3.4H163.8z"/>
		<path class="st1" d="M176,13.8l-0.1-0.3v13.1c0,0.7-0.1,2-2.1,2c-1.5,0-2.2-0.7-2.2-2V9.8c0-1,0.4-2.1,3.2-2.1
			c1.6,0,2.4,0.4,3,1.7l5.8,13.1l0.1,0.3V9.6c0-0.7,0.1-2,2.1-2c1.5,0,2.1,0.7,2.1,2v16.8c0,1-0.4,2.1-3.2,2.1c-1.6,0-2.4-0.4-3-1.7
			L176,13.8z"/>
	</g>
	<g>
		<path class="st1" d="M203.4,22.7h-4.2c-0.5,0-0.9-0.2-0.9-0.9c0-0.9,0.7-0.9,0.9-0.9h4.2c-0.4-0.4-0.8-0.6-1.4-1.1
			c-0.2-0.2-0.5-0.3-0.5-0.7c0-0.3,0.2-0.6,0.4-0.7h-1.8c-0.5,0-1-0.2-1-0.9c0-0.9,0.6-0.9,1-0.9h8.1c0.4,0,1.3,0,1.3,1.2
			c0,0.7-0.4,1-0.7,1.2c-0.4,0.3-1.7,1-2.9,1.5c0.1,0.1,0.2,0.2,0.3,0.3h2.9c0.5,0,1.3,0,1.3,1.2c0,0.4-0.1,0.6-0.2,0.8
			c-0.3,0.7-1.2,1.6-1.5,1.9c-1.1,1.1-1.3,1.1-1.5,1.1c-0.6,0-1.1-0.6-1.1-1.1c0-0.4,0.1-0.4,0.7-0.9c0.8-0.6,0.9-1,0.9-1
			c0-0.1-0.1-0.1-0.2-0.1h-2.2v4.1c0,0.5,0,1.1-0.6,1.5c-0.3,0.2-0.5,0.3-2.3,0.3c-0.5,0-1.2,0-1.5-0.1c-0.3-0.1-0.5-0.5-0.5-0.9
			c0-0.2,0.1-1,1-1c0.1,0,0.8,0,1,0c0.5,0,0.7,0,0.7-0.5V22.7z M203.2,18.4c0.4,0.2,0.7,0.5,1.4,1c0.3-0.1,0.6-0.3,1.1-0.6
			c0.1-0.1,0.4-0.2,0.4-0.3c0-0.1-0.1-0.1-0.2-0.1H203.2z"/>
		<path class="st1" d="M224.5,26.4c0.4,0,1,0.1,1,0.9c0,1-0.7,1-1,1h-3.7c-2.3,0-3.7-0.6-4.7-1.9c-0.4,0.8-0.7,1.3-1,1.7
			c-0.2,0.2-0.4,0.4-0.8,0.4c-0.6,0-1.1-0.5-1.1-1c0-0.3,0.1-0.4,0.4-0.9c1-1.5,1.3-2.7,1.5-3.6c0.1-0.6,0.2-1,0.9-1
			c0.3,0,1.1,0.1,1.1,0.8c0,0.3-0.2,1.3-0.3,1.6c0.2,0.4,0.6,1.1,1.6,1.5v-4.2h-2.6c-0.5,0-1-0.1-1-0.9c-0.1,0-0.2,0-0.4,0
			c-0.6,0-1-0.2-1-1v-1.1c0-1.2,0.5-1.6,1.6-1.6h3.3V17c0-0.6,0.5-0.7,0.9-0.7c0.6,0,1.1,0.1,1.1,0.7v0.3h3.3c1,0,1.6,0.4,1.6,1.6
			V20c0,0.4-0.1,1-0.9,1c-0.2,0-0.3,0-0.4-0.1c0,0.6-0.2,0.9-0.9,0.9h-2.7v1.3h3c0.2,0,0.9,0,0.9,0.8c0,0.6-0.2,0.9-0.9,0.9h-3v1.6
			c0.4,0,0.6,0,0.8,0H224.5z M222.9,20.1c0.2,0,0.2,0,0.4,0v-0.8c0-0.2-0.1-0.4-0.4-0.4h-7.2c-0.2,0-0.4,0.1-0.4,0.4v0.8
			c0.1,0,0.2,0,0.4,0H222.9z"/>
	</g>
</g>
</svg>
