<?xml version="1.0" encoding="utf-8"?>
<!-- Generator: Adobe Illustrator 16.0.3, SVG Export Plug-In . SVG Version: 6.00 Build 0)  -->
<!DOCTYPE svg PUBLIC "-//W3C//DTD SVG 1.1//EN" "http://www.w3.org/Graphics/SVG/1.1/DTD/svg11.dtd">
<svg version="1.1" id="レイヤー_1" xmlns="http://www.w3.org/2000/svg" xmlns:xlink="http://www.w3.org/1999/xlink" x="0px"
	 y="0px" width="47px" height="92px" viewBox="0 0 47 92" enable-background="new 0 0 47 92" xml:space="preserve">
<g>
	<g>
		<path fill="#FAC959" d="M23.417,21.744c-11.838,0-21.434,9.597-21.434,21.433c0,3.678,0.923,7.139,2.557,10.16
			c0.85,1.578,4.813,6.947,6.668,9.957c1.854,3.01,3.846,6.432,4.39,8.068h15.661c0.547-1.637,2.537-5.059,4.391-8.068
			s5.816-8.379,6.668-9.957c1.629-3.021,2.559-6.482,2.559-10.16c0-11.836-9.596-21.433-21.434-21.433"/>
		<path fill="#231815" d="M31.259,72.862H15.598c-0.646,0-1.22-0.414-1.423-1.027c-0.234-0.703-1.096-2.645-4.245-7.754
			c-0.896-1.455-2.344-3.543-3.622-5.385c-1.406-2.025-2.62-3.775-3.089-4.646c-1.79-3.313-2.736-7.072-2.736-10.873
			c0-12.646,10.288-22.933,22.934-22.933c0.008,0,0.018,0,0.025,0c12.645,0,22.934,10.287,22.934,22.933
			c0,3.793-0.947,7.553-2.738,10.873c-0.471,0.871-1.684,2.619-3.088,4.645c-1.279,1.842-2.729,3.932-3.623,5.387
			c-3.146,5.109-4.01,7.051-4.244,7.756C32.479,72.448,31.905,72.862,31.259,72.862z M16.61,69.862h13.637
			c0.719-1.604,2.102-4.07,4.125-7.355c0.938-1.523,2.412-3.648,3.713-5.523c1.24-1.787,2.521-3.635,2.912-4.357
			c1.555-2.885,2.379-6.152,2.379-9.449c0-10.99-8.943-19.933-19.934-19.933c-0.008,0-0.018,0-0.025,0
			c-10.991,0-19.934,8.942-19.934,19.933c0,3.305,0.822,6.57,2.376,9.447c0.39,0.725,1.673,2.574,2.914,4.363
			c1.3,1.873,2.772,3.996,3.712,5.52C14.509,65.792,15.892,68.259,16.61,69.862z"/>
	</g>
	<g>
		<path fill="#231815" d="M29.099,55.335c-0.186,0-0.373-0.051-0.541-0.158c-0.465-0.301-0.598-0.918-0.299-1.383
			c0.025-0.041,2.604-4.072,3.434-7.498c0.578-2.389,0.402-5.148-1.828-5.729c-0.465-0.121-0.91-0.113-1.334,0.023
			c0.9,1.467,1.129,3.281,0.77,4.807c-0.428,1.82-1.65,2.91-3.133,2.76c-0.949-0.092-1.705-0.682-2.074-1.617
			c-0.668-1.703-0.037-4.355,1.436-6.148c-0.164-0.094-0.34-0.178-0.529-0.25c-0.049-0.021-0.699-0.297-1.441-0.297h-0.235
			c-0.731,0.025-1.313,0.271-1.317,0.275c-0.225,0.086-0.431,0.186-0.621,0.301c1.455,1.793,2.074,4.426,1.41,6.117
			c-0.367,0.938-1.124,1.527-2.075,1.619c-1.476,0.146-2.679-0.926-3.102-2.721c-0.36-1.531-0.128-3.352,0.788-4.83
			c-0.438-0.15-0.899-0.164-1.381-0.039c-2.232,0.58-2.409,3.34-1.83,5.729c0.83,3.426,3.409,7.457,3.436,7.498
			c0.299,0.465,0.164,1.082-0.3,1.383c-0.466,0.297-1.083,0.164-1.382-0.301c-0.113-0.176-2.787-4.35-3.697-8.109
			c-1.01-4.162,0.274-7.355,3.27-8.135c1.156-0.301,2.284-0.148,3.293,0.426c0.416-0.314,0.89-0.58,1.423-0.783
			c0.041-0.021,0.893-0.391,2.052-0.43h0.27c1.156,0,2.102,0.402,2.205,0.447c0.504,0.193,0.955,0.445,1.354,0.742
			c0.996-0.555,2.111-0.699,3.252-0.402c2.994,0.779,4.275,3.973,3.268,8.135c-0.908,3.76-3.582,7.934-3.697,8.109
			C29.749,55.173,29.427,55.335,29.099,55.335z M19.993,41.894c-0.549,1.025-0.633,2.221-0.43,3.084
			c0.049,0.211,0.33,1.236,0.962,1.189c0.14-0.014,0.286-0.053,0.407-0.359C21.271,44.946,20.929,43.185,19.993,41.894z
			 M26.927,41.849c-0.961,1.297-1.314,3.088-0.973,3.959c0.121,0.307,0.268,0.346,0.406,0.359c0.68,0.053,0.963-1.096,0.992-1.229
			C27.558,44.071,27.472,42.868,26.927,41.849z"/>
	</g>
	<g>
		<path fill="#B4B4B5" d="M31.712,71.353c0,0,0.119,10.723-0.826,13.156c-0.947,2.432-4.596,5.049-6.891,5.049h-1.194
			c-2.451,0-5.944-2.617-6.892-5.049c-0.944-2.434-0.826-13.156-0.826-13.156H31.712z"/>
		<path fill="#231815" d="M23.995,91.058h-1.194c-3.003,0-7.108-2.975-8.289-6.006c-0.999-2.572-0.949-11.877-0.929-13.715
			c0.009-0.822,0.678-1.484,1.5-1.484h16.629c0.822,0,1.492,0.662,1.5,1.484c0.021,1.838,0.072,11.143-0.928,13.715
			C31.124,88.026,26.94,91.058,23.995,91.058z M16.575,72.853c0.005,4.074,0.191,9.717,0.732,11.113
			c0.73,1.873,3.707,4.092,5.493,4.092h1.194c1.575,0,4.739-2.156,5.495-4.094c0.541-1.395,0.727-7.037,0.73-11.111H16.575z"/>
	</g>
	<g>
		<path fill="#231815" d="M31.54,77.917H15.278c-0.553,0-1-0.447-1-1c0-0.551,0.447-1,1-1H31.54c0.553,0,1,0.449,1,1
			C32.54,77.47,32.093,77.917,31.54,77.917z"/>
	</g>
	<g>
		<path fill="#231815" d="M31.339,82.813H15.45c-0.553,0-1-0.447-1-1c0-0.551,0.447-1,1-1h15.889c0.553,0,1,0.449,1,1
			C32.339,82.366,31.892,82.813,31.339,82.813z"/>
	</g>
</g>
<g>
	<path fill="#231815" d="M22.964,13.833c-0.829,0-1.5-0.672-1.5-1.5V1.5c0-0.828,0.671-1.5,1.5-1.5s1.5,0.672,1.5,1.5v10.833
		C24.465,13.161,23.793,13.833,22.964,13.833z"/>
</g>
<g>
	<path fill="#231815" d="M15.228,15.312c-0.613,0-1.188-0.378-1.41-0.987l-3.705-10.18c-0.283-0.778,0.118-1.639,0.896-1.922
		c0.777-0.284,1.64,0.117,1.923,0.896l3.705,10.18c0.283,0.778-0.118,1.639-0.896,1.922C15.571,15.282,15.398,15.312,15.228,15.312z
		"/>
</g>
<g>
	<path fill="#231815" d="M8.464,19.348c-0.428,0-0.854-0.183-1.15-0.536l-6.963-8.299c-0.533-0.635-0.45-1.58,0.185-2.113
		c0.636-0.532,1.582-0.448,2.113,0.186l6.963,8.299c0.533,0.635,0.45,1.58-0.185,2.113C9.146,19.232,8.804,19.348,8.464,19.348z"/>
</g>
<g>
	<path fill="#231815" d="M30.702,15.312c-0.171,0-0.344-0.029-0.513-0.091c-0.778-0.283-1.181-1.144-0.896-1.922l3.705-10.18
		c0.283-0.779,1.148-1.18,1.922-0.896c0.778,0.283,1.181,1.144,0.896,1.922l-3.705,10.18C31.89,14.934,31.314,15.312,30.702,15.312z
		"/>
</g>
<g>
	<path fill="#231815" d="M37.465,19.348c-0.34,0-0.682-0.115-0.963-0.351c-0.635-0.533-0.718-1.479-0.186-2.113l6.963-8.299
		c0.532-0.634,1.477-0.719,2.113-0.186c0.635,0.533,0.718,1.479,0.186,2.113l-6.963,8.299
		C38.318,19.165,37.894,19.348,37.465,19.348z"/>
</g>
</svg>
