<?xml version="1.0" encoding="utf-8"?>
<!-- Generator: Adobe Illustrator 21.1.0, SVG Export Plug-In . SVG Version: 6.00 Build 0)  -->
<svg version="1.1" id="レイヤー_1" xmlns="http://www.w3.org/2000/svg" xmlns:xlink="http://www.w3.org/1999/xlink" x="0px"
	 y="0px" viewBox="0 0 80 76" style="enable-background:new 0 0 80 76;" xml:space="preserve">
<style type="text/css">
	.st0{fill:#232323;}
	.st1{fill:#FFD878;}
</style>
<g>
	<g>
		<g>
			<path class="st0" d="M16.1,29.6L5.9,20.8l2.5-2.8c0.2-0.2,0.4-0.5,0.7-0.7c0.3-0.3,0.5-0.5,0.8-0.7c0.3-0.2,0.6-0.4,0.9-0.5
				c0.3-0.1,0.6-0.2,1-0.2c0.6,0,1.1,0.1,1.5,0.3c0.4,0.2,0.9,0.5,1.3,0.9c0.3,0.2,0.5,0.5,0.8,0.8c0.3,0.3,0.5,0.6,0.6,0.9
				c0.2,0.3,0.3,0.7,0.3,1c0.1,0.4,0,0.7-0.1,1.1c-0.1,0.3-0.2,0.6-0.3,0.8s-0.3,0.5-0.5,0.8c-0.2,0.2-0.4,0.5-0.6,0.7
				c-0.2,0.2-0.4,0.5-0.6,0.7l4,3.4L16.1,29.6z M12.3,22.2c0.2-0.2,0.4-0.5,0.6-0.7s0.3-0.5,0.3-0.9c0-0.2-0.1-0.5-0.3-0.7
				c-0.2-0.2-0.3-0.4-0.5-0.5c-0.1-0.1-0.2-0.2-0.3-0.3c-0.1-0.1-0.3-0.2-0.4-0.2s-0.3-0.1-0.4-0.1c-0.1,0-0.3,0-0.4,0.1
				c-0.1,0.1-0.3,0.2-0.4,0.4c-0.1,0.2-0.3,0.3-0.5,0.5L9.8,20L12.3,22.2z"/>
			<path class="st0" d="M25.3,16.1c0.4,0.6,0.7,1.2,0.9,1.8c0.2,0.6,0.2,1.1,0.2,1.6c-0.1,0.5-0.3,1-0.6,1.4
				c-0.4,0.5-0.9,0.9-1.5,1.3c-0.7,0.4-1.3,0.7-1.9,0.8s-1.1,0.1-1.6,0s-1-0.4-1.4-0.8c-0.4-0.4-0.9-0.9-1.3-1.6L15.1,16
				c-0.7-1.1-0.9-2.2-0.7-3.1c0.3-1,1-1.8,2.2-2.6c1.2-0.7,2.3-1,3.2-0.8c1,0.2,1.8,0.9,2.5,2L25.3,16.1z M19.8,13.3
				c-0.1-0.2-0.2-0.3-0.4-0.5c-0.1-0.2-0.3-0.3-0.4-0.4c-0.2-0.1-0.3-0.2-0.5-0.2c-0.2,0-0.4,0-0.6,0.2c-0.2,0.1-0.4,0.3-0.4,0.5
				c-0.1,0.2-0.1,0.4-0.1,0.5c0,0.2,0.1,0.4,0.2,0.6c0.1,0.2,0.2,0.4,0.3,0.6l3,4.7c0.1,0.2,0.2,0.3,0.4,0.5
				c0.1,0.2,0.3,0.3,0.5,0.5s0.4,0.2,0.6,0.2c0.2,0,0.4,0,0.6-0.2c0.2-0.1,0.3-0.3,0.4-0.5c0.1-0.2,0.1-0.4,0-0.6
				c0-0.2-0.1-0.4-0.2-0.6c-0.1-0.2-0.2-0.4-0.3-0.5L19.8,13.3z"/>
			<path class="st0" d="M28.5,19.8L24.6,6.9l3-0.9l3.9,12.9L28.5,19.8z"/>
			<path class="st0" d="M35.7,10.7L35.7,10.7l0.2,7.6l-3,0L33,4.7l3.3,0l2.4,7.6h0.1l-0.3-7.5l3,0l-0.1,13.5l-3.2,0L35.7,10.7z"/>
			<path class="st0" d="M45.7,5.5L53.5,8l-0.8,2.6l-2.4-0.8L47,20.1l-3-0.9l3.2-10.3l-2.4-0.7L45.7,5.5z"/>
			<path class="st0" d="M56.3,14.6L54,13l1.1-1.7c0.3,0.2,0.6,0.4,1,0.5c0.4,0.2,0.7,0.3,1.1,0.3c0.4,0.1,0.7,0,1.1,0
				c0.4-0.1,0.7-0.3,1-0.6l1.7,1.1l-7.3,11l-2.4-1.6L56.3,14.6z"/>
			<path class="st0" d="M62.3,18.1c1-0.9,2-1.2,2.9-1.1c0.9,0.2,1.8,0.7,2.6,1.7c0.5,0.6,0.9,1.2,1,1.7c0.2,0.5,0.2,1,0.1,1.5
				c-0.1,0.5-0.3,0.9-0.7,1.4c-0.4,0.4-0.8,0.9-1.4,1.4l-3.7,3.1c-0.6,0.5-1.1,0.8-1.6,1.1s-1,0.4-1.5,0.4c-0.5,0-0.9-0.1-1.4-0.4
				c-0.5-0.3-0.9-0.7-1.4-1.3c-0.8-1-1.2-1.9-1.2-2.8c0-0.9,0.5-1.8,1.5-2.6L62.3,18.1z M65.5,22c0,0,0.1-0.1,0.3-0.2
				c0.1-0.1,0.2-0.2,0.4-0.4c0.1-0.2,0.2-0.3,0.2-0.5c0-0.2-0.1-0.4-0.2-0.6c-0.2-0.2-0.3-0.3-0.5-0.3c-0.2,0-0.3-0.1-0.5,0
				c-0.2,0-0.3,0.1-0.5,0.2c-0.2,0.1-0.3,0.2-0.4,0.3l-4.7,3.9c-0.2,0.1-0.3,0.3-0.5,0.4c-0.1,0.1-0.3,0.3-0.3,0.4s-0.1,0.3-0.1,0.5
				c0,0.2,0.1,0.4,0.3,0.5c0.2,0.2,0.3,0.3,0.5,0.3c0.2,0,0.4,0,0.5-0.1c0.2-0.1,0.3-0.2,0.5-0.3c0.1-0.1,0.3-0.2,0.4-0.3L65.5,22z"
				/>
		</g>
	</g>
	<rect x="61.7" y="34.3" transform="matrix(0.9807 -0.1955 0.1955 0.9807 -5.5508 14.3947)" class="st0" width="17" height="2"/>
	<rect x="8.8" y="26.8" transform="matrix(0.1955 -0.9807 0.9807 0.1955 -26.7209 38.0703)" class="st0" width="2" height="17"/>
	<path class="st0" d="M23.1,50.7l0-3.8c0,0,0,0,0,0L23.1,50.7C23.1,50.7,23.1,50.7,23.1,50.7z"/>
	<path class="st0" d="M42.4,59.5l3.8,0c0,0,0,0,0,0L42.4,59.5C42.4,59.5,42.4,59.5,42.4,59.5z"/>
	<path class="st0" d="M44.1,62.6l-10.8,0c-0.8,0-1.5,0.7-1.5,1.5c0,0.8,0.7,1.5,1.5,1.5l10.8,0c0.8,0,1.5-0.7,1.5-1.5
		C45.6,63.2,44.9,62.6,44.1,62.6z"/>
	<path class="st0" d="M44.1,67.5l-10.8,0c-0.8,0-1.5,0.7-1.5,1.5c0,0.8,0.7,1.5,1.5,1.5l10.8,0c0.8,0,1.5-0.7,1.5-1.5
		C45.6,68.2,44.9,67.5,44.1,67.5z"/>
	<path class="st0" d="M38.7,75c1.5,0,2.7-0.8,3.4-2l-6.8,0C36,74.2,37.3,75,38.7,75z"/>
	<path class="st0" d="M48.1,55.8c1.2-1.5,2.9-3.1,4.2-5.2c0.7-1.1,1.3-2.2,1.8-3.6c0.5-1.3,0.7-2.8,0.7-4.4
		c0-8.8-7.1-15.8-15.8-15.8c-8.8,0-15.8,7.1-15.8,15.8c0,2.5,0.6,4.6,1.6,6.4c1.4,2.7,3.4,4.7,4.8,6.4c0.7,0.9,1.3,1.6,1.7,2.3
		c0.4,0.7,0.6,1.2,0.6,1.8l3.8,0c0-0.9-0.2-1.8-0.5-2.5c-0.6-1.4-1.4-2.5-2.3-3.6c-1.4-1.6-2.9-3.2-4-4.9c-0.6-0.9-1-1.7-1.4-2.7
		c-0.3-1-0.5-2-0.5-3.2c0-3.3,1.3-6.4,3.5-8.5c2.2-2.2,5.2-3.5,8.5-3.5c3.3,0,6.4,1.3,8.5,3.5c2.2,2.2,3.5,5.2,3.5,8.5
		c0,1.8-0.4,3.3-1.1,4.7c-1,2.1-2.7,3.8-4.3,5.7c-0.8,0.9-1.6,1.9-2.2,2.9c-0.6,1.1-1,2.3-1,3.7l3.8,0c0-0.4,0.1-0.7,0.2-1.1
		C46.7,57.6,47.3,56.7,48.1,55.8z"/>
	<path class="st1" d="M46.4,35.2c-2-2-4.6-3.1-7.4-3.1c-2.8,0-5.4,1.1-7.4,3.1c-2,2-3.1,4.6-3.1,7.4c0,0.9,0.1,1.8,0.4,2.7
		c0.3,0.8,0.6,1.5,1.2,2.3c0.7,1.1,1.7,2.2,2.6,3.3c0.4,0.5,0.8,0.9,1.2,1.4c1,1.1,1.9,2.4,2.6,4c0.2,0.5,0.3,1,0.5,1.5l3.9,0
		c0.2-0.9,0.6-1.9,1.1-2.8c0.7-1.2,1.6-2.3,2.3-3.2l0.7-0.8c1.3-1.5,2.6-2.9,3.4-4.5c0.7-1.3,1-2.5,1-3.9
		C49.5,39.8,48.4,37.1,46.4,35.2z M39,35.7c-1.2,0.4-2.3,1.1-3.2,2c-0.5,0.6-1,1.2-1.4,1.8c-0.5,0.7-0.8,1.5-0.9,2.3
		c-0.1,0.5-0.2,1.1-0.2,1.7c0,0.7,0.1,1.3,0.3,1.9c0.2,0.6,0.5,1.2,0.9,1.9c0.3,0.4,0.6,0.8,0.9,1.2l-0.2,0.2c-0.9-1-1.7-2-2.3-2.9
		c-0.4-0.6-0.6-1.1-0.8-1.6c-0.2-0.5-0.3-1-0.3-1.6c0-1.9,0.7-3.7,2.1-5.1c1.4-1.4,3.2-2.1,5.1-2.1L39,35.7z"/>
</g>
</svg>
