<?xml version="1.0" encoding="utf-8"?>
<!-- Generator: Adobe Illustrator 21.1.0, SVG Export Plug-In . SVG Version: 6.00 Build 0)  -->
<svg version="1.1" id="レイヤー_1" xmlns="http://www.w3.org/2000/svg" xmlns:xlink="http://www.w3.org/1999/xlink" x="0px"
	 y="0px" viewBox="0 0 80 76" style="enable-background:new 0 0 80 76;" xml:space="preserve">
<style type="text/css">
	.st0{fill:#232323;}
	.st1{fill:#FFD878;}
</style>
<g>
	<g>
		<g>
			<path class="st0" d="M18.1,26.7L9.3,16.5l2.9-2.4c0.2-0.2,0.5-0.4,0.8-0.6s0.6-0.4,0.9-0.6c0.3-0.2,0.6-0.3,1-0.4
				c0.3-0.1,0.7-0.1,1-0.1c0.6,0.1,1,0.3,1.4,0.6c0.4,0.3,0.8,0.7,1.1,1.1c0.2,0.3,0.5,0.6,0.7,0.9c0.2,0.3,0.4,0.7,0.5,1
				c0.1,0.3,0.2,0.7,0.2,1.1c0,0.4-0.1,0.7-0.2,1.1c-0.1,0.3-0.3,0.5-0.5,0.8c-0.2,0.2-0.4,0.5-0.6,0.7s-0.4,0.4-0.7,0.6
				c-0.2,0.2-0.5,0.4-0.7,0.6l3.4,4L18.1,26.7z M15.5,18.8c0.2-0.2,0.4-0.4,0.7-0.6c0.2-0.2,0.4-0.5,0.4-0.8c0-0.2,0-0.5-0.2-0.7
				c-0.1-0.2-0.3-0.4-0.4-0.6c-0.1-0.1-0.2-0.2-0.3-0.3s-0.2-0.2-0.4-0.3c-0.1-0.1-0.3-0.1-0.4-0.2c-0.1,0-0.3,0-0.4,0
				c-0.2,0.1-0.3,0.2-0.5,0.3c-0.2,0.1-0.3,0.3-0.5,0.4l-0.3,0.2L15.5,18.8z"/>
			<path class="st0" d="M29.2,14.7c0.3,0.7,0.5,1.3,0.6,1.9c0.1,0.6,0.1,1.1-0.1,1.6c-0.2,0.5-0.4,0.9-0.8,1.3
				c-0.4,0.4-1,0.8-1.7,1.1c-0.7,0.3-1.4,0.5-2,0.5s-1.1,0-1.6-0.3c-0.5-0.2-0.9-0.6-1.3-1c-0.4-0.5-0.7-1.1-1-1.7l-2.2-5
				C18.6,12,18.6,10.9,19,10c0.4-0.9,1.2-1.7,2.5-2.2s2.4-0.7,3.3-0.3c0.9,0.3,1.7,1.1,2.2,2.3L29.2,14.7z M24.2,11.2
				c-0.1-0.2-0.2-0.4-0.3-0.6c-0.1-0.2-0.2-0.3-0.4-0.5c-0.1-0.1-0.3-0.2-0.5-0.3c-0.2,0-0.4,0-0.6,0.1c-0.2,0.1-0.4,0.2-0.5,0.4
				c-0.1,0.2-0.1,0.3-0.1,0.5c0,0.2,0,0.4,0.1,0.6c0.1,0.2,0.1,0.4,0.2,0.6l2.2,5.1c0.1,0.2,0.2,0.4,0.3,0.6
				c0.1,0.2,0.2,0.4,0.4,0.5c0.1,0.1,0.3,0.2,0.5,0.3c0.2,0.1,0.4,0,0.6-0.1c0.2-0.1,0.4-0.2,0.5-0.4c0.1-0.2,0.1-0.4,0.1-0.6
				s-0.1-0.4-0.1-0.6c-0.1-0.2-0.2-0.4-0.2-0.6L24.2,11.2z"/>
			<path class="st0" d="M31.9,18.8L29.5,5.5l3.1-0.6L35,18.2L31.9,18.8z"/>
			<path class="st0" d="M40.3,10.8L40.3,10.8l-0.8,7.5l-3-0.4l1.9-13.4L41.6,5l1.3,7.8l0.1,0l0.8-7.5l3,0.4l-1.9,13.4l-3.2-0.5
				L40.3,10.8z"/>
			<path class="st0" d="M50.8,6.9l7.5,3.4l-1.1,2.5l-2.3-1.1l-4.5,9.8l-2.9-1.3l4.5-9.8l-2.3-1L50.8,6.9z"/>
			<path class="st0" d="M56.4,21.9c-0.2,0.3-0.4,0.5-0.4,0.8c-0.1,0.3,0,0.5,0.4,0.8c0.2,0.2,0.4,0.3,0.6,0.2c0.2,0,0.4-0.1,0.6-0.3
				c0.2-0.1,0.4-0.3,0.6-0.5c0.2-0.2,0.3-0.4,0.4-0.5l0.6-0.7c-0.2,0-0.4,0-0.6-0.1c-0.2,0-0.3-0.1-0.5-0.2s-0.3-0.2-0.4-0.3
				c-0.1-0.1-0.3-0.2-0.5-0.4c-0.5-0.4-0.8-0.8-0.9-1.3c-0.1-0.4-0.2-0.9-0.1-1.3c0.1-0.4,0.3-0.8,0.5-1.3c0.3-0.4,0.6-0.8,0.9-1.2
				c0.5-0.6,1-1,1.5-1.4c0.5-0.4,1-0.6,1.5-0.7c0.5-0.1,1.1-0.1,1.6,0.1c0.6,0.2,1.1,0.6,1.8,1.1c0.6,0.5,1,1,1.2,1.5
				c0.2,0.5,0.3,1,0.2,1.5c-0.1,0.5-0.2,1-0.5,1.5c-0.3,0.5-0.7,1-1.1,1.5l-2.4,2.7c-0.5,0.5-1,1-1.4,1.5c-0.5,0.4-1,0.8-1.5,1
				c-0.5,0.2-1.1,0.3-1.7,0.2c-0.6-0.1-1.2-0.4-1.8-1c-0.5-0.4-0.9-0.8-1.2-1.3c-0.3-0.4-0.5-0.8-0.6-1.3c-0.1-0.4,0-0.9,0.1-1.3
				c0.2-0.5,0.4-1,0.9-1.5L56.4,21.9z M62.5,16.5c-0.2-0.2-0.4-0.3-0.6-0.2c-0.2,0-0.4,0.1-0.7,0.3c-0.2,0.2-0.4,0.3-0.6,0.5
				c-0.2,0.2-0.3,0.4-0.4,0.5c-0.1,0.2-0.3,0.3-0.5,0.5c-0.2,0.2-0.3,0.4-0.4,0.6c-0.1,0.2-0.1,0.4-0.1,0.6c0,0.2,0.1,0.4,0.3,0.6
				c0.2,0.2,0.4,0.3,0.6,0.3s0.4-0.1,0.6-0.2c0.2-0.1,0.3-0.3,0.5-0.4c0.2-0.2,0.3-0.3,0.4-0.5c0.1-0.2,0.3-0.3,0.5-0.5
				c0.2-0.2,0.4-0.4,0.5-0.6s0.2-0.5,0.2-0.7C62.8,16.9,62.7,16.7,62.5,16.5z"/>
		</g>
	</g>
	<rect x="61.7" y="34.3" transform="matrix(0.9807 -0.1955 0.1955 0.9807 -5.5508 14.3947)" class="st0" width="17" height="2"/>
	<rect x="8.8" y="26.8" transform="matrix(0.1955 -0.9807 0.9807 0.1955 -26.7209 38.0703)" class="st0" width="2" height="17"/>
	<path class="st0" d="M23.1,50.7l0-3.8c0,0,0,0,0,0L23.1,50.7C23.1,50.7,23.1,50.7,23.1,50.7z"/>
	<path class="st0" d="M42.4,59.5l3.8,0c0,0,0,0,0,0L42.4,59.5C42.4,59.5,42.4,59.5,42.4,59.5z"/>
	<path class="st0" d="M44.1,62.6l-10.8,0c-0.8,0-1.5,0.7-1.5,1.5c0,0.8,0.7,1.5,1.5,1.5l10.8,0c0.8,0,1.5-0.7,1.5-1.5
		C45.6,63.2,44.9,62.6,44.1,62.6z"/>
	<path class="st0" d="M44.1,67.5l-10.8,0c-0.8,0-1.5,0.7-1.5,1.5c0,0.8,0.7,1.5,1.5,1.5l10.8,0c0.8,0,1.5-0.7,1.5-1.5
		C45.6,68.2,44.9,67.5,44.1,67.5z"/>
	<path class="st0" d="M38.7,75c1.5,0,2.7-0.8,3.4-2l-6.8,0C36,74.2,37.3,75,38.7,75z"/>
	<path class="st0" d="M48.1,55.8c1.2-1.5,2.9-3.1,4.2-5.2c0.7-1.1,1.3-2.2,1.8-3.6c0.5-1.3,0.7-2.8,0.7-4.4
		c0-8.8-7.1-15.8-15.8-15.8c-8.8,0-15.8,7.1-15.8,15.8c0,2.5,0.6,4.6,1.6,6.4c1.4,2.7,3.4,4.7,4.8,6.4c0.7,0.9,1.3,1.6,1.7,2.3
		c0.4,0.7,0.6,1.2,0.6,1.8l3.8,0c0-0.9-0.2-1.8-0.5-2.5c-0.6-1.4-1.4-2.5-2.3-3.6c-1.4-1.6-2.9-3.2-4-4.9c-0.6-0.9-1-1.7-1.4-2.7
		c-0.3-1-0.5-2-0.5-3.2c0-3.3,1.3-6.4,3.5-8.5c2.2-2.2,5.2-3.5,8.5-3.5c3.3,0,6.4,1.3,8.5,3.5c2.2,2.2,3.5,5.2,3.5,8.5
		c0,1.8-0.4,3.3-1.1,4.7c-1,2.1-2.7,3.8-4.3,5.7c-0.8,0.9-1.6,1.9-2.2,2.9c-0.6,1.1-1,2.3-1,3.7l3.8,0c0-0.4,0.1-0.7,0.2-1.1
		C46.7,57.6,47.3,56.7,48.1,55.8z"/>
	<path class="st1" d="M46.4,35.2c-2-2-4.6-3.1-7.4-3.1c-2.8,0-5.4,1.1-7.4,3.1c-2,2-3.1,4.6-3.1,7.4c0,0.9,0.1,1.8,0.4,2.7
		c0.3,0.8,0.6,1.5,1.2,2.3c0.7,1.1,1.7,2.2,2.6,3.3c0.4,0.5,0.8,0.9,1.2,1.4c1,1.1,1.9,2.4,2.6,4c0.2,0.5,0.3,1,0.5,1.5l3.9,0
		c0.2-0.9,0.6-1.9,1.1-2.8c0.7-1.2,1.6-2.3,2.3-3.2l0.7-0.8c1.3-1.5,2.6-2.9,3.4-4.5c0.7-1.3,1-2.5,1-3.9
		C49.5,39.8,48.4,37.1,46.4,35.2z M39,35.7c-1.2,0.4-2.3,1.1-3.2,2c-0.5,0.6-1,1.2-1.4,1.8c-0.5,0.7-0.8,1.5-0.9,2.3
		c-0.1,0.5-0.2,1.1-0.2,1.7c0,0.7,0.1,1.3,0.3,1.9c0.2,0.6,0.5,1.2,0.9,1.9c0.3,0.4,0.6,0.8,0.9,1.2l-0.2,0.2c-0.9-1-1.7-2-2.3-2.9
		c-0.4-0.6-0.6-1.1-0.8-1.6c-0.2-0.5-0.3-1-0.3-1.6c0-1.9,0.7-3.7,2.1-5.1c1.4-1.4,3.2-2.1,5.1-2.1L39,35.7z"/>
</g>
</svg>
