<?xml version="1.0" encoding="utf-8"?>
<!-- Generator: Adobe Illustrator 16.0.3, SVG Export Plug-In . SVG Version: 6.00 Build 0)  -->
<!DOCTYPE svg PUBLIC "-//W3C//DTD SVG 1.1//EN" "http://www.w3.org/Graphics/SVG/1.1/DTD/svg11.dtd">
<svg version="1.1" id="レイヤー_1" xmlns="http://www.w3.org/2000/svg" xmlns:xlink="http://www.w3.org/1999/xlink" x="0px"
	 y="0px" width="47px" height="60px" viewBox="0 0 47 60" enable-background="new 0 0 47 60" xml:space="preserve">
<g>
	<g>
		<path fill="#FAC959" d="M23.585,14.092c-7.823,0-14.164,6.342-14.164,14.164c0,2.43,0.61,4.717,1.689,6.714
			c0.562,1.043,3.181,4.591,4.406,6.58c1.225,1.989,2.542,4.25,2.901,5.331h10.349c0.362-1.081,1.678-3.342,2.902-5.331
			c1.225-1.989,3.844-5.537,4.406-6.58c1.076-1.997,1.691-4.284,1.691-6.714c0-7.822-6.342-14.164-14.165-14.164"/>
		<path fill="#231815" d="M28.767,47.873H18.418c-0.426,0-0.806-0.273-0.94-0.68c-0.155-0.465-0.724-1.747-2.805-5.123
			c-0.592-0.961-1.549-2.341-2.394-3.559c-0.929-1.338-1.731-2.495-2.041-3.07c-1.183-2.189-1.808-4.674-1.808-7.186
			c0-8.356,6.798-15.155,15.155-15.155c0.005,0,0.012,0,0.017,0c8.356,0,15.155,6.798,15.155,15.155
			c0,2.506-0.625,4.991-1.809,7.186c-0.312,0.576-1.113,1.73-2.041,3.069c-0.846,1.217-1.803,2.598-2.395,3.56
			c-2.079,3.376-2.649,4.658-2.805,5.125C29.574,47.6,29.194,47.873,28.767,47.873z M19.087,45.891h9.011
			c0.475-1.06,1.389-2.69,2.727-4.861c0.619-1.006,1.594-2.411,2.453-3.65c0.82-1.181,1.666-2.402,1.924-2.879
			c1.027-1.907,1.572-4.066,1.572-6.245c0-7.263-5.91-13.172-13.172-13.172c-0.005,0-0.011,0-0.017,0
			c-7.264,0-13.173,5.91-13.173,13.172c0,2.184,0.543,4.342,1.571,6.243c0.257,0.479,1.104,1.701,1.925,2.883
			c0.859,1.238,1.833,2.641,2.453,3.647C17.699,43.201,18.612,44.831,19.087,45.891z"/>
	</g>
	<g>
		<path fill="#231815" d="M27.34,36.291c-0.122,0-0.247-0.034-0.357-0.104c-0.308-0.199-0.396-0.607-0.198-0.914
			c0.018-0.027,1.721-2.691,2.27-4.955c0.383-1.578,0.266-3.402-1.208-3.786c-0.308-0.08-0.602-0.075-0.882,0.016
			c0.596,0.969,0.746,2.168,0.509,3.176c-0.282,1.203-1.091,1.923-2.07,1.824c-0.628-0.061-1.127-0.451-1.37-1.069
			c-0.441-1.125-0.025-2.878,0.948-4.063c-0.108-0.062-0.225-0.118-0.351-0.166c-0.032-0.014-0.461-0.196-0.952-0.196h-0.155
			c-0.483,0.017-0.868,0.18-0.871,0.182c-0.148,0.057-0.285,0.123-0.411,0.199c0.962,1.185,1.371,2.925,0.932,4.042
			c-0.243,0.62-0.743,1.009-1.372,1.07c-0.975,0.097-1.77-0.612-2.05-1.798c-0.238-1.012-0.084-2.215,0.521-3.192
			c-0.289-0.099-0.594-0.108-0.913-0.026c-1.475,0.384-1.592,2.208-1.209,3.786c0.549,2.264,2.253,4.928,2.271,4.955
			c0.197,0.307,0.108,0.715-0.198,0.914c-0.308,0.196-0.715,0.108-0.913-0.199c-0.075-0.116-1.842-2.875-2.443-5.359
			c-0.667-2.75,0.182-4.86,2.161-5.375c0.764-0.199,1.51-0.098,2.176,0.281c0.275-0.208,0.588-0.383,0.94-0.518
			c0.027-0.014,0.59-0.258,1.355-0.284h0.178c0.763,0,1.389,0.266,1.458,0.295c0.332,0.128,0.631,0.294,0.895,0.49
			c0.658-0.366,1.395-0.462,2.148-0.266c1.979,0.515,2.825,2.625,2.159,5.375c-0.601,2.485-2.367,5.243-2.443,5.359
			C27.77,36.184,27.557,36.291,27.34,36.291z M21.323,27.408c-0.363,0.678-0.418,1.468-0.284,2.038
			c0.032,0.14,0.218,0.817,0.635,0.786c0.092-0.009,0.189-0.035,0.27-0.237C22.167,29.425,21.941,28.261,21.323,27.408z
			 M25.904,27.378c-0.635,0.857-0.868,2.041-0.643,2.616c0.08,0.203,0.177,0.228,0.269,0.237c0.449,0.035,0.637-0.724,0.656-0.812
			C26.321,28.847,26.265,28.052,25.904,27.378z"/>
	</g>
	<g>
		<path fill="#B4B4B5" d="M29.067,46.875c0,0,0.078,7.086-0.547,8.695c-0.626,1.605-3.037,3.336-4.553,3.336h-0.789
			c-1.62,0-3.928-1.73-4.554-3.336c-0.624-1.609-0.546-8.695-0.546-8.695H29.067z"/>
		<path fill="#231815" d="M23.967,59.896h-0.789c-1.984,0-4.698-1.965-5.478-3.969c-0.661-1.699-0.627-7.848-0.614-9.063
			c0.005-0.543,0.448-0.981,0.991-0.981h10.989c0.543,0,0.985,0.438,0.99,0.981c0.015,1.215,0.049,7.363-0.613,9.063
			C28.679,57.895,25.913,59.896,23.967,59.896z M19.064,47.867c0.003,2.691,0.126,6.42,0.484,7.344
			c0.483,1.238,2.45,2.703,3.63,2.703h0.789c1.04,0,3.131-1.424,3.631-2.705c0.357-0.922,0.479-4.65,0.482-7.342H19.064z"/>
	</g>
	<g>
		<path fill="#231815" d="M28.953,51.213H18.207c-0.365,0-0.661-0.295-0.661-0.66c0-0.363,0.295-0.66,0.661-0.66h10.746
			c0.365,0,0.661,0.297,0.661,0.66C29.614,50.918,29.318,51.213,28.953,51.213z"/>
	</g>
	<g>
		<path fill="#231815" d="M28.82,54.449h-10.5c-0.365,0-0.661-0.295-0.661-0.66s0.296-0.662,0.661-0.662h10.5
			c0.365,0,0.661,0.297,0.661,0.662S29.186,54.449,28.82,54.449z"/>
	</g>
</g>
<g>
	<path fill="#231815" d="M37.402,17.984c-0.2-0.102-0.368-0.272-0.463-0.495c-0.215-0.504,0.019-1.086,0.522-1.301l6.583-2.812
		c0.503-0.215,1.085,0.018,1.301,0.522c0.215,0.503-0.02,1.085-0.522,1.301l-6.583,2.812C37.96,18.131,37.654,18.111,37.402,17.984z
		"/>
</g>
<g>
	<path fill="#231815" d="M9.598,17.984c0.2-0.102,0.368-0.272,0.463-0.495c0.215-0.504-0.018-1.086-0.522-1.301l-6.583-2.812
		c-0.502-0.215-1.084,0.018-1.301,0.522C1.44,14.402,1.674,14.984,2.177,15.2l6.583,2.812C9.041,18.131,9.346,18.111,9.598,17.984z"
		/>
</g>
<g>
	<g>
		<path fill="#231815" d="M11.332,13.042L6.162,7.05l1.704-1.41c0.118-0.118,0.294-0.235,0.47-0.353
			C8.512,5.17,8.688,5.052,8.865,4.935C9.041,4.817,9.217,4.759,9.452,4.7c0.176-0.059,0.411-0.059,0.588-0.059
			c0.352,0.059,0.587,0.176,0.822,0.353c0.234,0.176,0.47,0.411,0.646,0.646c0.117,0.176,0.293,0.352,0.41,0.528
			c0.118,0.176,0.235,0.412,0.295,0.588c0.059,0.176,0.117,0.411,0.117,0.646s-0.059,0.411-0.117,0.646
			c-0.06,0.176-0.177,0.293-0.295,0.47c-0.117,0.118-0.234,0.294-0.352,0.411c-0.117,0.118-0.235,0.235-0.412,0.353
			c-0.117,0.118-0.293,0.235-0.41,0.353l1.997,2.35L11.332,13.042z M9.805,8.401c0.117-0.118,0.235-0.235,0.411-0.353
			c0.117-0.118,0.234-0.294,0.234-0.47c0-0.118,0-0.294-0.117-0.411c-0.059-0.118-0.176-0.235-0.234-0.353
			C10.04,6.756,9.981,6.697,9.922,6.639C9.863,6.58,9.805,6.521,9.687,6.462C9.628,6.404,9.511,6.404,9.452,6.345
			c-0.059,0-0.176,0-0.235,0C9.1,6.404,9.041,6.462,8.923,6.521C8.806,6.58,8.747,6.697,8.629,6.756L8.453,6.874L9.805,8.401z"/>
		<path fill="#231815" d="M17.853,5.992c0.177,0.412,0.295,0.764,0.354,1.117c0.059,0.352,0.059,0.646-0.059,0.94
			c-0.118,0.293-0.235,0.529-0.471,0.764c-0.234,0.235-0.588,0.47-0.998,0.646c-0.412,0.176-0.822,0.294-1.176,0.294
			c-0.352,0-0.646,0-0.939-0.176C14.27,9.458,14.034,9.224,13.8,8.989c-0.235-0.294-0.412-0.646-0.588-0.999l-1.293-2.938
			c-0.293-0.646-0.293-1.292-0.059-1.821c0.235-0.528,0.705-0.999,1.469-1.292c0.764-0.353,1.41-0.411,1.939-0.176
			c0.528,0.176,0.998,0.646,1.292,1.352L17.853,5.992z M14.915,3.936c-0.059-0.117-0.117-0.235-0.176-0.353
			c-0.059-0.117-0.117-0.176-0.234-0.293c-0.059-0.059-0.177-0.118-0.294-0.176c-0.118,0-0.235,0-0.353,0.059
			s-0.235,0.118-0.294,0.235c-0.059,0.118-0.059,0.176-0.059,0.294s0,0.235,0.059,0.353s0.059,0.235,0.118,0.353l1.292,2.996
			c0.059,0.118,0.117,0.235,0.177,0.353c0.059,0.118,0.117,0.235,0.234,0.294c0.059,0.059,0.176,0.117,0.294,0.176
			c0.117,0.059,0.235,0,0.353-0.059c0.117-0.059,0.234-0.117,0.293-0.235s0.059-0.235,0.059-0.353s-0.059-0.235-0.059-0.353
			c-0.059-0.117-0.117-0.235-0.117-0.353L14.915,3.936z"/>
		<path fill="#231815" d="M19.439,8.401l-1.41-7.814l1.821-0.353l1.41,7.814L19.439,8.401z"/>
		<path fill="#231815" d="M24.374,3.701L24.374,3.701l-0.47,4.406l-1.763-0.235L23.259,0l1.879,0.293l0.764,4.583h0.06l0.47-4.406
			l1.763,0.235l-1.116,7.873l-1.881-0.294L24.374,3.701z"/>
		<path fill="#231815" d="M30.544,1.41l4.406,1.998l-0.646,1.469L32.952,4.23l-2.645,5.757l-1.703-0.764l2.644-5.757l-1.351-0.588
			L30.544,1.41z"/>
		<path fill="#231815" d="M34.597,6.58l0.294-0.294c0.528-0.587,1.058-0.881,1.646-0.94c0.587-0.059,1.175,0.176,1.762,0.764
			c0.529,0.47,0.822,0.999,0.882,1.527c0.059,0.529-0.177,1.058-0.646,1.645c-0.177,0.176-0.353,0.353-0.47,0.47
			c-0.176,0.118-0.353,0.235-0.529,0.294c-0.176,0.059-0.352,0.117-0.588,0.176c-0.176,0.059-0.41,0.059-0.646,0.118h-0.94
			c-0.117,0-0.234,0-0.352,0c-0.177,0-0.295,0-0.471,0.059c-0.176,0-0.353,0.059-0.47,0.118c-0.177,0.059-0.294,0.118-0.353,0.176
			l2.057,1.821l-0.999,0.999l-3.525-3.172l0.177-0.176c0.234-0.235,0.47-0.47,0.764-0.587c0.293-0.176,0.588-0.294,0.881-0.411
			c0.294-0.118,0.588-0.176,0.939-0.235c0.295-0.059,0.646-0.117,0.941-0.117l1.174-0.118c0.295-0.059,0.529-0.117,0.705-0.176
			c0.177-0.117,0.354-0.235,0.588-0.47c0.059-0.059,0.117-0.176,0.176-0.235c0.059-0.117,0.059-0.176,0.059-0.293
			c0-0.118,0-0.176-0.059-0.294c-0.059-0.059-0.117-0.176-0.176-0.235c-0.117-0.118-0.234-0.118-0.353-0.118
			s-0.235,0.059-0.353,0.118s-0.234,0.118-0.293,0.235c-0.118,0.118-0.177,0.176-0.236,0.235l-0.234,0.294L34.597,6.58z"/>
	</g>
</g>
</svg>
